G75*
%MOIN*%
%OFA0B0*%
%FSLAX25Y25*%
%IPPOS*%
%LPD*%
%AMOC8*
5,1,8,0,0,1.08239X$1,22.5*
%
%ADD10C,0.00100*%
%ADD11C,0.01600*%
%ADD12C,0.05200*%
%ADD13C,0.04400*%
%ADD14OC8,0.05200*%
%ADD15C,0.17000*%
%ADD16C,0.05200*%
%ADD17C,0.07400*%
%ADD18C,0.07874*%
%ADD19C,0.08268*%
%ADD20R,0.09500X0.09500*%
%ADD21C,0.09500*%
%ADD22R,0.07400X0.07400*%
%ADD23R,0.03562X0.03562*%
D10*
X0027500Y0019503D02*
X0027502Y0019687D01*
X0027509Y0019871D01*
X0027520Y0020055D01*
X0027536Y0020238D01*
X0027556Y0020421D01*
X0027581Y0020603D01*
X0027610Y0020785D01*
X0027644Y0020966D01*
X0027682Y0021146D01*
X0027725Y0021325D01*
X0027772Y0021503D01*
X0027823Y0021680D01*
X0027879Y0021856D01*
X0027938Y0022030D01*
X0028003Y0022202D01*
X0028071Y0022373D01*
X0028143Y0022542D01*
X0028220Y0022710D01*
X0028301Y0022875D01*
X0028386Y0023038D01*
X0028474Y0023200D01*
X0028567Y0023359D01*
X0028664Y0023515D01*
X0028764Y0023670D01*
X0028868Y0023822D01*
X0028976Y0023971D01*
X0029087Y0024117D01*
X0029202Y0024261D01*
X0029321Y0024402D01*
X0029443Y0024540D01*
X0029568Y0024675D01*
X0029697Y0024806D01*
X0029828Y0024935D01*
X0029963Y0025060D01*
X0030101Y0025182D01*
X0030242Y0025301D01*
X0030386Y0025416D01*
X0030532Y0025527D01*
X0030681Y0025635D01*
X0030833Y0025739D01*
X0030988Y0025839D01*
X0031144Y0025936D01*
X0031303Y0026029D01*
X0031465Y0026117D01*
X0031628Y0026202D01*
X0031793Y0026283D01*
X0031961Y0026360D01*
X0032130Y0026432D01*
X0032301Y0026500D01*
X0032473Y0026565D01*
X0032647Y0026624D01*
X0032823Y0026680D01*
X0033000Y0026731D01*
X0033178Y0026778D01*
X0033357Y0026821D01*
X0033537Y0026859D01*
X0033718Y0026893D01*
X0033900Y0026922D01*
X0034082Y0026947D01*
X0034265Y0026967D01*
X0034448Y0026983D01*
X0034632Y0026994D01*
X0034816Y0027001D01*
X0035000Y0027003D01*
X0035184Y0027001D01*
X0035368Y0026994D01*
X0035552Y0026983D01*
X0035735Y0026967D01*
X0035918Y0026947D01*
X0036100Y0026922D01*
X0036282Y0026893D01*
X0036463Y0026859D01*
X0036643Y0026821D01*
X0036822Y0026778D01*
X0037000Y0026731D01*
X0037177Y0026680D01*
X0037353Y0026624D01*
X0037527Y0026565D01*
X0037699Y0026500D01*
X0037870Y0026432D01*
X0038039Y0026360D01*
X0038207Y0026283D01*
X0038372Y0026202D01*
X0038535Y0026117D01*
X0038697Y0026029D01*
X0038856Y0025936D01*
X0039012Y0025839D01*
X0039167Y0025739D01*
X0039319Y0025635D01*
X0039468Y0025527D01*
X0039614Y0025416D01*
X0039758Y0025301D01*
X0039899Y0025182D01*
X0040037Y0025060D01*
X0040172Y0024935D01*
X0040303Y0024806D01*
X0040432Y0024675D01*
X0040557Y0024540D01*
X0040679Y0024402D01*
X0040798Y0024261D01*
X0040913Y0024117D01*
X0041024Y0023971D01*
X0041132Y0023822D01*
X0041236Y0023670D01*
X0041336Y0023515D01*
X0041433Y0023359D01*
X0041526Y0023200D01*
X0041614Y0023038D01*
X0041699Y0022875D01*
X0041780Y0022710D01*
X0041857Y0022542D01*
X0041929Y0022373D01*
X0041997Y0022202D01*
X0042062Y0022030D01*
X0042121Y0021856D01*
X0042177Y0021680D01*
X0042228Y0021503D01*
X0042275Y0021325D01*
X0042318Y0021146D01*
X0042356Y0020966D01*
X0042390Y0020785D01*
X0042419Y0020603D01*
X0042444Y0020421D01*
X0042464Y0020238D01*
X0042480Y0020055D01*
X0042491Y0019871D01*
X0042498Y0019687D01*
X0042500Y0019503D01*
X0042498Y0019319D01*
X0042491Y0019135D01*
X0042480Y0018951D01*
X0042464Y0018768D01*
X0042444Y0018585D01*
X0042419Y0018403D01*
X0042390Y0018221D01*
X0042356Y0018040D01*
X0042318Y0017860D01*
X0042275Y0017681D01*
X0042228Y0017503D01*
X0042177Y0017326D01*
X0042121Y0017150D01*
X0042062Y0016976D01*
X0041997Y0016804D01*
X0041929Y0016633D01*
X0041857Y0016464D01*
X0041780Y0016296D01*
X0041699Y0016131D01*
X0041614Y0015968D01*
X0041526Y0015806D01*
X0041433Y0015647D01*
X0041336Y0015491D01*
X0041236Y0015336D01*
X0041132Y0015184D01*
X0041024Y0015035D01*
X0040913Y0014889D01*
X0040798Y0014745D01*
X0040679Y0014604D01*
X0040557Y0014466D01*
X0040432Y0014331D01*
X0040303Y0014200D01*
X0040172Y0014071D01*
X0040037Y0013946D01*
X0039899Y0013824D01*
X0039758Y0013705D01*
X0039614Y0013590D01*
X0039468Y0013479D01*
X0039319Y0013371D01*
X0039167Y0013267D01*
X0039012Y0013167D01*
X0038856Y0013070D01*
X0038697Y0012977D01*
X0038535Y0012889D01*
X0038372Y0012804D01*
X0038207Y0012723D01*
X0038039Y0012646D01*
X0037870Y0012574D01*
X0037699Y0012506D01*
X0037527Y0012441D01*
X0037353Y0012382D01*
X0037177Y0012326D01*
X0037000Y0012275D01*
X0036822Y0012228D01*
X0036643Y0012185D01*
X0036463Y0012147D01*
X0036282Y0012113D01*
X0036100Y0012084D01*
X0035918Y0012059D01*
X0035735Y0012039D01*
X0035552Y0012023D01*
X0035368Y0012012D01*
X0035184Y0012005D01*
X0035000Y0012003D01*
X0034816Y0012005D01*
X0034632Y0012012D01*
X0034448Y0012023D01*
X0034265Y0012039D01*
X0034082Y0012059D01*
X0033900Y0012084D01*
X0033718Y0012113D01*
X0033537Y0012147D01*
X0033357Y0012185D01*
X0033178Y0012228D01*
X0033000Y0012275D01*
X0032823Y0012326D01*
X0032647Y0012382D01*
X0032473Y0012441D01*
X0032301Y0012506D01*
X0032130Y0012574D01*
X0031961Y0012646D01*
X0031793Y0012723D01*
X0031628Y0012804D01*
X0031465Y0012889D01*
X0031303Y0012977D01*
X0031144Y0013070D01*
X0030988Y0013167D01*
X0030833Y0013267D01*
X0030681Y0013371D01*
X0030532Y0013479D01*
X0030386Y0013590D01*
X0030242Y0013705D01*
X0030101Y0013824D01*
X0029963Y0013946D01*
X0029828Y0014071D01*
X0029697Y0014200D01*
X0029568Y0014331D01*
X0029443Y0014466D01*
X0029321Y0014604D01*
X0029202Y0014745D01*
X0029087Y0014889D01*
X0028976Y0015035D01*
X0028868Y0015184D01*
X0028764Y0015336D01*
X0028664Y0015491D01*
X0028567Y0015647D01*
X0028474Y0015806D01*
X0028386Y0015968D01*
X0028301Y0016131D01*
X0028220Y0016296D01*
X0028143Y0016464D01*
X0028071Y0016633D01*
X0028003Y0016804D01*
X0027938Y0016976D01*
X0027879Y0017150D01*
X0027823Y0017326D01*
X0027772Y0017503D01*
X0027725Y0017681D01*
X0027682Y0017860D01*
X0027644Y0018040D01*
X0027610Y0018221D01*
X0027581Y0018403D01*
X0027556Y0018585D01*
X0027536Y0018768D01*
X0027520Y0018951D01*
X0027509Y0019135D01*
X0027502Y0019319D01*
X0027500Y0019503D01*
X0027500Y0219503D02*
X0027502Y0219687D01*
X0027509Y0219871D01*
X0027520Y0220055D01*
X0027536Y0220238D01*
X0027556Y0220421D01*
X0027581Y0220603D01*
X0027610Y0220785D01*
X0027644Y0220966D01*
X0027682Y0221146D01*
X0027725Y0221325D01*
X0027772Y0221503D01*
X0027823Y0221680D01*
X0027879Y0221856D01*
X0027938Y0222030D01*
X0028003Y0222202D01*
X0028071Y0222373D01*
X0028143Y0222542D01*
X0028220Y0222710D01*
X0028301Y0222875D01*
X0028386Y0223038D01*
X0028474Y0223200D01*
X0028567Y0223359D01*
X0028664Y0223515D01*
X0028764Y0223670D01*
X0028868Y0223822D01*
X0028976Y0223971D01*
X0029087Y0224117D01*
X0029202Y0224261D01*
X0029321Y0224402D01*
X0029443Y0224540D01*
X0029568Y0224675D01*
X0029697Y0224806D01*
X0029828Y0224935D01*
X0029963Y0225060D01*
X0030101Y0225182D01*
X0030242Y0225301D01*
X0030386Y0225416D01*
X0030532Y0225527D01*
X0030681Y0225635D01*
X0030833Y0225739D01*
X0030988Y0225839D01*
X0031144Y0225936D01*
X0031303Y0226029D01*
X0031465Y0226117D01*
X0031628Y0226202D01*
X0031793Y0226283D01*
X0031961Y0226360D01*
X0032130Y0226432D01*
X0032301Y0226500D01*
X0032473Y0226565D01*
X0032647Y0226624D01*
X0032823Y0226680D01*
X0033000Y0226731D01*
X0033178Y0226778D01*
X0033357Y0226821D01*
X0033537Y0226859D01*
X0033718Y0226893D01*
X0033900Y0226922D01*
X0034082Y0226947D01*
X0034265Y0226967D01*
X0034448Y0226983D01*
X0034632Y0226994D01*
X0034816Y0227001D01*
X0035000Y0227003D01*
X0035184Y0227001D01*
X0035368Y0226994D01*
X0035552Y0226983D01*
X0035735Y0226967D01*
X0035918Y0226947D01*
X0036100Y0226922D01*
X0036282Y0226893D01*
X0036463Y0226859D01*
X0036643Y0226821D01*
X0036822Y0226778D01*
X0037000Y0226731D01*
X0037177Y0226680D01*
X0037353Y0226624D01*
X0037527Y0226565D01*
X0037699Y0226500D01*
X0037870Y0226432D01*
X0038039Y0226360D01*
X0038207Y0226283D01*
X0038372Y0226202D01*
X0038535Y0226117D01*
X0038697Y0226029D01*
X0038856Y0225936D01*
X0039012Y0225839D01*
X0039167Y0225739D01*
X0039319Y0225635D01*
X0039468Y0225527D01*
X0039614Y0225416D01*
X0039758Y0225301D01*
X0039899Y0225182D01*
X0040037Y0225060D01*
X0040172Y0224935D01*
X0040303Y0224806D01*
X0040432Y0224675D01*
X0040557Y0224540D01*
X0040679Y0224402D01*
X0040798Y0224261D01*
X0040913Y0224117D01*
X0041024Y0223971D01*
X0041132Y0223822D01*
X0041236Y0223670D01*
X0041336Y0223515D01*
X0041433Y0223359D01*
X0041526Y0223200D01*
X0041614Y0223038D01*
X0041699Y0222875D01*
X0041780Y0222710D01*
X0041857Y0222542D01*
X0041929Y0222373D01*
X0041997Y0222202D01*
X0042062Y0222030D01*
X0042121Y0221856D01*
X0042177Y0221680D01*
X0042228Y0221503D01*
X0042275Y0221325D01*
X0042318Y0221146D01*
X0042356Y0220966D01*
X0042390Y0220785D01*
X0042419Y0220603D01*
X0042444Y0220421D01*
X0042464Y0220238D01*
X0042480Y0220055D01*
X0042491Y0219871D01*
X0042498Y0219687D01*
X0042500Y0219503D01*
X0042498Y0219319D01*
X0042491Y0219135D01*
X0042480Y0218951D01*
X0042464Y0218768D01*
X0042444Y0218585D01*
X0042419Y0218403D01*
X0042390Y0218221D01*
X0042356Y0218040D01*
X0042318Y0217860D01*
X0042275Y0217681D01*
X0042228Y0217503D01*
X0042177Y0217326D01*
X0042121Y0217150D01*
X0042062Y0216976D01*
X0041997Y0216804D01*
X0041929Y0216633D01*
X0041857Y0216464D01*
X0041780Y0216296D01*
X0041699Y0216131D01*
X0041614Y0215968D01*
X0041526Y0215806D01*
X0041433Y0215647D01*
X0041336Y0215491D01*
X0041236Y0215336D01*
X0041132Y0215184D01*
X0041024Y0215035D01*
X0040913Y0214889D01*
X0040798Y0214745D01*
X0040679Y0214604D01*
X0040557Y0214466D01*
X0040432Y0214331D01*
X0040303Y0214200D01*
X0040172Y0214071D01*
X0040037Y0213946D01*
X0039899Y0213824D01*
X0039758Y0213705D01*
X0039614Y0213590D01*
X0039468Y0213479D01*
X0039319Y0213371D01*
X0039167Y0213267D01*
X0039012Y0213167D01*
X0038856Y0213070D01*
X0038697Y0212977D01*
X0038535Y0212889D01*
X0038372Y0212804D01*
X0038207Y0212723D01*
X0038039Y0212646D01*
X0037870Y0212574D01*
X0037699Y0212506D01*
X0037527Y0212441D01*
X0037353Y0212382D01*
X0037177Y0212326D01*
X0037000Y0212275D01*
X0036822Y0212228D01*
X0036643Y0212185D01*
X0036463Y0212147D01*
X0036282Y0212113D01*
X0036100Y0212084D01*
X0035918Y0212059D01*
X0035735Y0212039D01*
X0035552Y0212023D01*
X0035368Y0212012D01*
X0035184Y0212005D01*
X0035000Y0212003D01*
X0034816Y0212005D01*
X0034632Y0212012D01*
X0034448Y0212023D01*
X0034265Y0212039D01*
X0034082Y0212059D01*
X0033900Y0212084D01*
X0033718Y0212113D01*
X0033537Y0212147D01*
X0033357Y0212185D01*
X0033178Y0212228D01*
X0033000Y0212275D01*
X0032823Y0212326D01*
X0032647Y0212382D01*
X0032473Y0212441D01*
X0032301Y0212506D01*
X0032130Y0212574D01*
X0031961Y0212646D01*
X0031793Y0212723D01*
X0031628Y0212804D01*
X0031465Y0212889D01*
X0031303Y0212977D01*
X0031144Y0213070D01*
X0030988Y0213167D01*
X0030833Y0213267D01*
X0030681Y0213371D01*
X0030532Y0213479D01*
X0030386Y0213590D01*
X0030242Y0213705D01*
X0030101Y0213824D01*
X0029963Y0213946D01*
X0029828Y0214071D01*
X0029697Y0214200D01*
X0029568Y0214331D01*
X0029443Y0214466D01*
X0029321Y0214604D01*
X0029202Y0214745D01*
X0029087Y0214889D01*
X0028976Y0215035D01*
X0028868Y0215184D01*
X0028764Y0215336D01*
X0028664Y0215491D01*
X0028567Y0215647D01*
X0028474Y0215806D01*
X0028386Y0215968D01*
X0028301Y0216131D01*
X0028220Y0216296D01*
X0028143Y0216464D01*
X0028071Y0216633D01*
X0028003Y0216804D01*
X0027938Y0216976D01*
X0027879Y0217150D01*
X0027823Y0217326D01*
X0027772Y0217503D01*
X0027725Y0217681D01*
X0027682Y0217860D01*
X0027644Y0218040D01*
X0027610Y0218221D01*
X0027581Y0218403D01*
X0027556Y0218585D01*
X0027536Y0218768D01*
X0027520Y0218951D01*
X0027509Y0219135D01*
X0027502Y0219319D01*
X0027500Y0219503D01*
X0342500Y0219503D02*
X0342502Y0219687D01*
X0342509Y0219871D01*
X0342520Y0220055D01*
X0342536Y0220238D01*
X0342556Y0220421D01*
X0342581Y0220603D01*
X0342610Y0220785D01*
X0342644Y0220966D01*
X0342682Y0221146D01*
X0342725Y0221325D01*
X0342772Y0221503D01*
X0342823Y0221680D01*
X0342879Y0221856D01*
X0342938Y0222030D01*
X0343003Y0222202D01*
X0343071Y0222373D01*
X0343143Y0222542D01*
X0343220Y0222710D01*
X0343301Y0222875D01*
X0343386Y0223038D01*
X0343474Y0223200D01*
X0343567Y0223359D01*
X0343664Y0223515D01*
X0343764Y0223670D01*
X0343868Y0223822D01*
X0343976Y0223971D01*
X0344087Y0224117D01*
X0344202Y0224261D01*
X0344321Y0224402D01*
X0344443Y0224540D01*
X0344568Y0224675D01*
X0344697Y0224806D01*
X0344828Y0224935D01*
X0344963Y0225060D01*
X0345101Y0225182D01*
X0345242Y0225301D01*
X0345386Y0225416D01*
X0345532Y0225527D01*
X0345681Y0225635D01*
X0345833Y0225739D01*
X0345988Y0225839D01*
X0346144Y0225936D01*
X0346303Y0226029D01*
X0346465Y0226117D01*
X0346628Y0226202D01*
X0346793Y0226283D01*
X0346961Y0226360D01*
X0347130Y0226432D01*
X0347301Y0226500D01*
X0347473Y0226565D01*
X0347647Y0226624D01*
X0347823Y0226680D01*
X0348000Y0226731D01*
X0348178Y0226778D01*
X0348357Y0226821D01*
X0348537Y0226859D01*
X0348718Y0226893D01*
X0348900Y0226922D01*
X0349082Y0226947D01*
X0349265Y0226967D01*
X0349448Y0226983D01*
X0349632Y0226994D01*
X0349816Y0227001D01*
X0350000Y0227003D01*
X0350184Y0227001D01*
X0350368Y0226994D01*
X0350552Y0226983D01*
X0350735Y0226967D01*
X0350918Y0226947D01*
X0351100Y0226922D01*
X0351282Y0226893D01*
X0351463Y0226859D01*
X0351643Y0226821D01*
X0351822Y0226778D01*
X0352000Y0226731D01*
X0352177Y0226680D01*
X0352353Y0226624D01*
X0352527Y0226565D01*
X0352699Y0226500D01*
X0352870Y0226432D01*
X0353039Y0226360D01*
X0353207Y0226283D01*
X0353372Y0226202D01*
X0353535Y0226117D01*
X0353697Y0226029D01*
X0353856Y0225936D01*
X0354012Y0225839D01*
X0354167Y0225739D01*
X0354319Y0225635D01*
X0354468Y0225527D01*
X0354614Y0225416D01*
X0354758Y0225301D01*
X0354899Y0225182D01*
X0355037Y0225060D01*
X0355172Y0224935D01*
X0355303Y0224806D01*
X0355432Y0224675D01*
X0355557Y0224540D01*
X0355679Y0224402D01*
X0355798Y0224261D01*
X0355913Y0224117D01*
X0356024Y0223971D01*
X0356132Y0223822D01*
X0356236Y0223670D01*
X0356336Y0223515D01*
X0356433Y0223359D01*
X0356526Y0223200D01*
X0356614Y0223038D01*
X0356699Y0222875D01*
X0356780Y0222710D01*
X0356857Y0222542D01*
X0356929Y0222373D01*
X0356997Y0222202D01*
X0357062Y0222030D01*
X0357121Y0221856D01*
X0357177Y0221680D01*
X0357228Y0221503D01*
X0357275Y0221325D01*
X0357318Y0221146D01*
X0357356Y0220966D01*
X0357390Y0220785D01*
X0357419Y0220603D01*
X0357444Y0220421D01*
X0357464Y0220238D01*
X0357480Y0220055D01*
X0357491Y0219871D01*
X0357498Y0219687D01*
X0357500Y0219503D01*
X0357498Y0219319D01*
X0357491Y0219135D01*
X0357480Y0218951D01*
X0357464Y0218768D01*
X0357444Y0218585D01*
X0357419Y0218403D01*
X0357390Y0218221D01*
X0357356Y0218040D01*
X0357318Y0217860D01*
X0357275Y0217681D01*
X0357228Y0217503D01*
X0357177Y0217326D01*
X0357121Y0217150D01*
X0357062Y0216976D01*
X0356997Y0216804D01*
X0356929Y0216633D01*
X0356857Y0216464D01*
X0356780Y0216296D01*
X0356699Y0216131D01*
X0356614Y0215968D01*
X0356526Y0215806D01*
X0356433Y0215647D01*
X0356336Y0215491D01*
X0356236Y0215336D01*
X0356132Y0215184D01*
X0356024Y0215035D01*
X0355913Y0214889D01*
X0355798Y0214745D01*
X0355679Y0214604D01*
X0355557Y0214466D01*
X0355432Y0214331D01*
X0355303Y0214200D01*
X0355172Y0214071D01*
X0355037Y0213946D01*
X0354899Y0213824D01*
X0354758Y0213705D01*
X0354614Y0213590D01*
X0354468Y0213479D01*
X0354319Y0213371D01*
X0354167Y0213267D01*
X0354012Y0213167D01*
X0353856Y0213070D01*
X0353697Y0212977D01*
X0353535Y0212889D01*
X0353372Y0212804D01*
X0353207Y0212723D01*
X0353039Y0212646D01*
X0352870Y0212574D01*
X0352699Y0212506D01*
X0352527Y0212441D01*
X0352353Y0212382D01*
X0352177Y0212326D01*
X0352000Y0212275D01*
X0351822Y0212228D01*
X0351643Y0212185D01*
X0351463Y0212147D01*
X0351282Y0212113D01*
X0351100Y0212084D01*
X0350918Y0212059D01*
X0350735Y0212039D01*
X0350552Y0212023D01*
X0350368Y0212012D01*
X0350184Y0212005D01*
X0350000Y0212003D01*
X0349816Y0212005D01*
X0349632Y0212012D01*
X0349448Y0212023D01*
X0349265Y0212039D01*
X0349082Y0212059D01*
X0348900Y0212084D01*
X0348718Y0212113D01*
X0348537Y0212147D01*
X0348357Y0212185D01*
X0348178Y0212228D01*
X0348000Y0212275D01*
X0347823Y0212326D01*
X0347647Y0212382D01*
X0347473Y0212441D01*
X0347301Y0212506D01*
X0347130Y0212574D01*
X0346961Y0212646D01*
X0346793Y0212723D01*
X0346628Y0212804D01*
X0346465Y0212889D01*
X0346303Y0212977D01*
X0346144Y0213070D01*
X0345988Y0213167D01*
X0345833Y0213267D01*
X0345681Y0213371D01*
X0345532Y0213479D01*
X0345386Y0213590D01*
X0345242Y0213705D01*
X0345101Y0213824D01*
X0344963Y0213946D01*
X0344828Y0214071D01*
X0344697Y0214200D01*
X0344568Y0214331D01*
X0344443Y0214466D01*
X0344321Y0214604D01*
X0344202Y0214745D01*
X0344087Y0214889D01*
X0343976Y0215035D01*
X0343868Y0215184D01*
X0343764Y0215336D01*
X0343664Y0215491D01*
X0343567Y0215647D01*
X0343474Y0215806D01*
X0343386Y0215968D01*
X0343301Y0216131D01*
X0343220Y0216296D01*
X0343143Y0216464D01*
X0343071Y0216633D01*
X0343003Y0216804D01*
X0342938Y0216976D01*
X0342879Y0217150D01*
X0342823Y0217326D01*
X0342772Y0217503D01*
X0342725Y0217681D01*
X0342682Y0217860D01*
X0342644Y0218040D01*
X0342610Y0218221D01*
X0342581Y0218403D01*
X0342556Y0218585D01*
X0342536Y0218768D01*
X0342520Y0218951D01*
X0342509Y0219135D01*
X0342502Y0219319D01*
X0342500Y0219503D01*
X0342500Y0019503D02*
X0342502Y0019687D01*
X0342509Y0019871D01*
X0342520Y0020055D01*
X0342536Y0020238D01*
X0342556Y0020421D01*
X0342581Y0020603D01*
X0342610Y0020785D01*
X0342644Y0020966D01*
X0342682Y0021146D01*
X0342725Y0021325D01*
X0342772Y0021503D01*
X0342823Y0021680D01*
X0342879Y0021856D01*
X0342938Y0022030D01*
X0343003Y0022202D01*
X0343071Y0022373D01*
X0343143Y0022542D01*
X0343220Y0022710D01*
X0343301Y0022875D01*
X0343386Y0023038D01*
X0343474Y0023200D01*
X0343567Y0023359D01*
X0343664Y0023515D01*
X0343764Y0023670D01*
X0343868Y0023822D01*
X0343976Y0023971D01*
X0344087Y0024117D01*
X0344202Y0024261D01*
X0344321Y0024402D01*
X0344443Y0024540D01*
X0344568Y0024675D01*
X0344697Y0024806D01*
X0344828Y0024935D01*
X0344963Y0025060D01*
X0345101Y0025182D01*
X0345242Y0025301D01*
X0345386Y0025416D01*
X0345532Y0025527D01*
X0345681Y0025635D01*
X0345833Y0025739D01*
X0345988Y0025839D01*
X0346144Y0025936D01*
X0346303Y0026029D01*
X0346465Y0026117D01*
X0346628Y0026202D01*
X0346793Y0026283D01*
X0346961Y0026360D01*
X0347130Y0026432D01*
X0347301Y0026500D01*
X0347473Y0026565D01*
X0347647Y0026624D01*
X0347823Y0026680D01*
X0348000Y0026731D01*
X0348178Y0026778D01*
X0348357Y0026821D01*
X0348537Y0026859D01*
X0348718Y0026893D01*
X0348900Y0026922D01*
X0349082Y0026947D01*
X0349265Y0026967D01*
X0349448Y0026983D01*
X0349632Y0026994D01*
X0349816Y0027001D01*
X0350000Y0027003D01*
X0350184Y0027001D01*
X0350368Y0026994D01*
X0350552Y0026983D01*
X0350735Y0026967D01*
X0350918Y0026947D01*
X0351100Y0026922D01*
X0351282Y0026893D01*
X0351463Y0026859D01*
X0351643Y0026821D01*
X0351822Y0026778D01*
X0352000Y0026731D01*
X0352177Y0026680D01*
X0352353Y0026624D01*
X0352527Y0026565D01*
X0352699Y0026500D01*
X0352870Y0026432D01*
X0353039Y0026360D01*
X0353207Y0026283D01*
X0353372Y0026202D01*
X0353535Y0026117D01*
X0353697Y0026029D01*
X0353856Y0025936D01*
X0354012Y0025839D01*
X0354167Y0025739D01*
X0354319Y0025635D01*
X0354468Y0025527D01*
X0354614Y0025416D01*
X0354758Y0025301D01*
X0354899Y0025182D01*
X0355037Y0025060D01*
X0355172Y0024935D01*
X0355303Y0024806D01*
X0355432Y0024675D01*
X0355557Y0024540D01*
X0355679Y0024402D01*
X0355798Y0024261D01*
X0355913Y0024117D01*
X0356024Y0023971D01*
X0356132Y0023822D01*
X0356236Y0023670D01*
X0356336Y0023515D01*
X0356433Y0023359D01*
X0356526Y0023200D01*
X0356614Y0023038D01*
X0356699Y0022875D01*
X0356780Y0022710D01*
X0356857Y0022542D01*
X0356929Y0022373D01*
X0356997Y0022202D01*
X0357062Y0022030D01*
X0357121Y0021856D01*
X0357177Y0021680D01*
X0357228Y0021503D01*
X0357275Y0021325D01*
X0357318Y0021146D01*
X0357356Y0020966D01*
X0357390Y0020785D01*
X0357419Y0020603D01*
X0357444Y0020421D01*
X0357464Y0020238D01*
X0357480Y0020055D01*
X0357491Y0019871D01*
X0357498Y0019687D01*
X0357500Y0019503D01*
X0357498Y0019319D01*
X0357491Y0019135D01*
X0357480Y0018951D01*
X0357464Y0018768D01*
X0357444Y0018585D01*
X0357419Y0018403D01*
X0357390Y0018221D01*
X0357356Y0018040D01*
X0357318Y0017860D01*
X0357275Y0017681D01*
X0357228Y0017503D01*
X0357177Y0017326D01*
X0357121Y0017150D01*
X0357062Y0016976D01*
X0356997Y0016804D01*
X0356929Y0016633D01*
X0356857Y0016464D01*
X0356780Y0016296D01*
X0356699Y0016131D01*
X0356614Y0015968D01*
X0356526Y0015806D01*
X0356433Y0015647D01*
X0356336Y0015491D01*
X0356236Y0015336D01*
X0356132Y0015184D01*
X0356024Y0015035D01*
X0355913Y0014889D01*
X0355798Y0014745D01*
X0355679Y0014604D01*
X0355557Y0014466D01*
X0355432Y0014331D01*
X0355303Y0014200D01*
X0355172Y0014071D01*
X0355037Y0013946D01*
X0354899Y0013824D01*
X0354758Y0013705D01*
X0354614Y0013590D01*
X0354468Y0013479D01*
X0354319Y0013371D01*
X0354167Y0013267D01*
X0354012Y0013167D01*
X0353856Y0013070D01*
X0353697Y0012977D01*
X0353535Y0012889D01*
X0353372Y0012804D01*
X0353207Y0012723D01*
X0353039Y0012646D01*
X0352870Y0012574D01*
X0352699Y0012506D01*
X0352527Y0012441D01*
X0352353Y0012382D01*
X0352177Y0012326D01*
X0352000Y0012275D01*
X0351822Y0012228D01*
X0351643Y0012185D01*
X0351463Y0012147D01*
X0351282Y0012113D01*
X0351100Y0012084D01*
X0350918Y0012059D01*
X0350735Y0012039D01*
X0350552Y0012023D01*
X0350368Y0012012D01*
X0350184Y0012005D01*
X0350000Y0012003D01*
X0349816Y0012005D01*
X0349632Y0012012D01*
X0349448Y0012023D01*
X0349265Y0012039D01*
X0349082Y0012059D01*
X0348900Y0012084D01*
X0348718Y0012113D01*
X0348537Y0012147D01*
X0348357Y0012185D01*
X0348178Y0012228D01*
X0348000Y0012275D01*
X0347823Y0012326D01*
X0347647Y0012382D01*
X0347473Y0012441D01*
X0347301Y0012506D01*
X0347130Y0012574D01*
X0346961Y0012646D01*
X0346793Y0012723D01*
X0346628Y0012804D01*
X0346465Y0012889D01*
X0346303Y0012977D01*
X0346144Y0013070D01*
X0345988Y0013167D01*
X0345833Y0013267D01*
X0345681Y0013371D01*
X0345532Y0013479D01*
X0345386Y0013590D01*
X0345242Y0013705D01*
X0345101Y0013824D01*
X0344963Y0013946D01*
X0344828Y0014071D01*
X0344697Y0014200D01*
X0344568Y0014331D01*
X0344443Y0014466D01*
X0344321Y0014604D01*
X0344202Y0014745D01*
X0344087Y0014889D01*
X0343976Y0015035D01*
X0343868Y0015184D01*
X0343764Y0015336D01*
X0343664Y0015491D01*
X0343567Y0015647D01*
X0343474Y0015806D01*
X0343386Y0015968D01*
X0343301Y0016131D01*
X0343220Y0016296D01*
X0343143Y0016464D01*
X0343071Y0016633D01*
X0343003Y0016804D01*
X0342938Y0016976D01*
X0342879Y0017150D01*
X0342823Y0017326D01*
X0342772Y0017503D01*
X0342725Y0017681D01*
X0342682Y0017860D01*
X0342644Y0018040D01*
X0342610Y0018221D01*
X0342581Y0018403D01*
X0342556Y0018585D01*
X0342536Y0018768D01*
X0342520Y0018951D01*
X0342509Y0019135D01*
X0342502Y0019319D01*
X0342500Y0019503D01*
D11*
X0017500Y0004503D02*
X0017500Y0229503D01*
X0022500Y0228991D02*
X0031231Y0228991D01*
X0032168Y0229458D02*
X0028763Y0227762D01*
X0026200Y0224951D01*
X0024826Y0221405D01*
X0024826Y0217601D01*
X0026200Y0214054D01*
X0028763Y0211243D01*
X0032168Y0209548D01*
X0035955Y0209197D01*
X0039613Y0210238D01*
X0042649Y0212530D01*
X0044651Y0215764D01*
X0045350Y0219503D01*
X0044651Y0223242D01*
X0042649Y0226476D01*
X0042649Y0226476D01*
X0042649Y0226476D01*
X0039613Y0228768D01*
X0035955Y0229809D01*
X0032168Y0229458D01*
X0032168Y0229458D01*
X0035955Y0229809D02*
X0035955Y0229809D01*
X0038827Y0228991D02*
X0117546Y0228991D01*
X0117881Y0229800D02*
X0117024Y0227730D01*
X0117024Y0225488D01*
X0117881Y0223418D01*
X0119466Y0221833D01*
X0121537Y0220975D01*
X0123778Y0220975D01*
X0125849Y0221833D01*
X0127434Y0223418D01*
X0128291Y0225488D01*
X0128291Y0227730D01*
X0127434Y0229800D01*
X0125849Y0231385D01*
X0124358Y0232003D01*
X0175957Y0232003D01*
X0174466Y0231385D01*
X0172881Y0229800D01*
X0172024Y0227730D01*
X0172024Y0225488D01*
X0172881Y0223418D01*
X0174466Y0221833D01*
X0176537Y0220975D01*
X0178778Y0220975D01*
X0180849Y0221833D01*
X0182434Y0223418D01*
X0183291Y0225488D01*
X0183291Y0227730D01*
X0182434Y0229800D01*
X0180849Y0231385D01*
X0179358Y0232003D01*
X0230957Y0232003D01*
X0229466Y0231385D01*
X0227881Y0229800D01*
X0227024Y0227730D01*
X0227024Y0225488D01*
X0227881Y0223418D01*
X0229466Y0221833D01*
X0231537Y0220975D01*
X0233778Y0220975D01*
X0235849Y0221833D01*
X0237434Y0223418D01*
X0238291Y0225488D01*
X0238291Y0227730D01*
X0237434Y0229800D01*
X0235849Y0231385D01*
X0234358Y0232003D01*
X0285957Y0232003D01*
X0284466Y0231385D01*
X0282881Y0229800D01*
X0282024Y0227730D01*
X0282024Y0225488D01*
X0282881Y0223418D01*
X0284466Y0221833D01*
X0286537Y0220975D01*
X0288778Y0220975D01*
X0290849Y0221833D01*
X0292434Y0223418D01*
X0293291Y0225488D01*
X0293291Y0227730D01*
X0292434Y0229800D01*
X0290849Y0231385D01*
X0289358Y0232003D01*
X0362500Y0232003D01*
X0367500Y0232003D02*
X0367498Y0232143D01*
X0367492Y0232283D01*
X0367482Y0232423D01*
X0367469Y0232563D01*
X0367451Y0232702D01*
X0367429Y0232841D01*
X0367404Y0232978D01*
X0367375Y0233116D01*
X0367342Y0233252D01*
X0367305Y0233387D01*
X0367264Y0233521D01*
X0367219Y0233654D01*
X0367171Y0233786D01*
X0367119Y0233916D01*
X0367064Y0234045D01*
X0367005Y0234172D01*
X0366942Y0234298D01*
X0366876Y0234422D01*
X0366807Y0234543D01*
X0366734Y0234663D01*
X0366657Y0234781D01*
X0366578Y0234896D01*
X0366495Y0235010D01*
X0366409Y0235120D01*
X0366320Y0235229D01*
X0366228Y0235335D01*
X0366133Y0235438D01*
X0366036Y0235539D01*
X0365935Y0235636D01*
X0365832Y0235731D01*
X0365726Y0235823D01*
X0365617Y0235912D01*
X0365507Y0235998D01*
X0365393Y0236081D01*
X0365278Y0236160D01*
X0365160Y0236237D01*
X0365040Y0236310D01*
X0364919Y0236379D01*
X0364795Y0236445D01*
X0364669Y0236508D01*
X0364542Y0236567D01*
X0364413Y0236622D01*
X0364283Y0236674D01*
X0364151Y0236722D01*
X0364018Y0236767D01*
X0363884Y0236808D01*
X0363749Y0236845D01*
X0363613Y0236878D01*
X0363475Y0236907D01*
X0363338Y0236932D01*
X0363199Y0236954D01*
X0363060Y0236972D01*
X0362920Y0236985D01*
X0362780Y0236995D01*
X0362640Y0237001D01*
X0362500Y0237003D01*
X0022500Y0237003D01*
X0022500Y0232003D02*
X0120957Y0232003D01*
X0119466Y0231385D01*
X0117881Y0229800D01*
X0118671Y0230590D02*
X0022500Y0230590D01*
X0017500Y0229503D02*
X0017471Y0229659D01*
X0017445Y0229816D01*
X0017424Y0229974D01*
X0017406Y0230131D01*
X0017393Y0230290D01*
X0017383Y0230448D01*
X0017378Y0230607D01*
X0017376Y0230766D01*
X0017378Y0230925D01*
X0017385Y0231084D01*
X0017395Y0231242D01*
X0017409Y0231401D01*
X0017427Y0231559D01*
X0017449Y0231716D01*
X0017475Y0231873D01*
X0017505Y0232029D01*
X0017539Y0232184D01*
X0017576Y0232339D01*
X0017618Y0232492D01*
X0017663Y0232644D01*
X0017712Y0232796D01*
X0017765Y0232945D01*
X0017821Y0233094D01*
X0017882Y0233241D01*
X0017946Y0233387D01*
X0018013Y0233530D01*
X0018084Y0233673D01*
X0018159Y0233813D01*
X0018237Y0233951D01*
X0018318Y0234088D01*
X0018403Y0234222D01*
X0018491Y0234354D01*
X0018582Y0234484D01*
X0018677Y0234612D01*
X0018775Y0234737D01*
X0018876Y0234860D01*
X0018980Y0234980D01*
X0019087Y0235098D01*
X0019196Y0235213D01*
X0019309Y0235325D01*
X0019424Y0235434D01*
X0019542Y0235541D01*
X0019663Y0235644D01*
X0019786Y0235745D01*
X0019912Y0235842D01*
X0020040Y0235936D01*
X0020170Y0236027D01*
X0020303Y0236114D01*
X0020438Y0236199D01*
X0020574Y0236280D01*
X0020713Y0236357D01*
X0020854Y0236431D01*
X0020996Y0236501D01*
X0021140Y0236568D01*
X0021286Y0236632D01*
X0021434Y0236691D01*
X0021582Y0236747D01*
X0021732Y0236799D01*
X0021884Y0236848D01*
X0022036Y0236892D01*
X0022190Y0236933D01*
X0022345Y0236970D01*
X0022500Y0237003D01*
X0022500Y0232003D02*
X0022500Y0007003D01*
X0295983Y0007003D01*
X0294554Y0007594D01*
X0293092Y0009057D01*
X0292300Y0010968D01*
X0292300Y0013037D01*
X0293092Y0014948D01*
X0294554Y0016411D01*
X0296466Y0017203D01*
X0298534Y0017203D01*
X0300446Y0016411D01*
X0301908Y0014948D01*
X0301992Y0014747D01*
X0305200Y0017956D01*
X0305200Y0062956D01*
X0307547Y0065303D01*
X0306684Y0065303D01*
X0305178Y0065927D01*
X0304024Y0067080D01*
X0303400Y0068587D01*
X0303400Y0075418D01*
X0304024Y0076925D01*
X0305178Y0078079D01*
X0306684Y0078703D01*
X0308316Y0078703D01*
X0309822Y0078079D01*
X0310976Y0076925D01*
X0311600Y0075418D01*
X0311600Y0069355D01*
X0313400Y0071156D01*
X0313400Y0075418D01*
X0314024Y0076925D01*
X0315178Y0078079D01*
X0316684Y0078703D01*
X0318316Y0078703D01*
X0319822Y0078079D01*
X0320976Y0076925D01*
X0321600Y0075418D01*
X0321600Y0068587D01*
X0320976Y0067080D01*
X0319822Y0065927D01*
X0318316Y0065303D01*
X0316684Y0065303D01*
X0315178Y0065927D01*
X0314927Y0066177D01*
X0309800Y0061050D01*
X0309800Y0016050D01*
X0308453Y0014703D01*
X0303453Y0009703D01*
X0302176Y0009703D01*
X0301908Y0009057D01*
X0300446Y0007594D01*
X0299017Y0007003D01*
X0315983Y0007003D01*
X0314554Y0007594D01*
X0313092Y0009057D01*
X0312300Y0010968D01*
X0312300Y0013037D01*
X0313092Y0014948D01*
X0314554Y0016411D01*
X0316466Y0017203D01*
X0318534Y0017203D01*
X0320446Y0016411D01*
X0321908Y0014948D01*
X0322700Y0013037D01*
X0322700Y0010968D01*
X0321908Y0009057D01*
X0320446Y0007594D01*
X0319017Y0007003D01*
X0362500Y0007003D01*
X0362500Y0002003D02*
X0362640Y0002005D01*
X0362780Y0002011D01*
X0362920Y0002021D01*
X0363060Y0002034D01*
X0363199Y0002052D01*
X0363338Y0002074D01*
X0363475Y0002099D01*
X0363613Y0002128D01*
X0363749Y0002161D01*
X0363884Y0002198D01*
X0364018Y0002239D01*
X0364151Y0002284D01*
X0364283Y0002332D01*
X0364413Y0002384D01*
X0364542Y0002439D01*
X0364669Y0002498D01*
X0364795Y0002561D01*
X0364919Y0002627D01*
X0365040Y0002696D01*
X0365160Y0002769D01*
X0365278Y0002846D01*
X0365393Y0002925D01*
X0365507Y0003008D01*
X0365617Y0003094D01*
X0365726Y0003183D01*
X0365832Y0003275D01*
X0365935Y0003370D01*
X0366036Y0003467D01*
X0366133Y0003568D01*
X0366228Y0003671D01*
X0366320Y0003777D01*
X0366409Y0003886D01*
X0366495Y0003996D01*
X0366578Y0004110D01*
X0366657Y0004225D01*
X0366734Y0004343D01*
X0366807Y0004463D01*
X0366876Y0004584D01*
X0366942Y0004708D01*
X0367005Y0004834D01*
X0367064Y0004961D01*
X0367119Y0005090D01*
X0367171Y0005220D01*
X0367219Y0005352D01*
X0367264Y0005485D01*
X0367305Y0005619D01*
X0367342Y0005754D01*
X0367375Y0005890D01*
X0367404Y0006028D01*
X0367429Y0006165D01*
X0367451Y0006304D01*
X0367469Y0006443D01*
X0367482Y0006583D01*
X0367492Y0006723D01*
X0367498Y0006863D01*
X0367500Y0007003D01*
X0367500Y0232003D01*
X0362500Y0232003D02*
X0362500Y0007003D01*
X0362500Y0008397D02*
X0321248Y0008397D01*
X0322297Y0009995D02*
X0346269Y0009995D01*
X0347168Y0009548D02*
X0343763Y0011243D01*
X0343763Y0011243D01*
X0341200Y0014054D01*
X0341200Y0014054D01*
X0339826Y0017601D01*
X0339826Y0021405D01*
X0341200Y0024951D01*
X0341200Y0024951D01*
X0343763Y0027762D01*
X0343763Y0027762D01*
X0347168Y0029458D01*
X0347168Y0029458D01*
X0350955Y0029809D01*
X0350955Y0029809D01*
X0354613Y0028768D01*
X0354613Y0028768D01*
X0357649Y0026476D01*
X0357649Y0026476D01*
X0357649Y0026476D01*
X0359651Y0023242D01*
X0359651Y0023242D01*
X0360350Y0019503D01*
X0359651Y0015764D01*
X0357649Y0012530D01*
X0357649Y0012530D01*
X0357649Y0012530D01*
X0354613Y0010238D01*
X0354613Y0010238D01*
X0350955Y0009197D01*
X0350955Y0009197D01*
X0347168Y0009548D01*
X0347168Y0009548D01*
X0353761Y0009995D02*
X0362500Y0009995D01*
X0362500Y0011594D02*
X0356409Y0011594D01*
X0358059Y0013192D02*
X0362500Y0013192D01*
X0362500Y0014791D02*
X0359049Y0014791D01*
X0359651Y0015764D02*
X0359651Y0015764D01*
X0359768Y0016389D02*
X0362500Y0016389D01*
X0362500Y0017988D02*
X0360067Y0017988D01*
X0360334Y0019586D02*
X0362500Y0019586D01*
X0362500Y0021185D02*
X0360036Y0021185D01*
X0359737Y0022783D02*
X0362500Y0022783D01*
X0362500Y0024382D02*
X0358945Y0024382D01*
X0357955Y0025981D02*
X0362500Y0025981D01*
X0362500Y0027579D02*
X0356188Y0027579D01*
X0353173Y0029178D02*
X0362500Y0029178D01*
X0362500Y0030776D02*
X0309800Y0030776D01*
X0309800Y0029178D02*
X0346605Y0029178D01*
X0343596Y0027579D02*
X0309800Y0027579D01*
X0309800Y0025981D02*
X0342138Y0025981D01*
X0340980Y0024382D02*
X0309800Y0024382D01*
X0309800Y0022783D02*
X0340360Y0022783D01*
X0339826Y0021185D02*
X0309800Y0021185D01*
X0309800Y0019586D02*
X0339826Y0019586D01*
X0339826Y0017988D02*
X0309800Y0017988D01*
X0309800Y0016389D02*
X0314533Y0016389D01*
X0313026Y0014791D02*
X0308541Y0014791D01*
X0306942Y0013192D02*
X0312364Y0013192D01*
X0312300Y0011594D02*
X0305344Y0011594D01*
X0303745Y0009995D02*
X0312703Y0009995D01*
X0313752Y0008397D02*
X0301248Y0008397D01*
X0302500Y0012003D02*
X0297500Y0012003D01*
X0302500Y0012003D02*
X0307500Y0017003D01*
X0307500Y0062003D01*
X0317500Y0072003D01*
X0313400Y0072337D02*
X0311600Y0072337D01*
X0311600Y0070739D02*
X0312983Y0070739D01*
X0313400Y0073936D02*
X0311600Y0073936D01*
X0311552Y0075534D02*
X0313448Y0075534D01*
X0314232Y0077133D02*
X0310768Y0077133D01*
X0304232Y0077133D02*
X0300768Y0077133D01*
X0300976Y0076925D02*
X0299822Y0078079D01*
X0298316Y0078703D01*
X0296684Y0078703D01*
X0295178Y0078079D01*
X0294024Y0076925D01*
X0293400Y0075418D01*
X0293400Y0068587D01*
X0294024Y0067080D01*
X0295178Y0065927D01*
X0296684Y0065303D01*
X0298316Y0065303D01*
X0299822Y0065927D01*
X0300976Y0067080D01*
X0301600Y0068587D01*
X0301600Y0075418D01*
X0300976Y0076925D01*
X0301552Y0075534D02*
X0303448Y0075534D01*
X0303400Y0073936D02*
X0301600Y0073936D01*
X0301600Y0072337D02*
X0303400Y0072337D01*
X0303400Y0070739D02*
X0301600Y0070739D01*
X0301600Y0069140D02*
X0303400Y0069140D01*
X0303833Y0067542D02*
X0301167Y0067542D01*
X0299839Y0065943D02*
X0305161Y0065943D01*
X0306589Y0064345D02*
X0069800Y0064345D01*
X0069800Y0065943D02*
X0195161Y0065943D01*
X0195178Y0065927D02*
X0196684Y0065303D01*
X0198316Y0065303D01*
X0199822Y0065927D01*
X0200976Y0067080D01*
X0201600Y0068587D01*
X0201600Y0075418D01*
X0200976Y0076925D01*
X0199822Y0078079D01*
X0198316Y0078703D01*
X0196684Y0078703D01*
X0195178Y0078079D01*
X0194024Y0076925D01*
X0193400Y0075418D01*
X0193400Y0068587D01*
X0194024Y0067080D01*
X0195178Y0065927D01*
X0193833Y0067542D02*
X0069800Y0067542D01*
X0069800Y0069140D02*
X0193400Y0069140D01*
X0193400Y0070739D02*
X0069800Y0070739D01*
X0069800Y0072337D02*
X0193400Y0072337D01*
X0193400Y0073936D02*
X0102617Y0073936D01*
X0102402Y0073722D02*
X0103281Y0074600D01*
X0103281Y0079405D01*
X0102402Y0080284D01*
X0097598Y0080284D01*
X0096719Y0079405D01*
X0096719Y0079303D01*
X0083281Y0079303D01*
X0083281Y0079405D01*
X0082402Y0080284D01*
X0077598Y0080284D01*
X0076719Y0079405D01*
X0076719Y0074600D01*
X0077598Y0073722D01*
X0082402Y0073722D01*
X0083281Y0074600D01*
X0083281Y0074703D01*
X0096719Y0074703D01*
X0096719Y0074600D01*
X0097598Y0073722D01*
X0102402Y0073722D01*
X0103281Y0075534D02*
X0193448Y0075534D01*
X0194232Y0077133D02*
X0103281Y0077133D01*
X0103281Y0078731D02*
X0205019Y0078731D01*
X0205200Y0078550D02*
X0205200Y0078088D01*
X0205178Y0078079D01*
X0204024Y0076925D01*
X0203400Y0075418D01*
X0203400Y0068587D01*
X0204024Y0067080D01*
X0205178Y0065927D01*
X0206684Y0065303D01*
X0208316Y0065303D01*
X0209822Y0065927D01*
X0210976Y0067080D01*
X0211600Y0068587D01*
X0211600Y0075418D01*
X0210976Y0076925D01*
X0209822Y0078079D01*
X0209800Y0078088D01*
X0209800Y0080456D01*
X0204800Y0085456D01*
X0203453Y0086803D01*
X0195953Y0086803D01*
X0192300Y0090456D01*
X0192300Y0137956D01*
X0187300Y0142956D01*
X0185953Y0144303D01*
X0177176Y0144303D01*
X0176908Y0144948D01*
X0175446Y0146411D01*
X0173534Y0147203D01*
X0171466Y0147203D01*
X0169554Y0146411D01*
X0168092Y0144948D01*
X0167300Y0143037D01*
X0167300Y0140968D01*
X0168092Y0139057D01*
X0169554Y0137594D01*
X0171466Y0136803D01*
X0173534Y0136803D01*
X0175446Y0137594D01*
X0176908Y0139057D01*
X0177176Y0139703D01*
X0184047Y0139703D01*
X0187700Y0136050D01*
X0187700Y0088550D01*
X0194047Y0082203D01*
X0201547Y0082203D01*
X0205200Y0078550D01*
X0204232Y0077133D02*
X0200768Y0077133D01*
X0201552Y0075534D02*
X0203448Y0075534D01*
X0203400Y0073936D02*
X0201600Y0073936D01*
X0201600Y0072337D02*
X0203400Y0072337D01*
X0203400Y0070739D02*
X0201600Y0070739D01*
X0201600Y0069140D02*
X0203400Y0069140D01*
X0203833Y0067542D02*
X0201167Y0067542D01*
X0199839Y0065943D02*
X0205161Y0065943D01*
X0209839Y0065943D02*
X0215161Y0065943D01*
X0215178Y0065927D02*
X0216684Y0065303D01*
X0218316Y0065303D01*
X0219822Y0065927D01*
X0220976Y0067080D01*
X0221600Y0068587D01*
X0221600Y0075418D01*
X0220976Y0076925D01*
X0219822Y0078079D01*
X0218316Y0078703D01*
X0216684Y0078703D01*
X0215178Y0078079D01*
X0214024Y0076925D01*
X0213400Y0075418D01*
X0213400Y0068587D01*
X0214024Y0067080D01*
X0215178Y0065927D01*
X0213833Y0067542D02*
X0211167Y0067542D01*
X0211600Y0069140D02*
X0213400Y0069140D01*
X0213400Y0070739D02*
X0211600Y0070739D01*
X0211600Y0072337D02*
X0213400Y0072337D01*
X0213400Y0073936D02*
X0211600Y0073936D01*
X0211552Y0075534D02*
X0213448Y0075534D01*
X0214232Y0077133D02*
X0210768Y0077133D01*
X0209800Y0078731D02*
X0265968Y0078731D01*
X0265811Y0078680D02*
X0266470Y0078894D01*
X0267154Y0079003D01*
X0267500Y0079003D01*
X0267500Y0072003D01*
X0267500Y0072003D01*
X0267500Y0079003D01*
X0267846Y0079003D01*
X0268530Y0078894D01*
X0269189Y0078680D01*
X0269806Y0078366D01*
X0270366Y0077959D01*
X0270856Y0077469D01*
X0271263Y0076909D01*
X0271578Y0076292D01*
X0271792Y0075633D01*
X0271900Y0074949D01*
X0271900Y0072003D01*
X0267500Y0072003D01*
X0267500Y0072003D01*
X0267500Y0079503D01*
X0352500Y0079503D01*
X0352700Y0079703D02*
X0358000Y0079703D01*
X0358000Y0079936D01*
X0357865Y0080791D01*
X0357597Y0081614D01*
X0357204Y0082385D01*
X0356695Y0083086D01*
X0356083Y0083698D01*
X0355383Y0084207D01*
X0354611Y0084600D01*
X0354410Y0084665D01*
X0355446Y0085094D01*
X0356908Y0086557D01*
X0357700Y0088468D01*
X0357700Y0090537D01*
X0356908Y0092448D01*
X0355446Y0093911D01*
X0354017Y0094503D01*
X0355446Y0095094D01*
X0356908Y0096557D01*
X0357700Y0098468D01*
X0357700Y0100537D01*
X0356908Y0102448D01*
X0355446Y0103911D01*
X0354017Y0104503D01*
X0355446Y0105094D01*
X0356908Y0106557D01*
X0357700Y0108468D01*
X0357700Y0110537D01*
X0356908Y0112448D01*
X0355446Y0113911D01*
X0354017Y0114503D01*
X0355446Y0115094D01*
X0356908Y0116557D01*
X0357700Y0118468D01*
X0357700Y0120537D01*
X0356908Y0122448D01*
X0355446Y0123911D01*
X0354500Y0124303D01*
X0356821Y0124303D01*
X0357700Y0125182D01*
X0357700Y0133824D01*
X0356821Y0134703D01*
X0348179Y0134703D01*
X0347300Y0133824D01*
X0347300Y0125182D01*
X0348179Y0124303D01*
X0350500Y0124303D01*
X0349554Y0123911D01*
X0348092Y0122448D01*
X0347300Y0120537D01*
X0347300Y0118468D01*
X0348092Y0116557D01*
X0349554Y0115094D01*
X0350983Y0114503D01*
X0349554Y0113911D01*
X0348092Y0112448D01*
X0347824Y0111803D01*
X0321547Y0111803D01*
X0320200Y0110456D01*
X0318409Y0108664D01*
X0318316Y0108703D01*
X0316684Y0108703D01*
X0315178Y0108079D01*
X0314024Y0106925D01*
X0313400Y0105418D01*
X0313400Y0098587D01*
X0314024Y0097080D01*
X0315178Y0095927D01*
X0316684Y0095303D01*
X0318316Y0095303D01*
X0319822Y0095927D01*
X0320976Y0097080D01*
X0321600Y0098587D01*
X0321600Y0105350D01*
X0323453Y0107203D01*
X0324302Y0107203D01*
X0324024Y0106925D01*
X0323400Y0105418D01*
X0323400Y0098587D01*
X0324024Y0097080D01*
X0325178Y0095927D01*
X0326684Y0095303D01*
X0328316Y0095303D01*
X0329822Y0095927D01*
X0330976Y0097080D01*
X0331600Y0098587D01*
X0331600Y0105418D01*
X0330976Y0106925D01*
X0330698Y0107203D01*
X0347824Y0107203D01*
X0348092Y0106557D01*
X0349554Y0105094D01*
X0350983Y0104503D01*
X0349554Y0103911D01*
X0348092Y0102448D01*
X0347300Y0100537D01*
X0347300Y0098468D01*
X0348092Y0096557D01*
X0349554Y0095094D01*
X0350983Y0094503D01*
X0349554Y0093911D01*
X0348092Y0092448D01*
X0347300Y0090537D01*
X0347300Y0088468D01*
X0348092Y0086557D01*
X0349554Y0085094D01*
X0350590Y0084665D01*
X0350389Y0084600D01*
X0349617Y0084207D01*
X0348917Y0083698D01*
X0348305Y0083086D01*
X0347796Y0082385D01*
X0347403Y0081614D01*
X0347135Y0080791D01*
X0347000Y0079936D01*
X0347000Y0079703D01*
X0352300Y0079703D01*
X0352300Y0079303D01*
X0347000Y0079303D01*
X0347000Y0079070D01*
X0347135Y0078215D01*
X0347403Y0077392D01*
X0347796Y0076620D01*
X0348305Y0075920D01*
X0348917Y0075308D01*
X0349617Y0074799D01*
X0350389Y0074406D01*
X0351212Y0074138D01*
X0352067Y0074003D01*
X0352300Y0074003D01*
X0352300Y0079303D01*
X0352700Y0079303D01*
X0352700Y0079703D01*
X0352700Y0079303D02*
X0358000Y0079303D01*
X0358000Y0079070D01*
X0357865Y0078215D01*
X0357597Y0077392D01*
X0357204Y0076620D01*
X0356695Y0075920D01*
X0356083Y0075308D01*
X0355383Y0074799D01*
X0354611Y0074406D01*
X0353788Y0074138D01*
X0352933Y0074003D01*
X0352700Y0074003D01*
X0352700Y0079303D01*
X0352700Y0078731D02*
X0352300Y0078731D01*
X0352300Y0077133D02*
X0352700Y0077133D01*
X0352700Y0075534D02*
X0352300Y0075534D01*
X0348690Y0075534D02*
X0331552Y0075534D01*
X0331600Y0075418D02*
X0330976Y0076925D01*
X0329822Y0078079D01*
X0328316Y0078703D01*
X0326684Y0078703D01*
X0325178Y0078079D01*
X0324024Y0076925D01*
X0323400Y0075418D01*
X0323400Y0068587D01*
X0324024Y0067080D01*
X0325178Y0065927D01*
X0326684Y0065303D01*
X0328316Y0065303D01*
X0329822Y0065927D01*
X0330976Y0067080D01*
X0331600Y0068587D01*
X0331600Y0075418D01*
X0331600Y0073936D02*
X0362500Y0073936D01*
X0362500Y0075534D02*
X0356310Y0075534D01*
X0357465Y0077133D02*
X0362500Y0077133D01*
X0362500Y0078731D02*
X0357946Y0078731D01*
X0357938Y0080330D02*
X0362500Y0080330D01*
X0362500Y0081928D02*
X0357437Y0081928D01*
X0356254Y0083527D02*
X0362500Y0083527D01*
X0362500Y0085125D02*
X0355477Y0085125D01*
X0356977Y0086724D02*
X0362500Y0086724D01*
X0362500Y0088322D02*
X0357639Y0088322D01*
X0357700Y0089921D02*
X0362500Y0089921D01*
X0362500Y0091519D02*
X0357293Y0091519D01*
X0356239Y0093118D02*
X0362500Y0093118D01*
X0362500Y0094716D02*
X0354533Y0094716D01*
X0356666Y0096315D02*
X0362500Y0096315D01*
X0362500Y0097914D02*
X0357470Y0097914D01*
X0357700Y0099512D02*
X0362500Y0099512D01*
X0362500Y0101111D02*
X0357462Y0101111D01*
X0356648Y0102709D02*
X0362500Y0102709D01*
X0362500Y0104308D02*
X0354489Y0104308D01*
X0356257Y0105906D02*
X0362500Y0105906D01*
X0362500Y0107505D02*
X0357301Y0107505D01*
X0357700Y0109103D02*
X0362500Y0109103D01*
X0362500Y0110702D02*
X0357632Y0110702D01*
X0356970Y0112300D02*
X0362500Y0112300D01*
X0362500Y0113899D02*
X0355458Y0113899D01*
X0355848Y0115497D02*
X0362500Y0115497D01*
X0362500Y0117096D02*
X0357131Y0117096D01*
X0357700Y0118694D02*
X0362500Y0118694D01*
X0362500Y0120293D02*
X0357700Y0120293D01*
X0357139Y0121891D02*
X0362500Y0121891D01*
X0362500Y0123490D02*
X0355867Y0123490D01*
X0357607Y0125088D02*
X0362500Y0125088D01*
X0362500Y0126687D02*
X0357700Y0126687D01*
X0357700Y0128285D02*
X0362500Y0128285D01*
X0362500Y0129884D02*
X0357700Y0129884D01*
X0357700Y0131482D02*
X0362500Y0131482D01*
X0362500Y0133081D02*
X0357700Y0133081D01*
X0356845Y0134679D02*
X0362500Y0134679D01*
X0362500Y0136278D02*
X0285028Y0136278D01*
X0286626Y0137876D02*
X0362500Y0137876D01*
X0362500Y0139475D02*
X0303270Y0139475D01*
X0304100Y0140305D02*
X0301698Y0137903D01*
X0298302Y0137903D01*
X0295900Y0140305D01*
X0295900Y0143701D01*
X0298302Y0146103D01*
X0301698Y0146103D01*
X0304100Y0143701D01*
X0304100Y0140305D01*
X0304100Y0141073D02*
X0362500Y0141073D01*
X0362500Y0142672D02*
X0304100Y0142672D01*
X0303531Y0144270D02*
X0362500Y0144270D01*
X0362500Y0145869D02*
X0301932Y0145869D01*
X0298068Y0145869D02*
X0294619Y0145869D01*
X0296217Y0147467D02*
X0362500Y0147467D01*
X0362500Y0149066D02*
X0354185Y0149066D01*
X0353743Y0148883D02*
X0356040Y0149834D01*
X0357798Y0151592D01*
X0358750Y0153890D01*
X0358750Y0156376D01*
X0357798Y0158673D01*
X0356040Y0160431D01*
X0353743Y0161383D01*
X0351257Y0161383D01*
X0348960Y0160431D01*
X0347202Y0158673D01*
X0346250Y0156376D01*
X0346250Y0153890D01*
X0347202Y0151592D01*
X0348960Y0149834D01*
X0351257Y0148883D01*
X0353743Y0148883D01*
X0350815Y0149066D02*
X0297816Y0149066D01*
X0299414Y0150664D02*
X0348130Y0150664D01*
X0346924Y0152263D02*
X0301013Y0152263D01*
X0302611Y0153861D02*
X0346262Y0153861D01*
X0346250Y0155460D02*
X0304210Y0155460D01*
X0305808Y0157058D02*
X0315849Y0157058D01*
X0316466Y0156803D02*
X0318534Y0156803D01*
X0320446Y0157594D01*
X0321908Y0159057D01*
X0322700Y0160968D01*
X0322700Y0163037D01*
X0321908Y0164948D01*
X0320446Y0166411D01*
X0318534Y0167203D01*
X0316466Y0167203D01*
X0315590Y0166840D01*
X0320962Y0172212D01*
X0346711Y0172462D01*
X0347202Y0171277D01*
X0348960Y0169519D01*
X0351257Y0168568D01*
X0353743Y0168568D01*
X0356040Y0169519D01*
X0357798Y0171277D01*
X0358750Y0173575D01*
X0358750Y0176061D01*
X0357798Y0178358D01*
X0356040Y0180116D01*
X0353743Y0181068D01*
X0351257Y0181068D01*
X0348960Y0180116D01*
X0347202Y0178358D01*
X0346664Y0177061D01*
X0319989Y0176803D01*
X0319047Y0176803D01*
X0319038Y0176794D01*
X0319025Y0176793D01*
X0318366Y0176121D01*
X0275200Y0132956D01*
X0275200Y0108088D01*
X0275178Y0108079D01*
X0274024Y0106925D01*
X0273400Y0105418D01*
X0273400Y0098587D01*
X0274024Y0097080D01*
X0275178Y0095927D01*
X0276684Y0095303D01*
X0278316Y0095303D01*
X0279822Y0095927D01*
X0280976Y0097080D01*
X0281600Y0098587D01*
X0281600Y0105418D01*
X0280976Y0106925D01*
X0279822Y0108079D01*
X0279800Y0108088D01*
X0279800Y0131050D01*
X0312663Y0163913D01*
X0312300Y0163037D01*
X0312300Y0160968D01*
X0313092Y0159057D01*
X0314554Y0157594D01*
X0316466Y0156803D01*
X0319151Y0157058D02*
X0346533Y0157058D01*
X0347195Y0158657D02*
X0321508Y0158657D01*
X0322405Y0160255D02*
X0348784Y0160255D01*
X0356216Y0160255D02*
X0362500Y0160255D01*
X0362500Y0158657D02*
X0357805Y0158657D01*
X0358467Y0157058D02*
X0362500Y0157058D01*
X0362500Y0155460D02*
X0358750Y0155460D01*
X0358738Y0153861D02*
X0362500Y0153861D01*
X0362500Y0152263D02*
X0358076Y0152263D01*
X0356870Y0150664D02*
X0362500Y0150664D01*
X0362500Y0161854D02*
X0322700Y0161854D01*
X0322528Y0163452D02*
X0362500Y0163452D01*
X0362500Y0165051D02*
X0321806Y0165051D01*
X0319870Y0166650D02*
X0362500Y0166650D01*
X0362500Y0168248D02*
X0316998Y0168248D01*
X0318596Y0169847D02*
X0348632Y0169847D01*
X0347132Y0171445D02*
X0320195Y0171445D01*
X0315288Y0173044D02*
X0310679Y0173044D01*
X0310422Y0172787D02*
X0311952Y0174317D01*
X0312780Y0176315D01*
X0312780Y0178478D01*
X0311952Y0180476D01*
X0310422Y0182006D01*
X0308424Y0182834D01*
X0306261Y0182834D01*
X0304263Y0182006D01*
X0302733Y0180476D01*
X0301906Y0178478D01*
X0301906Y0176315D01*
X0302733Y0174317D01*
X0304263Y0172787D01*
X0306261Y0171960D01*
X0308424Y0171960D01*
X0310422Y0172787D01*
X0312087Y0174642D02*
X0316887Y0174642D01*
X0318483Y0176241D02*
X0312749Y0176241D01*
X0312780Y0177839D02*
X0346987Y0177839D01*
X0348281Y0179438D02*
X0312382Y0179438D01*
X0311392Y0181036D02*
X0351180Y0181036D01*
X0353820Y0181036D02*
X0362500Y0181036D01*
X0362500Y0179438D02*
X0356719Y0179438D01*
X0358013Y0177839D02*
X0362500Y0177839D01*
X0362500Y0176241D02*
X0358676Y0176241D01*
X0358750Y0174642D02*
X0362500Y0174642D01*
X0362500Y0173044D02*
X0358530Y0173044D01*
X0357868Y0171445D02*
X0362500Y0171445D01*
X0362500Y0169847D02*
X0356368Y0169847D01*
X0352500Y0174818D02*
X0320000Y0174503D01*
X0277500Y0132003D01*
X0277500Y0102003D01*
X0281600Y0102709D02*
X0283400Y0102709D01*
X0283400Y0101111D02*
X0281600Y0101111D01*
X0281600Y0099512D02*
X0283400Y0099512D01*
X0283400Y0098587D02*
X0284024Y0097080D01*
X0285178Y0095927D01*
X0286684Y0095303D01*
X0288316Y0095303D01*
X0289822Y0095927D01*
X0290976Y0097080D01*
X0291600Y0098587D01*
X0291600Y0105418D01*
X0290976Y0106925D01*
X0289822Y0108079D01*
X0288316Y0108703D01*
X0286684Y0108703D01*
X0285178Y0108079D01*
X0284024Y0106925D01*
X0283400Y0105418D01*
X0283400Y0098587D01*
X0283679Y0097914D02*
X0281321Y0097914D01*
X0280210Y0096315D02*
X0284790Y0096315D01*
X0290210Y0096315D02*
X0294790Y0096315D01*
X0295178Y0095927D02*
X0296684Y0095303D01*
X0298316Y0095303D01*
X0299822Y0095927D01*
X0300976Y0097080D01*
X0301600Y0098587D01*
X0301600Y0105418D01*
X0300976Y0106925D01*
X0299822Y0108079D01*
X0298316Y0108703D01*
X0296684Y0108703D01*
X0295178Y0108079D01*
X0294024Y0106925D01*
X0293400Y0105418D01*
X0293400Y0098587D01*
X0294024Y0097080D01*
X0295178Y0095927D01*
X0293679Y0097914D02*
X0291321Y0097914D01*
X0291600Y0099512D02*
X0293400Y0099512D01*
X0293400Y0101111D02*
X0291600Y0101111D01*
X0291600Y0102709D02*
X0293400Y0102709D01*
X0293400Y0104308D02*
X0291600Y0104308D01*
X0291398Y0105906D02*
X0293602Y0105906D01*
X0294603Y0107505D02*
X0290397Y0107505D01*
X0284603Y0107505D02*
X0280397Y0107505D01*
X0279800Y0109103D02*
X0318848Y0109103D01*
X0320446Y0110702D02*
X0279800Y0110702D01*
X0279800Y0112300D02*
X0348030Y0112300D01*
X0349542Y0113899D02*
X0279800Y0113899D01*
X0279800Y0115497D02*
X0349152Y0115497D01*
X0347869Y0117096D02*
X0319241Y0117096D01*
X0318534Y0116803D02*
X0320446Y0117594D01*
X0321908Y0119057D01*
X0322700Y0120968D01*
X0322700Y0123037D01*
X0321908Y0124948D01*
X0320446Y0126411D01*
X0318534Y0127203D01*
X0316466Y0127203D01*
X0314554Y0126411D01*
X0313092Y0124948D01*
X0312300Y0123037D01*
X0312300Y0120968D01*
X0313092Y0119057D01*
X0314554Y0117594D01*
X0316466Y0116803D01*
X0318534Y0116803D01*
X0315759Y0117096D02*
X0279800Y0117096D01*
X0279800Y0118694D02*
X0297510Y0118694D01*
X0298302Y0117903D02*
X0301698Y0117903D01*
X0304100Y0120305D01*
X0304100Y0123701D01*
X0301698Y0126103D01*
X0298302Y0126103D01*
X0295900Y0123701D01*
X0295900Y0120305D01*
X0298302Y0117903D01*
X0295912Y0120293D02*
X0279800Y0120293D01*
X0279800Y0121891D02*
X0295900Y0121891D01*
X0295900Y0123490D02*
X0279800Y0123490D01*
X0279800Y0125088D02*
X0297287Y0125088D01*
X0302713Y0125088D02*
X0313231Y0125088D01*
X0312487Y0123490D02*
X0304100Y0123490D01*
X0304100Y0121891D02*
X0312300Y0121891D01*
X0312580Y0120293D02*
X0304088Y0120293D01*
X0302490Y0118694D02*
X0313455Y0118694D01*
X0321545Y0118694D02*
X0347300Y0118694D01*
X0347300Y0120293D02*
X0322420Y0120293D01*
X0322700Y0121891D02*
X0347861Y0121891D01*
X0349133Y0123490D02*
X0322513Y0123490D01*
X0321769Y0125088D02*
X0347393Y0125088D01*
X0347300Y0126687D02*
X0319780Y0126687D01*
X0315220Y0126687D02*
X0279800Y0126687D01*
X0279800Y0128285D02*
X0347300Y0128285D01*
X0347300Y0129884D02*
X0279800Y0129884D01*
X0280232Y0131482D02*
X0347300Y0131482D01*
X0347300Y0133081D02*
X0281831Y0133081D01*
X0283429Y0134679D02*
X0348155Y0134679D01*
X0313492Y0158657D02*
X0307407Y0158657D01*
X0309005Y0160255D02*
X0312595Y0160255D01*
X0312300Y0161854D02*
X0310604Y0161854D01*
X0312202Y0163452D02*
X0312472Y0163452D01*
X0308894Y0166650D02*
X0039050Y0166650D01*
X0039050Y0168248D02*
X0310492Y0168248D01*
X0312091Y0169847D02*
X0038954Y0169847D01*
X0038927Y0169948D02*
X0038690Y0170358D01*
X0038355Y0170693D01*
X0037945Y0170930D01*
X0037487Y0171053D01*
X0032980Y0171053D01*
X0032980Y0164982D01*
X0039050Y0164982D01*
X0039050Y0169490D01*
X0038927Y0169948D01*
X0039050Y0165051D02*
X0234326Y0165051D01*
X0233100Y0163825D02*
X0235677Y0166403D01*
X0237500Y0166403D01*
X0237500Y0162003D01*
X0237500Y0162003D01*
X0237500Y0166403D01*
X0239323Y0166403D01*
X0241900Y0163825D01*
X0241900Y0162003D01*
X0237500Y0162003D01*
X0237500Y0162003D01*
X0247500Y0162003D01*
X0257500Y0162003D01*
X0257500Y0162003D01*
X0257500Y0166403D01*
X0259323Y0166403D01*
X0261900Y0163825D01*
X0261900Y0162003D01*
X0257500Y0162003D01*
X0257500Y0166403D01*
X0255677Y0166403D01*
X0253100Y0163825D01*
X0253100Y0162003D01*
X0257500Y0162003D01*
X0257500Y0162003D01*
X0277500Y0162003D01*
X0277500Y0162003D01*
X0277500Y0166403D01*
X0279323Y0166403D01*
X0281900Y0163825D01*
X0281900Y0162003D01*
X0277500Y0162003D01*
X0277500Y0166403D01*
X0275677Y0166403D01*
X0273100Y0163825D01*
X0273100Y0162003D01*
X0277500Y0162003D01*
X0277500Y0162003D01*
X0277500Y0217003D01*
X0202500Y0217003D01*
X0197343Y0217160D01*
X0197343Y0226609D01*
X0202500Y0217003D02*
X0155000Y0217003D01*
X0147500Y0217003D01*
X0142343Y0222160D01*
X0142343Y0226609D01*
X0128291Y0227393D02*
X0172024Y0227393D01*
X0172024Y0225794D02*
X0128291Y0225794D01*
X0127756Y0224196D02*
X0172559Y0224196D01*
X0173702Y0222597D02*
X0126613Y0222597D01*
X0123835Y0220999D02*
X0176480Y0220999D01*
X0178835Y0220999D02*
X0231480Y0220999D01*
X0233835Y0220999D02*
X0286480Y0220999D01*
X0288835Y0220999D02*
X0339826Y0220999D01*
X0339826Y0221405D02*
X0339826Y0217601D01*
X0341200Y0214054D01*
X0341200Y0214054D01*
X0343763Y0211243D01*
X0347168Y0209548D01*
X0350955Y0209197D01*
X0354613Y0210238D01*
X0354613Y0210238D01*
X0357649Y0212530D01*
X0359651Y0215764D01*
X0360350Y0219503D01*
X0359651Y0223242D01*
X0357649Y0226476D01*
X0357649Y0226476D01*
X0357649Y0226476D01*
X0354613Y0228768D01*
X0350955Y0229809D01*
X0347168Y0229458D01*
X0347168Y0229458D01*
X0343763Y0227762D01*
X0341200Y0224951D01*
X0339826Y0221405D01*
X0340288Y0222597D02*
X0291613Y0222597D01*
X0292756Y0224196D02*
X0340908Y0224196D01*
X0341200Y0224951D02*
X0341200Y0224951D01*
X0341969Y0225794D02*
X0293291Y0225794D01*
X0293291Y0227393D02*
X0343426Y0227393D01*
X0343763Y0227762D02*
X0343763Y0227762D01*
X0343763Y0227762D01*
X0346231Y0228991D02*
X0292769Y0228991D01*
X0291644Y0230590D02*
X0362500Y0230590D01*
X0362500Y0228991D02*
X0353827Y0228991D01*
X0354613Y0228768D02*
X0354613Y0228768D01*
X0356434Y0227393D02*
X0362500Y0227393D01*
X0362500Y0225794D02*
X0358070Y0225794D01*
X0359060Y0224196D02*
X0362500Y0224196D01*
X0362500Y0222597D02*
X0359772Y0222597D01*
X0359651Y0223242D02*
X0359651Y0223242D01*
X0360070Y0220999D02*
X0362500Y0220999D01*
X0362500Y0219400D02*
X0360331Y0219400D01*
X0360032Y0217802D02*
X0362500Y0217802D01*
X0362500Y0216203D02*
X0359733Y0216203D01*
X0359651Y0215764D02*
X0359651Y0215764D01*
X0358933Y0214605D02*
X0362500Y0214605D01*
X0362500Y0213006D02*
X0357944Y0213006D01*
X0357649Y0212530D02*
X0357649Y0212530D01*
X0357649Y0212530D01*
X0356163Y0211408D02*
X0362500Y0211408D01*
X0362500Y0209809D02*
X0353107Y0209809D01*
X0350955Y0209197D02*
X0350955Y0209197D01*
X0347168Y0209548D02*
X0347168Y0209548D01*
X0346643Y0209809D02*
X0038107Y0209809D01*
X0039613Y0210238D02*
X0039613Y0210238D01*
X0041163Y0211408D02*
X0343613Y0211408D01*
X0343763Y0211243D02*
X0343763Y0211243D01*
X0342156Y0213006D02*
X0042944Y0213006D01*
X0042649Y0212530D02*
X0042649Y0212530D01*
X0043933Y0214605D02*
X0340987Y0214605D01*
X0340368Y0216203D02*
X0044733Y0216203D01*
X0045032Y0217802D02*
X0339826Y0217802D01*
X0339826Y0219400D02*
X0045331Y0219400D01*
X0045350Y0219503D02*
X0045350Y0219503D01*
X0045070Y0220999D02*
X0121480Y0220999D01*
X0118702Y0222597D02*
X0044772Y0222597D01*
X0044651Y0223242D02*
X0044651Y0223242D01*
X0044060Y0224196D02*
X0117559Y0224196D01*
X0117024Y0225794D02*
X0043070Y0225794D01*
X0041434Y0227393D02*
X0117024Y0227393D01*
X0126644Y0230590D02*
X0173671Y0230590D01*
X0172546Y0228991D02*
X0127769Y0228991D01*
X0155000Y0217003D02*
X0155000Y0152003D01*
X0155000Y0142003D01*
X0155086Y0142089D02*
X0154914Y0142089D01*
X0154914Y0147503D01*
X0154567Y0147503D01*
X0153712Y0147367D01*
X0152889Y0147100D01*
X0152117Y0146707D01*
X0151417Y0146198D01*
X0150805Y0145586D01*
X0150296Y0144885D01*
X0149903Y0144114D01*
X0149635Y0143291D01*
X0149500Y0142436D01*
X0149500Y0142089D01*
X0154914Y0142089D01*
X0154914Y0141917D01*
X0149500Y0141917D01*
X0149500Y0141570D01*
X0149635Y0140715D01*
X0149903Y0139892D01*
X0150296Y0139120D01*
X0150805Y0138420D01*
X0151417Y0137808D01*
X0152117Y0137299D01*
X0152889Y0136906D01*
X0153712Y0136638D01*
X0154567Y0136503D01*
X0154914Y0136503D01*
X0154914Y0141917D01*
X0155086Y0141917D01*
X0155086Y0142089D01*
X0155086Y0147503D01*
X0155433Y0147503D01*
X0156288Y0147367D01*
X0157111Y0147100D01*
X0157883Y0146707D01*
X0158583Y0146198D01*
X0159195Y0145586D01*
X0159704Y0144885D01*
X0160097Y0144114D01*
X0160365Y0143291D01*
X0160500Y0142436D01*
X0160500Y0142089D01*
X0155086Y0142089D01*
X0155086Y0141917D02*
X0160500Y0141917D01*
X0160500Y0141570D01*
X0160365Y0140715D01*
X0160097Y0139892D01*
X0159704Y0139120D01*
X0159195Y0138420D01*
X0158583Y0137808D01*
X0157883Y0137299D01*
X0157111Y0136906D01*
X0156288Y0136638D01*
X0155433Y0136503D01*
X0155086Y0136503D01*
X0155086Y0141917D01*
X0155086Y0142672D02*
X0154914Y0142672D01*
X0154914Y0144270D02*
X0155086Y0144270D01*
X0155086Y0145869D02*
X0154914Y0145869D01*
X0154914Y0147467D02*
X0155086Y0147467D01*
X0155657Y0147467D02*
X0289712Y0147467D01*
X0288113Y0145869D02*
X0279432Y0145869D01*
X0279198Y0146103D02*
X0275802Y0146103D01*
X0273400Y0143701D01*
X0273400Y0140305D01*
X0275802Y0137903D01*
X0279198Y0137903D01*
X0281600Y0140305D01*
X0281600Y0143701D01*
X0279198Y0146103D01*
X0281031Y0144270D02*
X0286515Y0144270D01*
X0284916Y0142672D02*
X0281600Y0142672D01*
X0281600Y0141073D02*
X0283318Y0141073D01*
X0281719Y0139475D02*
X0280770Y0139475D01*
X0280121Y0137876D02*
X0192300Y0137876D01*
X0192300Y0136278D02*
X0278522Y0136278D01*
X0276924Y0134679D02*
X0192300Y0134679D01*
X0192300Y0133081D02*
X0275325Y0133081D01*
X0275200Y0131482D02*
X0192300Y0131482D01*
X0192300Y0129884D02*
X0235511Y0129884D01*
X0235404Y0129840D02*
X0234363Y0128799D01*
X0233800Y0127439D01*
X0233800Y0121567D01*
X0234363Y0120207D01*
X0235404Y0119166D01*
X0236764Y0118603D01*
X0238236Y0118603D01*
X0239596Y0119166D01*
X0240637Y0120207D01*
X0241200Y0121567D01*
X0241200Y0127439D01*
X0240637Y0128799D01*
X0239596Y0129840D01*
X0238236Y0130403D01*
X0236764Y0130403D01*
X0235404Y0129840D01*
X0234151Y0128285D02*
X0192300Y0128285D01*
X0192300Y0126687D02*
X0233800Y0126687D01*
X0233800Y0125088D02*
X0192300Y0125088D01*
X0192300Y0123490D02*
X0233800Y0123490D01*
X0233800Y0121891D02*
X0192300Y0121891D01*
X0192300Y0120293D02*
X0234328Y0120293D01*
X0236544Y0118694D02*
X0192300Y0118694D01*
X0192300Y0117096D02*
X0275200Y0117096D01*
X0275200Y0118694D02*
X0258456Y0118694D01*
X0258236Y0118603D02*
X0259596Y0119166D01*
X0260637Y0120207D01*
X0261200Y0121567D01*
X0261200Y0127439D01*
X0260637Y0128799D01*
X0259596Y0129840D01*
X0258236Y0130403D01*
X0256764Y0130403D01*
X0255404Y0129840D01*
X0254363Y0128799D01*
X0253800Y0127439D01*
X0253800Y0121567D01*
X0254363Y0120207D01*
X0255404Y0119166D01*
X0256764Y0118603D01*
X0258236Y0118603D01*
X0256544Y0118694D02*
X0238456Y0118694D01*
X0240672Y0120293D02*
X0254328Y0120293D01*
X0253800Y0121891D02*
X0241200Y0121891D01*
X0241200Y0123490D02*
X0253800Y0123490D01*
X0253800Y0125088D02*
X0241200Y0125088D01*
X0241200Y0126687D02*
X0253800Y0126687D01*
X0254151Y0128285D02*
X0240849Y0128285D01*
X0239489Y0129884D02*
X0255511Y0129884D01*
X0259489Y0129884D02*
X0275200Y0129884D01*
X0275200Y0128285D02*
X0260849Y0128285D01*
X0261200Y0126687D02*
X0275200Y0126687D01*
X0275200Y0125088D02*
X0261200Y0125088D01*
X0261200Y0123490D02*
X0275200Y0123490D01*
X0275200Y0121891D02*
X0261200Y0121891D01*
X0260672Y0120293D02*
X0275200Y0120293D01*
X0275200Y0115497D02*
X0192300Y0115497D01*
X0192300Y0113899D02*
X0275200Y0113899D01*
X0275200Y0112300D02*
X0192300Y0112300D01*
X0192300Y0110702D02*
X0275200Y0110702D01*
X0275200Y0109103D02*
X0192300Y0109103D01*
X0192300Y0107505D02*
X0194603Y0107505D01*
X0195178Y0108079D02*
X0194024Y0106925D01*
X0193400Y0105418D01*
X0193400Y0098587D01*
X0194024Y0097080D01*
X0195178Y0095927D01*
X0196684Y0095303D01*
X0198316Y0095303D01*
X0199822Y0095927D01*
X0200976Y0097080D01*
X0201600Y0098587D01*
X0201600Y0105418D01*
X0200976Y0106925D01*
X0199822Y0108079D01*
X0198316Y0108703D01*
X0196684Y0108703D01*
X0195178Y0108079D01*
X0193602Y0105906D02*
X0192300Y0105906D01*
X0192300Y0104308D02*
X0193400Y0104308D01*
X0193400Y0102709D02*
X0192300Y0102709D01*
X0192300Y0101111D02*
X0193400Y0101111D01*
X0193400Y0099512D02*
X0192300Y0099512D01*
X0192300Y0097914D02*
X0193679Y0097914D01*
X0194790Y0096315D02*
X0192300Y0096315D01*
X0192300Y0094716D02*
X0350467Y0094716D01*
X0348761Y0093118D02*
X0192300Y0093118D01*
X0192300Y0091519D02*
X0347707Y0091519D01*
X0347300Y0089921D02*
X0192835Y0089921D01*
X0194433Y0088322D02*
X0347360Y0088322D01*
X0348023Y0086724D02*
X0203532Y0086724D01*
X0205130Y0085125D02*
X0349523Y0085125D01*
X0348746Y0083527D02*
X0206729Y0083527D01*
X0208327Y0081928D02*
X0347563Y0081928D01*
X0347062Y0080330D02*
X0209800Y0080330D01*
X0207500Y0079503D02*
X0202500Y0084503D01*
X0195000Y0084503D01*
X0190000Y0089503D01*
X0190000Y0137003D01*
X0185000Y0142003D01*
X0172500Y0142003D01*
X0167811Y0144270D02*
X0160017Y0144270D01*
X0160463Y0142672D02*
X0167300Y0142672D01*
X0167300Y0141073D02*
X0160421Y0141073D01*
X0159885Y0139475D02*
X0167919Y0139475D01*
X0169273Y0137876D02*
X0158652Y0137876D01*
X0155086Y0137876D02*
X0154914Y0137876D01*
X0154914Y0139475D02*
X0155086Y0139475D01*
X0155086Y0141073D02*
X0154914Y0141073D01*
X0150115Y0139475D02*
X0142081Y0139475D01*
X0141908Y0139057D02*
X0142700Y0140968D01*
X0142700Y0143037D01*
X0141908Y0144948D01*
X0140446Y0146411D01*
X0138534Y0147203D01*
X0136466Y0147203D01*
X0134554Y0146411D01*
X0133092Y0144948D01*
X0132300Y0143037D01*
X0132300Y0140968D01*
X0133092Y0139057D01*
X0134554Y0137594D01*
X0136466Y0136803D01*
X0138534Y0136803D01*
X0140446Y0137594D01*
X0141908Y0139057D01*
X0140727Y0137876D02*
X0151348Y0137876D01*
X0149579Y0141073D02*
X0142700Y0141073D01*
X0142700Y0142672D02*
X0149537Y0142672D01*
X0149983Y0144270D02*
X0142189Y0144270D01*
X0140988Y0145869D02*
X0151088Y0145869D01*
X0154343Y0147467D02*
X0120657Y0147467D01*
X0120433Y0147503D02*
X0120086Y0147503D01*
X0120086Y0142089D01*
X0119914Y0142089D01*
X0119914Y0147503D01*
X0119567Y0147503D01*
X0118712Y0147367D01*
X0117889Y0147100D01*
X0117117Y0146707D01*
X0116417Y0146198D01*
X0115805Y0145586D01*
X0115296Y0144885D01*
X0114903Y0144114D01*
X0114635Y0143291D01*
X0114500Y0142436D01*
X0114500Y0142089D01*
X0119914Y0142089D01*
X0119914Y0141917D01*
X0114500Y0141917D01*
X0114500Y0141570D01*
X0114635Y0140715D01*
X0114903Y0139892D01*
X0115296Y0139120D01*
X0115805Y0138420D01*
X0116417Y0137808D01*
X0117117Y0137299D01*
X0117889Y0136906D01*
X0118712Y0136638D01*
X0119567Y0136503D01*
X0119914Y0136503D01*
X0119914Y0141917D01*
X0120086Y0141917D01*
X0120086Y0142089D01*
X0125500Y0142089D01*
X0125500Y0142436D01*
X0125365Y0143291D01*
X0125097Y0144114D01*
X0124704Y0144885D01*
X0124195Y0145586D01*
X0123583Y0146198D01*
X0122883Y0146707D01*
X0122111Y0147100D01*
X0121288Y0147367D01*
X0120433Y0147503D01*
X0120086Y0147467D02*
X0119914Y0147467D01*
X0119343Y0147467D02*
X0085657Y0147467D01*
X0085433Y0147503D02*
X0085086Y0147503D01*
X0085086Y0142089D01*
X0084914Y0142089D01*
X0084914Y0147503D01*
X0084567Y0147503D01*
X0083712Y0147367D01*
X0082889Y0147100D01*
X0082117Y0146707D01*
X0081417Y0146198D01*
X0080805Y0145586D01*
X0080296Y0144885D01*
X0079903Y0144114D01*
X0079635Y0143291D01*
X0079500Y0142436D01*
X0079500Y0142089D01*
X0084914Y0142089D01*
X0084914Y0141917D01*
X0079500Y0141917D01*
X0079500Y0141570D01*
X0079635Y0140715D01*
X0079903Y0139892D01*
X0080296Y0139120D01*
X0080805Y0138420D01*
X0081417Y0137808D01*
X0082117Y0137299D01*
X0082889Y0136906D01*
X0083712Y0136638D01*
X0084567Y0136503D01*
X0084914Y0136503D01*
X0084914Y0141917D01*
X0085086Y0141917D01*
X0085086Y0142089D01*
X0090500Y0142089D01*
X0090500Y0142436D01*
X0090365Y0143291D01*
X0090097Y0144114D01*
X0089704Y0144885D01*
X0089195Y0145586D01*
X0088583Y0146198D01*
X0087883Y0146707D01*
X0087111Y0147100D01*
X0086288Y0147367D01*
X0085433Y0147503D01*
X0085086Y0147467D02*
X0084914Y0147467D01*
X0084343Y0147467D02*
X0022500Y0147467D01*
X0022500Y0145869D02*
X0081088Y0145869D01*
X0079983Y0144270D02*
X0022500Y0144270D01*
X0022500Y0142672D02*
X0079537Y0142672D01*
X0079579Y0141073D02*
X0022500Y0141073D01*
X0022500Y0139475D02*
X0080115Y0139475D01*
X0081348Y0137876D02*
X0022500Y0137876D01*
X0022500Y0136278D02*
X0187472Y0136278D01*
X0187700Y0134679D02*
X0036990Y0134679D01*
X0037043Y0134673D02*
X0036115Y0134778D01*
X0036115Y0125303D01*
X0034515Y0125303D01*
X0034515Y0134778D01*
X0033587Y0134673D01*
X0032459Y0134416D01*
X0031367Y0134034D01*
X0030325Y0133532D01*
X0029345Y0132916D01*
X0028441Y0132195D01*
X0027623Y0131377D01*
X0026901Y0130473D01*
X0026286Y0129493D01*
X0025784Y0128451D01*
X0025402Y0127359D01*
X0025144Y0126231D01*
X0025040Y0125303D01*
X0034515Y0125303D01*
X0034515Y0123703D01*
X0025040Y0123703D01*
X0025144Y0122775D01*
X0025402Y0121647D01*
X0025784Y0120555D01*
X0026286Y0119513D01*
X0026901Y0118533D01*
X0027623Y0117629D01*
X0028441Y0116811D01*
X0029345Y0116089D01*
X0030325Y0115474D01*
X0031367Y0114972D01*
X0032459Y0114590D01*
X0033587Y0114332D01*
X0034515Y0114228D01*
X0034515Y0123703D01*
X0036115Y0123703D01*
X0036115Y0125303D01*
X0045590Y0125303D01*
X0045485Y0126231D01*
X0045228Y0127359D01*
X0044846Y0128451D01*
X0044344Y0129493D01*
X0043728Y0130473D01*
X0043007Y0131377D01*
X0042189Y0132195D01*
X0041285Y0132916D01*
X0040305Y0133532D01*
X0039263Y0134034D01*
X0038171Y0134416D01*
X0037043Y0134673D01*
X0036115Y0134679D02*
X0034515Y0134679D01*
X0033640Y0134679D02*
X0022500Y0134679D01*
X0022500Y0133081D02*
X0029607Y0133081D01*
X0027728Y0131482D02*
X0022500Y0131482D01*
X0022500Y0129884D02*
X0026531Y0129884D01*
X0025726Y0128285D02*
X0022500Y0128285D01*
X0022500Y0126687D02*
X0025249Y0126687D01*
X0022500Y0125088D02*
X0034515Y0125088D01*
X0035000Y0124818D02*
X0035000Y0152003D01*
X0032500Y0154503D01*
X0032500Y0164503D01*
X0032980Y0164023D02*
X0032980Y0164982D01*
X0032020Y0164982D01*
X0032020Y0164023D01*
X0025950Y0164023D01*
X0025950Y0159516D01*
X0026073Y0159058D01*
X0026310Y0158648D01*
X0026645Y0158312D01*
X0027055Y0158076D01*
X0027513Y0157953D01*
X0032020Y0157953D01*
X0032020Y0164023D01*
X0032980Y0164023D01*
X0039050Y0164023D01*
X0039050Y0159516D01*
X0038927Y0159058D01*
X0038690Y0158648D01*
X0038355Y0158312D01*
X0037945Y0158076D01*
X0037487Y0157953D01*
X0032980Y0157953D01*
X0032980Y0164023D01*
X0032980Y0163452D02*
X0032020Y0163452D01*
X0032020Y0164982D02*
X0025950Y0164982D01*
X0025950Y0169490D01*
X0026073Y0169948D01*
X0026310Y0170358D01*
X0026645Y0170693D01*
X0027055Y0170930D01*
X0027513Y0171053D01*
X0032020Y0171053D01*
X0032020Y0164982D01*
X0032020Y0165051D02*
X0032980Y0165051D01*
X0032980Y0166650D02*
X0032020Y0166650D01*
X0032020Y0168248D02*
X0032980Y0168248D01*
X0032980Y0169847D02*
X0032020Y0169847D01*
X0026046Y0169847D02*
X0022500Y0169847D01*
X0022500Y0171445D02*
X0313690Y0171445D01*
X0307295Y0165051D02*
X0280674Y0165051D01*
X0281900Y0163452D02*
X0305697Y0163452D01*
X0304098Y0161854D02*
X0281900Y0161854D01*
X0281900Y0162003D02*
X0277500Y0162003D01*
X0277500Y0162003D01*
X0273100Y0162003D01*
X0273100Y0160180D01*
X0275677Y0157603D01*
X0277500Y0157603D01*
X0279323Y0157603D01*
X0281900Y0160180D01*
X0281900Y0162003D01*
X0281900Y0160255D02*
X0302500Y0160255D01*
X0300901Y0158657D02*
X0280377Y0158657D01*
X0277500Y0158657D02*
X0277500Y0158657D01*
X0277500Y0157603D02*
X0277500Y0162003D01*
X0277500Y0162003D01*
X0277500Y0157603D01*
X0274623Y0158657D02*
X0260377Y0158657D01*
X0259323Y0157603D02*
X0257500Y0157603D01*
X0257500Y0162003D01*
X0257500Y0162003D01*
X0253100Y0162003D01*
X0253100Y0160180D01*
X0255677Y0157603D01*
X0257500Y0157603D01*
X0257500Y0162003D01*
X0261900Y0162003D01*
X0261900Y0160180D01*
X0259323Y0157603D01*
X0257500Y0158657D02*
X0257500Y0158657D01*
X0257500Y0160255D02*
X0257500Y0160255D01*
X0257500Y0161854D02*
X0257500Y0161854D01*
X0257500Y0162003D02*
X0257500Y0162003D01*
X0257500Y0163452D02*
X0257500Y0163452D01*
X0257500Y0165051D02*
X0257500Y0165051D01*
X0260674Y0165051D02*
X0274326Y0165051D01*
X0273100Y0163452D02*
X0261900Y0163452D01*
X0261900Y0161854D02*
X0273100Y0161854D01*
X0273100Y0160255D02*
X0261900Y0160255D01*
X0254623Y0158657D02*
X0240377Y0158657D01*
X0239323Y0157603D02*
X0241900Y0160180D01*
X0241900Y0162003D01*
X0237500Y0162003D01*
X0237500Y0162003D01*
X0233100Y0162003D01*
X0233100Y0163825D01*
X0233100Y0163452D02*
X0039050Y0163452D01*
X0039050Y0161854D02*
X0233100Y0161854D01*
X0233100Y0162003D02*
X0233100Y0160180D01*
X0235677Y0157603D01*
X0237500Y0157603D01*
X0239323Y0157603D01*
X0237500Y0157603D02*
X0237500Y0162003D01*
X0233100Y0162003D01*
X0233100Y0160255D02*
X0039050Y0160255D01*
X0038696Y0158657D02*
X0234623Y0158657D01*
X0237500Y0158657D02*
X0237500Y0158657D01*
X0237500Y0157603D02*
X0237500Y0162003D01*
X0237500Y0162003D01*
X0237500Y0161854D02*
X0237500Y0161854D01*
X0237500Y0163452D02*
X0237500Y0163452D01*
X0237500Y0165051D02*
X0237500Y0165051D01*
X0240674Y0165051D02*
X0254326Y0165051D01*
X0253100Y0163452D02*
X0241900Y0163452D01*
X0241900Y0161854D02*
X0253100Y0161854D01*
X0253100Y0160255D02*
X0241900Y0160255D01*
X0237500Y0160255D02*
X0237500Y0160255D01*
X0247500Y0162003D02*
X0247500Y0124503D01*
X0257500Y0114503D01*
X0257500Y0102003D01*
X0257500Y0102003D01*
X0257500Y0109003D01*
X0257846Y0109003D01*
X0258530Y0108894D01*
X0259189Y0108680D01*
X0259806Y0108366D01*
X0260366Y0107959D01*
X0260856Y0107469D01*
X0261263Y0106909D01*
X0261578Y0106292D01*
X0261792Y0105633D01*
X0261900Y0104949D01*
X0261900Y0102003D01*
X0257500Y0102003D01*
X0257500Y0109003D01*
X0257154Y0109003D01*
X0256470Y0108894D01*
X0255811Y0108680D01*
X0255194Y0108366D01*
X0254634Y0107959D01*
X0254144Y0107469D01*
X0253737Y0106909D01*
X0253422Y0106292D01*
X0253208Y0105633D01*
X0253100Y0104949D01*
X0253100Y0102003D01*
X0257500Y0102003D01*
X0257500Y0102003D01*
X0257500Y0089503D01*
X0267500Y0079503D01*
X0267500Y0078731D02*
X0267500Y0078731D01*
X0269032Y0078731D02*
X0347054Y0078731D01*
X0347535Y0077133D02*
X0330768Y0077133D01*
X0331600Y0072337D02*
X0362500Y0072337D01*
X0362500Y0070739D02*
X0331600Y0070739D01*
X0331600Y0069140D02*
X0362500Y0069140D01*
X0362500Y0067542D02*
X0331167Y0067542D01*
X0329839Y0065943D02*
X0362500Y0065943D01*
X0362500Y0064345D02*
X0313095Y0064345D01*
X0314693Y0065943D02*
X0315161Y0065943D01*
X0319839Y0065943D02*
X0325161Y0065943D01*
X0323833Y0067542D02*
X0321167Y0067542D01*
X0321600Y0069140D02*
X0323400Y0069140D01*
X0323400Y0070739D02*
X0321600Y0070739D01*
X0321600Y0072337D02*
X0323400Y0072337D01*
X0323400Y0073936D02*
X0321600Y0073936D01*
X0321552Y0075534D02*
X0323448Y0075534D01*
X0324232Y0077133D02*
X0320768Y0077133D01*
X0311496Y0062746D02*
X0362500Y0062746D01*
X0362500Y0061148D02*
X0309898Y0061148D01*
X0309800Y0059549D02*
X0362500Y0059549D01*
X0362500Y0057951D02*
X0309800Y0057951D01*
X0309800Y0056352D02*
X0314495Y0056352D01*
X0314554Y0056411D02*
X0313092Y0054948D01*
X0312300Y0053037D01*
X0312300Y0050968D01*
X0313092Y0049057D01*
X0314554Y0047594D01*
X0316466Y0046803D01*
X0318534Y0046803D01*
X0320446Y0047594D01*
X0321908Y0049057D01*
X0322700Y0050968D01*
X0322700Y0053037D01*
X0321908Y0054948D01*
X0320446Y0056411D01*
X0318534Y0057203D01*
X0316466Y0057203D01*
X0314554Y0056411D01*
X0313011Y0054754D02*
X0309800Y0054754D01*
X0309800Y0053155D02*
X0312349Y0053155D01*
X0312300Y0051557D02*
X0309800Y0051557D01*
X0309800Y0049958D02*
X0312718Y0049958D01*
X0313789Y0048360D02*
X0309800Y0048360D01*
X0309800Y0046761D02*
X0362500Y0046761D01*
X0362500Y0045163D02*
X0309800Y0045163D01*
X0309800Y0043564D02*
X0362500Y0043564D01*
X0362500Y0041966D02*
X0309800Y0041966D01*
X0309800Y0040367D02*
X0362500Y0040367D01*
X0362500Y0038769D02*
X0309800Y0038769D01*
X0309800Y0037170D02*
X0362500Y0037170D01*
X0362500Y0035572D02*
X0309800Y0035572D01*
X0309800Y0033973D02*
X0362500Y0033973D01*
X0362500Y0032375D02*
X0309800Y0032375D01*
X0305200Y0032375D02*
X0284200Y0032375D01*
X0284200Y0032818D02*
X0283576Y0034325D01*
X0282422Y0035479D01*
X0280916Y0036103D01*
X0274084Y0036103D01*
X0272578Y0035479D01*
X0271424Y0034325D01*
X0270800Y0032818D01*
X0270800Y0031187D01*
X0271424Y0029680D01*
X0272578Y0028527D01*
X0274084Y0027903D01*
X0280916Y0027903D01*
X0282422Y0028527D01*
X0283576Y0029680D01*
X0284200Y0031187D01*
X0284200Y0032818D01*
X0283722Y0033973D02*
X0305200Y0033973D01*
X0305200Y0035572D02*
X0282198Y0035572D01*
X0280916Y0037903D02*
X0282422Y0038527D01*
X0283576Y0039680D01*
X0284200Y0041187D01*
X0284200Y0042818D01*
X0283576Y0044325D01*
X0282422Y0045479D01*
X0280916Y0046103D01*
X0274084Y0046103D01*
X0272578Y0045479D01*
X0271424Y0044325D01*
X0270800Y0042818D01*
X0270800Y0041187D01*
X0271424Y0039680D01*
X0272578Y0038527D01*
X0274084Y0037903D01*
X0280916Y0037903D01*
X0282664Y0038769D02*
X0305200Y0038769D01*
X0305200Y0040367D02*
X0283860Y0040367D01*
X0284200Y0041966D02*
X0305200Y0041966D01*
X0305200Y0043564D02*
X0283891Y0043564D01*
X0282738Y0045163D02*
X0305200Y0045163D01*
X0305200Y0046761D02*
X0236600Y0046761D01*
X0236600Y0046187D02*
X0235976Y0044680D01*
X0234822Y0043527D01*
X0233316Y0042903D01*
X0231684Y0042903D01*
X0230178Y0043527D01*
X0229024Y0044680D01*
X0228400Y0046187D01*
X0228400Y0047818D01*
X0229024Y0049325D01*
X0230178Y0050479D01*
X0231684Y0051103D01*
X0233316Y0051103D01*
X0234822Y0050479D01*
X0235976Y0049325D01*
X0236600Y0047818D01*
X0236600Y0046187D01*
X0236176Y0045163D02*
X0242262Y0045163D01*
X0242578Y0045479D02*
X0241424Y0044325D01*
X0240800Y0042818D01*
X0240800Y0041187D01*
X0241424Y0039680D01*
X0242578Y0038527D01*
X0244084Y0037903D01*
X0250916Y0037903D01*
X0252422Y0038527D01*
X0253576Y0039680D01*
X0254200Y0041187D01*
X0254200Y0042818D01*
X0253576Y0044325D01*
X0252422Y0045479D01*
X0250916Y0046103D01*
X0244084Y0046103D01*
X0242578Y0045479D01*
X0241109Y0043564D02*
X0234860Y0043564D01*
X0230140Y0043564D02*
X0224860Y0043564D01*
X0224822Y0043527D02*
X0225976Y0044680D01*
X0226600Y0046187D01*
X0226600Y0047818D01*
X0225976Y0049325D01*
X0224822Y0050479D01*
X0223316Y0051103D01*
X0221684Y0051103D01*
X0220178Y0050479D01*
X0219024Y0049325D01*
X0218400Y0047818D01*
X0218400Y0046187D01*
X0219024Y0044680D01*
X0220178Y0043527D01*
X0221684Y0042903D01*
X0223316Y0042903D01*
X0224822Y0043527D01*
X0226176Y0045163D02*
X0228824Y0045163D01*
X0228400Y0046761D02*
X0226600Y0046761D01*
X0226376Y0048360D02*
X0228624Y0048360D01*
X0229657Y0049958D02*
X0225343Y0049958D01*
X0219657Y0049958D02*
X0069800Y0049958D01*
X0069800Y0048360D02*
X0218624Y0048360D01*
X0218400Y0046761D02*
X0069800Y0046761D01*
X0069800Y0045163D02*
X0218824Y0045163D01*
X0220140Y0043564D02*
X0069800Y0043564D01*
X0069800Y0041966D02*
X0240800Y0041966D01*
X0241140Y0040367D02*
X0069800Y0040367D01*
X0069800Y0038769D02*
X0242336Y0038769D01*
X0244084Y0036103D02*
X0242578Y0035479D01*
X0241424Y0034325D01*
X0240800Y0032818D01*
X0240800Y0031187D01*
X0241424Y0029680D01*
X0242578Y0028527D01*
X0244084Y0027903D01*
X0250916Y0027903D01*
X0252422Y0028527D01*
X0253576Y0029680D01*
X0254200Y0031187D01*
X0254200Y0032818D01*
X0253576Y0034325D01*
X0252422Y0035479D01*
X0250916Y0036103D01*
X0244084Y0036103D01*
X0242802Y0035572D02*
X0084730Y0035572D01*
X0084198Y0036103D02*
X0080802Y0036103D01*
X0078400Y0033701D01*
X0078400Y0030305D01*
X0080802Y0027903D01*
X0084198Y0027903D01*
X0086600Y0030305D01*
X0086600Y0033701D01*
X0084198Y0036103D01*
X0086328Y0033973D02*
X0241278Y0033973D01*
X0240800Y0032375D02*
X0086600Y0032375D01*
X0086600Y0030776D02*
X0240970Y0030776D01*
X0241927Y0029178D02*
X0085473Y0029178D01*
X0079527Y0029178D02*
X0069800Y0029178D01*
X0069800Y0030776D02*
X0078400Y0030776D01*
X0078400Y0032375D02*
X0069800Y0032375D01*
X0069800Y0033973D02*
X0078672Y0033973D01*
X0080270Y0035572D02*
X0069800Y0035572D01*
X0069800Y0037170D02*
X0305200Y0037170D01*
X0305200Y0030776D02*
X0284030Y0030776D01*
X0283073Y0029178D02*
X0305200Y0029178D01*
X0305200Y0027579D02*
X0069800Y0027579D01*
X0069800Y0025981D02*
X0243015Y0025981D01*
X0243211Y0026080D02*
X0242594Y0025766D01*
X0242034Y0025359D01*
X0241544Y0024869D01*
X0241137Y0024309D01*
X0240822Y0023692D01*
X0240608Y0023033D01*
X0240500Y0022349D01*
X0240500Y0022003D01*
X0247500Y0022003D01*
X0247500Y0022003D01*
X0247500Y0026403D01*
X0250446Y0026403D01*
X0251130Y0026294D01*
X0251789Y0026080D01*
X0252406Y0025766D01*
X0252966Y0025359D01*
X0253456Y0024869D01*
X0253863Y0024309D01*
X0254178Y0023692D01*
X0254392Y0023033D01*
X0254500Y0022349D01*
X0254500Y0022003D01*
X0247500Y0022003D01*
X0247500Y0026403D01*
X0244554Y0026403D01*
X0243870Y0026294D01*
X0243211Y0026080D01*
X0241190Y0024382D02*
X0069800Y0024382D01*
X0069800Y0022783D02*
X0240569Y0022783D01*
X0240500Y0022003D02*
X0240500Y0021657D01*
X0240608Y0020973D01*
X0240822Y0020314D01*
X0241137Y0019697D01*
X0241544Y0019136D01*
X0242034Y0018647D01*
X0242594Y0018240D01*
X0243211Y0017925D01*
X0243870Y0017711D01*
X0244554Y0017603D01*
X0247500Y0017603D01*
X0250446Y0017603D01*
X0251130Y0017711D01*
X0251789Y0017925D01*
X0252406Y0018240D01*
X0252966Y0018647D01*
X0253456Y0019136D01*
X0253863Y0019697D01*
X0254178Y0020314D01*
X0254392Y0020973D01*
X0254500Y0021657D01*
X0254500Y0022003D01*
X0247500Y0022003D01*
X0247500Y0022003D01*
X0262500Y0022003D01*
X0267500Y0027003D01*
X0267500Y0072003D01*
X0267500Y0072003D01*
X0263100Y0072003D01*
X0263100Y0074949D01*
X0263208Y0075633D01*
X0263422Y0076292D01*
X0263737Y0076909D01*
X0264144Y0077469D01*
X0264634Y0077959D01*
X0265194Y0078366D01*
X0265811Y0078680D01*
X0267500Y0077133D02*
X0267500Y0077133D01*
X0267500Y0075534D02*
X0267500Y0075534D01*
X0267500Y0073936D02*
X0267500Y0073936D01*
X0267500Y0072337D02*
X0267500Y0072337D01*
X0267500Y0072003D02*
X0263100Y0072003D01*
X0263100Y0069057D01*
X0263208Y0068373D01*
X0263422Y0067714D01*
X0263737Y0067097D01*
X0264144Y0066536D01*
X0264634Y0066047D01*
X0265194Y0065640D01*
X0265811Y0065325D01*
X0266470Y0065111D01*
X0267154Y0065003D01*
X0267500Y0065003D01*
X0267846Y0065003D01*
X0268530Y0065111D01*
X0269189Y0065325D01*
X0269806Y0065640D01*
X0270366Y0066047D01*
X0270856Y0066536D01*
X0271263Y0067097D01*
X0271578Y0067714D01*
X0271792Y0068373D01*
X0271900Y0069057D01*
X0271900Y0072003D01*
X0267500Y0072003D01*
X0267500Y0065003D01*
X0267500Y0072003D01*
X0267500Y0072003D01*
X0267500Y0070739D02*
X0267500Y0070739D01*
X0267500Y0069140D02*
X0267500Y0069140D01*
X0267500Y0067542D02*
X0267500Y0067542D01*
X0267500Y0065943D02*
X0267500Y0065943D01*
X0270224Y0065943D02*
X0275161Y0065943D01*
X0275178Y0065927D02*
X0276684Y0065303D01*
X0278316Y0065303D01*
X0279822Y0065927D01*
X0280976Y0067080D01*
X0281600Y0068587D01*
X0281600Y0075418D01*
X0280976Y0076925D01*
X0279822Y0078079D01*
X0278316Y0078703D01*
X0276684Y0078703D01*
X0275178Y0078079D01*
X0274024Y0076925D01*
X0273400Y0075418D01*
X0273400Y0068587D01*
X0274024Y0067080D01*
X0275178Y0065927D01*
X0273833Y0067542D02*
X0271490Y0067542D01*
X0271900Y0069140D02*
X0273400Y0069140D01*
X0273400Y0070739D02*
X0271900Y0070739D01*
X0271900Y0072337D02*
X0273400Y0072337D01*
X0273400Y0073936D02*
X0271900Y0073936D01*
X0271807Y0075534D02*
X0273448Y0075534D01*
X0274232Y0077133D02*
X0271101Y0077133D01*
X0263899Y0077133D02*
X0260768Y0077133D01*
X0260976Y0076925D02*
X0259822Y0078079D01*
X0258316Y0078703D01*
X0256684Y0078703D01*
X0255178Y0078079D01*
X0254024Y0076925D01*
X0253400Y0075418D01*
X0253400Y0068587D01*
X0254024Y0067080D01*
X0255178Y0065927D01*
X0256684Y0065303D01*
X0258316Y0065303D01*
X0259822Y0065927D01*
X0260976Y0067080D01*
X0261600Y0068587D01*
X0261600Y0075418D01*
X0260976Y0076925D01*
X0261552Y0075534D02*
X0263193Y0075534D01*
X0263100Y0073936D02*
X0261600Y0073936D01*
X0261600Y0072337D02*
X0263100Y0072337D01*
X0263100Y0070739D02*
X0261600Y0070739D01*
X0261600Y0069140D02*
X0263100Y0069140D01*
X0263510Y0067542D02*
X0261167Y0067542D01*
X0259839Y0065943D02*
X0264776Y0065943D01*
X0255161Y0065943D02*
X0249839Y0065943D01*
X0249822Y0065927D02*
X0250976Y0067080D01*
X0251600Y0068587D01*
X0251600Y0075418D01*
X0250976Y0076925D01*
X0249822Y0078079D01*
X0248316Y0078703D01*
X0246684Y0078703D01*
X0245178Y0078079D01*
X0244024Y0076925D01*
X0243400Y0075418D01*
X0243400Y0068587D01*
X0244024Y0067080D01*
X0245178Y0065927D01*
X0246684Y0065303D01*
X0248316Y0065303D01*
X0249822Y0065927D01*
X0251167Y0067542D02*
X0253833Y0067542D01*
X0253400Y0069140D02*
X0251600Y0069140D01*
X0251600Y0070739D02*
X0253400Y0070739D01*
X0253400Y0072337D02*
X0251600Y0072337D01*
X0251600Y0073936D02*
X0253400Y0073936D01*
X0253448Y0075534D02*
X0251552Y0075534D01*
X0250768Y0077133D02*
X0254232Y0077133D01*
X0244232Y0077133D02*
X0240768Y0077133D01*
X0240976Y0076925D02*
X0239822Y0078079D01*
X0238316Y0078703D01*
X0236684Y0078703D01*
X0235178Y0078079D01*
X0234024Y0076925D01*
X0233400Y0075418D01*
X0233400Y0068587D01*
X0234024Y0067080D01*
X0235178Y0065927D01*
X0236684Y0065303D01*
X0238316Y0065303D01*
X0239822Y0065927D01*
X0240976Y0067080D01*
X0241600Y0068587D01*
X0241600Y0075418D01*
X0240976Y0076925D01*
X0241552Y0075534D02*
X0243448Y0075534D01*
X0243400Y0073936D02*
X0241600Y0073936D01*
X0241600Y0072337D02*
X0243400Y0072337D01*
X0243400Y0070739D02*
X0241600Y0070739D01*
X0241600Y0069140D02*
X0243400Y0069140D01*
X0243833Y0067542D02*
X0241167Y0067542D01*
X0239839Y0065943D02*
X0245161Y0065943D01*
X0235161Y0065943D02*
X0229839Y0065943D01*
X0229822Y0065927D02*
X0230976Y0067080D01*
X0231600Y0068587D01*
X0231600Y0075418D01*
X0230976Y0076925D01*
X0229822Y0078079D01*
X0228316Y0078703D01*
X0226684Y0078703D01*
X0225178Y0078079D01*
X0224024Y0076925D01*
X0223400Y0075418D01*
X0223400Y0068587D01*
X0224024Y0067080D01*
X0225178Y0065927D01*
X0226684Y0065303D01*
X0228316Y0065303D01*
X0229822Y0065927D01*
X0231167Y0067542D02*
X0233833Y0067542D01*
X0233400Y0069140D02*
X0231600Y0069140D01*
X0231600Y0070739D02*
X0233400Y0070739D01*
X0233400Y0072337D02*
X0231600Y0072337D01*
X0231600Y0073936D02*
X0233400Y0073936D01*
X0233448Y0075534D02*
X0231552Y0075534D01*
X0230768Y0077133D02*
X0234232Y0077133D01*
X0224232Y0077133D02*
X0220768Y0077133D01*
X0221552Y0075534D02*
X0223448Y0075534D01*
X0223400Y0073936D02*
X0221600Y0073936D01*
X0221600Y0072337D02*
X0223400Y0072337D01*
X0223400Y0070739D02*
X0221600Y0070739D01*
X0221600Y0069140D02*
X0223400Y0069140D01*
X0223833Y0067542D02*
X0221167Y0067542D01*
X0219839Y0065943D02*
X0225161Y0065943D01*
X0207500Y0072003D02*
X0207500Y0079503D01*
X0203420Y0080330D02*
X0069800Y0080330D01*
X0069800Y0081928D02*
X0201822Y0081928D01*
X0192723Y0083527D02*
X0069800Y0083527D01*
X0069800Y0085125D02*
X0191125Y0085125D01*
X0189526Y0086724D02*
X0069800Y0086724D01*
X0069800Y0088322D02*
X0187928Y0088322D01*
X0187700Y0089921D02*
X0070781Y0089921D01*
X0070781Y0089600D02*
X0069902Y0088722D01*
X0069800Y0088722D01*
X0069800Y0020501D01*
X0071600Y0018701D01*
X0071600Y0015305D01*
X0069198Y0012903D01*
X0065802Y0012903D01*
X0063400Y0015305D01*
X0063400Y0018701D01*
X0065200Y0020501D01*
X0065200Y0020980D01*
X0064323Y0020103D01*
X0062500Y0020103D01*
X0062500Y0024503D01*
X0062500Y0024503D01*
X0062500Y0028903D01*
X0064323Y0028903D01*
X0065200Y0028025D01*
X0065200Y0088722D01*
X0065098Y0088722D01*
X0064219Y0089600D01*
X0064219Y0094405D01*
X0065098Y0095284D01*
X0069902Y0095284D01*
X0070781Y0094405D01*
X0070781Y0089600D01*
X0070781Y0091519D02*
X0187700Y0091519D01*
X0187700Y0093118D02*
X0070781Y0093118D01*
X0070470Y0094716D02*
X0187700Y0094716D01*
X0187700Y0096315D02*
X0050637Y0096315D01*
X0051074Y0096468D02*
X0052116Y0096970D01*
X0053096Y0097585D01*
X0054000Y0098307D01*
X0054818Y0099125D01*
X0055539Y0100029D01*
X0056155Y0101009D01*
X0056657Y0102051D01*
X0057039Y0103143D01*
X0057296Y0104271D01*
X0057401Y0105199D01*
X0047926Y0105199D01*
X0047926Y0106799D01*
X0046326Y0106799D01*
X0046326Y0116274D01*
X0045398Y0116169D01*
X0044270Y0115912D01*
X0043178Y0115530D01*
X0042136Y0115028D01*
X0041156Y0114412D01*
X0040252Y0113691D01*
X0039434Y0112873D01*
X0038712Y0111969D01*
X0038097Y0110989D01*
X0037595Y0109947D01*
X0037213Y0108855D01*
X0036956Y0107727D01*
X0036851Y0106799D01*
X0046326Y0106799D01*
X0046326Y0105199D01*
X0036851Y0105199D01*
X0036956Y0104271D01*
X0037213Y0103143D01*
X0037595Y0102051D01*
X0038097Y0101009D01*
X0038712Y0100029D01*
X0039434Y0099125D01*
X0040252Y0098307D01*
X0041156Y0097585D01*
X0042136Y0096970D01*
X0043178Y0096468D01*
X0044270Y0096086D01*
X0045398Y0095828D01*
X0046326Y0095724D01*
X0046326Y0105199D01*
X0047926Y0105199D01*
X0047926Y0095724D01*
X0048854Y0095828D01*
X0049982Y0096086D01*
X0051074Y0096468D01*
X0053507Y0097914D02*
X0081735Y0097914D01*
X0082054Y0097594D02*
X0083966Y0096803D01*
X0086034Y0096803D01*
X0087946Y0097594D01*
X0089408Y0099057D01*
X0090200Y0100968D01*
X0090200Y0103037D01*
X0089408Y0104948D01*
X0087946Y0106411D01*
X0086034Y0107203D01*
X0083966Y0107203D01*
X0082054Y0106411D01*
X0080592Y0104948D01*
X0079800Y0103037D01*
X0079800Y0100968D01*
X0080592Y0099057D01*
X0082054Y0097594D01*
X0080403Y0099512D02*
X0055127Y0099512D01*
X0056204Y0101111D02*
X0079800Y0101111D01*
X0079800Y0102709D02*
X0056887Y0102709D01*
X0057301Y0104308D02*
X0080326Y0104308D01*
X0081549Y0105906D02*
X0047926Y0105906D01*
X0047126Y0105999D02*
X0057500Y0095625D01*
X0057500Y0092003D01*
X0064219Y0091519D02*
X0022500Y0091519D01*
X0022500Y0089921D02*
X0064219Y0089921D01*
X0065200Y0088322D02*
X0022500Y0088322D01*
X0022500Y0086724D02*
X0065200Y0086724D01*
X0065200Y0085125D02*
X0022500Y0085125D01*
X0022500Y0083527D02*
X0065200Y0083527D01*
X0065200Y0081928D02*
X0022500Y0081928D01*
X0022500Y0080330D02*
X0065200Y0080330D01*
X0065200Y0078731D02*
X0022500Y0078731D01*
X0022500Y0077133D02*
X0065200Y0077133D01*
X0065200Y0075534D02*
X0022500Y0075534D01*
X0022500Y0073936D02*
X0065200Y0073936D01*
X0065200Y0072337D02*
X0022500Y0072337D01*
X0022500Y0070739D02*
X0065200Y0070739D01*
X0065200Y0069140D02*
X0022500Y0069140D01*
X0022500Y0067542D02*
X0065200Y0067542D01*
X0065200Y0065943D02*
X0047993Y0065943D01*
X0048281Y0065655D02*
X0047402Y0066534D01*
X0042598Y0066534D01*
X0041719Y0065655D01*
X0041719Y0060850D01*
X0042598Y0059972D01*
X0042700Y0059972D01*
X0042700Y0047784D01*
X0042598Y0047784D01*
X0041719Y0046905D01*
X0041719Y0042100D01*
X0042598Y0041222D01*
X0047402Y0041222D01*
X0048281Y0042100D01*
X0048281Y0046905D01*
X0047402Y0047784D01*
X0047300Y0047784D01*
X0047300Y0059972D01*
X0047402Y0059972D01*
X0048281Y0060850D01*
X0048281Y0065655D01*
X0048281Y0064345D02*
X0065200Y0064345D01*
X0065200Y0062746D02*
X0048281Y0062746D01*
X0048281Y0061148D02*
X0065200Y0061148D01*
X0065200Y0059549D02*
X0047300Y0059549D01*
X0047300Y0057951D02*
X0065200Y0057951D01*
X0065200Y0056352D02*
X0047300Y0056352D01*
X0047300Y0054754D02*
X0065200Y0054754D01*
X0065200Y0053155D02*
X0047300Y0053155D01*
X0047300Y0051557D02*
X0065200Y0051557D01*
X0065200Y0049958D02*
X0047300Y0049958D01*
X0047300Y0048360D02*
X0065200Y0048360D01*
X0065200Y0046761D02*
X0048281Y0046761D01*
X0048281Y0045163D02*
X0065200Y0045163D01*
X0065200Y0043564D02*
X0048281Y0043564D01*
X0048146Y0041966D02*
X0065200Y0041966D01*
X0065200Y0040367D02*
X0022500Y0040367D01*
X0022500Y0038769D02*
X0065200Y0038769D01*
X0065200Y0037170D02*
X0022500Y0037170D01*
X0022500Y0035572D02*
X0065200Y0035572D01*
X0065200Y0033973D02*
X0022500Y0033973D01*
X0022500Y0032375D02*
X0065200Y0032375D01*
X0065200Y0030776D02*
X0022500Y0030776D01*
X0022500Y0029178D02*
X0031605Y0029178D01*
X0032168Y0029458D02*
X0028763Y0027762D01*
X0026200Y0024951D01*
X0024826Y0021405D01*
X0024826Y0017601D01*
X0026200Y0014054D01*
X0028763Y0011243D01*
X0032168Y0009548D01*
X0035955Y0009197D01*
X0039613Y0010238D01*
X0039613Y0010238D01*
X0042649Y0012530D01*
X0044651Y0015764D01*
X0045350Y0019503D01*
X0044651Y0023242D01*
X0042649Y0026476D01*
X0042649Y0026476D01*
X0042649Y0026476D01*
X0039613Y0028768D01*
X0035955Y0029809D01*
X0032168Y0029458D01*
X0032168Y0029458D01*
X0035955Y0029809D02*
X0035955Y0029809D01*
X0038173Y0029178D02*
X0065200Y0029178D01*
X0062500Y0028903D02*
X0060677Y0028903D01*
X0058100Y0026325D01*
X0058100Y0024503D01*
X0062500Y0024503D01*
X0062500Y0028903D01*
X0062500Y0027579D02*
X0062500Y0027579D01*
X0062500Y0025981D02*
X0062500Y0025981D01*
X0062500Y0024503D02*
X0062500Y0024503D01*
X0060000Y0027003D01*
X0060000Y0044503D01*
X0069800Y0051557D02*
X0240800Y0051557D01*
X0240800Y0051187D02*
X0241424Y0049680D01*
X0242578Y0048527D01*
X0244084Y0047903D01*
X0250916Y0047903D01*
X0252422Y0048527D01*
X0253576Y0049680D01*
X0254200Y0051187D01*
X0254200Y0052818D01*
X0253576Y0054325D01*
X0252422Y0055479D01*
X0250916Y0056103D01*
X0244084Y0056103D01*
X0242578Y0055479D01*
X0241424Y0054325D01*
X0240800Y0052818D01*
X0240800Y0051187D01*
X0241309Y0049958D02*
X0235343Y0049958D01*
X0236376Y0048360D02*
X0242982Y0048360D01*
X0240940Y0053155D02*
X0069800Y0053155D01*
X0069800Y0054754D02*
X0241853Y0054754D01*
X0253147Y0054754D02*
X0271853Y0054754D01*
X0271424Y0054325D02*
X0270800Y0052818D01*
X0270800Y0051187D01*
X0271424Y0049680D01*
X0272578Y0048527D01*
X0274084Y0047903D01*
X0280916Y0047903D01*
X0282422Y0048527D01*
X0283576Y0049680D01*
X0284200Y0051187D01*
X0284200Y0052818D01*
X0283576Y0054325D01*
X0282422Y0055479D01*
X0280916Y0056103D01*
X0274084Y0056103D01*
X0272578Y0055479D01*
X0271424Y0054325D01*
X0270940Y0053155D02*
X0254060Y0053155D01*
X0254200Y0051557D02*
X0270800Y0051557D01*
X0271309Y0049958D02*
X0253691Y0049958D01*
X0252018Y0048360D02*
X0272982Y0048360D01*
X0272262Y0045163D02*
X0252738Y0045163D01*
X0253891Y0043564D02*
X0271109Y0043564D01*
X0270800Y0041966D02*
X0254200Y0041966D01*
X0253860Y0040367D02*
X0271140Y0040367D01*
X0272336Y0038769D02*
X0252664Y0038769D01*
X0252198Y0035572D02*
X0272802Y0035572D01*
X0271278Y0033973D02*
X0253722Y0033973D01*
X0254200Y0032375D02*
X0270800Y0032375D01*
X0270970Y0030776D02*
X0254030Y0030776D01*
X0253073Y0029178D02*
X0271927Y0029178D01*
X0273789Y0025981D02*
X0251985Y0025981D01*
X0253810Y0024382D02*
X0271481Y0024382D01*
X0271424Y0024325D02*
X0270800Y0022818D01*
X0270800Y0021187D01*
X0271424Y0019680D01*
X0272578Y0018527D01*
X0274084Y0017903D01*
X0280916Y0017903D01*
X0282422Y0018527D01*
X0283576Y0019680D01*
X0284200Y0021187D01*
X0284200Y0022818D01*
X0283576Y0024325D01*
X0282422Y0025479D01*
X0280916Y0026103D01*
X0274084Y0026103D01*
X0272578Y0025479D01*
X0271424Y0024325D01*
X0270800Y0022783D02*
X0254431Y0022783D01*
X0254425Y0021185D02*
X0270801Y0021185D01*
X0271518Y0019586D02*
X0253783Y0019586D01*
X0251912Y0017988D02*
X0273879Y0017988D01*
X0281121Y0017988D02*
X0305200Y0017988D01*
X0305200Y0019586D02*
X0283482Y0019586D01*
X0284199Y0021185D02*
X0305200Y0021185D01*
X0305200Y0022783D02*
X0284200Y0022783D01*
X0283519Y0024382D02*
X0305200Y0024382D01*
X0305200Y0025981D02*
X0281211Y0025981D01*
X0293026Y0014791D02*
X0085934Y0014791D01*
X0086900Y0013825D02*
X0084323Y0016403D01*
X0082500Y0016403D01*
X0082500Y0012003D01*
X0082500Y0012003D01*
X0082500Y0016403D01*
X0080677Y0016403D01*
X0078100Y0013825D01*
X0078100Y0012003D01*
X0082500Y0012003D01*
X0065000Y0012003D01*
X0062500Y0014503D01*
X0062500Y0024503D01*
X0058100Y0024503D01*
X0058100Y0022680D01*
X0060677Y0020103D01*
X0062500Y0020103D01*
X0062500Y0024503D01*
X0062500Y0024503D01*
X0062500Y0024382D02*
X0062500Y0024382D01*
X0062500Y0022783D02*
X0062500Y0022783D01*
X0062500Y0021185D02*
X0062500Y0021185D01*
X0060715Y0019586D02*
X0064285Y0019586D01*
X0063400Y0017988D02*
X0061600Y0017988D01*
X0061600Y0018701D02*
X0059198Y0021103D01*
X0055802Y0021103D01*
X0053400Y0018701D01*
X0053400Y0015305D01*
X0055802Y0012903D01*
X0059198Y0012903D01*
X0061600Y0015305D01*
X0061600Y0018701D01*
X0061600Y0016389D02*
X0063400Y0016389D01*
X0063914Y0014791D02*
X0061086Y0014791D01*
X0059488Y0013192D02*
X0065512Y0013192D01*
X0069488Y0013192D02*
X0078100Y0013192D01*
X0078100Y0012003D02*
X0078100Y0010180D01*
X0080677Y0007603D01*
X0082500Y0007603D01*
X0084323Y0007603D01*
X0086900Y0010180D01*
X0086900Y0012003D01*
X0086900Y0013825D01*
X0086900Y0013192D02*
X0292364Y0013192D01*
X0292300Y0011594D02*
X0086900Y0011594D01*
X0086900Y0012003D02*
X0082500Y0012003D01*
X0086900Y0012003D01*
X0086715Y0009995D02*
X0292703Y0009995D01*
X0293752Y0008397D02*
X0085117Y0008397D01*
X0082500Y0008397D02*
X0082500Y0008397D01*
X0082500Y0007603D02*
X0082500Y0012003D01*
X0082500Y0012003D01*
X0135000Y0012003D01*
X0152500Y0029503D01*
X0097383Y0073936D02*
X0082617Y0073936D01*
X0080000Y0077003D02*
X0100000Y0077003D01*
X0077383Y0073936D02*
X0069800Y0073936D01*
X0069800Y0075534D02*
X0076719Y0075534D01*
X0076719Y0077133D02*
X0069800Y0077133D01*
X0069800Y0078731D02*
X0076719Y0078731D01*
X0067500Y0092003D02*
X0067500Y0017003D01*
X0070715Y0019586D02*
X0241217Y0019586D01*
X0240575Y0021185D02*
X0069800Y0021185D01*
X0071600Y0017988D02*
X0243088Y0017988D01*
X0247500Y0017988D02*
X0247500Y0017988D01*
X0247500Y0017603D02*
X0247500Y0022003D01*
X0247500Y0022003D01*
X0240500Y0022003D01*
X0247500Y0022003D02*
X0247500Y0017603D01*
X0247500Y0019586D02*
X0247500Y0019586D01*
X0247500Y0021185D02*
X0247500Y0021185D01*
X0247500Y0022003D02*
X0247500Y0022003D01*
X0247500Y0022783D02*
X0247500Y0022783D01*
X0247500Y0024382D02*
X0247500Y0024382D01*
X0247500Y0025981D02*
X0247500Y0025981D01*
X0282018Y0048360D02*
X0293789Y0048360D01*
X0293092Y0049057D02*
X0294554Y0047594D01*
X0296466Y0046803D01*
X0298534Y0046803D01*
X0300446Y0047594D01*
X0301908Y0049057D01*
X0302700Y0050968D01*
X0302700Y0053037D01*
X0301908Y0054948D01*
X0300446Y0056411D01*
X0298534Y0057203D01*
X0296466Y0057203D01*
X0294554Y0056411D01*
X0293092Y0054948D01*
X0292300Y0053037D01*
X0292300Y0050968D01*
X0293092Y0049057D01*
X0292718Y0049958D02*
X0283691Y0049958D01*
X0284200Y0051557D02*
X0292300Y0051557D01*
X0292349Y0053155D02*
X0284060Y0053155D01*
X0283147Y0054754D02*
X0293011Y0054754D01*
X0294495Y0056352D02*
X0069800Y0056352D01*
X0069800Y0057951D02*
X0305200Y0057951D01*
X0305200Y0059549D02*
X0069800Y0059549D01*
X0069800Y0061148D02*
X0305200Y0061148D01*
X0305200Y0062746D02*
X0069800Y0062746D01*
X0045000Y0063253D02*
X0045000Y0044503D01*
X0041719Y0045163D02*
X0022500Y0045163D01*
X0022500Y0046761D02*
X0041719Y0046761D01*
X0042700Y0048360D02*
X0022500Y0048360D01*
X0022500Y0049958D02*
X0042700Y0049958D01*
X0042700Y0051557D02*
X0022500Y0051557D01*
X0022500Y0053155D02*
X0042700Y0053155D01*
X0042700Y0054754D02*
X0022500Y0054754D01*
X0022500Y0056352D02*
X0042700Y0056352D01*
X0042700Y0057951D02*
X0022500Y0057951D01*
X0022500Y0059549D02*
X0042700Y0059549D01*
X0041719Y0061148D02*
X0022500Y0061148D01*
X0022500Y0062746D02*
X0041719Y0062746D01*
X0041719Y0064345D02*
X0022500Y0064345D01*
X0022500Y0065943D02*
X0042007Y0065943D01*
X0037500Y0072003D02*
X0037500Y0044503D01*
X0041719Y0043564D02*
X0022500Y0043564D01*
X0022500Y0041966D02*
X0041854Y0041966D01*
X0039613Y0028768D02*
X0039613Y0028768D01*
X0041188Y0027579D02*
X0059354Y0027579D01*
X0058100Y0025981D02*
X0042955Y0025981D01*
X0043945Y0024382D02*
X0058100Y0024382D01*
X0058100Y0022783D02*
X0044737Y0022783D01*
X0044651Y0023242D02*
X0044651Y0023242D01*
X0045036Y0021185D02*
X0059595Y0021185D01*
X0054285Y0019586D02*
X0045334Y0019586D01*
X0045067Y0017988D02*
X0053400Y0017988D01*
X0053400Y0016389D02*
X0044768Y0016389D01*
X0044651Y0015764D02*
X0044651Y0015764D01*
X0044049Y0014791D02*
X0053914Y0014791D01*
X0055512Y0013192D02*
X0043059Y0013192D01*
X0042649Y0012530D02*
X0042649Y0012530D01*
X0042649Y0012530D01*
X0041409Y0011594D02*
X0078100Y0011594D01*
X0078100Y0012003D02*
X0082500Y0012003D01*
X0082500Y0012003D01*
X0082500Y0012003D01*
X0082500Y0007603D01*
X0082500Y0009995D02*
X0082500Y0009995D01*
X0082500Y0011594D02*
X0082500Y0011594D01*
X0082500Y0013192D02*
X0082500Y0013192D01*
X0082500Y0014791D02*
X0082500Y0014791D01*
X0082500Y0016389D02*
X0082500Y0016389D01*
X0084336Y0016389D02*
X0294533Y0016389D01*
X0300467Y0016389D02*
X0303634Y0016389D01*
X0302035Y0014791D02*
X0301974Y0014791D01*
X0320467Y0016389D02*
X0340296Y0016389D01*
X0340915Y0014791D02*
X0321974Y0014791D01*
X0322636Y0013192D02*
X0341986Y0013192D01*
X0343443Y0011594D02*
X0322700Y0011594D01*
X0362500Y0002003D02*
X0022500Y0002003D01*
X0022382Y0001965D01*
X0022262Y0001932D01*
X0022142Y0001902D01*
X0022020Y0001876D01*
X0021898Y0001853D01*
X0021775Y0001835D01*
X0021652Y0001820D01*
X0021528Y0001810D01*
X0021404Y0001803D01*
X0021280Y0001800D01*
X0021156Y0001801D01*
X0021032Y0001806D01*
X0020908Y0001815D01*
X0020784Y0001828D01*
X0020661Y0001844D01*
X0020539Y0001865D01*
X0020417Y0001889D01*
X0020296Y0001917D01*
X0020176Y0001949D01*
X0020057Y0001984D01*
X0019939Y0002024D01*
X0019823Y0002067D01*
X0019708Y0002113D01*
X0019594Y0002164D01*
X0019482Y0002217D01*
X0019372Y0002275D01*
X0019264Y0002335D01*
X0019157Y0002399D01*
X0019053Y0002467D01*
X0018951Y0002537D01*
X0018851Y0002611D01*
X0018753Y0002688D01*
X0018658Y0002768D01*
X0018566Y0002851D01*
X0018476Y0002937D01*
X0018389Y0003025D01*
X0018305Y0003116D01*
X0018223Y0003210D01*
X0018145Y0003307D01*
X0018070Y0003405D01*
X0017998Y0003506D01*
X0017929Y0003610D01*
X0017863Y0003715D01*
X0017801Y0003822D01*
X0017742Y0003932D01*
X0017686Y0004043D01*
X0017634Y0004156D01*
X0017586Y0004270D01*
X0017541Y0004386D01*
X0017500Y0004503D01*
X0022500Y0008397D02*
X0079883Y0008397D01*
X0078285Y0009995D02*
X0038761Y0009995D01*
X0035955Y0009197D02*
X0035955Y0009197D01*
X0032168Y0009548D02*
X0032168Y0009548D01*
X0031269Y0009995D02*
X0022500Y0009995D01*
X0022500Y0011594D02*
X0028443Y0011594D01*
X0028763Y0011243D02*
X0028763Y0011243D01*
X0026986Y0013192D02*
X0022500Y0013192D01*
X0022500Y0014791D02*
X0025915Y0014791D01*
X0026200Y0014054D02*
X0026200Y0014054D01*
X0025296Y0016389D02*
X0022500Y0016389D01*
X0022500Y0017988D02*
X0024826Y0017988D01*
X0024826Y0019586D02*
X0022500Y0019586D01*
X0022500Y0021185D02*
X0024826Y0021185D01*
X0025360Y0022783D02*
X0022500Y0022783D01*
X0022500Y0024382D02*
X0025980Y0024382D01*
X0026200Y0024951D02*
X0026200Y0024951D01*
X0027138Y0025981D02*
X0022500Y0025981D01*
X0022500Y0027579D02*
X0028596Y0027579D01*
X0028763Y0027762D02*
X0028763Y0027762D01*
X0071086Y0014791D02*
X0079066Y0014791D01*
X0080664Y0016389D02*
X0071600Y0016389D01*
X0064219Y0093118D02*
X0022500Y0093118D01*
X0022500Y0094716D02*
X0064530Y0094716D01*
X0057401Y0106799D02*
X0047926Y0106799D01*
X0047926Y0116274D01*
X0048854Y0116169D01*
X0049982Y0115912D01*
X0051074Y0115530D01*
X0052116Y0115028D01*
X0053096Y0114412D01*
X0054000Y0113691D01*
X0054818Y0112873D01*
X0055539Y0111969D01*
X0056155Y0110989D01*
X0056657Y0109947D01*
X0057039Y0108855D01*
X0057296Y0107727D01*
X0057401Y0106799D01*
X0057321Y0107505D02*
X0187700Y0107505D01*
X0187700Y0109103D02*
X0056952Y0109103D01*
X0056293Y0110702D02*
X0187700Y0110702D01*
X0187700Y0112300D02*
X0055275Y0112300D01*
X0053740Y0113899D02*
X0187700Y0113899D01*
X0187700Y0115497D02*
X0063327Y0115497D01*
X0064602Y0116025D02*
X0067415Y0118838D01*
X0068937Y0122514D01*
X0068937Y0126492D01*
X0067415Y0130167D01*
X0064602Y0132980D01*
X0060926Y0134503D01*
X0056948Y0134503D01*
X0053272Y0132980D01*
X0050459Y0130167D01*
X0048937Y0126492D01*
X0048937Y0122514D01*
X0050459Y0118838D01*
X0053272Y0116025D01*
X0056948Y0114503D01*
X0060926Y0114503D01*
X0064602Y0116025D01*
X0065672Y0117096D02*
X0187700Y0117096D01*
X0187700Y0118694D02*
X0067270Y0118694D01*
X0068017Y0120293D02*
X0187700Y0120293D01*
X0187700Y0121891D02*
X0068679Y0121891D01*
X0068937Y0123490D02*
X0187700Y0123490D01*
X0187700Y0125088D02*
X0068937Y0125088D01*
X0068856Y0126687D02*
X0187700Y0126687D01*
X0187700Y0128285D02*
X0068194Y0128285D01*
X0067532Y0129884D02*
X0187700Y0129884D01*
X0187700Y0131482D02*
X0066100Y0131482D01*
X0064359Y0133081D02*
X0187700Y0133081D01*
X0185874Y0137876D02*
X0175727Y0137876D01*
X0177081Y0139475D02*
X0184275Y0139475D01*
X0187584Y0142672D02*
X0233400Y0142672D01*
X0233400Y0143701D02*
X0233400Y0140305D01*
X0235802Y0137903D01*
X0239198Y0137903D01*
X0241600Y0140305D01*
X0241600Y0143701D01*
X0239198Y0146103D01*
X0235802Y0146103D01*
X0233400Y0143701D01*
X0233969Y0144270D02*
X0185985Y0144270D01*
X0189182Y0141073D02*
X0233400Y0141073D01*
X0234230Y0139475D02*
X0190781Y0139475D01*
X0175988Y0145869D02*
X0235568Y0145869D01*
X0239432Y0145869D02*
X0255568Y0145869D01*
X0255802Y0146103D02*
X0253400Y0143701D01*
X0253400Y0140305D01*
X0255802Y0137903D01*
X0259198Y0137903D01*
X0261600Y0140305D01*
X0261600Y0143701D01*
X0259198Y0146103D01*
X0255802Y0146103D01*
X0253969Y0144270D02*
X0241031Y0144270D01*
X0241600Y0142672D02*
X0253400Y0142672D01*
X0253400Y0141073D02*
X0241600Y0141073D01*
X0240770Y0139475D02*
X0254230Y0139475D01*
X0260770Y0139475D02*
X0274230Y0139475D01*
X0273400Y0141073D02*
X0261600Y0141073D01*
X0261600Y0142672D02*
X0273400Y0142672D01*
X0273969Y0144270D02*
X0261031Y0144270D01*
X0259432Y0145869D02*
X0275568Y0145869D01*
X0288225Y0139475D02*
X0296730Y0139475D01*
X0295900Y0141073D02*
X0289823Y0141073D01*
X0291422Y0142672D02*
X0295900Y0142672D01*
X0296469Y0144270D02*
X0293020Y0144270D01*
X0291310Y0149066D02*
X0022500Y0149066D01*
X0022500Y0150664D02*
X0292909Y0150664D01*
X0294507Y0152263D02*
X0022500Y0152263D01*
X0022500Y0153861D02*
X0296106Y0153861D01*
X0297704Y0155460D02*
X0022500Y0155460D01*
X0022500Y0157058D02*
X0299303Y0157058D01*
X0277500Y0160255D02*
X0277500Y0160255D01*
X0277500Y0161854D02*
X0277500Y0161854D01*
X0277500Y0163452D02*
X0277500Y0163452D01*
X0277500Y0165051D02*
X0277500Y0165051D01*
X0284578Y0172787D02*
X0283048Y0174317D01*
X0282220Y0176315D01*
X0282220Y0178478D01*
X0283048Y0180476D01*
X0284578Y0182006D01*
X0286576Y0182834D01*
X0288739Y0182834D01*
X0290737Y0182006D01*
X0292267Y0180476D01*
X0293094Y0178478D01*
X0293094Y0176315D01*
X0292267Y0174317D01*
X0290737Y0172787D01*
X0288739Y0171960D01*
X0286576Y0171960D01*
X0284578Y0172787D01*
X0284321Y0173044D02*
X0255679Y0173044D01*
X0255422Y0172787D02*
X0256952Y0174317D01*
X0257780Y0176315D01*
X0257780Y0178478D01*
X0256952Y0180476D01*
X0255422Y0182006D01*
X0253424Y0182834D01*
X0251261Y0182834D01*
X0249263Y0182006D01*
X0247733Y0180476D01*
X0246906Y0178478D01*
X0246906Y0176315D01*
X0247733Y0174317D01*
X0249263Y0172787D01*
X0251261Y0171960D01*
X0253424Y0171960D01*
X0255422Y0172787D01*
X0257087Y0174642D02*
X0282913Y0174642D01*
X0282251Y0176241D02*
X0257749Y0176241D01*
X0257780Y0177839D02*
X0282220Y0177839D01*
X0282618Y0179438D02*
X0257382Y0179438D01*
X0256392Y0181036D02*
X0283608Y0181036D01*
X0286096Y0182635D02*
X0253904Y0182635D01*
X0250781Y0182635D02*
X0234219Y0182635D01*
X0233739Y0182834D02*
X0231576Y0182834D01*
X0229578Y0182006D01*
X0228048Y0180476D01*
X0227220Y0178478D01*
X0227220Y0176315D01*
X0228048Y0174317D01*
X0229578Y0172787D01*
X0231576Y0171960D01*
X0233739Y0171960D01*
X0235737Y0172787D01*
X0237267Y0174317D01*
X0238094Y0176315D01*
X0238094Y0178478D01*
X0237267Y0180476D01*
X0235737Y0182006D01*
X0233739Y0182834D01*
X0231096Y0182635D02*
X0198904Y0182635D01*
X0198424Y0182834D02*
X0196261Y0182834D01*
X0194263Y0182006D01*
X0192733Y0180476D01*
X0191906Y0178478D01*
X0191906Y0176315D01*
X0192733Y0174317D01*
X0194263Y0172787D01*
X0196261Y0171960D01*
X0198424Y0171960D01*
X0200422Y0172787D01*
X0201952Y0174317D01*
X0202780Y0176315D01*
X0202780Y0178478D01*
X0201952Y0180476D01*
X0200422Y0182006D01*
X0198424Y0182834D01*
X0195781Y0182635D02*
X0179219Y0182635D01*
X0178739Y0182834D02*
X0176576Y0182834D01*
X0174578Y0182006D01*
X0173048Y0180476D01*
X0172220Y0178478D01*
X0172220Y0176315D01*
X0173048Y0174317D01*
X0174578Y0172787D01*
X0176576Y0171960D01*
X0178739Y0171960D01*
X0180737Y0172787D01*
X0182267Y0174317D01*
X0183094Y0176315D01*
X0183094Y0178478D01*
X0182267Y0180476D01*
X0180737Y0182006D01*
X0178739Y0182834D01*
X0176096Y0182635D02*
X0143904Y0182635D01*
X0143424Y0182834D02*
X0141261Y0182834D01*
X0139263Y0182006D01*
X0137733Y0180476D01*
X0136906Y0178478D01*
X0136906Y0176315D01*
X0137733Y0174317D01*
X0139263Y0172787D01*
X0141261Y0171960D01*
X0143424Y0171960D01*
X0145422Y0172787D01*
X0146952Y0174317D01*
X0147780Y0176315D01*
X0147780Y0178478D01*
X0146952Y0180476D01*
X0145422Y0182006D01*
X0143424Y0182834D01*
X0140781Y0182635D02*
X0124219Y0182635D01*
X0123739Y0182834D02*
X0121576Y0182834D01*
X0119578Y0182006D01*
X0118048Y0180476D01*
X0117220Y0178478D01*
X0117220Y0176315D01*
X0118048Y0174317D01*
X0119578Y0172787D01*
X0121576Y0171960D01*
X0123739Y0171960D01*
X0125737Y0172787D01*
X0127267Y0174317D01*
X0128094Y0176315D01*
X0128094Y0178478D01*
X0127267Y0180476D01*
X0125737Y0182006D01*
X0123739Y0182834D01*
X0121096Y0182635D02*
X0038622Y0182635D01*
X0038750Y0182945D02*
X0037798Y0180648D01*
X0036040Y0178889D01*
X0033743Y0177938D01*
X0031257Y0177938D01*
X0028960Y0178889D01*
X0027202Y0180648D01*
X0026250Y0182945D01*
X0026250Y0185431D01*
X0027202Y0187728D01*
X0028960Y0189486D01*
X0031257Y0190438D01*
X0033743Y0190438D01*
X0036040Y0189486D01*
X0037798Y0187728D01*
X0038750Y0185431D01*
X0038750Y0182945D01*
X0038750Y0184233D02*
X0362500Y0184233D01*
X0362500Y0182635D02*
X0308904Y0182635D01*
X0305781Y0182635D02*
X0289219Y0182635D01*
X0291707Y0181036D02*
X0303293Y0181036D01*
X0302303Y0179438D02*
X0292697Y0179438D01*
X0293094Y0177839D02*
X0301906Y0177839D01*
X0301936Y0176241D02*
X0293064Y0176241D01*
X0292402Y0174642D02*
X0302598Y0174642D01*
X0304006Y0173044D02*
X0290994Y0173044D01*
X0249006Y0173044D02*
X0235994Y0173044D01*
X0237402Y0174642D02*
X0247598Y0174642D01*
X0246936Y0176241D02*
X0238064Y0176241D01*
X0238094Y0177839D02*
X0246906Y0177839D01*
X0247303Y0179438D02*
X0237697Y0179438D01*
X0236707Y0181036D02*
X0248293Y0181036D01*
X0229321Y0173044D02*
X0200679Y0173044D01*
X0202087Y0174642D02*
X0227913Y0174642D01*
X0227251Y0176241D02*
X0202749Y0176241D01*
X0202780Y0177839D02*
X0227220Y0177839D01*
X0227618Y0179438D02*
X0202382Y0179438D01*
X0201392Y0181036D02*
X0228608Y0181036D01*
X0193293Y0181036D02*
X0181707Y0181036D01*
X0182697Y0179438D02*
X0192303Y0179438D01*
X0191906Y0177839D02*
X0183094Y0177839D01*
X0183064Y0176241D02*
X0191936Y0176241D01*
X0192598Y0174642D02*
X0182402Y0174642D01*
X0180994Y0173044D02*
X0194006Y0173044D01*
X0174321Y0173044D02*
X0145679Y0173044D01*
X0147087Y0174642D02*
X0172913Y0174642D01*
X0172251Y0176241D02*
X0147749Y0176241D01*
X0147780Y0177839D02*
X0172220Y0177839D01*
X0172618Y0179438D02*
X0147382Y0179438D01*
X0146392Y0181036D02*
X0173608Y0181036D01*
X0138293Y0181036D02*
X0126707Y0181036D01*
X0127697Y0179438D02*
X0137303Y0179438D01*
X0136906Y0177839D02*
X0128094Y0177839D01*
X0128064Y0176241D02*
X0136936Y0176241D01*
X0137598Y0174642D02*
X0127402Y0174642D01*
X0125994Y0173044D02*
X0139006Y0173044D01*
X0119321Y0173044D02*
X0022500Y0173044D01*
X0022500Y0174642D02*
X0117913Y0174642D01*
X0117251Y0176241D02*
X0022500Y0176241D01*
X0022500Y0177839D02*
X0117220Y0177839D01*
X0117618Y0179438D02*
X0036589Y0179438D01*
X0037959Y0181036D02*
X0118608Y0181036D01*
X0120000Y0152003D02*
X0085000Y0152003D01*
X0085000Y0142003D01*
X0085086Y0141917D02*
X0085086Y0136503D01*
X0085433Y0136503D01*
X0086288Y0136638D01*
X0087111Y0136906D01*
X0087883Y0137299D01*
X0088583Y0137808D01*
X0089195Y0138420D01*
X0089704Y0139120D01*
X0090097Y0139892D01*
X0090365Y0140715D01*
X0090500Y0141570D01*
X0090500Y0141917D01*
X0085086Y0141917D01*
X0085086Y0142672D02*
X0084914Y0142672D01*
X0084914Y0144270D02*
X0085086Y0144270D01*
X0085086Y0145869D02*
X0084914Y0145869D01*
X0088912Y0145869D02*
X0099012Y0145869D01*
X0099554Y0146411D02*
X0098092Y0144948D01*
X0097300Y0143037D01*
X0097300Y0140968D01*
X0098092Y0139057D01*
X0099554Y0137594D01*
X0101466Y0136803D01*
X0103534Y0136803D01*
X0105446Y0137594D01*
X0106908Y0139057D01*
X0107700Y0140968D01*
X0107700Y0143037D01*
X0106908Y0144948D01*
X0105446Y0146411D01*
X0103534Y0147203D01*
X0101466Y0147203D01*
X0099554Y0146411D01*
X0097811Y0144270D02*
X0090017Y0144270D01*
X0090463Y0142672D02*
X0097300Y0142672D01*
X0097300Y0141073D02*
X0090421Y0141073D01*
X0089885Y0139475D02*
X0097919Y0139475D01*
X0099273Y0137876D02*
X0088652Y0137876D01*
X0085086Y0137876D02*
X0084914Y0137876D01*
X0084914Y0139475D02*
X0085086Y0139475D01*
X0085086Y0141073D02*
X0084914Y0141073D01*
X0085000Y0152003D02*
X0035000Y0152003D01*
X0032980Y0158657D02*
X0032020Y0158657D01*
X0032020Y0160255D02*
X0032980Y0160255D01*
X0032980Y0161854D02*
X0032020Y0161854D01*
X0025950Y0161854D02*
X0022500Y0161854D01*
X0022500Y0163452D02*
X0025950Y0163452D01*
X0025950Y0165051D02*
X0022500Y0165051D01*
X0022500Y0166650D02*
X0025950Y0166650D01*
X0025950Y0168248D02*
X0022500Y0168248D01*
X0022500Y0160255D02*
X0025950Y0160255D01*
X0026304Y0158657D02*
X0022500Y0158657D01*
X0022500Y0179438D02*
X0028411Y0179438D01*
X0027041Y0181036D02*
X0022500Y0181036D01*
X0022500Y0182635D02*
X0026378Y0182635D01*
X0026250Y0184233D02*
X0022500Y0184233D01*
X0022500Y0185832D02*
X0026416Y0185832D01*
X0027078Y0187430D02*
X0022500Y0187430D01*
X0022500Y0189029D02*
X0028502Y0189029D01*
X0022500Y0190627D02*
X0345950Y0190627D01*
X0345950Y0189516D02*
X0346073Y0189058D01*
X0346310Y0188648D01*
X0346645Y0188312D01*
X0347055Y0188076D01*
X0347513Y0187953D01*
X0352020Y0187953D01*
X0352020Y0194023D01*
X0345950Y0194023D01*
X0345950Y0189516D01*
X0346090Y0189029D02*
X0036498Y0189029D01*
X0037922Y0187430D02*
X0362500Y0187430D01*
X0362500Y0185832D02*
X0038584Y0185832D01*
X0022500Y0192226D02*
X0345950Y0192226D01*
X0345950Y0193824D02*
X0022500Y0193824D01*
X0022500Y0195423D02*
X0345950Y0195423D01*
X0345950Y0194982D02*
X0352020Y0194982D01*
X0352020Y0194023D01*
X0352980Y0194023D01*
X0352980Y0194982D01*
X0359050Y0194982D01*
X0359050Y0199490D01*
X0358927Y0199948D01*
X0358690Y0200358D01*
X0358355Y0200693D01*
X0357945Y0200930D01*
X0357487Y0201053D01*
X0352980Y0201053D01*
X0352980Y0194982D01*
X0352020Y0194982D01*
X0352020Y0201053D01*
X0347513Y0201053D01*
X0347055Y0200930D01*
X0346645Y0200693D01*
X0346310Y0200358D01*
X0346073Y0199948D01*
X0345950Y0199490D01*
X0345950Y0194982D01*
X0345000Y0194503D02*
X0352500Y0194503D01*
X0352980Y0194023D02*
X0352980Y0187953D01*
X0357487Y0187953D01*
X0357945Y0188076D01*
X0358355Y0188312D01*
X0358690Y0188648D01*
X0358927Y0189058D01*
X0359050Y0189516D01*
X0359050Y0194023D01*
X0352980Y0194023D01*
X0352980Y0193824D02*
X0352020Y0193824D01*
X0352020Y0192226D02*
X0352980Y0192226D01*
X0352980Y0190627D02*
X0352020Y0190627D01*
X0352020Y0189029D02*
X0352980Y0189029D01*
X0358910Y0189029D02*
X0362500Y0189029D01*
X0362500Y0190627D02*
X0359050Y0190627D01*
X0359050Y0192226D02*
X0362500Y0192226D01*
X0362500Y0193824D02*
X0359050Y0193824D01*
X0359050Y0195423D02*
X0362500Y0195423D01*
X0362500Y0197021D02*
X0359050Y0197021D01*
X0359050Y0198620D02*
X0362500Y0198620D01*
X0362500Y0200218D02*
X0358771Y0200218D01*
X0362500Y0201817D02*
X0022500Y0201817D01*
X0022500Y0203415D02*
X0362500Y0203415D01*
X0362500Y0205014D02*
X0022500Y0205014D01*
X0022500Y0206612D02*
X0362500Y0206612D01*
X0362500Y0208211D02*
X0022500Y0208211D01*
X0022500Y0209809D02*
X0031643Y0209809D01*
X0032168Y0209548D02*
X0032168Y0209548D01*
X0035955Y0209197D02*
X0035955Y0209197D01*
X0028763Y0211243D02*
X0028763Y0211243D01*
X0028613Y0211408D02*
X0022500Y0211408D01*
X0022500Y0213006D02*
X0027156Y0213006D01*
X0026200Y0214054D02*
X0026200Y0214054D01*
X0025987Y0214605D02*
X0022500Y0214605D01*
X0022500Y0216203D02*
X0025368Y0216203D01*
X0024826Y0217802D02*
X0022500Y0217802D01*
X0022500Y0219400D02*
X0024826Y0219400D01*
X0024826Y0220999D02*
X0022500Y0220999D01*
X0022500Y0222597D02*
X0025288Y0222597D01*
X0025908Y0224196D02*
X0022500Y0224196D01*
X0022500Y0225794D02*
X0026969Y0225794D01*
X0026200Y0224951D02*
X0026200Y0224951D01*
X0028426Y0227393D02*
X0022500Y0227393D01*
X0028763Y0227762D02*
X0028763Y0227762D01*
X0028763Y0227762D01*
X0039613Y0228768D02*
X0039613Y0228768D01*
X0022500Y0200218D02*
X0346229Y0200218D01*
X0345950Y0198620D02*
X0022500Y0198620D01*
X0022500Y0197021D02*
X0345950Y0197021D01*
X0345000Y0194503D02*
X0325000Y0217003D01*
X0312500Y0217003D01*
X0307500Y0216845D01*
X0307343Y0221845D01*
X0307343Y0226609D01*
X0312500Y0217003D02*
X0277500Y0217003D01*
X0252343Y0217160D01*
X0252343Y0226609D01*
X0238291Y0227393D02*
X0282024Y0227393D01*
X0282024Y0225794D02*
X0238291Y0225794D01*
X0237756Y0224196D02*
X0282559Y0224196D01*
X0283702Y0222597D02*
X0236613Y0222597D01*
X0237769Y0228991D02*
X0282546Y0228991D01*
X0283671Y0230590D02*
X0236644Y0230590D01*
X0228671Y0230590D02*
X0181644Y0230590D01*
X0182769Y0228991D02*
X0227546Y0228991D01*
X0227024Y0227393D02*
X0183291Y0227393D01*
X0183291Y0225794D02*
X0227024Y0225794D01*
X0227559Y0224196D02*
X0182756Y0224196D01*
X0181613Y0222597D02*
X0228702Y0222597D01*
X0155000Y0152003D02*
X0120000Y0152003D01*
X0120000Y0142003D01*
X0120086Y0141917D02*
X0120086Y0136503D01*
X0120433Y0136503D01*
X0121288Y0136638D01*
X0122111Y0136906D01*
X0122883Y0137299D01*
X0123583Y0137808D01*
X0124195Y0138420D01*
X0124704Y0139120D01*
X0125097Y0139892D01*
X0125365Y0140715D01*
X0125500Y0141570D01*
X0125500Y0141917D01*
X0120086Y0141917D01*
X0120086Y0142672D02*
X0119914Y0142672D01*
X0119914Y0144270D02*
X0120086Y0144270D01*
X0120086Y0145869D02*
X0119914Y0145869D01*
X0116088Y0145869D02*
X0105988Y0145869D01*
X0107189Y0144270D02*
X0114983Y0144270D01*
X0114537Y0142672D02*
X0107700Y0142672D01*
X0107700Y0141073D02*
X0114579Y0141073D01*
X0115115Y0139475D02*
X0107081Y0139475D01*
X0105727Y0137876D02*
X0116348Y0137876D01*
X0119914Y0137876D02*
X0120086Y0137876D01*
X0120086Y0139475D02*
X0119914Y0139475D01*
X0119914Y0141073D02*
X0120086Y0141073D01*
X0124885Y0139475D02*
X0132919Y0139475D01*
X0132300Y0141073D02*
X0125421Y0141073D01*
X0125463Y0142672D02*
X0132300Y0142672D01*
X0132811Y0144270D02*
X0125017Y0144270D01*
X0123912Y0145869D02*
X0134012Y0145869D01*
X0134273Y0137876D02*
X0123652Y0137876D01*
X0158912Y0145869D02*
X0169012Y0145869D01*
X0200397Y0107505D02*
X0204603Y0107505D01*
X0205178Y0108079D02*
X0204024Y0106925D01*
X0203400Y0105418D01*
X0203400Y0098587D01*
X0204024Y0097080D01*
X0205178Y0095927D01*
X0206684Y0095303D01*
X0208316Y0095303D01*
X0209822Y0095927D01*
X0210976Y0097080D01*
X0211600Y0098587D01*
X0211600Y0105418D01*
X0210976Y0106925D01*
X0209822Y0108079D01*
X0208316Y0108703D01*
X0206684Y0108703D01*
X0205178Y0108079D01*
X0203602Y0105906D02*
X0201398Y0105906D01*
X0201600Y0104308D02*
X0203400Y0104308D01*
X0203400Y0102709D02*
X0201600Y0102709D01*
X0201600Y0101111D02*
X0203400Y0101111D01*
X0203400Y0099512D02*
X0201600Y0099512D01*
X0201321Y0097914D02*
X0203679Y0097914D01*
X0204790Y0096315D02*
X0200210Y0096315D01*
X0210210Y0096315D02*
X0214790Y0096315D01*
X0215178Y0095927D02*
X0216684Y0095303D01*
X0218316Y0095303D01*
X0219822Y0095927D01*
X0220976Y0097080D01*
X0221600Y0098587D01*
X0221600Y0105418D01*
X0220976Y0106925D01*
X0219822Y0108079D01*
X0218316Y0108703D01*
X0216684Y0108703D01*
X0215178Y0108079D01*
X0214024Y0106925D01*
X0213400Y0105418D01*
X0213400Y0098587D01*
X0214024Y0097080D01*
X0215178Y0095927D01*
X0213679Y0097914D02*
X0211321Y0097914D01*
X0211600Y0099512D02*
X0213400Y0099512D01*
X0213400Y0101111D02*
X0211600Y0101111D01*
X0211600Y0102709D02*
X0213400Y0102709D01*
X0213400Y0104308D02*
X0211600Y0104308D01*
X0211398Y0105906D02*
X0213602Y0105906D01*
X0214603Y0107505D02*
X0210397Y0107505D01*
X0220397Y0107505D02*
X0224603Y0107505D01*
X0225178Y0108079D02*
X0224024Y0106925D01*
X0223400Y0105418D01*
X0223400Y0098587D01*
X0224024Y0097080D01*
X0225178Y0095927D01*
X0226684Y0095303D01*
X0228316Y0095303D01*
X0229822Y0095927D01*
X0230976Y0097080D01*
X0231600Y0098587D01*
X0231600Y0105418D01*
X0230976Y0106925D01*
X0229822Y0108079D01*
X0228316Y0108703D01*
X0226684Y0108703D01*
X0225178Y0108079D01*
X0223602Y0105906D02*
X0221398Y0105906D01*
X0221600Y0104308D02*
X0223400Y0104308D01*
X0223400Y0102709D02*
X0221600Y0102709D01*
X0221600Y0101111D02*
X0223400Y0101111D01*
X0223400Y0099512D02*
X0221600Y0099512D01*
X0221321Y0097914D02*
X0223679Y0097914D01*
X0224790Y0096315D02*
X0220210Y0096315D01*
X0230210Y0096315D02*
X0234790Y0096315D01*
X0235178Y0095927D02*
X0236684Y0095303D01*
X0238316Y0095303D01*
X0239822Y0095927D01*
X0240976Y0097080D01*
X0241600Y0098587D01*
X0241600Y0105418D01*
X0240976Y0106925D01*
X0239822Y0108079D01*
X0238316Y0108703D01*
X0236684Y0108703D01*
X0235178Y0108079D01*
X0234024Y0106925D01*
X0233400Y0105418D01*
X0233400Y0098587D01*
X0234024Y0097080D01*
X0235178Y0095927D01*
X0233679Y0097914D02*
X0231321Y0097914D01*
X0231600Y0099512D02*
X0233400Y0099512D01*
X0233400Y0101111D02*
X0231600Y0101111D01*
X0231600Y0102709D02*
X0233400Y0102709D01*
X0233400Y0104308D02*
X0231600Y0104308D01*
X0231398Y0105906D02*
X0233602Y0105906D01*
X0234603Y0107505D02*
X0230397Y0107505D01*
X0240397Y0107505D02*
X0244603Y0107505D01*
X0245178Y0108079D02*
X0244024Y0106925D01*
X0243400Y0105418D01*
X0243400Y0098587D01*
X0244024Y0097080D01*
X0245178Y0095927D01*
X0246684Y0095303D01*
X0248316Y0095303D01*
X0249822Y0095927D01*
X0250976Y0097080D01*
X0251600Y0098587D01*
X0251600Y0105418D01*
X0250976Y0106925D01*
X0249822Y0108079D01*
X0248316Y0108703D01*
X0246684Y0108703D01*
X0245178Y0108079D01*
X0243602Y0105906D02*
X0241398Y0105906D01*
X0241600Y0104308D02*
X0243400Y0104308D01*
X0243400Y0102709D02*
X0241600Y0102709D01*
X0241600Y0101111D02*
X0243400Y0101111D01*
X0243400Y0099512D02*
X0241600Y0099512D01*
X0241321Y0097914D02*
X0243679Y0097914D01*
X0244790Y0096315D02*
X0240210Y0096315D01*
X0250210Y0096315D02*
X0254365Y0096315D01*
X0254144Y0096536D02*
X0254634Y0096047D01*
X0255194Y0095640D01*
X0255811Y0095325D01*
X0256470Y0095111D01*
X0257154Y0095003D01*
X0257500Y0095003D01*
X0257846Y0095003D01*
X0258530Y0095111D01*
X0259189Y0095325D01*
X0259806Y0095640D01*
X0260366Y0096047D01*
X0260856Y0096536D01*
X0261263Y0097097D01*
X0261578Y0097714D01*
X0261792Y0098373D01*
X0261900Y0099057D01*
X0261900Y0102003D01*
X0257500Y0102003D01*
X0257500Y0102003D01*
X0253100Y0102003D01*
X0253100Y0099057D01*
X0253208Y0098373D01*
X0253422Y0097714D01*
X0253737Y0097097D01*
X0254144Y0096536D01*
X0253357Y0097914D02*
X0251321Y0097914D01*
X0251600Y0099512D02*
X0253100Y0099512D01*
X0253100Y0101111D02*
X0251600Y0101111D01*
X0251600Y0102709D02*
X0253100Y0102709D01*
X0253100Y0104308D02*
X0251600Y0104308D01*
X0251398Y0105906D02*
X0253297Y0105906D01*
X0254179Y0107505D02*
X0250397Y0107505D01*
X0257500Y0107505D02*
X0257500Y0107505D01*
X0257500Y0105906D02*
X0257500Y0105906D01*
X0257500Y0104308D02*
X0257500Y0104308D01*
X0257500Y0102709D02*
X0257500Y0102709D01*
X0257500Y0102003D02*
X0257500Y0095003D01*
X0257500Y0102003D01*
X0257500Y0102003D01*
X0257500Y0101111D02*
X0257500Y0101111D01*
X0257500Y0099512D02*
X0257500Y0099512D01*
X0257500Y0097914D02*
X0257500Y0097914D01*
X0257500Y0096315D02*
X0257500Y0096315D01*
X0260635Y0096315D02*
X0264790Y0096315D01*
X0265178Y0095927D02*
X0266684Y0095303D01*
X0268316Y0095303D01*
X0269822Y0095927D01*
X0270976Y0097080D01*
X0271600Y0098587D01*
X0271600Y0105418D01*
X0270976Y0106925D01*
X0269822Y0108079D01*
X0268316Y0108703D01*
X0266684Y0108703D01*
X0265178Y0108079D01*
X0264024Y0106925D01*
X0263400Y0105418D01*
X0263400Y0098587D01*
X0264024Y0097080D01*
X0265178Y0095927D01*
X0263679Y0097914D02*
X0261643Y0097914D01*
X0261900Y0099512D02*
X0263400Y0099512D01*
X0263400Y0101111D02*
X0261900Y0101111D01*
X0261900Y0102709D02*
X0263400Y0102709D01*
X0263400Y0104308D02*
X0261900Y0104308D01*
X0261703Y0105906D02*
X0263602Y0105906D01*
X0264603Y0107505D02*
X0260821Y0107505D01*
X0270397Y0107505D02*
X0274603Y0107505D01*
X0273602Y0105906D02*
X0271398Y0105906D01*
X0271600Y0104308D02*
X0273400Y0104308D01*
X0273400Y0102709D02*
X0271600Y0102709D01*
X0271600Y0101111D02*
X0273400Y0101111D01*
X0273400Y0099512D02*
X0271600Y0099512D01*
X0271321Y0097914D02*
X0273679Y0097914D01*
X0274790Y0096315D02*
X0270210Y0096315D01*
X0281600Y0104308D02*
X0283400Y0104308D01*
X0283602Y0105906D02*
X0281398Y0105906D01*
X0300397Y0107505D02*
X0304603Y0107505D01*
X0305178Y0108079D02*
X0304024Y0106925D01*
X0303400Y0105418D01*
X0303400Y0098587D01*
X0304024Y0097080D01*
X0305178Y0095927D01*
X0306684Y0095303D01*
X0308316Y0095303D01*
X0309822Y0095927D01*
X0310976Y0097080D01*
X0311600Y0098587D01*
X0311600Y0105418D01*
X0310976Y0106925D01*
X0309822Y0108079D01*
X0308316Y0108703D01*
X0306684Y0108703D01*
X0305178Y0108079D01*
X0303602Y0105906D02*
X0301398Y0105906D01*
X0301600Y0104308D02*
X0303400Y0104308D01*
X0303400Y0102709D02*
X0301600Y0102709D01*
X0301600Y0101111D02*
X0303400Y0101111D01*
X0303400Y0099512D02*
X0301600Y0099512D01*
X0301321Y0097914D02*
X0303679Y0097914D01*
X0304790Y0096315D02*
X0300210Y0096315D01*
X0310210Y0096315D02*
X0314790Y0096315D01*
X0313679Y0097914D02*
X0311321Y0097914D01*
X0311600Y0099512D02*
X0313400Y0099512D01*
X0313400Y0101111D02*
X0311600Y0101111D01*
X0311600Y0102709D02*
X0313400Y0102709D01*
X0313400Y0104308D02*
X0311600Y0104308D01*
X0311398Y0105906D02*
X0313602Y0105906D01*
X0314603Y0107505D02*
X0310397Y0107505D01*
X0317500Y0104503D02*
X0322500Y0109503D01*
X0352500Y0109503D01*
X0348743Y0105906D02*
X0331398Y0105906D01*
X0331600Y0104308D02*
X0350511Y0104308D01*
X0348352Y0102709D02*
X0331600Y0102709D01*
X0331600Y0101111D02*
X0347537Y0101111D01*
X0347300Y0099512D02*
X0331600Y0099512D01*
X0331321Y0097914D02*
X0347530Y0097914D01*
X0348334Y0096315D02*
X0330210Y0096315D01*
X0324790Y0096315D02*
X0320210Y0096315D01*
X0321321Y0097914D02*
X0323679Y0097914D01*
X0323400Y0099512D02*
X0321600Y0099512D01*
X0321600Y0101111D02*
X0323400Y0101111D01*
X0323400Y0102709D02*
X0321600Y0102709D01*
X0321600Y0104308D02*
X0323400Y0104308D01*
X0323602Y0105906D02*
X0322156Y0105906D01*
X0317500Y0104503D02*
X0317500Y0102003D01*
X0294232Y0077133D02*
X0290768Y0077133D01*
X0290976Y0076925D02*
X0289822Y0078079D01*
X0288316Y0078703D01*
X0286684Y0078703D01*
X0285178Y0078079D01*
X0284024Y0076925D01*
X0283400Y0075418D01*
X0283400Y0068587D01*
X0284024Y0067080D01*
X0285178Y0065927D01*
X0286684Y0065303D01*
X0288316Y0065303D01*
X0289822Y0065927D01*
X0290976Y0067080D01*
X0291600Y0068587D01*
X0291600Y0075418D01*
X0290976Y0076925D01*
X0291552Y0075534D02*
X0293448Y0075534D01*
X0293400Y0073936D02*
X0291600Y0073936D01*
X0291600Y0072337D02*
X0293400Y0072337D01*
X0293400Y0070739D02*
X0291600Y0070739D01*
X0291600Y0069140D02*
X0293400Y0069140D01*
X0293833Y0067542D02*
X0291167Y0067542D01*
X0289839Y0065943D02*
X0295161Y0065943D01*
X0285161Y0065943D02*
X0279839Y0065943D01*
X0281167Y0067542D02*
X0283833Y0067542D01*
X0283400Y0069140D02*
X0281600Y0069140D01*
X0281600Y0070739D02*
X0283400Y0070739D01*
X0283400Y0072337D02*
X0281600Y0072337D01*
X0281600Y0073936D02*
X0283400Y0073936D01*
X0283448Y0075534D02*
X0281552Y0075534D01*
X0280768Y0077133D02*
X0284232Y0077133D01*
X0300505Y0056352D02*
X0305200Y0056352D01*
X0305200Y0054754D02*
X0301989Y0054754D01*
X0302651Y0053155D02*
X0305200Y0053155D01*
X0305200Y0051557D02*
X0302700Y0051557D01*
X0302281Y0049958D02*
X0305200Y0049958D01*
X0305200Y0048360D02*
X0301211Y0048360D01*
X0321211Y0048360D02*
X0362500Y0048360D01*
X0362500Y0049958D02*
X0322281Y0049958D01*
X0322700Y0051557D02*
X0362500Y0051557D01*
X0362500Y0053155D02*
X0322651Y0053155D01*
X0321989Y0054754D02*
X0362500Y0054754D01*
X0362500Y0056352D02*
X0320505Y0056352D01*
X0187700Y0097914D02*
X0175765Y0097914D01*
X0175446Y0097594D02*
X0176908Y0099057D01*
X0177700Y0100968D01*
X0177700Y0103037D01*
X0176908Y0104948D01*
X0175446Y0106411D01*
X0173534Y0107203D01*
X0171466Y0107203D01*
X0169554Y0106411D01*
X0168092Y0104948D01*
X0167300Y0103037D01*
X0167300Y0100968D01*
X0168092Y0099057D01*
X0169554Y0097594D01*
X0171466Y0096803D01*
X0173534Y0096803D01*
X0175446Y0097594D01*
X0177097Y0099512D02*
X0187700Y0099512D01*
X0187700Y0101111D02*
X0177700Y0101111D01*
X0177700Y0102709D02*
X0187700Y0102709D01*
X0187700Y0104308D02*
X0177174Y0104308D01*
X0175951Y0105906D02*
X0187700Y0105906D01*
X0169049Y0105906D02*
X0158451Y0105906D01*
X0157946Y0106411D02*
X0156034Y0107203D01*
X0153966Y0107203D01*
X0152054Y0106411D01*
X0150592Y0104948D01*
X0149800Y0103037D01*
X0149800Y0100968D01*
X0150592Y0099057D01*
X0152054Y0097594D01*
X0153966Y0096803D01*
X0156034Y0096803D01*
X0157946Y0097594D01*
X0159408Y0099057D01*
X0160200Y0100968D01*
X0160200Y0103037D01*
X0159408Y0104948D01*
X0157946Y0106411D01*
X0159674Y0104308D02*
X0167826Y0104308D01*
X0167300Y0102709D02*
X0160200Y0102709D01*
X0160200Y0101111D02*
X0167300Y0101111D01*
X0167903Y0099512D02*
X0159597Y0099512D01*
X0158265Y0097914D02*
X0169235Y0097914D01*
X0151735Y0097914D02*
X0140765Y0097914D01*
X0140446Y0097594D02*
X0141908Y0099057D01*
X0142700Y0100968D01*
X0142700Y0103037D01*
X0141908Y0104948D01*
X0140446Y0106411D01*
X0138534Y0107203D01*
X0136466Y0107203D01*
X0134554Y0106411D01*
X0133092Y0104948D01*
X0132300Y0103037D01*
X0132300Y0100968D01*
X0133092Y0099057D01*
X0134554Y0097594D01*
X0136466Y0096803D01*
X0138534Y0096803D01*
X0140446Y0097594D01*
X0142097Y0099512D02*
X0150403Y0099512D01*
X0149800Y0101111D02*
X0142700Y0101111D01*
X0142700Y0102709D02*
X0149800Y0102709D01*
X0150326Y0104308D02*
X0142174Y0104308D01*
X0140951Y0105906D02*
X0151549Y0105906D01*
X0134049Y0105906D02*
X0123451Y0105906D01*
X0122946Y0106411D02*
X0121034Y0107203D01*
X0118966Y0107203D01*
X0117054Y0106411D01*
X0115592Y0104948D01*
X0114800Y0103037D01*
X0114800Y0100968D01*
X0115592Y0099057D01*
X0117054Y0097594D01*
X0118966Y0096803D01*
X0121034Y0096803D01*
X0122946Y0097594D01*
X0124408Y0099057D01*
X0125200Y0100968D01*
X0125200Y0103037D01*
X0124408Y0104948D01*
X0122946Y0106411D01*
X0124674Y0104308D02*
X0132826Y0104308D01*
X0132300Y0102709D02*
X0125200Y0102709D01*
X0125200Y0101111D02*
X0132300Y0101111D01*
X0132903Y0099512D02*
X0124597Y0099512D01*
X0123265Y0097914D02*
X0134235Y0097914D01*
X0116735Y0097914D02*
X0105765Y0097914D01*
X0105446Y0097594D02*
X0106908Y0099057D01*
X0107700Y0100968D01*
X0107700Y0103037D01*
X0106908Y0104948D01*
X0105446Y0106411D01*
X0103534Y0107203D01*
X0101466Y0107203D01*
X0099554Y0106411D01*
X0098092Y0104948D01*
X0097300Y0103037D01*
X0097300Y0100968D01*
X0098092Y0099057D01*
X0099554Y0097594D01*
X0101466Y0096803D01*
X0103534Y0096803D01*
X0105446Y0097594D01*
X0107097Y0099512D02*
X0115403Y0099512D01*
X0114800Y0101111D02*
X0107700Y0101111D01*
X0107700Y0102709D02*
X0114800Y0102709D01*
X0115326Y0104308D02*
X0107174Y0104308D01*
X0105951Y0105906D02*
X0116549Y0105906D01*
X0099049Y0105906D02*
X0088451Y0105906D01*
X0089674Y0104308D02*
X0097826Y0104308D01*
X0097300Y0102709D02*
X0090200Y0102709D01*
X0090200Y0101111D02*
X0097300Y0101111D01*
X0097903Y0099512D02*
X0089597Y0099512D01*
X0088265Y0097914D02*
X0099235Y0097914D01*
X0054547Y0115497D02*
X0051142Y0115497D01*
X0052202Y0117096D02*
X0042474Y0117096D01*
X0042189Y0116811D02*
X0043007Y0117629D01*
X0043728Y0118533D01*
X0044344Y0119513D01*
X0044846Y0120555D01*
X0045228Y0121647D01*
X0045485Y0122775D01*
X0045590Y0123703D01*
X0036115Y0123703D01*
X0036115Y0114228D01*
X0037043Y0114332D01*
X0038171Y0114590D01*
X0039263Y0114972D01*
X0040305Y0115474D01*
X0041285Y0116089D01*
X0042189Y0116811D01*
X0043110Y0115497D02*
X0040342Y0115497D01*
X0040512Y0113899D02*
X0022500Y0113899D01*
X0022500Y0115497D02*
X0030288Y0115497D01*
X0028156Y0117096D02*
X0022500Y0117096D01*
X0022500Y0118694D02*
X0026800Y0118694D01*
X0025910Y0120293D02*
X0022500Y0120293D01*
X0022500Y0121891D02*
X0025346Y0121891D01*
X0025064Y0123490D02*
X0022500Y0123490D01*
X0034515Y0123490D02*
X0036115Y0123490D01*
X0035315Y0124503D02*
X0035000Y0124818D01*
X0036115Y0125088D02*
X0048937Y0125088D01*
X0048937Y0123490D02*
X0045566Y0123490D01*
X0045284Y0121891D02*
X0049195Y0121891D01*
X0049857Y0120293D02*
X0044720Y0120293D01*
X0043830Y0118694D02*
X0050604Y0118694D01*
X0047926Y0115497D02*
X0046326Y0115497D01*
X0046326Y0113899D02*
X0047926Y0113899D01*
X0047926Y0112300D02*
X0046326Y0112300D01*
X0046326Y0110702D02*
X0047926Y0110702D01*
X0047926Y0109103D02*
X0046326Y0109103D01*
X0046326Y0107505D02*
X0047926Y0107505D01*
X0047126Y0105999D02*
X0033130Y0092003D01*
X0027500Y0092003D01*
X0022500Y0096315D02*
X0043615Y0096315D01*
X0046326Y0096315D02*
X0047926Y0096315D01*
X0047926Y0097914D02*
X0046326Y0097914D01*
X0046326Y0099512D02*
X0047926Y0099512D01*
X0047926Y0101111D02*
X0046326Y0101111D01*
X0046326Y0102709D02*
X0047926Y0102709D01*
X0047926Y0104308D02*
X0046326Y0104308D01*
X0046326Y0105906D02*
X0022500Y0105906D01*
X0022500Y0104308D02*
X0036951Y0104308D01*
X0037365Y0102709D02*
X0022500Y0102709D01*
X0022500Y0101111D02*
X0038048Y0101111D01*
X0039125Y0099512D02*
X0022500Y0099512D01*
X0022500Y0097914D02*
X0040745Y0097914D01*
X0036930Y0107505D02*
X0022500Y0107505D01*
X0022500Y0109103D02*
X0037300Y0109103D01*
X0037959Y0110702D02*
X0022500Y0110702D01*
X0022500Y0112300D02*
X0038977Y0112300D01*
X0036115Y0115497D02*
X0034515Y0115497D01*
X0034515Y0117096D02*
X0036115Y0117096D01*
X0036115Y0118694D02*
X0034515Y0118694D01*
X0034515Y0120293D02*
X0036115Y0120293D01*
X0036115Y0121891D02*
X0034515Y0121891D01*
X0034515Y0126687D02*
X0036115Y0126687D01*
X0036115Y0128285D02*
X0034515Y0128285D01*
X0034515Y0129884D02*
X0036115Y0129884D01*
X0036115Y0131482D02*
X0034515Y0131482D01*
X0034515Y0133081D02*
X0036115Y0133081D01*
X0041023Y0133081D02*
X0053515Y0133081D01*
X0051774Y0131482D02*
X0042902Y0131482D01*
X0044098Y0129884D02*
X0050342Y0129884D01*
X0049680Y0128285D02*
X0044904Y0128285D01*
X0045381Y0126687D02*
X0049018Y0126687D01*
X0352020Y0195423D02*
X0352980Y0195423D01*
X0352980Y0197021D02*
X0352020Y0197021D01*
X0352020Y0198620D02*
X0352980Y0198620D01*
X0352980Y0200218D02*
X0352020Y0200218D01*
X0350955Y0229809D02*
X0350955Y0229809D01*
D12*
X0327500Y0104603D02*
X0327500Y0099403D01*
X0317500Y0099403D02*
X0317500Y0104603D01*
X0307500Y0104603D02*
X0307500Y0099403D01*
X0297500Y0099403D02*
X0297500Y0104603D01*
X0287500Y0104603D02*
X0287500Y0099403D01*
X0277500Y0099403D02*
X0277500Y0104603D01*
X0267500Y0104603D02*
X0267500Y0099403D01*
X0257500Y0099403D02*
X0257500Y0104603D01*
X0247500Y0104603D02*
X0247500Y0099403D01*
X0237500Y0099403D02*
X0237500Y0104603D01*
X0227500Y0104603D02*
X0227500Y0099403D01*
X0217500Y0099403D02*
X0217500Y0104603D01*
X0207500Y0104603D02*
X0207500Y0099403D01*
X0197500Y0099403D02*
X0197500Y0104603D01*
X0197500Y0074603D02*
X0197500Y0069403D01*
X0207500Y0069403D02*
X0207500Y0074603D01*
X0217500Y0074603D02*
X0217500Y0069403D01*
X0227500Y0069403D02*
X0227500Y0074603D01*
X0237500Y0074603D02*
X0237500Y0069403D01*
X0247500Y0069403D02*
X0247500Y0074603D01*
X0257500Y0074603D02*
X0257500Y0069403D01*
X0267500Y0069403D02*
X0267500Y0074603D01*
X0277500Y0074603D02*
X0277500Y0069403D01*
X0287500Y0069403D02*
X0287500Y0074603D01*
X0297500Y0074603D02*
X0297500Y0069403D01*
X0307500Y0069403D02*
X0307500Y0074603D01*
X0317500Y0074603D02*
X0317500Y0069403D01*
X0327500Y0069403D02*
X0327500Y0074603D01*
X0280100Y0052003D02*
X0274900Y0052003D01*
X0274900Y0042003D02*
X0280100Y0042003D01*
X0280100Y0032003D02*
X0274900Y0032003D01*
X0274900Y0022003D02*
X0280100Y0022003D01*
X0250100Y0022003D02*
X0244900Y0022003D01*
X0244900Y0032003D02*
X0250100Y0032003D01*
X0250100Y0042003D02*
X0244900Y0042003D01*
X0244900Y0052003D02*
X0250100Y0052003D01*
D13*
X0257500Y0122303D02*
X0257500Y0126703D01*
X0237500Y0126703D02*
X0237500Y0122303D01*
D14*
X0237500Y0142003D03*
X0257500Y0142003D03*
X0277500Y0142003D03*
X0300000Y0142003D03*
X0300000Y0122003D03*
X0277500Y0162003D03*
X0257500Y0162003D03*
X0237500Y0162003D03*
X0082500Y0032003D03*
X0067500Y0017003D03*
X0062500Y0024503D03*
X0057500Y0017003D03*
X0082500Y0012003D03*
D15*
X0047126Y0105999D03*
X0058937Y0124503D03*
X0035315Y0124503D03*
D16*
X0222500Y0047003D03*
X0232500Y0047003D03*
D17*
X0297500Y0052003D03*
X0317500Y0052003D03*
X0352500Y0079503D03*
X0352500Y0089503D03*
X0352500Y0099503D03*
X0352500Y0109503D03*
X0352500Y0119503D03*
X0317500Y0122003D03*
X0317500Y0162003D03*
X0172500Y0142003D03*
X0155000Y0142003D03*
X0137500Y0142003D03*
X0120000Y0142003D03*
X0102500Y0142003D03*
X0085000Y0142003D03*
X0085000Y0102003D03*
X0102500Y0102003D03*
X0120000Y0102003D03*
X0137500Y0102003D03*
X0155000Y0102003D03*
X0172500Y0102003D03*
X0297500Y0012003D03*
X0317500Y0012003D03*
D18*
X0307343Y0177397D03*
X0287657Y0177397D03*
X0252343Y0177397D03*
X0232657Y0177397D03*
X0197343Y0177397D03*
X0177657Y0177397D03*
X0142343Y0177397D03*
X0122657Y0177397D03*
D19*
X0122657Y0226609D03*
X0142343Y0226609D03*
X0177657Y0226609D03*
X0197343Y0226609D03*
X0232657Y0226609D03*
X0252343Y0226609D03*
X0287657Y0226609D03*
X0307343Y0226609D03*
D20*
X0352500Y0194503D03*
X0032500Y0164503D03*
D21*
X0032500Y0184188D03*
X0352500Y0174818D03*
X0352500Y0155133D03*
D22*
X0352500Y0129503D03*
D23*
X0152500Y0029503D03*
X0100000Y0077003D03*
X0080000Y0077003D03*
X0067500Y0092003D03*
X0057500Y0092003D03*
X0037500Y0072003D03*
X0045000Y0063253D03*
X0045000Y0044503D03*
X0037500Y0044503D03*
X0060000Y0044503D03*
X0027500Y0092003D03*
M02*
