G75*
%MOIN*%
%OFA0B0*%
%FSLAX25Y25*%
%IPPOS*%
%LPD*%
%AMOC8*
5,1,8,0,0,1.08239X$1,22.5*
%
%ADD10C,0.00100*%
%ADD11C,0.01600*%
%ADD12R,0.16000X0.16000*%
%ADD13R,0.18000X0.18000*%
%ADD14R,0.05906X0.05512*%
%ADD15R,0.05906X0.05118*%
%ADD16R,0.06890X0.02756*%
%ADD17R,0.08000X0.02756*%
%ADD18R,0.05906X0.03150*%
%ADD19R,0.03937X0.05512*%
%ADD20R,0.05512X0.03150*%
%ADD21R,0.06102X0.03937*%
D10*
X0027500Y0019503D02*
X0027502Y0019687D01*
X0027509Y0019871D01*
X0027520Y0020055D01*
X0027536Y0020238D01*
X0027556Y0020421D01*
X0027581Y0020603D01*
X0027610Y0020785D01*
X0027644Y0020966D01*
X0027682Y0021146D01*
X0027725Y0021325D01*
X0027772Y0021503D01*
X0027823Y0021680D01*
X0027879Y0021856D01*
X0027938Y0022030D01*
X0028003Y0022202D01*
X0028071Y0022373D01*
X0028143Y0022542D01*
X0028220Y0022710D01*
X0028301Y0022875D01*
X0028386Y0023038D01*
X0028474Y0023200D01*
X0028567Y0023359D01*
X0028664Y0023515D01*
X0028764Y0023670D01*
X0028868Y0023822D01*
X0028976Y0023971D01*
X0029087Y0024117D01*
X0029202Y0024261D01*
X0029321Y0024402D01*
X0029443Y0024540D01*
X0029568Y0024675D01*
X0029697Y0024806D01*
X0029828Y0024935D01*
X0029963Y0025060D01*
X0030101Y0025182D01*
X0030242Y0025301D01*
X0030386Y0025416D01*
X0030532Y0025527D01*
X0030681Y0025635D01*
X0030833Y0025739D01*
X0030988Y0025839D01*
X0031144Y0025936D01*
X0031303Y0026029D01*
X0031465Y0026117D01*
X0031628Y0026202D01*
X0031793Y0026283D01*
X0031961Y0026360D01*
X0032130Y0026432D01*
X0032301Y0026500D01*
X0032473Y0026565D01*
X0032647Y0026624D01*
X0032823Y0026680D01*
X0033000Y0026731D01*
X0033178Y0026778D01*
X0033357Y0026821D01*
X0033537Y0026859D01*
X0033718Y0026893D01*
X0033900Y0026922D01*
X0034082Y0026947D01*
X0034265Y0026967D01*
X0034448Y0026983D01*
X0034632Y0026994D01*
X0034816Y0027001D01*
X0035000Y0027003D01*
X0035184Y0027001D01*
X0035368Y0026994D01*
X0035552Y0026983D01*
X0035735Y0026967D01*
X0035918Y0026947D01*
X0036100Y0026922D01*
X0036282Y0026893D01*
X0036463Y0026859D01*
X0036643Y0026821D01*
X0036822Y0026778D01*
X0037000Y0026731D01*
X0037177Y0026680D01*
X0037353Y0026624D01*
X0037527Y0026565D01*
X0037699Y0026500D01*
X0037870Y0026432D01*
X0038039Y0026360D01*
X0038207Y0026283D01*
X0038372Y0026202D01*
X0038535Y0026117D01*
X0038697Y0026029D01*
X0038856Y0025936D01*
X0039012Y0025839D01*
X0039167Y0025739D01*
X0039319Y0025635D01*
X0039468Y0025527D01*
X0039614Y0025416D01*
X0039758Y0025301D01*
X0039899Y0025182D01*
X0040037Y0025060D01*
X0040172Y0024935D01*
X0040303Y0024806D01*
X0040432Y0024675D01*
X0040557Y0024540D01*
X0040679Y0024402D01*
X0040798Y0024261D01*
X0040913Y0024117D01*
X0041024Y0023971D01*
X0041132Y0023822D01*
X0041236Y0023670D01*
X0041336Y0023515D01*
X0041433Y0023359D01*
X0041526Y0023200D01*
X0041614Y0023038D01*
X0041699Y0022875D01*
X0041780Y0022710D01*
X0041857Y0022542D01*
X0041929Y0022373D01*
X0041997Y0022202D01*
X0042062Y0022030D01*
X0042121Y0021856D01*
X0042177Y0021680D01*
X0042228Y0021503D01*
X0042275Y0021325D01*
X0042318Y0021146D01*
X0042356Y0020966D01*
X0042390Y0020785D01*
X0042419Y0020603D01*
X0042444Y0020421D01*
X0042464Y0020238D01*
X0042480Y0020055D01*
X0042491Y0019871D01*
X0042498Y0019687D01*
X0042500Y0019503D01*
X0042498Y0019319D01*
X0042491Y0019135D01*
X0042480Y0018951D01*
X0042464Y0018768D01*
X0042444Y0018585D01*
X0042419Y0018403D01*
X0042390Y0018221D01*
X0042356Y0018040D01*
X0042318Y0017860D01*
X0042275Y0017681D01*
X0042228Y0017503D01*
X0042177Y0017326D01*
X0042121Y0017150D01*
X0042062Y0016976D01*
X0041997Y0016804D01*
X0041929Y0016633D01*
X0041857Y0016464D01*
X0041780Y0016296D01*
X0041699Y0016131D01*
X0041614Y0015968D01*
X0041526Y0015806D01*
X0041433Y0015647D01*
X0041336Y0015491D01*
X0041236Y0015336D01*
X0041132Y0015184D01*
X0041024Y0015035D01*
X0040913Y0014889D01*
X0040798Y0014745D01*
X0040679Y0014604D01*
X0040557Y0014466D01*
X0040432Y0014331D01*
X0040303Y0014200D01*
X0040172Y0014071D01*
X0040037Y0013946D01*
X0039899Y0013824D01*
X0039758Y0013705D01*
X0039614Y0013590D01*
X0039468Y0013479D01*
X0039319Y0013371D01*
X0039167Y0013267D01*
X0039012Y0013167D01*
X0038856Y0013070D01*
X0038697Y0012977D01*
X0038535Y0012889D01*
X0038372Y0012804D01*
X0038207Y0012723D01*
X0038039Y0012646D01*
X0037870Y0012574D01*
X0037699Y0012506D01*
X0037527Y0012441D01*
X0037353Y0012382D01*
X0037177Y0012326D01*
X0037000Y0012275D01*
X0036822Y0012228D01*
X0036643Y0012185D01*
X0036463Y0012147D01*
X0036282Y0012113D01*
X0036100Y0012084D01*
X0035918Y0012059D01*
X0035735Y0012039D01*
X0035552Y0012023D01*
X0035368Y0012012D01*
X0035184Y0012005D01*
X0035000Y0012003D01*
X0034816Y0012005D01*
X0034632Y0012012D01*
X0034448Y0012023D01*
X0034265Y0012039D01*
X0034082Y0012059D01*
X0033900Y0012084D01*
X0033718Y0012113D01*
X0033537Y0012147D01*
X0033357Y0012185D01*
X0033178Y0012228D01*
X0033000Y0012275D01*
X0032823Y0012326D01*
X0032647Y0012382D01*
X0032473Y0012441D01*
X0032301Y0012506D01*
X0032130Y0012574D01*
X0031961Y0012646D01*
X0031793Y0012723D01*
X0031628Y0012804D01*
X0031465Y0012889D01*
X0031303Y0012977D01*
X0031144Y0013070D01*
X0030988Y0013167D01*
X0030833Y0013267D01*
X0030681Y0013371D01*
X0030532Y0013479D01*
X0030386Y0013590D01*
X0030242Y0013705D01*
X0030101Y0013824D01*
X0029963Y0013946D01*
X0029828Y0014071D01*
X0029697Y0014200D01*
X0029568Y0014331D01*
X0029443Y0014466D01*
X0029321Y0014604D01*
X0029202Y0014745D01*
X0029087Y0014889D01*
X0028976Y0015035D01*
X0028868Y0015184D01*
X0028764Y0015336D01*
X0028664Y0015491D01*
X0028567Y0015647D01*
X0028474Y0015806D01*
X0028386Y0015968D01*
X0028301Y0016131D01*
X0028220Y0016296D01*
X0028143Y0016464D01*
X0028071Y0016633D01*
X0028003Y0016804D01*
X0027938Y0016976D01*
X0027879Y0017150D01*
X0027823Y0017326D01*
X0027772Y0017503D01*
X0027725Y0017681D01*
X0027682Y0017860D01*
X0027644Y0018040D01*
X0027610Y0018221D01*
X0027581Y0018403D01*
X0027556Y0018585D01*
X0027536Y0018768D01*
X0027520Y0018951D01*
X0027509Y0019135D01*
X0027502Y0019319D01*
X0027500Y0019503D01*
X0027500Y0219503D02*
X0027502Y0219687D01*
X0027509Y0219871D01*
X0027520Y0220055D01*
X0027536Y0220238D01*
X0027556Y0220421D01*
X0027581Y0220603D01*
X0027610Y0220785D01*
X0027644Y0220966D01*
X0027682Y0221146D01*
X0027725Y0221325D01*
X0027772Y0221503D01*
X0027823Y0221680D01*
X0027879Y0221856D01*
X0027938Y0222030D01*
X0028003Y0222202D01*
X0028071Y0222373D01*
X0028143Y0222542D01*
X0028220Y0222710D01*
X0028301Y0222875D01*
X0028386Y0223038D01*
X0028474Y0223200D01*
X0028567Y0223359D01*
X0028664Y0223515D01*
X0028764Y0223670D01*
X0028868Y0223822D01*
X0028976Y0223971D01*
X0029087Y0224117D01*
X0029202Y0224261D01*
X0029321Y0224402D01*
X0029443Y0224540D01*
X0029568Y0224675D01*
X0029697Y0224806D01*
X0029828Y0224935D01*
X0029963Y0225060D01*
X0030101Y0225182D01*
X0030242Y0225301D01*
X0030386Y0225416D01*
X0030532Y0225527D01*
X0030681Y0225635D01*
X0030833Y0225739D01*
X0030988Y0225839D01*
X0031144Y0225936D01*
X0031303Y0226029D01*
X0031465Y0226117D01*
X0031628Y0226202D01*
X0031793Y0226283D01*
X0031961Y0226360D01*
X0032130Y0226432D01*
X0032301Y0226500D01*
X0032473Y0226565D01*
X0032647Y0226624D01*
X0032823Y0226680D01*
X0033000Y0226731D01*
X0033178Y0226778D01*
X0033357Y0226821D01*
X0033537Y0226859D01*
X0033718Y0226893D01*
X0033900Y0226922D01*
X0034082Y0226947D01*
X0034265Y0226967D01*
X0034448Y0226983D01*
X0034632Y0226994D01*
X0034816Y0227001D01*
X0035000Y0227003D01*
X0035184Y0227001D01*
X0035368Y0226994D01*
X0035552Y0226983D01*
X0035735Y0226967D01*
X0035918Y0226947D01*
X0036100Y0226922D01*
X0036282Y0226893D01*
X0036463Y0226859D01*
X0036643Y0226821D01*
X0036822Y0226778D01*
X0037000Y0226731D01*
X0037177Y0226680D01*
X0037353Y0226624D01*
X0037527Y0226565D01*
X0037699Y0226500D01*
X0037870Y0226432D01*
X0038039Y0226360D01*
X0038207Y0226283D01*
X0038372Y0226202D01*
X0038535Y0226117D01*
X0038697Y0226029D01*
X0038856Y0225936D01*
X0039012Y0225839D01*
X0039167Y0225739D01*
X0039319Y0225635D01*
X0039468Y0225527D01*
X0039614Y0225416D01*
X0039758Y0225301D01*
X0039899Y0225182D01*
X0040037Y0225060D01*
X0040172Y0224935D01*
X0040303Y0224806D01*
X0040432Y0224675D01*
X0040557Y0224540D01*
X0040679Y0224402D01*
X0040798Y0224261D01*
X0040913Y0224117D01*
X0041024Y0223971D01*
X0041132Y0223822D01*
X0041236Y0223670D01*
X0041336Y0223515D01*
X0041433Y0223359D01*
X0041526Y0223200D01*
X0041614Y0223038D01*
X0041699Y0222875D01*
X0041780Y0222710D01*
X0041857Y0222542D01*
X0041929Y0222373D01*
X0041997Y0222202D01*
X0042062Y0222030D01*
X0042121Y0221856D01*
X0042177Y0221680D01*
X0042228Y0221503D01*
X0042275Y0221325D01*
X0042318Y0221146D01*
X0042356Y0220966D01*
X0042390Y0220785D01*
X0042419Y0220603D01*
X0042444Y0220421D01*
X0042464Y0220238D01*
X0042480Y0220055D01*
X0042491Y0219871D01*
X0042498Y0219687D01*
X0042500Y0219503D01*
X0042498Y0219319D01*
X0042491Y0219135D01*
X0042480Y0218951D01*
X0042464Y0218768D01*
X0042444Y0218585D01*
X0042419Y0218403D01*
X0042390Y0218221D01*
X0042356Y0218040D01*
X0042318Y0217860D01*
X0042275Y0217681D01*
X0042228Y0217503D01*
X0042177Y0217326D01*
X0042121Y0217150D01*
X0042062Y0216976D01*
X0041997Y0216804D01*
X0041929Y0216633D01*
X0041857Y0216464D01*
X0041780Y0216296D01*
X0041699Y0216131D01*
X0041614Y0215968D01*
X0041526Y0215806D01*
X0041433Y0215647D01*
X0041336Y0215491D01*
X0041236Y0215336D01*
X0041132Y0215184D01*
X0041024Y0215035D01*
X0040913Y0214889D01*
X0040798Y0214745D01*
X0040679Y0214604D01*
X0040557Y0214466D01*
X0040432Y0214331D01*
X0040303Y0214200D01*
X0040172Y0214071D01*
X0040037Y0213946D01*
X0039899Y0213824D01*
X0039758Y0213705D01*
X0039614Y0213590D01*
X0039468Y0213479D01*
X0039319Y0213371D01*
X0039167Y0213267D01*
X0039012Y0213167D01*
X0038856Y0213070D01*
X0038697Y0212977D01*
X0038535Y0212889D01*
X0038372Y0212804D01*
X0038207Y0212723D01*
X0038039Y0212646D01*
X0037870Y0212574D01*
X0037699Y0212506D01*
X0037527Y0212441D01*
X0037353Y0212382D01*
X0037177Y0212326D01*
X0037000Y0212275D01*
X0036822Y0212228D01*
X0036643Y0212185D01*
X0036463Y0212147D01*
X0036282Y0212113D01*
X0036100Y0212084D01*
X0035918Y0212059D01*
X0035735Y0212039D01*
X0035552Y0212023D01*
X0035368Y0212012D01*
X0035184Y0212005D01*
X0035000Y0212003D01*
X0034816Y0212005D01*
X0034632Y0212012D01*
X0034448Y0212023D01*
X0034265Y0212039D01*
X0034082Y0212059D01*
X0033900Y0212084D01*
X0033718Y0212113D01*
X0033537Y0212147D01*
X0033357Y0212185D01*
X0033178Y0212228D01*
X0033000Y0212275D01*
X0032823Y0212326D01*
X0032647Y0212382D01*
X0032473Y0212441D01*
X0032301Y0212506D01*
X0032130Y0212574D01*
X0031961Y0212646D01*
X0031793Y0212723D01*
X0031628Y0212804D01*
X0031465Y0212889D01*
X0031303Y0212977D01*
X0031144Y0213070D01*
X0030988Y0213167D01*
X0030833Y0213267D01*
X0030681Y0213371D01*
X0030532Y0213479D01*
X0030386Y0213590D01*
X0030242Y0213705D01*
X0030101Y0213824D01*
X0029963Y0213946D01*
X0029828Y0214071D01*
X0029697Y0214200D01*
X0029568Y0214331D01*
X0029443Y0214466D01*
X0029321Y0214604D01*
X0029202Y0214745D01*
X0029087Y0214889D01*
X0028976Y0215035D01*
X0028868Y0215184D01*
X0028764Y0215336D01*
X0028664Y0215491D01*
X0028567Y0215647D01*
X0028474Y0215806D01*
X0028386Y0215968D01*
X0028301Y0216131D01*
X0028220Y0216296D01*
X0028143Y0216464D01*
X0028071Y0216633D01*
X0028003Y0216804D01*
X0027938Y0216976D01*
X0027879Y0217150D01*
X0027823Y0217326D01*
X0027772Y0217503D01*
X0027725Y0217681D01*
X0027682Y0217860D01*
X0027644Y0218040D01*
X0027610Y0218221D01*
X0027581Y0218403D01*
X0027556Y0218585D01*
X0027536Y0218768D01*
X0027520Y0218951D01*
X0027509Y0219135D01*
X0027502Y0219319D01*
X0027500Y0219503D01*
X0342500Y0219503D02*
X0342502Y0219687D01*
X0342509Y0219871D01*
X0342520Y0220055D01*
X0342536Y0220238D01*
X0342556Y0220421D01*
X0342581Y0220603D01*
X0342610Y0220785D01*
X0342644Y0220966D01*
X0342682Y0221146D01*
X0342725Y0221325D01*
X0342772Y0221503D01*
X0342823Y0221680D01*
X0342879Y0221856D01*
X0342938Y0222030D01*
X0343003Y0222202D01*
X0343071Y0222373D01*
X0343143Y0222542D01*
X0343220Y0222710D01*
X0343301Y0222875D01*
X0343386Y0223038D01*
X0343474Y0223200D01*
X0343567Y0223359D01*
X0343664Y0223515D01*
X0343764Y0223670D01*
X0343868Y0223822D01*
X0343976Y0223971D01*
X0344087Y0224117D01*
X0344202Y0224261D01*
X0344321Y0224402D01*
X0344443Y0224540D01*
X0344568Y0224675D01*
X0344697Y0224806D01*
X0344828Y0224935D01*
X0344963Y0225060D01*
X0345101Y0225182D01*
X0345242Y0225301D01*
X0345386Y0225416D01*
X0345532Y0225527D01*
X0345681Y0225635D01*
X0345833Y0225739D01*
X0345988Y0225839D01*
X0346144Y0225936D01*
X0346303Y0226029D01*
X0346465Y0226117D01*
X0346628Y0226202D01*
X0346793Y0226283D01*
X0346961Y0226360D01*
X0347130Y0226432D01*
X0347301Y0226500D01*
X0347473Y0226565D01*
X0347647Y0226624D01*
X0347823Y0226680D01*
X0348000Y0226731D01*
X0348178Y0226778D01*
X0348357Y0226821D01*
X0348537Y0226859D01*
X0348718Y0226893D01*
X0348900Y0226922D01*
X0349082Y0226947D01*
X0349265Y0226967D01*
X0349448Y0226983D01*
X0349632Y0226994D01*
X0349816Y0227001D01*
X0350000Y0227003D01*
X0350184Y0227001D01*
X0350368Y0226994D01*
X0350552Y0226983D01*
X0350735Y0226967D01*
X0350918Y0226947D01*
X0351100Y0226922D01*
X0351282Y0226893D01*
X0351463Y0226859D01*
X0351643Y0226821D01*
X0351822Y0226778D01*
X0352000Y0226731D01*
X0352177Y0226680D01*
X0352353Y0226624D01*
X0352527Y0226565D01*
X0352699Y0226500D01*
X0352870Y0226432D01*
X0353039Y0226360D01*
X0353207Y0226283D01*
X0353372Y0226202D01*
X0353535Y0226117D01*
X0353697Y0226029D01*
X0353856Y0225936D01*
X0354012Y0225839D01*
X0354167Y0225739D01*
X0354319Y0225635D01*
X0354468Y0225527D01*
X0354614Y0225416D01*
X0354758Y0225301D01*
X0354899Y0225182D01*
X0355037Y0225060D01*
X0355172Y0224935D01*
X0355303Y0224806D01*
X0355432Y0224675D01*
X0355557Y0224540D01*
X0355679Y0224402D01*
X0355798Y0224261D01*
X0355913Y0224117D01*
X0356024Y0223971D01*
X0356132Y0223822D01*
X0356236Y0223670D01*
X0356336Y0223515D01*
X0356433Y0223359D01*
X0356526Y0223200D01*
X0356614Y0223038D01*
X0356699Y0222875D01*
X0356780Y0222710D01*
X0356857Y0222542D01*
X0356929Y0222373D01*
X0356997Y0222202D01*
X0357062Y0222030D01*
X0357121Y0221856D01*
X0357177Y0221680D01*
X0357228Y0221503D01*
X0357275Y0221325D01*
X0357318Y0221146D01*
X0357356Y0220966D01*
X0357390Y0220785D01*
X0357419Y0220603D01*
X0357444Y0220421D01*
X0357464Y0220238D01*
X0357480Y0220055D01*
X0357491Y0219871D01*
X0357498Y0219687D01*
X0357500Y0219503D01*
X0357498Y0219319D01*
X0357491Y0219135D01*
X0357480Y0218951D01*
X0357464Y0218768D01*
X0357444Y0218585D01*
X0357419Y0218403D01*
X0357390Y0218221D01*
X0357356Y0218040D01*
X0357318Y0217860D01*
X0357275Y0217681D01*
X0357228Y0217503D01*
X0357177Y0217326D01*
X0357121Y0217150D01*
X0357062Y0216976D01*
X0356997Y0216804D01*
X0356929Y0216633D01*
X0356857Y0216464D01*
X0356780Y0216296D01*
X0356699Y0216131D01*
X0356614Y0215968D01*
X0356526Y0215806D01*
X0356433Y0215647D01*
X0356336Y0215491D01*
X0356236Y0215336D01*
X0356132Y0215184D01*
X0356024Y0215035D01*
X0355913Y0214889D01*
X0355798Y0214745D01*
X0355679Y0214604D01*
X0355557Y0214466D01*
X0355432Y0214331D01*
X0355303Y0214200D01*
X0355172Y0214071D01*
X0355037Y0213946D01*
X0354899Y0213824D01*
X0354758Y0213705D01*
X0354614Y0213590D01*
X0354468Y0213479D01*
X0354319Y0213371D01*
X0354167Y0213267D01*
X0354012Y0213167D01*
X0353856Y0213070D01*
X0353697Y0212977D01*
X0353535Y0212889D01*
X0353372Y0212804D01*
X0353207Y0212723D01*
X0353039Y0212646D01*
X0352870Y0212574D01*
X0352699Y0212506D01*
X0352527Y0212441D01*
X0352353Y0212382D01*
X0352177Y0212326D01*
X0352000Y0212275D01*
X0351822Y0212228D01*
X0351643Y0212185D01*
X0351463Y0212147D01*
X0351282Y0212113D01*
X0351100Y0212084D01*
X0350918Y0212059D01*
X0350735Y0212039D01*
X0350552Y0212023D01*
X0350368Y0212012D01*
X0350184Y0212005D01*
X0350000Y0212003D01*
X0349816Y0212005D01*
X0349632Y0212012D01*
X0349448Y0212023D01*
X0349265Y0212039D01*
X0349082Y0212059D01*
X0348900Y0212084D01*
X0348718Y0212113D01*
X0348537Y0212147D01*
X0348357Y0212185D01*
X0348178Y0212228D01*
X0348000Y0212275D01*
X0347823Y0212326D01*
X0347647Y0212382D01*
X0347473Y0212441D01*
X0347301Y0212506D01*
X0347130Y0212574D01*
X0346961Y0212646D01*
X0346793Y0212723D01*
X0346628Y0212804D01*
X0346465Y0212889D01*
X0346303Y0212977D01*
X0346144Y0213070D01*
X0345988Y0213167D01*
X0345833Y0213267D01*
X0345681Y0213371D01*
X0345532Y0213479D01*
X0345386Y0213590D01*
X0345242Y0213705D01*
X0345101Y0213824D01*
X0344963Y0213946D01*
X0344828Y0214071D01*
X0344697Y0214200D01*
X0344568Y0214331D01*
X0344443Y0214466D01*
X0344321Y0214604D01*
X0344202Y0214745D01*
X0344087Y0214889D01*
X0343976Y0215035D01*
X0343868Y0215184D01*
X0343764Y0215336D01*
X0343664Y0215491D01*
X0343567Y0215647D01*
X0343474Y0215806D01*
X0343386Y0215968D01*
X0343301Y0216131D01*
X0343220Y0216296D01*
X0343143Y0216464D01*
X0343071Y0216633D01*
X0343003Y0216804D01*
X0342938Y0216976D01*
X0342879Y0217150D01*
X0342823Y0217326D01*
X0342772Y0217503D01*
X0342725Y0217681D01*
X0342682Y0217860D01*
X0342644Y0218040D01*
X0342610Y0218221D01*
X0342581Y0218403D01*
X0342556Y0218585D01*
X0342536Y0218768D01*
X0342520Y0218951D01*
X0342509Y0219135D01*
X0342502Y0219319D01*
X0342500Y0219503D01*
X0342500Y0019503D02*
X0342502Y0019687D01*
X0342509Y0019871D01*
X0342520Y0020055D01*
X0342536Y0020238D01*
X0342556Y0020421D01*
X0342581Y0020603D01*
X0342610Y0020785D01*
X0342644Y0020966D01*
X0342682Y0021146D01*
X0342725Y0021325D01*
X0342772Y0021503D01*
X0342823Y0021680D01*
X0342879Y0021856D01*
X0342938Y0022030D01*
X0343003Y0022202D01*
X0343071Y0022373D01*
X0343143Y0022542D01*
X0343220Y0022710D01*
X0343301Y0022875D01*
X0343386Y0023038D01*
X0343474Y0023200D01*
X0343567Y0023359D01*
X0343664Y0023515D01*
X0343764Y0023670D01*
X0343868Y0023822D01*
X0343976Y0023971D01*
X0344087Y0024117D01*
X0344202Y0024261D01*
X0344321Y0024402D01*
X0344443Y0024540D01*
X0344568Y0024675D01*
X0344697Y0024806D01*
X0344828Y0024935D01*
X0344963Y0025060D01*
X0345101Y0025182D01*
X0345242Y0025301D01*
X0345386Y0025416D01*
X0345532Y0025527D01*
X0345681Y0025635D01*
X0345833Y0025739D01*
X0345988Y0025839D01*
X0346144Y0025936D01*
X0346303Y0026029D01*
X0346465Y0026117D01*
X0346628Y0026202D01*
X0346793Y0026283D01*
X0346961Y0026360D01*
X0347130Y0026432D01*
X0347301Y0026500D01*
X0347473Y0026565D01*
X0347647Y0026624D01*
X0347823Y0026680D01*
X0348000Y0026731D01*
X0348178Y0026778D01*
X0348357Y0026821D01*
X0348537Y0026859D01*
X0348718Y0026893D01*
X0348900Y0026922D01*
X0349082Y0026947D01*
X0349265Y0026967D01*
X0349448Y0026983D01*
X0349632Y0026994D01*
X0349816Y0027001D01*
X0350000Y0027003D01*
X0350184Y0027001D01*
X0350368Y0026994D01*
X0350552Y0026983D01*
X0350735Y0026967D01*
X0350918Y0026947D01*
X0351100Y0026922D01*
X0351282Y0026893D01*
X0351463Y0026859D01*
X0351643Y0026821D01*
X0351822Y0026778D01*
X0352000Y0026731D01*
X0352177Y0026680D01*
X0352353Y0026624D01*
X0352527Y0026565D01*
X0352699Y0026500D01*
X0352870Y0026432D01*
X0353039Y0026360D01*
X0353207Y0026283D01*
X0353372Y0026202D01*
X0353535Y0026117D01*
X0353697Y0026029D01*
X0353856Y0025936D01*
X0354012Y0025839D01*
X0354167Y0025739D01*
X0354319Y0025635D01*
X0354468Y0025527D01*
X0354614Y0025416D01*
X0354758Y0025301D01*
X0354899Y0025182D01*
X0355037Y0025060D01*
X0355172Y0024935D01*
X0355303Y0024806D01*
X0355432Y0024675D01*
X0355557Y0024540D01*
X0355679Y0024402D01*
X0355798Y0024261D01*
X0355913Y0024117D01*
X0356024Y0023971D01*
X0356132Y0023822D01*
X0356236Y0023670D01*
X0356336Y0023515D01*
X0356433Y0023359D01*
X0356526Y0023200D01*
X0356614Y0023038D01*
X0356699Y0022875D01*
X0356780Y0022710D01*
X0356857Y0022542D01*
X0356929Y0022373D01*
X0356997Y0022202D01*
X0357062Y0022030D01*
X0357121Y0021856D01*
X0357177Y0021680D01*
X0357228Y0021503D01*
X0357275Y0021325D01*
X0357318Y0021146D01*
X0357356Y0020966D01*
X0357390Y0020785D01*
X0357419Y0020603D01*
X0357444Y0020421D01*
X0357464Y0020238D01*
X0357480Y0020055D01*
X0357491Y0019871D01*
X0357498Y0019687D01*
X0357500Y0019503D01*
X0357498Y0019319D01*
X0357491Y0019135D01*
X0357480Y0018951D01*
X0357464Y0018768D01*
X0357444Y0018585D01*
X0357419Y0018403D01*
X0357390Y0018221D01*
X0357356Y0018040D01*
X0357318Y0017860D01*
X0357275Y0017681D01*
X0357228Y0017503D01*
X0357177Y0017326D01*
X0357121Y0017150D01*
X0357062Y0016976D01*
X0356997Y0016804D01*
X0356929Y0016633D01*
X0356857Y0016464D01*
X0356780Y0016296D01*
X0356699Y0016131D01*
X0356614Y0015968D01*
X0356526Y0015806D01*
X0356433Y0015647D01*
X0356336Y0015491D01*
X0356236Y0015336D01*
X0356132Y0015184D01*
X0356024Y0015035D01*
X0355913Y0014889D01*
X0355798Y0014745D01*
X0355679Y0014604D01*
X0355557Y0014466D01*
X0355432Y0014331D01*
X0355303Y0014200D01*
X0355172Y0014071D01*
X0355037Y0013946D01*
X0354899Y0013824D01*
X0354758Y0013705D01*
X0354614Y0013590D01*
X0354468Y0013479D01*
X0354319Y0013371D01*
X0354167Y0013267D01*
X0354012Y0013167D01*
X0353856Y0013070D01*
X0353697Y0012977D01*
X0353535Y0012889D01*
X0353372Y0012804D01*
X0353207Y0012723D01*
X0353039Y0012646D01*
X0352870Y0012574D01*
X0352699Y0012506D01*
X0352527Y0012441D01*
X0352353Y0012382D01*
X0352177Y0012326D01*
X0352000Y0012275D01*
X0351822Y0012228D01*
X0351643Y0012185D01*
X0351463Y0012147D01*
X0351282Y0012113D01*
X0351100Y0012084D01*
X0350918Y0012059D01*
X0350735Y0012039D01*
X0350552Y0012023D01*
X0350368Y0012012D01*
X0350184Y0012005D01*
X0350000Y0012003D01*
X0349816Y0012005D01*
X0349632Y0012012D01*
X0349448Y0012023D01*
X0349265Y0012039D01*
X0349082Y0012059D01*
X0348900Y0012084D01*
X0348718Y0012113D01*
X0348537Y0012147D01*
X0348357Y0012185D01*
X0348178Y0012228D01*
X0348000Y0012275D01*
X0347823Y0012326D01*
X0347647Y0012382D01*
X0347473Y0012441D01*
X0347301Y0012506D01*
X0347130Y0012574D01*
X0346961Y0012646D01*
X0346793Y0012723D01*
X0346628Y0012804D01*
X0346465Y0012889D01*
X0346303Y0012977D01*
X0346144Y0013070D01*
X0345988Y0013167D01*
X0345833Y0013267D01*
X0345681Y0013371D01*
X0345532Y0013479D01*
X0345386Y0013590D01*
X0345242Y0013705D01*
X0345101Y0013824D01*
X0344963Y0013946D01*
X0344828Y0014071D01*
X0344697Y0014200D01*
X0344568Y0014331D01*
X0344443Y0014466D01*
X0344321Y0014604D01*
X0344202Y0014745D01*
X0344087Y0014889D01*
X0343976Y0015035D01*
X0343868Y0015184D01*
X0343764Y0015336D01*
X0343664Y0015491D01*
X0343567Y0015647D01*
X0343474Y0015806D01*
X0343386Y0015968D01*
X0343301Y0016131D01*
X0343220Y0016296D01*
X0343143Y0016464D01*
X0343071Y0016633D01*
X0343003Y0016804D01*
X0342938Y0016976D01*
X0342879Y0017150D01*
X0342823Y0017326D01*
X0342772Y0017503D01*
X0342725Y0017681D01*
X0342682Y0017860D01*
X0342644Y0018040D01*
X0342610Y0018221D01*
X0342581Y0018403D01*
X0342556Y0018585D01*
X0342536Y0018768D01*
X0342520Y0018951D01*
X0342509Y0019135D01*
X0342502Y0019319D01*
X0342500Y0019503D01*
D11*
X0017500Y0004503D02*
X0017500Y0229503D01*
X0017471Y0229659D01*
X0017445Y0229816D01*
X0017424Y0229974D01*
X0017406Y0230131D01*
X0017393Y0230290D01*
X0017383Y0230448D01*
X0017378Y0230607D01*
X0017376Y0230766D01*
X0017378Y0230925D01*
X0017385Y0231084D01*
X0017395Y0231242D01*
X0017409Y0231401D01*
X0017427Y0231559D01*
X0017449Y0231716D01*
X0017475Y0231873D01*
X0017505Y0232029D01*
X0017539Y0232184D01*
X0017576Y0232339D01*
X0017618Y0232492D01*
X0017663Y0232644D01*
X0017712Y0232796D01*
X0017765Y0232945D01*
X0017821Y0233094D01*
X0017882Y0233241D01*
X0017946Y0233387D01*
X0018013Y0233530D01*
X0018084Y0233673D01*
X0018159Y0233813D01*
X0018237Y0233951D01*
X0018318Y0234088D01*
X0018403Y0234222D01*
X0018491Y0234354D01*
X0018582Y0234484D01*
X0018677Y0234612D01*
X0018775Y0234737D01*
X0018876Y0234860D01*
X0018980Y0234980D01*
X0019087Y0235098D01*
X0019196Y0235213D01*
X0019309Y0235325D01*
X0019424Y0235434D01*
X0019542Y0235541D01*
X0019663Y0235644D01*
X0019786Y0235745D01*
X0019912Y0235842D01*
X0020040Y0235936D01*
X0020170Y0236027D01*
X0020303Y0236114D01*
X0020438Y0236199D01*
X0020574Y0236280D01*
X0020713Y0236357D01*
X0020854Y0236431D01*
X0020996Y0236501D01*
X0021140Y0236568D01*
X0021286Y0236632D01*
X0021434Y0236691D01*
X0021582Y0236747D01*
X0021732Y0236799D01*
X0021884Y0236848D01*
X0022036Y0236892D01*
X0022190Y0236933D01*
X0022345Y0236970D01*
X0022500Y0237003D01*
X0362500Y0237003D01*
X0362640Y0237001D01*
X0362780Y0236995D01*
X0362920Y0236985D01*
X0363060Y0236972D01*
X0363199Y0236954D01*
X0363338Y0236932D01*
X0363475Y0236907D01*
X0363613Y0236878D01*
X0363749Y0236845D01*
X0363884Y0236808D01*
X0364018Y0236767D01*
X0364151Y0236722D01*
X0364283Y0236674D01*
X0364413Y0236622D01*
X0364542Y0236567D01*
X0364669Y0236508D01*
X0364795Y0236445D01*
X0364919Y0236379D01*
X0365040Y0236310D01*
X0365160Y0236237D01*
X0365278Y0236160D01*
X0365393Y0236081D01*
X0365507Y0235998D01*
X0365617Y0235912D01*
X0365726Y0235823D01*
X0365832Y0235731D01*
X0365935Y0235636D01*
X0366036Y0235539D01*
X0366133Y0235438D01*
X0366228Y0235335D01*
X0366320Y0235229D01*
X0366409Y0235120D01*
X0366495Y0235010D01*
X0366578Y0234896D01*
X0366657Y0234781D01*
X0366734Y0234663D01*
X0366807Y0234543D01*
X0366876Y0234422D01*
X0366942Y0234298D01*
X0367005Y0234172D01*
X0367064Y0234045D01*
X0367119Y0233916D01*
X0367171Y0233786D01*
X0367219Y0233654D01*
X0367264Y0233521D01*
X0367305Y0233387D01*
X0367342Y0233252D01*
X0367375Y0233116D01*
X0367404Y0232978D01*
X0367429Y0232841D01*
X0367451Y0232702D01*
X0367469Y0232563D01*
X0367482Y0232423D01*
X0367492Y0232283D01*
X0367498Y0232143D01*
X0367500Y0232003D01*
X0367500Y0007003D01*
X0367498Y0006863D01*
X0367492Y0006723D01*
X0367482Y0006583D01*
X0367469Y0006443D01*
X0367451Y0006304D01*
X0367429Y0006165D01*
X0367404Y0006028D01*
X0367375Y0005890D01*
X0367342Y0005754D01*
X0367305Y0005619D01*
X0367264Y0005485D01*
X0367219Y0005352D01*
X0367171Y0005220D01*
X0367119Y0005090D01*
X0367064Y0004961D01*
X0367005Y0004834D01*
X0366942Y0004708D01*
X0366876Y0004584D01*
X0366807Y0004463D01*
X0366734Y0004343D01*
X0366657Y0004225D01*
X0366578Y0004110D01*
X0366495Y0003996D01*
X0366409Y0003886D01*
X0366320Y0003777D01*
X0366228Y0003671D01*
X0366133Y0003568D01*
X0366036Y0003467D01*
X0365935Y0003370D01*
X0365832Y0003275D01*
X0365726Y0003183D01*
X0365617Y0003094D01*
X0365507Y0003008D01*
X0365393Y0002925D01*
X0365278Y0002846D01*
X0365160Y0002769D01*
X0365040Y0002696D01*
X0364919Y0002627D01*
X0364795Y0002561D01*
X0364669Y0002498D01*
X0364542Y0002439D01*
X0364413Y0002384D01*
X0364283Y0002332D01*
X0364151Y0002284D01*
X0364018Y0002239D01*
X0363884Y0002198D01*
X0363749Y0002161D01*
X0363613Y0002128D01*
X0363475Y0002099D01*
X0363338Y0002074D01*
X0363199Y0002052D01*
X0363060Y0002034D01*
X0362920Y0002021D01*
X0362780Y0002011D01*
X0362640Y0002005D01*
X0362500Y0002003D01*
X0022500Y0002003D01*
X0022382Y0001965D01*
X0022262Y0001932D01*
X0022142Y0001902D01*
X0022020Y0001876D01*
X0021898Y0001853D01*
X0021775Y0001835D01*
X0021652Y0001820D01*
X0021528Y0001810D01*
X0021404Y0001803D01*
X0021280Y0001800D01*
X0021156Y0001801D01*
X0021032Y0001806D01*
X0020908Y0001815D01*
X0020784Y0001828D01*
X0020661Y0001844D01*
X0020539Y0001865D01*
X0020417Y0001889D01*
X0020296Y0001917D01*
X0020176Y0001949D01*
X0020057Y0001984D01*
X0019939Y0002024D01*
X0019823Y0002067D01*
X0019708Y0002113D01*
X0019594Y0002164D01*
X0019482Y0002217D01*
X0019372Y0002275D01*
X0019264Y0002335D01*
X0019157Y0002399D01*
X0019053Y0002467D01*
X0018951Y0002537D01*
X0018851Y0002611D01*
X0018753Y0002688D01*
X0018658Y0002768D01*
X0018566Y0002851D01*
X0018476Y0002937D01*
X0018389Y0003025D01*
X0018305Y0003116D01*
X0018223Y0003210D01*
X0018145Y0003307D01*
X0018070Y0003405D01*
X0017998Y0003506D01*
X0017929Y0003610D01*
X0017863Y0003715D01*
X0017801Y0003822D01*
X0017742Y0003932D01*
X0017686Y0004043D01*
X0017634Y0004156D01*
X0017586Y0004270D01*
X0017541Y0004386D01*
X0017500Y0004503D01*
D12*
X0152500Y0042003D03*
D13*
X0202500Y0042003D03*
X0102500Y0042003D03*
D14*
X0027165Y0041137D03*
D15*
X0027165Y0085625D03*
D16*
X0026772Y0080704D03*
X0026772Y0076570D03*
X0026772Y0067908D03*
X0026772Y0059247D03*
X0026772Y0054916D03*
X0026772Y0050586D03*
D17*
X0026772Y0063578D03*
X0026772Y0072239D03*
D18*
X0057087Y0086806D03*
D19*
X0062992Y0085625D03*
D20*
X0059646Y0039956D03*
D21*
X0069291Y0041334D03*
M02*
