%
M48
M72
T01C0.02362
T02C0.02400
T03C0.03200
T04C0.03543
T05C0.04000
T06C0.04724
T07C0.05118
T08C0.11800
%
T01
X37500Y44503
X45000Y44503
X60000Y44503
X37500Y59503
X45000Y63253
X37500Y72003
X27500Y92003
X57500Y92003
X67500Y92003
X80000Y77003
X100000Y77003
X152500Y29503
T02
X237500Y124503
X257500Y124503
T03
X57500Y19503
X62500Y12003
X67500Y19503
X82500Y12003
X82500Y32003
X197500Y72003
X207500Y72003
X217500Y72003
X227500Y72003
X237500Y72003
X247500Y72003
X257500Y72003
X267500Y72003
X277500Y72003
X287500Y72003
X297500Y72003
X307500Y72003
X317500Y72003
X327500Y72003
X327500Y102003
X317500Y102003
X307500Y102003
X297500Y102003
X287500Y102003
X277500Y102003
X267500Y102003
X257500Y102003
X247500Y102003
X237500Y102003
X227500Y102003
X217500Y102003
X207500Y102003
X197500Y102003
X237500Y142003
X257500Y142003
X277500Y142003
X300000Y142003
X300000Y122003
X277500Y162003
X257500Y162003
X237500Y162003
X247500Y52003
X247500Y42003
X247500Y32003
X247500Y22003
X277500Y22003
X277500Y32003
X277500Y42003
X277500Y52003
X232500Y47003
X222500Y47003
T04
X297500Y52003
X317500Y52003
X317500Y12003
X297500Y12003
X172500Y102003
X155000Y102003
X137500Y102003
X120000Y102003
X102500Y102003
X85000Y102003
X85000Y142003
X102500Y142003
X120000Y142003
X137500Y142003
X155000Y142003
X172500Y142003
X317500Y162003
X317500Y122003
T05
X352500Y119503
X352500Y129503
X352500Y109503
X352500Y99503
X352500Y89503
X352500Y79503
T06
X307343Y177397
X287657Y177397
X252343Y177397
X232657Y177397
X197343Y177397
X177657Y177397
X142343Y177397
X122657Y177397
X122657Y226609
X142343Y226609
X177657Y226609
X197343Y226609
X232657Y226609
X252343Y226609
X287657Y226609
X307343Y226609
T07
X352500Y194503
X352500Y174818
X352500Y155133
X32500Y164503
X32500Y184188
T08
X35315Y124503
X58937Y124503
X47126Y105999
M30
