G75*
%MOIN*%
%OFA0B0*%
%FSLAX25Y25*%
%IPPOS*%
%LPD*%
%AMOC8*
5,1,8,0,0,1.08239X$1,22.5*
%
%ADD10C,0.00100*%
%ADD11C,0.01600*%
%ADD12C,0.05600*%
%ADD13C,0.04800*%
%ADD14OC8,0.05600*%
%ADD15C,0.17400*%
%ADD16R,0.16400X0.16400*%
%ADD17R,0.18400X0.18400*%
%ADD18C,0.05600*%
%ADD19C,0.07800*%
%ADD20C,0.08274*%
%ADD21C,0.08668*%
%ADD22R,0.09900X0.09900*%
%ADD23C,0.09900*%
%ADD24R,0.07800X0.07800*%
%ADD25R,0.06306X0.05912*%
%ADD26R,0.06306X0.05518*%
%ADD27R,0.07290X0.03156*%
%ADD28R,0.08400X0.03156*%
%ADD29R,0.06306X0.03550*%
%ADD30R,0.04337X0.05912*%
%ADD31R,0.05912X0.03550*%
%ADD32R,0.06502X0.04337*%
D10*
X0022500Y0019503D02*
X0022504Y0019810D01*
X0022515Y0020116D01*
X0022534Y0020423D01*
X0022560Y0020728D01*
X0022594Y0021033D01*
X0022635Y0021337D01*
X0022684Y0021640D01*
X0022740Y0021942D01*
X0022804Y0022242D01*
X0022875Y0022540D01*
X0022953Y0022837D01*
X0023038Y0023132D01*
X0023131Y0023424D01*
X0023231Y0023714D01*
X0023338Y0024002D01*
X0023452Y0024287D01*
X0023572Y0024569D01*
X0023700Y0024847D01*
X0023835Y0025123D01*
X0023976Y0025395D01*
X0024124Y0025664D01*
X0024278Y0025929D01*
X0024439Y0026190D01*
X0024607Y0026448D01*
X0024780Y0026701D01*
X0024960Y0026949D01*
X0025146Y0027193D01*
X0025337Y0027433D01*
X0025535Y0027668D01*
X0025738Y0027897D01*
X0025947Y0028122D01*
X0026161Y0028342D01*
X0026381Y0028556D01*
X0026606Y0028765D01*
X0026835Y0028968D01*
X0027070Y0029166D01*
X0027310Y0029357D01*
X0027554Y0029543D01*
X0027802Y0029723D01*
X0028055Y0029896D01*
X0028313Y0030064D01*
X0028574Y0030225D01*
X0028839Y0030379D01*
X0029108Y0030527D01*
X0029380Y0030668D01*
X0029656Y0030803D01*
X0029934Y0030931D01*
X0030216Y0031051D01*
X0030501Y0031165D01*
X0030789Y0031272D01*
X0031079Y0031372D01*
X0031371Y0031465D01*
X0031666Y0031550D01*
X0031963Y0031628D01*
X0032261Y0031699D01*
X0032561Y0031763D01*
X0032863Y0031819D01*
X0033166Y0031868D01*
X0033470Y0031909D01*
X0033775Y0031943D01*
X0034080Y0031969D01*
X0034387Y0031988D01*
X0034693Y0031999D01*
X0035000Y0032003D01*
X0035307Y0031999D01*
X0035613Y0031988D01*
X0035920Y0031969D01*
X0036225Y0031943D01*
X0036530Y0031909D01*
X0036834Y0031868D01*
X0037137Y0031819D01*
X0037439Y0031763D01*
X0037739Y0031699D01*
X0038037Y0031628D01*
X0038334Y0031550D01*
X0038629Y0031465D01*
X0038921Y0031372D01*
X0039211Y0031272D01*
X0039499Y0031165D01*
X0039784Y0031051D01*
X0040066Y0030931D01*
X0040344Y0030803D01*
X0040620Y0030668D01*
X0040892Y0030527D01*
X0041161Y0030379D01*
X0041426Y0030225D01*
X0041687Y0030064D01*
X0041945Y0029896D01*
X0042198Y0029723D01*
X0042446Y0029543D01*
X0042690Y0029357D01*
X0042930Y0029166D01*
X0043165Y0028968D01*
X0043394Y0028765D01*
X0043619Y0028556D01*
X0043839Y0028342D01*
X0044053Y0028122D01*
X0044262Y0027897D01*
X0044465Y0027668D01*
X0044663Y0027433D01*
X0044854Y0027193D01*
X0045040Y0026949D01*
X0045220Y0026701D01*
X0045393Y0026448D01*
X0045561Y0026190D01*
X0045722Y0025929D01*
X0045876Y0025664D01*
X0046024Y0025395D01*
X0046165Y0025123D01*
X0046300Y0024847D01*
X0046428Y0024569D01*
X0046548Y0024287D01*
X0046662Y0024002D01*
X0046769Y0023714D01*
X0046869Y0023424D01*
X0046962Y0023132D01*
X0047047Y0022837D01*
X0047125Y0022540D01*
X0047196Y0022242D01*
X0047260Y0021942D01*
X0047316Y0021640D01*
X0047365Y0021337D01*
X0047406Y0021033D01*
X0047440Y0020728D01*
X0047466Y0020423D01*
X0047485Y0020116D01*
X0047496Y0019810D01*
X0047500Y0019503D01*
X0047496Y0019196D01*
X0047485Y0018890D01*
X0047466Y0018583D01*
X0047440Y0018278D01*
X0047406Y0017973D01*
X0047365Y0017669D01*
X0047316Y0017366D01*
X0047260Y0017064D01*
X0047196Y0016764D01*
X0047125Y0016466D01*
X0047047Y0016169D01*
X0046962Y0015874D01*
X0046869Y0015582D01*
X0046769Y0015292D01*
X0046662Y0015004D01*
X0046548Y0014719D01*
X0046428Y0014437D01*
X0046300Y0014159D01*
X0046165Y0013883D01*
X0046024Y0013611D01*
X0045876Y0013342D01*
X0045722Y0013077D01*
X0045561Y0012816D01*
X0045393Y0012558D01*
X0045220Y0012305D01*
X0045040Y0012057D01*
X0044854Y0011813D01*
X0044663Y0011573D01*
X0044465Y0011338D01*
X0044262Y0011109D01*
X0044053Y0010884D01*
X0043839Y0010664D01*
X0043619Y0010450D01*
X0043394Y0010241D01*
X0043165Y0010038D01*
X0042930Y0009840D01*
X0042690Y0009649D01*
X0042446Y0009463D01*
X0042198Y0009283D01*
X0041945Y0009110D01*
X0041687Y0008942D01*
X0041426Y0008781D01*
X0041161Y0008627D01*
X0040892Y0008479D01*
X0040620Y0008338D01*
X0040344Y0008203D01*
X0040066Y0008075D01*
X0039784Y0007955D01*
X0039499Y0007841D01*
X0039211Y0007734D01*
X0038921Y0007634D01*
X0038629Y0007541D01*
X0038334Y0007456D01*
X0038037Y0007378D01*
X0037739Y0007307D01*
X0037439Y0007243D01*
X0037137Y0007187D01*
X0036834Y0007138D01*
X0036530Y0007097D01*
X0036225Y0007063D01*
X0035920Y0007037D01*
X0035613Y0007018D01*
X0035307Y0007007D01*
X0035000Y0007003D01*
X0034693Y0007007D01*
X0034387Y0007018D01*
X0034080Y0007037D01*
X0033775Y0007063D01*
X0033470Y0007097D01*
X0033166Y0007138D01*
X0032863Y0007187D01*
X0032561Y0007243D01*
X0032261Y0007307D01*
X0031963Y0007378D01*
X0031666Y0007456D01*
X0031371Y0007541D01*
X0031079Y0007634D01*
X0030789Y0007734D01*
X0030501Y0007841D01*
X0030216Y0007955D01*
X0029934Y0008075D01*
X0029656Y0008203D01*
X0029380Y0008338D01*
X0029108Y0008479D01*
X0028839Y0008627D01*
X0028574Y0008781D01*
X0028313Y0008942D01*
X0028055Y0009110D01*
X0027802Y0009283D01*
X0027554Y0009463D01*
X0027310Y0009649D01*
X0027070Y0009840D01*
X0026835Y0010038D01*
X0026606Y0010241D01*
X0026381Y0010450D01*
X0026161Y0010664D01*
X0025947Y0010884D01*
X0025738Y0011109D01*
X0025535Y0011338D01*
X0025337Y0011573D01*
X0025146Y0011813D01*
X0024960Y0012057D01*
X0024780Y0012305D01*
X0024607Y0012558D01*
X0024439Y0012816D01*
X0024278Y0013077D01*
X0024124Y0013342D01*
X0023976Y0013611D01*
X0023835Y0013883D01*
X0023700Y0014159D01*
X0023572Y0014437D01*
X0023452Y0014719D01*
X0023338Y0015004D01*
X0023231Y0015292D01*
X0023131Y0015582D01*
X0023038Y0015874D01*
X0022953Y0016169D01*
X0022875Y0016466D01*
X0022804Y0016764D01*
X0022740Y0017064D01*
X0022684Y0017366D01*
X0022635Y0017669D01*
X0022594Y0017973D01*
X0022560Y0018278D01*
X0022534Y0018583D01*
X0022515Y0018890D01*
X0022504Y0019196D01*
X0022500Y0019503D01*
X0022500Y0219503D02*
X0022504Y0219810D01*
X0022515Y0220116D01*
X0022534Y0220423D01*
X0022560Y0220728D01*
X0022594Y0221033D01*
X0022635Y0221337D01*
X0022684Y0221640D01*
X0022740Y0221942D01*
X0022804Y0222242D01*
X0022875Y0222540D01*
X0022953Y0222837D01*
X0023038Y0223132D01*
X0023131Y0223424D01*
X0023231Y0223714D01*
X0023338Y0224002D01*
X0023452Y0224287D01*
X0023572Y0224569D01*
X0023700Y0224847D01*
X0023835Y0225123D01*
X0023976Y0225395D01*
X0024124Y0225664D01*
X0024278Y0225929D01*
X0024439Y0226190D01*
X0024607Y0226448D01*
X0024780Y0226701D01*
X0024960Y0226949D01*
X0025146Y0227193D01*
X0025337Y0227433D01*
X0025535Y0227668D01*
X0025738Y0227897D01*
X0025947Y0228122D01*
X0026161Y0228342D01*
X0026381Y0228556D01*
X0026606Y0228765D01*
X0026835Y0228968D01*
X0027070Y0229166D01*
X0027310Y0229357D01*
X0027554Y0229543D01*
X0027802Y0229723D01*
X0028055Y0229896D01*
X0028313Y0230064D01*
X0028574Y0230225D01*
X0028839Y0230379D01*
X0029108Y0230527D01*
X0029380Y0230668D01*
X0029656Y0230803D01*
X0029934Y0230931D01*
X0030216Y0231051D01*
X0030501Y0231165D01*
X0030789Y0231272D01*
X0031079Y0231372D01*
X0031371Y0231465D01*
X0031666Y0231550D01*
X0031963Y0231628D01*
X0032261Y0231699D01*
X0032561Y0231763D01*
X0032863Y0231819D01*
X0033166Y0231868D01*
X0033470Y0231909D01*
X0033775Y0231943D01*
X0034080Y0231969D01*
X0034387Y0231988D01*
X0034693Y0231999D01*
X0035000Y0232003D01*
X0035307Y0231999D01*
X0035613Y0231988D01*
X0035920Y0231969D01*
X0036225Y0231943D01*
X0036530Y0231909D01*
X0036834Y0231868D01*
X0037137Y0231819D01*
X0037439Y0231763D01*
X0037739Y0231699D01*
X0038037Y0231628D01*
X0038334Y0231550D01*
X0038629Y0231465D01*
X0038921Y0231372D01*
X0039211Y0231272D01*
X0039499Y0231165D01*
X0039784Y0231051D01*
X0040066Y0230931D01*
X0040344Y0230803D01*
X0040620Y0230668D01*
X0040892Y0230527D01*
X0041161Y0230379D01*
X0041426Y0230225D01*
X0041687Y0230064D01*
X0041945Y0229896D01*
X0042198Y0229723D01*
X0042446Y0229543D01*
X0042690Y0229357D01*
X0042930Y0229166D01*
X0043165Y0228968D01*
X0043394Y0228765D01*
X0043619Y0228556D01*
X0043839Y0228342D01*
X0044053Y0228122D01*
X0044262Y0227897D01*
X0044465Y0227668D01*
X0044663Y0227433D01*
X0044854Y0227193D01*
X0045040Y0226949D01*
X0045220Y0226701D01*
X0045393Y0226448D01*
X0045561Y0226190D01*
X0045722Y0225929D01*
X0045876Y0225664D01*
X0046024Y0225395D01*
X0046165Y0225123D01*
X0046300Y0224847D01*
X0046428Y0224569D01*
X0046548Y0224287D01*
X0046662Y0224002D01*
X0046769Y0223714D01*
X0046869Y0223424D01*
X0046962Y0223132D01*
X0047047Y0222837D01*
X0047125Y0222540D01*
X0047196Y0222242D01*
X0047260Y0221942D01*
X0047316Y0221640D01*
X0047365Y0221337D01*
X0047406Y0221033D01*
X0047440Y0220728D01*
X0047466Y0220423D01*
X0047485Y0220116D01*
X0047496Y0219810D01*
X0047500Y0219503D01*
X0047496Y0219196D01*
X0047485Y0218890D01*
X0047466Y0218583D01*
X0047440Y0218278D01*
X0047406Y0217973D01*
X0047365Y0217669D01*
X0047316Y0217366D01*
X0047260Y0217064D01*
X0047196Y0216764D01*
X0047125Y0216466D01*
X0047047Y0216169D01*
X0046962Y0215874D01*
X0046869Y0215582D01*
X0046769Y0215292D01*
X0046662Y0215004D01*
X0046548Y0214719D01*
X0046428Y0214437D01*
X0046300Y0214159D01*
X0046165Y0213883D01*
X0046024Y0213611D01*
X0045876Y0213342D01*
X0045722Y0213077D01*
X0045561Y0212816D01*
X0045393Y0212558D01*
X0045220Y0212305D01*
X0045040Y0212057D01*
X0044854Y0211813D01*
X0044663Y0211573D01*
X0044465Y0211338D01*
X0044262Y0211109D01*
X0044053Y0210884D01*
X0043839Y0210664D01*
X0043619Y0210450D01*
X0043394Y0210241D01*
X0043165Y0210038D01*
X0042930Y0209840D01*
X0042690Y0209649D01*
X0042446Y0209463D01*
X0042198Y0209283D01*
X0041945Y0209110D01*
X0041687Y0208942D01*
X0041426Y0208781D01*
X0041161Y0208627D01*
X0040892Y0208479D01*
X0040620Y0208338D01*
X0040344Y0208203D01*
X0040066Y0208075D01*
X0039784Y0207955D01*
X0039499Y0207841D01*
X0039211Y0207734D01*
X0038921Y0207634D01*
X0038629Y0207541D01*
X0038334Y0207456D01*
X0038037Y0207378D01*
X0037739Y0207307D01*
X0037439Y0207243D01*
X0037137Y0207187D01*
X0036834Y0207138D01*
X0036530Y0207097D01*
X0036225Y0207063D01*
X0035920Y0207037D01*
X0035613Y0207018D01*
X0035307Y0207007D01*
X0035000Y0207003D01*
X0034693Y0207007D01*
X0034387Y0207018D01*
X0034080Y0207037D01*
X0033775Y0207063D01*
X0033470Y0207097D01*
X0033166Y0207138D01*
X0032863Y0207187D01*
X0032561Y0207243D01*
X0032261Y0207307D01*
X0031963Y0207378D01*
X0031666Y0207456D01*
X0031371Y0207541D01*
X0031079Y0207634D01*
X0030789Y0207734D01*
X0030501Y0207841D01*
X0030216Y0207955D01*
X0029934Y0208075D01*
X0029656Y0208203D01*
X0029380Y0208338D01*
X0029108Y0208479D01*
X0028839Y0208627D01*
X0028574Y0208781D01*
X0028313Y0208942D01*
X0028055Y0209110D01*
X0027802Y0209283D01*
X0027554Y0209463D01*
X0027310Y0209649D01*
X0027070Y0209840D01*
X0026835Y0210038D01*
X0026606Y0210241D01*
X0026381Y0210450D01*
X0026161Y0210664D01*
X0025947Y0210884D01*
X0025738Y0211109D01*
X0025535Y0211338D01*
X0025337Y0211573D01*
X0025146Y0211813D01*
X0024960Y0212057D01*
X0024780Y0212305D01*
X0024607Y0212558D01*
X0024439Y0212816D01*
X0024278Y0213077D01*
X0024124Y0213342D01*
X0023976Y0213611D01*
X0023835Y0213883D01*
X0023700Y0214159D01*
X0023572Y0214437D01*
X0023452Y0214719D01*
X0023338Y0215004D01*
X0023231Y0215292D01*
X0023131Y0215582D01*
X0023038Y0215874D01*
X0022953Y0216169D01*
X0022875Y0216466D01*
X0022804Y0216764D01*
X0022740Y0217064D01*
X0022684Y0217366D01*
X0022635Y0217669D01*
X0022594Y0217973D01*
X0022560Y0218278D01*
X0022534Y0218583D01*
X0022515Y0218890D01*
X0022504Y0219196D01*
X0022500Y0219503D01*
X0337500Y0219503D02*
X0337504Y0219810D01*
X0337515Y0220116D01*
X0337534Y0220423D01*
X0337560Y0220728D01*
X0337594Y0221033D01*
X0337635Y0221337D01*
X0337684Y0221640D01*
X0337740Y0221942D01*
X0337804Y0222242D01*
X0337875Y0222540D01*
X0337953Y0222837D01*
X0338038Y0223132D01*
X0338131Y0223424D01*
X0338231Y0223714D01*
X0338338Y0224002D01*
X0338452Y0224287D01*
X0338572Y0224569D01*
X0338700Y0224847D01*
X0338835Y0225123D01*
X0338976Y0225395D01*
X0339124Y0225664D01*
X0339278Y0225929D01*
X0339439Y0226190D01*
X0339607Y0226448D01*
X0339780Y0226701D01*
X0339960Y0226949D01*
X0340146Y0227193D01*
X0340337Y0227433D01*
X0340535Y0227668D01*
X0340738Y0227897D01*
X0340947Y0228122D01*
X0341161Y0228342D01*
X0341381Y0228556D01*
X0341606Y0228765D01*
X0341835Y0228968D01*
X0342070Y0229166D01*
X0342310Y0229357D01*
X0342554Y0229543D01*
X0342802Y0229723D01*
X0343055Y0229896D01*
X0343313Y0230064D01*
X0343574Y0230225D01*
X0343839Y0230379D01*
X0344108Y0230527D01*
X0344380Y0230668D01*
X0344656Y0230803D01*
X0344934Y0230931D01*
X0345216Y0231051D01*
X0345501Y0231165D01*
X0345789Y0231272D01*
X0346079Y0231372D01*
X0346371Y0231465D01*
X0346666Y0231550D01*
X0346963Y0231628D01*
X0347261Y0231699D01*
X0347561Y0231763D01*
X0347863Y0231819D01*
X0348166Y0231868D01*
X0348470Y0231909D01*
X0348775Y0231943D01*
X0349080Y0231969D01*
X0349387Y0231988D01*
X0349693Y0231999D01*
X0350000Y0232003D01*
X0350307Y0231999D01*
X0350613Y0231988D01*
X0350920Y0231969D01*
X0351225Y0231943D01*
X0351530Y0231909D01*
X0351834Y0231868D01*
X0352137Y0231819D01*
X0352439Y0231763D01*
X0352739Y0231699D01*
X0353037Y0231628D01*
X0353334Y0231550D01*
X0353629Y0231465D01*
X0353921Y0231372D01*
X0354211Y0231272D01*
X0354499Y0231165D01*
X0354784Y0231051D01*
X0355066Y0230931D01*
X0355344Y0230803D01*
X0355620Y0230668D01*
X0355892Y0230527D01*
X0356161Y0230379D01*
X0356426Y0230225D01*
X0356687Y0230064D01*
X0356945Y0229896D01*
X0357198Y0229723D01*
X0357446Y0229543D01*
X0357690Y0229357D01*
X0357930Y0229166D01*
X0358165Y0228968D01*
X0358394Y0228765D01*
X0358619Y0228556D01*
X0358839Y0228342D01*
X0359053Y0228122D01*
X0359262Y0227897D01*
X0359465Y0227668D01*
X0359663Y0227433D01*
X0359854Y0227193D01*
X0360040Y0226949D01*
X0360220Y0226701D01*
X0360393Y0226448D01*
X0360561Y0226190D01*
X0360722Y0225929D01*
X0360876Y0225664D01*
X0361024Y0225395D01*
X0361165Y0225123D01*
X0361300Y0224847D01*
X0361428Y0224569D01*
X0361548Y0224287D01*
X0361662Y0224002D01*
X0361769Y0223714D01*
X0361869Y0223424D01*
X0361962Y0223132D01*
X0362047Y0222837D01*
X0362125Y0222540D01*
X0362196Y0222242D01*
X0362260Y0221942D01*
X0362316Y0221640D01*
X0362365Y0221337D01*
X0362406Y0221033D01*
X0362440Y0220728D01*
X0362466Y0220423D01*
X0362485Y0220116D01*
X0362496Y0219810D01*
X0362500Y0219503D01*
X0362496Y0219196D01*
X0362485Y0218890D01*
X0362466Y0218583D01*
X0362440Y0218278D01*
X0362406Y0217973D01*
X0362365Y0217669D01*
X0362316Y0217366D01*
X0362260Y0217064D01*
X0362196Y0216764D01*
X0362125Y0216466D01*
X0362047Y0216169D01*
X0361962Y0215874D01*
X0361869Y0215582D01*
X0361769Y0215292D01*
X0361662Y0215004D01*
X0361548Y0214719D01*
X0361428Y0214437D01*
X0361300Y0214159D01*
X0361165Y0213883D01*
X0361024Y0213611D01*
X0360876Y0213342D01*
X0360722Y0213077D01*
X0360561Y0212816D01*
X0360393Y0212558D01*
X0360220Y0212305D01*
X0360040Y0212057D01*
X0359854Y0211813D01*
X0359663Y0211573D01*
X0359465Y0211338D01*
X0359262Y0211109D01*
X0359053Y0210884D01*
X0358839Y0210664D01*
X0358619Y0210450D01*
X0358394Y0210241D01*
X0358165Y0210038D01*
X0357930Y0209840D01*
X0357690Y0209649D01*
X0357446Y0209463D01*
X0357198Y0209283D01*
X0356945Y0209110D01*
X0356687Y0208942D01*
X0356426Y0208781D01*
X0356161Y0208627D01*
X0355892Y0208479D01*
X0355620Y0208338D01*
X0355344Y0208203D01*
X0355066Y0208075D01*
X0354784Y0207955D01*
X0354499Y0207841D01*
X0354211Y0207734D01*
X0353921Y0207634D01*
X0353629Y0207541D01*
X0353334Y0207456D01*
X0353037Y0207378D01*
X0352739Y0207307D01*
X0352439Y0207243D01*
X0352137Y0207187D01*
X0351834Y0207138D01*
X0351530Y0207097D01*
X0351225Y0207063D01*
X0350920Y0207037D01*
X0350613Y0207018D01*
X0350307Y0207007D01*
X0350000Y0207003D01*
X0349693Y0207007D01*
X0349387Y0207018D01*
X0349080Y0207037D01*
X0348775Y0207063D01*
X0348470Y0207097D01*
X0348166Y0207138D01*
X0347863Y0207187D01*
X0347561Y0207243D01*
X0347261Y0207307D01*
X0346963Y0207378D01*
X0346666Y0207456D01*
X0346371Y0207541D01*
X0346079Y0207634D01*
X0345789Y0207734D01*
X0345501Y0207841D01*
X0345216Y0207955D01*
X0344934Y0208075D01*
X0344656Y0208203D01*
X0344380Y0208338D01*
X0344108Y0208479D01*
X0343839Y0208627D01*
X0343574Y0208781D01*
X0343313Y0208942D01*
X0343055Y0209110D01*
X0342802Y0209283D01*
X0342554Y0209463D01*
X0342310Y0209649D01*
X0342070Y0209840D01*
X0341835Y0210038D01*
X0341606Y0210241D01*
X0341381Y0210450D01*
X0341161Y0210664D01*
X0340947Y0210884D01*
X0340738Y0211109D01*
X0340535Y0211338D01*
X0340337Y0211573D01*
X0340146Y0211813D01*
X0339960Y0212057D01*
X0339780Y0212305D01*
X0339607Y0212558D01*
X0339439Y0212816D01*
X0339278Y0213077D01*
X0339124Y0213342D01*
X0338976Y0213611D01*
X0338835Y0213883D01*
X0338700Y0214159D01*
X0338572Y0214437D01*
X0338452Y0214719D01*
X0338338Y0215004D01*
X0338231Y0215292D01*
X0338131Y0215582D01*
X0338038Y0215874D01*
X0337953Y0216169D01*
X0337875Y0216466D01*
X0337804Y0216764D01*
X0337740Y0217064D01*
X0337684Y0217366D01*
X0337635Y0217669D01*
X0337594Y0217973D01*
X0337560Y0218278D01*
X0337534Y0218583D01*
X0337515Y0218890D01*
X0337504Y0219196D01*
X0337500Y0219503D01*
X0337500Y0019503D02*
X0337504Y0019810D01*
X0337515Y0020116D01*
X0337534Y0020423D01*
X0337560Y0020728D01*
X0337594Y0021033D01*
X0337635Y0021337D01*
X0337684Y0021640D01*
X0337740Y0021942D01*
X0337804Y0022242D01*
X0337875Y0022540D01*
X0337953Y0022837D01*
X0338038Y0023132D01*
X0338131Y0023424D01*
X0338231Y0023714D01*
X0338338Y0024002D01*
X0338452Y0024287D01*
X0338572Y0024569D01*
X0338700Y0024847D01*
X0338835Y0025123D01*
X0338976Y0025395D01*
X0339124Y0025664D01*
X0339278Y0025929D01*
X0339439Y0026190D01*
X0339607Y0026448D01*
X0339780Y0026701D01*
X0339960Y0026949D01*
X0340146Y0027193D01*
X0340337Y0027433D01*
X0340535Y0027668D01*
X0340738Y0027897D01*
X0340947Y0028122D01*
X0341161Y0028342D01*
X0341381Y0028556D01*
X0341606Y0028765D01*
X0341835Y0028968D01*
X0342070Y0029166D01*
X0342310Y0029357D01*
X0342554Y0029543D01*
X0342802Y0029723D01*
X0343055Y0029896D01*
X0343313Y0030064D01*
X0343574Y0030225D01*
X0343839Y0030379D01*
X0344108Y0030527D01*
X0344380Y0030668D01*
X0344656Y0030803D01*
X0344934Y0030931D01*
X0345216Y0031051D01*
X0345501Y0031165D01*
X0345789Y0031272D01*
X0346079Y0031372D01*
X0346371Y0031465D01*
X0346666Y0031550D01*
X0346963Y0031628D01*
X0347261Y0031699D01*
X0347561Y0031763D01*
X0347863Y0031819D01*
X0348166Y0031868D01*
X0348470Y0031909D01*
X0348775Y0031943D01*
X0349080Y0031969D01*
X0349387Y0031988D01*
X0349693Y0031999D01*
X0350000Y0032003D01*
X0350307Y0031999D01*
X0350613Y0031988D01*
X0350920Y0031969D01*
X0351225Y0031943D01*
X0351530Y0031909D01*
X0351834Y0031868D01*
X0352137Y0031819D01*
X0352439Y0031763D01*
X0352739Y0031699D01*
X0353037Y0031628D01*
X0353334Y0031550D01*
X0353629Y0031465D01*
X0353921Y0031372D01*
X0354211Y0031272D01*
X0354499Y0031165D01*
X0354784Y0031051D01*
X0355066Y0030931D01*
X0355344Y0030803D01*
X0355620Y0030668D01*
X0355892Y0030527D01*
X0356161Y0030379D01*
X0356426Y0030225D01*
X0356687Y0030064D01*
X0356945Y0029896D01*
X0357198Y0029723D01*
X0357446Y0029543D01*
X0357690Y0029357D01*
X0357930Y0029166D01*
X0358165Y0028968D01*
X0358394Y0028765D01*
X0358619Y0028556D01*
X0358839Y0028342D01*
X0359053Y0028122D01*
X0359262Y0027897D01*
X0359465Y0027668D01*
X0359663Y0027433D01*
X0359854Y0027193D01*
X0360040Y0026949D01*
X0360220Y0026701D01*
X0360393Y0026448D01*
X0360561Y0026190D01*
X0360722Y0025929D01*
X0360876Y0025664D01*
X0361024Y0025395D01*
X0361165Y0025123D01*
X0361300Y0024847D01*
X0361428Y0024569D01*
X0361548Y0024287D01*
X0361662Y0024002D01*
X0361769Y0023714D01*
X0361869Y0023424D01*
X0361962Y0023132D01*
X0362047Y0022837D01*
X0362125Y0022540D01*
X0362196Y0022242D01*
X0362260Y0021942D01*
X0362316Y0021640D01*
X0362365Y0021337D01*
X0362406Y0021033D01*
X0362440Y0020728D01*
X0362466Y0020423D01*
X0362485Y0020116D01*
X0362496Y0019810D01*
X0362500Y0019503D01*
X0362496Y0019196D01*
X0362485Y0018890D01*
X0362466Y0018583D01*
X0362440Y0018278D01*
X0362406Y0017973D01*
X0362365Y0017669D01*
X0362316Y0017366D01*
X0362260Y0017064D01*
X0362196Y0016764D01*
X0362125Y0016466D01*
X0362047Y0016169D01*
X0361962Y0015874D01*
X0361869Y0015582D01*
X0361769Y0015292D01*
X0361662Y0015004D01*
X0361548Y0014719D01*
X0361428Y0014437D01*
X0361300Y0014159D01*
X0361165Y0013883D01*
X0361024Y0013611D01*
X0360876Y0013342D01*
X0360722Y0013077D01*
X0360561Y0012816D01*
X0360393Y0012558D01*
X0360220Y0012305D01*
X0360040Y0012057D01*
X0359854Y0011813D01*
X0359663Y0011573D01*
X0359465Y0011338D01*
X0359262Y0011109D01*
X0359053Y0010884D01*
X0358839Y0010664D01*
X0358619Y0010450D01*
X0358394Y0010241D01*
X0358165Y0010038D01*
X0357930Y0009840D01*
X0357690Y0009649D01*
X0357446Y0009463D01*
X0357198Y0009283D01*
X0356945Y0009110D01*
X0356687Y0008942D01*
X0356426Y0008781D01*
X0356161Y0008627D01*
X0355892Y0008479D01*
X0355620Y0008338D01*
X0355344Y0008203D01*
X0355066Y0008075D01*
X0354784Y0007955D01*
X0354499Y0007841D01*
X0354211Y0007734D01*
X0353921Y0007634D01*
X0353629Y0007541D01*
X0353334Y0007456D01*
X0353037Y0007378D01*
X0352739Y0007307D01*
X0352439Y0007243D01*
X0352137Y0007187D01*
X0351834Y0007138D01*
X0351530Y0007097D01*
X0351225Y0007063D01*
X0350920Y0007037D01*
X0350613Y0007018D01*
X0350307Y0007007D01*
X0350000Y0007003D01*
X0349693Y0007007D01*
X0349387Y0007018D01*
X0349080Y0007037D01*
X0348775Y0007063D01*
X0348470Y0007097D01*
X0348166Y0007138D01*
X0347863Y0007187D01*
X0347561Y0007243D01*
X0347261Y0007307D01*
X0346963Y0007378D01*
X0346666Y0007456D01*
X0346371Y0007541D01*
X0346079Y0007634D01*
X0345789Y0007734D01*
X0345501Y0007841D01*
X0345216Y0007955D01*
X0344934Y0008075D01*
X0344656Y0008203D01*
X0344380Y0008338D01*
X0344108Y0008479D01*
X0343839Y0008627D01*
X0343574Y0008781D01*
X0343313Y0008942D01*
X0343055Y0009110D01*
X0342802Y0009283D01*
X0342554Y0009463D01*
X0342310Y0009649D01*
X0342070Y0009840D01*
X0341835Y0010038D01*
X0341606Y0010241D01*
X0341381Y0010450D01*
X0341161Y0010664D01*
X0340947Y0010884D01*
X0340738Y0011109D01*
X0340535Y0011338D01*
X0340337Y0011573D01*
X0340146Y0011813D01*
X0339960Y0012057D01*
X0339780Y0012305D01*
X0339607Y0012558D01*
X0339439Y0012816D01*
X0339278Y0013077D01*
X0339124Y0013342D01*
X0338976Y0013611D01*
X0338835Y0013883D01*
X0338700Y0014159D01*
X0338572Y0014437D01*
X0338452Y0014719D01*
X0338338Y0015004D01*
X0338231Y0015292D01*
X0338131Y0015582D01*
X0338038Y0015874D01*
X0337953Y0016169D01*
X0337875Y0016466D01*
X0337804Y0016764D01*
X0337740Y0017064D01*
X0337684Y0017366D01*
X0337635Y0017669D01*
X0337594Y0017973D01*
X0337560Y0018278D01*
X0337534Y0018583D01*
X0337515Y0018890D01*
X0337504Y0019196D01*
X0337500Y0019503D01*
D11*
X0017500Y0004503D02*
X0017500Y0229503D01*
X0017471Y0229659D01*
X0017445Y0229816D01*
X0017424Y0229974D01*
X0017406Y0230131D01*
X0017393Y0230290D01*
X0017383Y0230448D01*
X0017378Y0230607D01*
X0017376Y0230766D01*
X0017378Y0230925D01*
X0017385Y0231084D01*
X0017395Y0231242D01*
X0017409Y0231401D01*
X0017427Y0231559D01*
X0017449Y0231716D01*
X0017475Y0231873D01*
X0017505Y0232029D01*
X0017539Y0232184D01*
X0017576Y0232339D01*
X0017618Y0232492D01*
X0017663Y0232644D01*
X0017712Y0232796D01*
X0017765Y0232945D01*
X0017821Y0233094D01*
X0017882Y0233241D01*
X0017946Y0233387D01*
X0018013Y0233530D01*
X0018084Y0233673D01*
X0018159Y0233813D01*
X0018237Y0233951D01*
X0018318Y0234088D01*
X0018403Y0234222D01*
X0018491Y0234354D01*
X0018582Y0234484D01*
X0018677Y0234612D01*
X0018775Y0234737D01*
X0018876Y0234860D01*
X0018980Y0234980D01*
X0019087Y0235098D01*
X0019196Y0235213D01*
X0019309Y0235325D01*
X0019424Y0235434D01*
X0019542Y0235541D01*
X0019663Y0235644D01*
X0019786Y0235745D01*
X0019912Y0235842D01*
X0020040Y0235936D01*
X0020170Y0236027D01*
X0020303Y0236114D01*
X0020438Y0236199D01*
X0020574Y0236280D01*
X0020713Y0236357D01*
X0020854Y0236431D01*
X0020996Y0236501D01*
X0021140Y0236568D01*
X0021286Y0236632D01*
X0021434Y0236691D01*
X0021582Y0236747D01*
X0021732Y0236799D01*
X0021884Y0236848D01*
X0022036Y0236892D01*
X0022190Y0236933D01*
X0022345Y0236970D01*
X0022500Y0237003D01*
X0362500Y0237003D01*
X0362640Y0237001D01*
X0362780Y0236995D01*
X0362920Y0236985D01*
X0363060Y0236972D01*
X0363199Y0236954D01*
X0363338Y0236932D01*
X0363475Y0236907D01*
X0363613Y0236878D01*
X0363749Y0236845D01*
X0363884Y0236808D01*
X0364018Y0236767D01*
X0364151Y0236722D01*
X0364283Y0236674D01*
X0364413Y0236622D01*
X0364542Y0236567D01*
X0364669Y0236508D01*
X0364795Y0236445D01*
X0364919Y0236379D01*
X0365040Y0236310D01*
X0365160Y0236237D01*
X0365278Y0236160D01*
X0365393Y0236081D01*
X0365507Y0235998D01*
X0365617Y0235912D01*
X0365726Y0235823D01*
X0365832Y0235731D01*
X0365935Y0235636D01*
X0366036Y0235539D01*
X0366133Y0235438D01*
X0366228Y0235335D01*
X0366320Y0235229D01*
X0366409Y0235120D01*
X0366495Y0235010D01*
X0366578Y0234896D01*
X0366657Y0234781D01*
X0366734Y0234663D01*
X0366807Y0234543D01*
X0366876Y0234422D01*
X0366942Y0234298D01*
X0367005Y0234172D01*
X0367064Y0234045D01*
X0367119Y0233916D01*
X0367171Y0233786D01*
X0367219Y0233654D01*
X0367264Y0233521D01*
X0367305Y0233387D01*
X0367342Y0233252D01*
X0367375Y0233116D01*
X0367404Y0232978D01*
X0367429Y0232841D01*
X0367451Y0232702D01*
X0367469Y0232563D01*
X0367482Y0232423D01*
X0367492Y0232283D01*
X0367498Y0232143D01*
X0367500Y0232003D01*
X0367500Y0007003D01*
X0367498Y0006863D01*
X0367492Y0006723D01*
X0367482Y0006583D01*
X0367469Y0006443D01*
X0367451Y0006304D01*
X0367429Y0006165D01*
X0367404Y0006028D01*
X0367375Y0005890D01*
X0367342Y0005754D01*
X0367305Y0005619D01*
X0367264Y0005485D01*
X0367219Y0005352D01*
X0367171Y0005220D01*
X0367119Y0005090D01*
X0367064Y0004961D01*
X0367005Y0004834D01*
X0366942Y0004708D01*
X0366876Y0004584D01*
X0366807Y0004463D01*
X0366734Y0004343D01*
X0366657Y0004225D01*
X0366578Y0004110D01*
X0366495Y0003996D01*
X0366409Y0003886D01*
X0366320Y0003777D01*
X0366228Y0003671D01*
X0366133Y0003568D01*
X0366036Y0003467D01*
X0365935Y0003370D01*
X0365832Y0003275D01*
X0365726Y0003183D01*
X0365617Y0003094D01*
X0365507Y0003008D01*
X0365393Y0002925D01*
X0365278Y0002846D01*
X0365160Y0002769D01*
X0365040Y0002696D01*
X0364919Y0002627D01*
X0364795Y0002561D01*
X0364669Y0002498D01*
X0364542Y0002439D01*
X0364413Y0002384D01*
X0364283Y0002332D01*
X0364151Y0002284D01*
X0364018Y0002239D01*
X0363884Y0002198D01*
X0363749Y0002161D01*
X0363613Y0002128D01*
X0363475Y0002099D01*
X0363338Y0002074D01*
X0363199Y0002052D01*
X0363060Y0002034D01*
X0362920Y0002021D01*
X0362780Y0002011D01*
X0362640Y0002005D01*
X0362500Y0002003D01*
X0022500Y0002003D01*
X0022382Y0001965D01*
X0022262Y0001932D01*
X0022142Y0001902D01*
X0022020Y0001876D01*
X0021898Y0001853D01*
X0021775Y0001835D01*
X0021652Y0001820D01*
X0021528Y0001810D01*
X0021404Y0001803D01*
X0021280Y0001800D01*
X0021156Y0001801D01*
X0021032Y0001806D01*
X0020908Y0001815D01*
X0020784Y0001828D01*
X0020661Y0001844D01*
X0020539Y0001865D01*
X0020417Y0001889D01*
X0020296Y0001917D01*
X0020176Y0001949D01*
X0020057Y0001984D01*
X0019939Y0002024D01*
X0019823Y0002067D01*
X0019708Y0002113D01*
X0019594Y0002164D01*
X0019482Y0002217D01*
X0019372Y0002275D01*
X0019264Y0002335D01*
X0019157Y0002399D01*
X0019053Y0002467D01*
X0018951Y0002537D01*
X0018851Y0002611D01*
X0018753Y0002688D01*
X0018658Y0002768D01*
X0018566Y0002851D01*
X0018476Y0002937D01*
X0018389Y0003025D01*
X0018305Y0003116D01*
X0018223Y0003210D01*
X0018145Y0003307D01*
X0018070Y0003405D01*
X0017998Y0003506D01*
X0017929Y0003610D01*
X0017863Y0003715D01*
X0017801Y0003822D01*
X0017742Y0003932D01*
X0017686Y0004043D01*
X0017634Y0004156D01*
X0017586Y0004270D01*
X0017541Y0004386D01*
X0017500Y0004503D01*
D12*
X0197500Y0069403D02*
X0197500Y0074603D01*
X0207500Y0074603D02*
X0207500Y0069403D01*
X0217500Y0069403D02*
X0217500Y0074603D01*
X0227500Y0074603D02*
X0227500Y0069403D01*
X0237500Y0069403D02*
X0237500Y0074603D01*
X0247500Y0074603D02*
X0247500Y0069403D01*
X0257500Y0069403D02*
X0257500Y0074603D01*
X0267500Y0074603D02*
X0267500Y0069403D01*
X0277500Y0069403D02*
X0277500Y0074603D01*
X0287500Y0074603D02*
X0287500Y0069403D01*
X0297500Y0069403D02*
X0297500Y0074603D01*
X0307500Y0074603D02*
X0307500Y0069403D01*
X0317500Y0069403D02*
X0317500Y0074603D01*
X0327500Y0074603D02*
X0327500Y0069403D01*
X0327500Y0099403D02*
X0327500Y0104603D01*
X0317500Y0104603D02*
X0317500Y0099403D01*
X0307500Y0099403D02*
X0307500Y0104603D01*
X0297500Y0104603D02*
X0297500Y0099403D01*
X0287500Y0099403D02*
X0287500Y0104603D01*
X0277500Y0104603D02*
X0277500Y0099403D01*
X0267500Y0099403D02*
X0267500Y0104603D01*
X0257500Y0104603D02*
X0257500Y0099403D01*
X0247500Y0099403D02*
X0247500Y0104603D01*
X0237500Y0104603D02*
X0237500Y0099403D01*
X0227500Y0099403D02*
X0227500Y0104603D01*
X0217500Y0104603D02*
X0217500Y0099403D01*
X0207500Y0099403D02*
X0207500Y0104603D01*
X0197500Y0104603D02*
X0197500Y0099403D01*
X0244900Y0052003D02*
X0250100Y0052003D01*
X0250100Y0042003D02*
X0244900Y0042003D01*
X0244900Y0032003D02*
X0250100Y0032003D01*
X0250100Y0022003D02*
X0244900Y0022003D01*
X0274900Y0022003D02*
X0280100Y0022003D01*
X0280100Y0032003D02*
X0274900Y0032003D01*
X0274900Y0042003D02*
X0280100Y0042003D01*
X0280100Y0052003D02*
X0274900Y0052003D01*
D13*
X0257500Y0122303D02*
X0257500Y0126703D01*
X0237500Y0126703D02*
X0237500Y0122303D01*
D14*
X0237500Y0142003D03*
X0257500Y0142003D03*
X0277500Y0142003D03*
X0300000Y0142003D03*
X0300000Y0122003D03*
X0277500Y0162003D03*
X0257500Y0162003D03*
X0237500Y0162003D03*
X0082500Y0032003D03*
X0067500Y0019503D03*
X0062500Y0012003D03*
X0057500Y0019503D03*
X0082500Y0012003D03*
D15*
X0047126Y0105999D03*
X0058937Y0124503D03*
X0035315Y0124503D03*
D16*
X0152500Y0042003D03*
D17*
X0202500Y0042003D03*
X0102500Y0042003D03*
D18*
X0222500Y0047003D03*
X0232500Y0047003D03*
D19*
X0297500Y0052003D03*
X0317500Y0052003D03*
X0352500Y0079503D03*
X0352500Y0089503D03*
X0352500Y0099503D03*
X0352500Y0109503D03*
X0352500Y0119503D03*
X0317500Y0122003D03*
X0317500Y0162003D03*
X0172500Y0142003D03*
X0155000Y0142003D03*
X0137500Y0142003D03*
X0120000Y0142003D03*
X0102500Y0142003D03*
X0085000Y0142003D03*
X0085000Y0102003D03*
X0102500Y0102003D03*
X0120000Y0102003D03*
X0137500Y0102003D03*
X0155000Y0102003D03*
X0172500Y0102003D03*
X0297500Y0012003D03*
X0317500Y0012003D03*
D20*
X0307343Y0177397D03*
X0287657Y0177397D03*
X0252343Y0177397D03*
X0232657Y0177397D03*
X0197343Y0177397D03*
X0177657Y0177397D03*
X0142343Y0177397D03*
X0122657Y0177397D03*
D21*
X0122657Y0226609D03*
X0142343Y0226609D03*
X0177657Y0226609D03*
X0197343Y0226609D03*
X0232657Y0226609D03*
X0252343Y0226609D03*
X0287657Y0226609D03*
X0307343Y0226609D03*
D22*
X0352500Y0194503D03*
X0032500Y0164503D03*
D23*
X0032500Y0184188D03*
X0352500Y0174818D03*
X0352500Y0155133D03*
D24*
X0352500Y0129503D03*
D25*
X0027165Y0041137D03*
D26*
X0027165Y0085625D03*
D27*
X0026772Y0080704D03*
X0026772Y0076570D03*
X0026772Y0067908D03*
X0026772Y0059247D03*
X0026772Y0054916D03*
X0026772Y0050586D03*
D28*
X0026772Y0063578D03*
X0026772Y0072239D03*
D29*
X0057087Y0086806D03*
D30*
X0062992Y0085625D03*
D31*
X0059646Y0039956D03*
D32*
X0069291Y0041334D03*
M02*
