  0
SECTION
  2
BLOCKS
  0
ENDSEC
  0
SECTION
  2
ENTITIES
  0
LINE
  8
0
 10
241
 20
151
 11
0
 21
151
  0
LINE
  8
0
 10
0
 20
151
 11
0
 21
0
  0
LINE
  8
0
 10
0
 20
0
 11
241
 21
0
  0
LINE
  8
0
 10
241
 20
0
 11
241
 21
151
  0
LINE
  8
0
 10
230.191
 20
140.412
 11
230.191
 21
141.588
  0
LINE
  8
0
 10
230.191
 20
141.588
 11
231.309
 21
141.951
  0
LINE
  8
0
 10
231.309
 20
141.951
 11
232
 21
141
  0
LINE
  8
0
 10
232
 20
141
 11
231.309
 21
140.049
  0
LINE
  8
0
 10
231.309
 20
140.049
 11
230.191
 21
140.412
  0
LINE
  8
0
 10
9.19098
 20
140.412
 11
9.19098
 21
141.588
  0
LINE
  8
0
 10
9.19098
 20
141.588
 11
10.309
 21
141.951
  0
LINE
  8
0
 10
10.309
 20
141.951
 11
11
 21
141
  0
LINE
  8
0
 10
11
 20
141
 11
10.309
 21
140.049
  0
LINE
  8
0
 10
10.309
 20
140.049
 11
9.19098
 21
140.412
  0
LINE
  8
0
 10
99.5
 20
98
 11
99.5
 21
111
  0
LINE
  8
0
 10
99.5
 20
111
 11
154.5
 21
111
  0
LINE
  8
0
 10
154.5
 20
111
 11
154.5
 21
98
  0
LINE
  8
0
 10
154.5
 20
98
 11
99.5
 21
98
  0
LINE
  8
0
 10
78.6981
 20
108.132
 11
78.6981
 21
109.868
  0
LINE
  8
0
 10
78.6981
 20
109.868
 11
80.0549
 21
110.95
  0
LINE
  8
0
 10
80.0549
 20
110.95
 11
81.747
 21
110.564
  0
LINE
  8
0
 10
81.747
 20
110.564
 11
82.5
 21
109
  0
LINE
  8
0
 10
82.5
 20
109
 11
81.747
 21
107.436
  0
LINE
  8
0
 10
81.747
 20
107.436
 11
80.0549
 21
107.05
  0
LINE
  8
0
 10
80.0549
 20
107.05
 11
78.6981
 21
108.132
  0
LINE
  8
0
 10
158.698
 20
108.132
 11
158.698
 21
109.868
  0
LINE
  8
0
 10
158.698
 20
109.868
 11
160.055
 21
110.95
  0
LINE
  8
0
 10
160.055
 20
110.95
 11
161.747
 21
110.564
  0
LINE
  8
0
 10
161.747
 20
110.564
 11
162.5
 21
109
  0
LINE
  8
0
 10
162.5
 20
109
 11
161.747
 21
107.436
  0
LINE
  8
0
 10
161.747
 20
107.436
 11
160.055
 21
107.05
  0
LINE
  8
0
 10
160.055
 20
107.05
 11
158.698
 21
108.132
  0
LINE
  8
0
 10
78.6981
 20
57.1322
 11
78.6981
 21
58.8678
  0
LINE
  8
0
 10
78.6981
 20
58.8678
 11
80.0549
 21
59.9498
  0
LINE
  8
0
 10
80.0549
 20
59.9498
 11
81.747
 21
59.5637
  0
LINE
  8
0
 10
81.747
 20
59.5637
 11
82.5
 21
58
  0
LINE
  8
0
 10
82.5
 20
58
 11
81.747
 21
56.4363
  0
LINE
  8
0
 10
81.747
 20
56.4363
 11
80.0549
 21
56.0501
  0
LINE
  8
0
 10
80.0549
 20
56.0501
 11
78.6981
 21
57.1322
  0
LINE
  8
0
 10
158.698
 20
57.1322
 11
158.698
 21
58.8678
  0
LINE
  8
0
 10
158.698
 20
58.8678
 11
160.055
 21
59.9498
  0
LINE
  8
0
 10
160.055
 20
59.9498
 11
161.747
 21
59.5637
  0
LINE
  8
0
 10
161.747
 20
59.5637
 11
162.5
 21
58
  0
LINE
  8
0
 10
162.5
 20
58
 11
161.747
 21
56.4363
  0
LINE
  8
0
 10
161.747
 20
56.4363
 11
160.055
 21
56.0501
  0
LINE
  8
0
 10
160.055
 20
56.0501
 11
158.698
 21
57.1322
  0
LINE
  8
0
 10
34.0686
 20
14.0559
 11
32.3263
 21
14.9436
  0
LINE
  8
0
 10
32.3263
 20
14.9436
 11
30.9436
 21
16.3263
  0
LINE
  8
0
 10
30.9436
 20
16.3263
 11
30.0559
 21
18.0686
  0
LINE
  8
0
 10
30.0559
 20
18.0686
 11
29.75
 21
20
  0
LINE
  8
0
 10
29.75
 20
20
 11
30.0559
 21
21.9314
  0
LINE
  8
0
 10
30.0559
 20
21.9314
 11
30.9436
 21
23.6736
  0
LINE
  8
0
 10
30.9436
 20
23.6736
 11
32.3263
 21
25.0564
  0
LINE
  8
0
 10
32.3263
 20
25.0564
 11
34.0686
 21
25.9441
  0
LINE
  8
0
 10
34.0686
 20
25.9441
 11
36
 21
26.25
  0
LINE
  8
0
 10
36
 20
26.25
 11
37.9314
 21
25.9441
  0
LINE
  8
0
 10
37.9314
 20
25.9441
 11
39.6736
 21
25.0564
  0
LINE
  8
0
 10
39.6736
 20
25.0564
 11
41.0564
 21
23.6736
  0
LINE
  8
0
 10
41.0564
 20
23.6736
 11
41.9441
 21
21.9314
  0
LINE
  8
0
 10
41.9441
 20
21.9314
 11
42.25
 21
20
  0
LINE
  8
0
 10
42.25
 20
20
 11
41.9441
 21
18.0686
  0
LINE
  8
0
 10
41.9441
 20
18.0686
 11
41.0564
 21
16.3263
  0
LINE
  8
0
 10
41.0564
 20
16.3263
 11
39.6736
 21
14.9436
  0
LINE
  8
0
 10
39.6736
 20
14.9436
 11
37.9314
 21
14.0559
  0
LINE
  8
0
 10
37.9314
 20
14.0559
 11
36
 21
13.75
  0
LINE
  8
0
 10
36
 20
13.75
 11
34.0686
 21
14.0559
  0
LINE
  8
0
 10
9.19098
 20
9.4122
 11
9.19098
 21
10.5878
  0
LINE
  8
0
 10
9.19098
 20
10.5878
 11
10.309
 21
10.951
  0
LINE
  8
0
 10
10.309
 20
10.951
 11
11
 21
10
  0
LINE
  8
0
 10
11
 20
10
 11
10.309
 21
9.04893
  0
LINE
  8
0
 10
10.309
 20
9.04893
 11
9.19098
 21
9.4122
  0
LINE
  8
0
 10
230.191
 20
9.4122
 11
230.191
 21
10.5878
  0
LINE
  8
0
 10
230.191
 20
10.5878
 11
231.309
 21
10.951
  0
LINE
  8
0
 10
231.309
 20
10.951
 11
232
 21
10
  0
LINE
  8
0
 10
232
 20
10
 11
231.309
 21
9.04893
  0
LINE
  8
0
 10
231.309
 20
9.04893
 11
230.191
 21
9.4122
  0
ENDSEC
  0
SECTION
  2
OBJECTS
  0
DICTIONARY
  0
ENDSEC
  0
EOF
