  0
SECTION
  2
BLOCKS
  0
ENDSEC
  0
SECTION
  2
ENTITIES
  0
LINE
  8
0
 10
260
 20
125
 11
250
 21
125
  0
LINE
  8
0
 10
250
 20
125
 11
250
 21
145
  0
LINE
  8
0
 10
250
 20
145
 11
260
 21
145
  0
LINE
  8
0
 10
260
 20
145
 11
260
 21
165
  0
LINE
  8
0
 10
260
 20
165
 11
250
 21
165
  0
LINE
  8
0
 10
250
 20
165
 11
250
 21
185
  0
LINE
  8
0
 10
250
 20
185
 11
260
 21
185
  0
LINE
  8
0
 10
260
 20
185
 11
260
 21
205
  0
LINE
  8
0
 10
260
 20
205
 11
0
 21
205
  0
LINE
  8
0
 10
0
 20
205
 11
0
 21
185
  0
LINE
  8
0
 10
0
 20
185
 11
10
 21
185
  0
LINE
  8
0
 10
10
 20
185
 11
10
 21
165
  0
LINE
  8
0
 10
10
 20
165
 11
0
 21
165
  0
LINE
  8
0
 10
0
 20
165
 11
0
 21
145
  0
LINE
  8
0
 10
0
 20
145
 11
10
 21
145
  0
LINE
  8
0
 10
10
 20
145
 11
10
 21
125
  0
LINE
  8
0
 10
10
 20
125
 11
0
 21
125
  0
LINE
  8
0
 10
0
 20
125
 11
0
 21
105
  0
LINE
  8
0
 10
0
 20
105
 11
260
 21
105
  0
LINE
  8
0
 10
260
 20
105
 11
260
 21
125
  0
LINE
  8
0
 10
425
 20
125
 11
435
 21
125
  0
LINE
  8
0
 10
435
 20
125
 11
435
 21
145
  0
LINE
  8
0
 10
435
 20
145
 11
425
 21
145
  0
LINE
  8
0
 10
425
 20
145
 11
425
 21
165
  0
LINE
  8
0
 10
425
 20
165
 11
435
 21
165
  0
LINE
  8
0
 10
435
 20
165
 11
435
 21
185
  0
LINE
  8
0
 10
435
 20
185
 11
425
 21
185
  0
LINE
  8
0
 10
425
 20
185
 11
425
 21
205
  0
LINE
  8
0
 10
425
 20
205
 11
275
 21
205
  0
LINE
  8
0
 10
275
 20
205
 11
275
 21
185
  0
LINE
  8
0
 10
275
 20
185
 11
265
 21
185
  0
LINE
  8
0
 10
265
 20
185
 11
265
 21
165
  0
LINE
  8
0
 10
265
 20
165
 11
275
 21
165
  0
LINE
  8
0
 10
275
 20
165
 11
275
 21
145
  0
LINE
  8
0
 10
275
 20
145
 11
265
 21
145
  0
LINE
  8
0
 10
265
 20
145
 11
265
 21
125
  0
LINE
  8
0
 10
265
 20
125
 11
275
 21
125
  0
LINE
  8
0
 10
275
 20
125
 11
275
 21
105
  0
LINE
  8
0
 10
275
 20
105
 11
425
 21
105
  0
LINE
  8
0
 10
425
 20
105
 11
425
 21
125
  0
LINE
  8
0
 10
260
 20
20
 11
250
 21
20
  0
LINE
  8
0
 10
250
 20
20
 11
250
 21
40
  0
LINE
  8
0
 10
250
 20
40
 11
260
 21
40
  0
LINE
  8
0
 10
260
 20
40
 11
260
 21
60
  0
LINE
  8
0
 10
260
 20
60
 11
250
 21
60
  0
LINE
  8
0
 10
250
 20
60
 11
250
 21
80
  0
LINE
  8
0
 10
250
 20
80
 11
260
 21
80
  0
LINE
  8
0
 10
260
 20
80
 11
260
 21
100
  0
LINE
  8
0
 10
260
 20
100
 11
0
 21
100
  0
LINE
  8
0
 10
0
 20
100
 11
0
 21
80
  0
LINE
  8
0
 10
0
 20
80
 11
10
 21
80
  0
LINE
  8
0
 10
10
 20
80
 11
10
 21
60
  0
LINE
  8
0
 10
10
 20
60
 11
0
 21
60
  0
LINE
  8
0
 10
0
 20
60
 11
0
 21
40
  0
LINE
  8
0
 10
0
 20
40
 11
10
 21
40
  0
LINE
  8
0
 10
10
 20
40
 11
10
 21
20
  0
LINE
  8
0
 10
10
 20
20
 11
0
 21
20
  0
LINE
  8
0
 10
0
 20
20
 11
0
 21
0
  0
LINE
  8
0
 10
0
 20
0
 11
260
 21
0
  0
LINE
  8
0
 10
260
 20
0
 11
260
 21
20
  0
LINE
  8
0
 10
425
 20
20
 11
435
 21
20
  0
LINE
  8
0
 10
435
 20
20
 11
435
 21
40
  0
LINE
  8
0
 10
435
 20
40
 11
425
 21
40
  0
LINE
  8
0
 10
425
 20
40
 11
425
 21
60
  0
LINE
  8
0
 10
425
 20
60
 11
435
 21
60
  0
LINE
  8
0
 10
435
 20
60
 11
435
 21
80
  0
LINE
  8
0
 10
435
 20
80
 11
425
 21
80
  0
LINE
  8
0
 10
425
 20
80
 11
425
 21
100
  0
LINE
  8
0
 10
425
 20
100
 11
275
 21
100
  0
LINE
  8
0
 10
275
 20
100
 11
275
 21
80
  0
LINE
  8
0
 10
275
 20
80
 11
265
 21
80
  0
LINE
  8
0
 10
265
 20
80
 11
265
 21
60
  0
LINE
  8
0
 10
265
 20
60
 11
275
 21
60
  0
LINE
  8
0
 10
275
 20
60
 11
275
 21
40
  0
LINE
  8
0
 10
275
 20
40
 11
265
 21
40
  0
LINE
  8
0
 10
265
 20
40
 11
265
 21
20
  0
LINE
  8
0
 10
265
 20
20
 11
275
 21
20
  0
LINE
  8
0
 10
275
 20
20
 11
275
 21
0
  0
LINE
  8
0
 10
275
 20
0
 11
425
 21
0
  0
LINE
  8
0
 10
425
 20
0
 11
425
 21
20
  0
ENDSEC
  0
SECTION
  2
OBJECTS
  0
DICTIONARY
  0
ENDSEC
  0
EOF
