  0
SECTION
  2
BLOCKS
  0
ENDSEC
  0
SECTION
  2
ENTITIES
  0
LINE
  8
0
 10
17.5556
 20
4
 11
35.1111
 21
4
  0
LINE
  8
0
 10
35.1111
 20
4
 11
35.1111
 21
0
  0
LINE
  8
0
 10
35.1111
 20
0
 11
52.6667
 21
0
  0
LINE
  8
0
 10
52.6667
 20
0
 11
52.6667
 21
4
  0
LINE
  8
0
 10
52.6667
 20
4
 11
70.2222
 21
4
  0
LINE
  8
0
 10
70.2222
 20
4
 11
70.2222
 21
0
  0
LINE
  8
0
 10
70.2222
 20
0
 11
87.7778
 21
0
  0
LINE
  8
0
 10
87.7778
 20
0
 11
87.7778
 21
4
  0
LINE
  8
0
 10
87.7778
 20
4
 11
105.333
 21
4
  0
LINE
  8
0
 10
105.333
 20
4
 11
105.333
 21
0
  0
LINE
  8
0
 10
105.333
 20
0
 11
122.889
 21
0
  0
LINE
  8
0
 10
122.889
 20
0
 11
122.889
 21
4
  0
LINE
  8
0
 10
122.889
 20
4
 11
140.444
 21
4
  0
LINE
  8
0
 10
140.444
 20
4
 11
140.444
 21
0
  0
LINE
  8
0
 10
140.444
 20
0
 11
158
 21
0
  0
LINE
  8
0
 10
158
 20
0
 11
158
 21
248
  0
LINE
  8
0
 10
158
 20
248
 11
140.444
 21
248
  0
LINE
  8
0
 10
140.444
 20
248
 11
140.444
 21
244
  0
LINE
  8
0
 10
140.444
 20
244
 11
122.889
 21
244
  0
LINE
  8
0
 10
122.889
 20
244
 11
122.889
 21
248
  0
LINE
  8
0
 10
122.889
 20
248
 11
105.333
 21
248
  0
LINE
  8
0
 10
105.333
 20
248
 11
105.333
 21
244
  0
LINE
  8
0
 10
105.333
 20
244
 11
87.7778
 21
244
  0
LINE
  8
0
 10
87.7778
 20
244
 11
87.7778
 21
248
  0
LINE
  8
0
 10
87.7778
 20
248
 11
70.2222
 21
248
  0
LINE
  8
0
 10
70.2222
 20
248
 11
70.2222
 21
244
  0
LINE
  8
0
 10
70.2222
 20
244
 11
52.6667
 21
244
  0
LINE
  8
0
 10
52.6667
 20
244
 11
52.6667
 21
248
  0
LINE
  8
0
 10
52.6667
 20
248
 11
35.1111
 21
248
  0
LINE
  8
0
 10
35.1111
 20
248
 11
35.1111
 21
244
  0
LINE
  8
0
 10
35.1111
 20
244
 11
17.5556
 21
244
  0
LINE
  8
0
 10
17.5556
 20
244
 11
17.5556
 21
248
  0
LINE
  8
0
 10
17.5556
 20
248
 11
0
 21
248
  0
LINE
  8
0
 10
0
 20
248
 11
0
 21
0
  0
LINE
  8
0
 10
0
 20
0
 11
17.5556
 21
0
  0
LINE
  8
0
 10
17.5556
 20
0
 11
17.5556
 21
4
  0
LINE
  8
0
 10
181.556
 20
4
 11
199.111
 21
4
  0
LINE
  8
0
 10
199.111
 20
4
 11
199.111
 21
0
  0
LINE
  8
0
 10
199.111
 20
0
 11
216.667
 21
0
  0
LINE
  8
0
 10
216.667
 20
0
 11
216.667
 21
4
  0
LINE
  8
0
 10
216.667
 20
4
 11
234.222
 21
4
  0
LINE
  8
0
 10
234.222
 20
4
 11
234.222
 21
0
  0
LINE
  8
0
 10
234.222
 20
0
 11
251.778
 21
0
  0
LINE
  8
0
 10
251.778
 20
0
 11
251.778
 21
4
  0
LINE
  8
0
 10
251.778
 20
4
 11
269.333
 21
4
  0
LINE
  8
0
 10
269.333
 20
4
 11
269.333
 21
0
  0
LINE
  8
0
 10
269.333
 20
0
 11
286.889
 21
0
  0
LINE
  8
0
 10
286.889
 20
0
 11
286.889
 21
4
  0
LINE
  8
0
 10
286.889
 20
4
 11
304.444
 21
4
  0
LINE
  8
0
 10
304.444
 20
4
 11
304.444
 21
0
  0
LINE
  8
0
 10
304.444
 20
0
 11
322
 21
0
  0
LINE
  8
0
 10
322
 20
0
 11
322
 21
248
  0
LINE
  8
0
 10
322
 20
248
 11
304.444
 21
248
  0
LINE
  8
0
 10
304.444
 20
248
 11
304.444
 21
244
  0
LINE
  8
0
 10
304.444
 20
244
 11
286.889
 21
244
  0
LINE
  8
0
 10
286.889
 20
244
 11
286.889
 21
248
  0
LINE
  8
0
 10
286.889
 20
248
 11
269.333
 21
248
  0
LINE
  8
0
 10
269.333
 20
248
 11
269.333
 21
244
  0
LINE
  8
0
 10
269.333
 20
244
 11
251.778
 21
244
  0
LINE
  8
0
 10
251.778
 20
244
 11
251.778
 21
248
  0
LINE
  8
0
 10
251.778
 20
248
 11
234.222
 21
248
  0
LINE
  8
0
 10
234.222
 20
248
 11
234.222
 21
244
  0
LINE
  8
0
 10
234.222
 20
244
 11
216.667
 21
244
  0
LINE
  8
0
 10
216.667
 20
244
 11
216.667
 21
248
  0
LINE
  8
0
 10
216.667
 20
248
 11
199.111
 21
248
  0
LINE
  8
0
 10
199.111
 20
248
 11
199.111
 21
244
  0
LINE
  8
0
 10
199.111
 20
244
 11
181.556
 21
244
  0
LINE
  8
0
 10
181.556
 20
244
 11
181.556
 21
248
  0
LINE
  8
0
 10
181.556
 20
248
 11
164
 21
248
  0
LINE
  8
0
 10
164
 20
248
 11
164
 21
0
  0
LINE
  8
0
 10
164
 20
0
 11
181.556
 21
0
  0
LINE
  8
0
 10
181.556
 20
0
 11
181.556
 21
4
  0
LINE
  8
0
 10
527.111
 20
4
 11
544.667
 21
4
  0
LINE
  8
0
 10
544.667
 20
4
 11
544.667
 21
0
  0
LINE
  8
0
 10
544.667
 20
0
 11
562.222
 21
0
  0
LINE
  8
0
 10
562.222
 20
0
 11
562.222
 21
4
  0
LINE
  8
0
 10
562.222
 20
4
 11
579.778
 21
4
  0
LINE
  8
0
 10
579.778
 20
4
 11
579.778
 21
0
  0
LINE
  8
0
 10
579.778
 20
0
 11
597.333
 21
0
  0
LINE
  8
0
 10
597.333
 20
0
 11
597.333
 21
4
  0
LINE
  8
0
 10
597.333
 20
4
 11
614.889
 21
4
  0
LINE
  8
0
 10
614.889
 20
4
 11
614.889
 21
0
  0
LINE
  8
0
 10
614.889
 20
0
 11
632.444
 21
0
  0
LINE
  8
0
 10
632.444
 20
0
 11
632.444
 21
4
  0
LINE
  8
0
 10
632.444
 20
4
 11
650
 21
4
  0
LINE
  8
0
 10
650
 20
4
 11
650
 21
154
  0
LINE
  8
0
 10
650
 20
154
 11
632.444
 21
154
  0
LINE
  8
0
 10
632.444
 20
154
 11
632.444
 21
158
  0
LINE
  8
0
 10
632.444
 20
158
 11
614.889
 21
158
  0
LINE
  8
0
 10
614.889
 20
158
 11
614.889
 21
154
  0
LINE
  8
0
 10
614.889
 20
154
 11
597.333
 21
154
  0
LINE
  8
0
 10
597.333
 20
154
 11
597.333
 21
158
  0
LINE
  8
0
 10
597.333
 20
158
 11
579.778
 21
158
  0
LINE
  8
0
 10
579.778
 20
158
 11
579.778
 21
154
  0
LINE
  8
0
 10
579.778
 20
154
 11
562.222
 21
154
  0
LINE
  8
0
 10
562.222
 20
154
 11
562.222
 21
158
  0
LINE
  8
0
 10
562.222
 20
158
 11
544.667
 21
158
  0
LINE
  8
0
 10
544.667
 20
158
 11
544.667
 21
154
  0
LINE
  8
0
 10
544.667
 20
154
 11
527.111
 21
154
  0
LINE
  8
0
 10
527.111
 20
154
 11
527.111
 21
158
  0
LINE
  8
0
 10
527.111
 20
158
 11
509.556
 21
158
  0
LINE
  8
0
 10
509.556
 20
158
 11
509.556
 21
154
  0
LINE
  8
0
 10
509.556
 20
154
 11
492
 21
154
  0
LINE
  8
0
 10
492
 20
154
 11
492
 21
4
  0
LINE
  8
0
 10
492
 20
4
 11
509.556
 21
4
  0
LINE
  8
0
 10
509.556
 20
4
 11
509.556
 21
0
  0
LINE
  8
0
 10
509.556
 20
0
 11
527.111
 21
0
  0
LINE
  8
0
 10
527.111
 20
0
 11
527.111
 21
4
  0
LINE
  8
0
 10
363.111
 20
4
 11
380.667
 21
4
  0
LINE
  8
0
 10
380.667
 20
4
 11
380.667
 21
0
  0
LINE
  8
0
 10
380.667
 20
0
 11
398.222
 21
0
  0
LINE
  8
0
 10
398.222
 20
0
 11
398.222
 21
4
  0
LINE
  8
0
 10
398.222
 20
4
 11
415.778
 21
4
  0
LINE
  8
0
 10
415.778
 20
4
 11
415.778
 21
0
  0
LINE
  8
0
 10
415.778
 20
0
 11
433.333
 21
0
  0
LINE
  8
0
 10
433.333
 20
0
 11
433.333
 21
4
  0
LINE
  8
0
 10
433.333
 20
4
 11
450.889
 21
4
  0
LINE
  8
0
 10
450.889
 20
4
 11
450.889
 21
0
  0
LINE
  8
0
 10
450.889
 20
0
 11
468.444
 21
0
  0
LINE
  8
0
 10
468.444
 20
0
 11
468.444
 21
4
  0
LINE
  8
0
 10
468.444
 20
4
 11
486
 21
4
  0
LINE
  8
0
 10
486
 20
4
 11
486
 21
154
  0
LINE
  8
0
 10
486
 20
154
 11
468.444
 21
154
  0
LINE
  8
0
 10
468.444
 20
154
 11
468.444
 21
158
  0
LINE
  8
0
 10
468.444
 20
158
 11
450.889
 21
158
  0
LINE
  8
0
 10
450.889
 20
158
 11
450.889
 21
154
  0
LINE
  8
0
 10
450.889
 20
154
 11
433.333
 21
154
  0
LINE
  8
0
 10
433.333
 20
154
 11
433.333
 21
158
  0
LINE
  8
0
 10
433.333
 20
158
 11
415.778
 21
158
  0
LINE
  8
0
 10
415.778
 20
158
 11
415.778
 21
154
  0
LINE
  8
0
 10
415.778
 20
154
 11
398.222
 21
154
  0
LINE
  8
0
 10
398.222
 20
154
 11
398.222
 21
158
  0
LINE
  8
0
 10
398.222
 20
158
 11
380.667
 21
158
  0
LINE
  8
0
 10
380.667
 20
158
 11
380.667
 21
154
  0
LINE
  8
0
 10
380.667
 20
154
 11
363.111
 21
154
  0
LINE
  8
0
 10
363.111
 20
154
 11
363.111
 21
158
  0
LINE
  8
0
 10
363.111
 20
158
 11
345.556
 21
158
  0
LINE
  8
0
 10
345.556
 20
158
 11
345.556
 21
154
  0
LINE
  8
0
 10
345.556
 20
154
 11
328
 21
154
  0
LINE
  8
0
 10
328
 20
154
 11
328
 21
4
  0
LINE
  8
0
 10
328
 20
4
 11
345.556
 21
4
  0
LINE
  8
0
 10
345.556
 20
4
 11
345.556
 21
0
  0
LINE
  8
0
 10
345.556
 20
0
 11
363.111
 21
0
  0
LINE
  8
0
 10
363.111
 20
0
 11
363.111
 21
4
  0
ENDSEC
  0
SECTION
  2
OBJECTS
  0
DICTIONARY
  0
ENDSEC
  0
EOF
