  0
SECTION
  2
BLOCKS
  0
ENDSEC
  0
SECTION
  2
ENTITIES
  0
LINE
  8
0
 10
188
 20
340
 11
196
 21
340
  0
LINE
  8
0
 10
196
 20
340
 11
196
 21
350
  0
LINE
  8
0
 10
196
 20
350
 11
200
 21
350
  0
LINE
  8
0
 10
200
 20
350
 11
200
 21
360
  0
LINE
  8
0
 10
200
 20
360
 11
196
 21
360
  0
LINE
  8
0
 10
196
 20
360
 11
196
 21
380
  0
LINE
  8
0
 10
196
 20
380
 11
200
 21
380
  0
LINE
  8
0
 10
200
 20
380
 11
200
 21
390
  0
LINE
  8
0
 10
200
 20
390
 11
196
 21
390
  0
LINE
  8
0
 10
196
 20
390
 11
196
 21
400
  0
LINE
  8
0
 10
196
 20
400
 11
170
 21
400
  0
LINE
  8
0
 10
170
 20
400
 11
170
 21
390
  0
LINE
  8
0
 10
170
 20
390
 11
166
 21
390
  0
LINE
  8
0
 10
166
 20
390
 11
166
 21
380
  0
LINE
  8
0
 10
166
 20
380
 11
170
 21
380
  0
LINE
  8
0
 10
170
 20
380
 11
170
 21
360
  0
LINE
  8
0
 10
170
 20
360
 11
166
 21
360
  0
LINE
  8
0
 10
166
 20
360
 11
166
 21
350
  0
LINE
  8
0
 10
166
 20
350
 11
170
 21
350
  0
LINE
  8
0
 10
170
 20
350
 11
170
 21
340
  0
LINE
  8
0
 10
170
 20
340
 11
178
 21
340
  0
LINE
  8
0
 10
178
 20
340
 11
178
 21
336
  0
LINE
  8
0
 10
178
 20
336
 11
188
 21
336
  0
LINE
  8
0
 10
188
 20
336
 11
188
 21
340
  0
LINE
  8
0
 10
120
 20
340
 11
140
 21
340
  0
LINE
  8
0
 10
140
 20
340
 11
140
 21
336
  0
LINE
  8
0
 10
140
 20
336
 11
150
 21
336
  0
LINE
  8
0
 10
150
 20
336
 11
150
 21
340
  0
LINE
  8
0
 10
150
 20
340
 11
158
 21
340
  0
LINE
  8
0
 10
158
 20
340
 11
158
 21
350
  0
LINE
  8
0
 10
158
 20
350
 11
162
 21
350
  0
LINE
  8
0
 10
162
 20
350
 11
162
 21
360
  0
LINE
  8
0
 10
162
 20
360
 11
158
 21
360
  0
LINE
  8
0
 10
158
 20
360
 11
158
 21
380
  0
LINE
  8
0
 10
158
 20
380
 11
162
 21
380
  0
LINE
  8
0
 10
162
 20
380
 11
162
 21
390
  0
LINE
  8
0
 10
162
 20
390
 11
158
 21
390
  0
LINE
  8
0
 10
158
 20
390
 11
158
 21
400
  0
LINE
  8
0
 10
158
 20
400
 11
100
 21
400
  0
LINE
  8
0
 10
100
 20
400
 11
100
 21
340
  0
LINE
  8
0
 10
100
 20
340
 11
110
 21
340
  0
LINE
  8
0
 10
110
 20
340
 11
110
 21
336
  0
LINE
  8
0
 10
110
 20
336
 11
120
 21
336
  0
LINE
  8
0
 10
120
 20
336
 11
120
 21
340
  0
LINE
  8
0
 10
128
 20
380
 11
128
 21
390
  0
LINE
  8
0
 10
128
 20
390
 11
132
 21
390
  0
LINE
  8
0
 10
132
 20
390
 11
132
 21
380
  0
LINE
  8
0
 10
132
 20
380
 11
128
 21
380
  0
LINE
  8
0
 10
128
 20
350
 11
128
 21
360
  0
LINE
  8
0
 10
128
 20
360
 11
132
 21
360
  0
LINE
  8
0
 10
132
 20
360
 11
132
 21
350
  0
LINE
  8
0
 10
132
 20
350
 11
128
 21
350
  0
LINE
  8
0
 10
20
 20
340
 11
40
 21
340
  0
LINE
  8
0
 10
40
 20
340
 11
40
 21
336
  0
LINE
  8
0
 10
40
 20
336
 11
50
 21
336
  0
LINE
  8
0
 10
50
 20
336
 11
50
 21
340
  0
LINE
  8
0
 10
50
 20
340
 11
70
 21
340
  0
LINE
  8
0
 10
70
 20
340
 11
70
 21
336
  0
LINE
  8
0
 10
70
 20
336
 11
80
 21
336
  0
LINE
  8
0
 10
80
 20
336
 11
80
 21
340
  0
LINE
  8
0
 10
80
 20
340
 11
88
 21
340
  0
LINE
  8
0
 10
88
 20
340
 11
88
 21
350
  0
LINE
  8
0
 10
88
 20
350
 11
92
 21
350
  0
LINE
  8
0
 10
92
 20
350
 11
92
 21
360
  0
LINE
  8
0
 10
92
 20
360
 11
88
 21
360
  0
LINE
  8
0
 10
88
 20
360
 11
88
 21
380
  0
LINE
  8
0
 10
88
 20
380
 11
92
 21
380
  0
LINE
  8
0
 10
92
 20
380
 11
92
 21
390
  0
LINE
  8
0
 10
92
 20
390
 11
88
 21
390
  0
LINE
  8
0
 10
88
 20
390
 11
88
 21
400
  0
LINE
  8
0
 10
88
 20
400
 11
0
 21
400
  0
LINE
  8
0
 10
0
 20
400
 11
0
 21
340
  0
LINE
  8
0
 10
0
 20
340
 11
10
 21
340
  0
LINE
  8
0
 10
10
 20
340
 11
10
 21
336
  0
LINE
  8
0
 10
10
 20
336
 11
20
 21
336
  0
LINE
  8
0
 10
20
 20
336
 11
20
 21
340
  0
LINE
  8
0
 10
58
 20
380
 11
58
 21
390
  0
LINE
  8
0
 10
58
 20
390
 11
62
 21
390
  0
LINE
  8
0
 10
62
 20
390
 11
62
 21
380
  0
LINE
  8
0
 10
62
 20
380
 11
58
 21
380
  0
LINE
  8
0
 10
58
 20
350
 11
58
 21
360
  0
LINE
  8
0
 10
58
 20
360
 11
62
 21
360
  0
LINE
  8
0
 10
62
 20
360
 11
62
 21
350
  0
LINE
  8
0
 10
62
 20
350
 11
58
 21
350
  0
LINE
  8
0
 10
240
 20
330
 11
0
 21
330
  0
LINE
  8
0
 10
0
 20
330
 11
0
 21
180
  0
LINE
  8
0
 10
0
 20
180
 11
240
 21
180
  0
LINE
  8
0
 10
240
 20
180
 11
240
 21
330
  0
LINE
  8
0
 10
88
 20
310
 11
88
 21
320
  0
LINE
  8
0
 10
88
 20
320
 11
92
 21
320
  0
LINE
  8
0
 10
92
 20
320
 11
92
 21
310
  0
LINE
  8
0
 10
92
 20
310
 11
88
 21
310
  0
LINE
  8
0
 10
73.0866
 20
310.381
 11
71.4645
 21
311.464
  0
LINE
  8
0
 10
71.4645
 20
311.464
 11
70.3806
 21
313.087
  0
LINE
  8
0
 10
70.3806
 20
313.087
 11
70
 21
315
  0
LINE
  8
0
 10
70
 20
315
 11
70.3806
 21
316.913
  0
LINE
  8
0
 10
70.3806
 20
316.913
 11
71.4645
 21
318.536
  0
LINE
  8
0
 10
71.4645
 20
318.536
 11
73.0866
 21
319.619
  0
LINE
  8
0
 10
73.0866
 20
319.619
 11
75
 21
320
  0
LINE
  8
0
 10
75
 20
320
 11
76.9134
 21
319.619
  0
LINE
  8
0
 10
76.9134
 20
319.619
 11
78.5355
 21
318.536
  0
LINE
  8
0
 10
78.5355
 20
318.536
 11
79.6194
 21
316.913
  0
LINE
  8
0
 10
79.6194
 20
316.913
 11
80
 21
315
  0
LINE
  8
0
 10
80
 20
315
 11
79.6194
 21
313.087
  0
LINE
  8
0
 10
79.6194
 20
313.087
 11
78.5355
 21
311.464
  0
LINE
  8
0
 10
78.5355
 20
311.464
 11
76.9134
 21
310.381
  0
LINE
  8
0
 10
76.9134
 20
310.381
 11
75
 21
310
  0
LINE
  8
0
 10
75
 20
310
 11
73.0866
 21
310.381
  0
LINE
  8
0
 10
58
 20
310
 11
58
 21
320
  0
LINE
  8
0
 10
58
 20
320
 11
62
 21
320
  0
LINE
  8
0
 10
62
 20
320
 11
62
 21
310
  0
LINE
  8
0
 10
62
 20
310
 11
58
 21
310
  0
LINE
  8
0
 10
28.0866
 20
295.381
 11
26.4645
 21
296.464
  0
LINE
  8
0
 10
26.4645
 20
296.464
 11
25.3806
 21
298.087
  0
LINE
  8
0
 10
25.3806
 20
298.087
 11
25
 21
300
  0
LINE
  8
0
 10
25
 20
300
 11
25.3806
 21
301.913
  0
LINE
  8
0
 10
25.3806
 20
301.913
 11
26.4645
 21
303.536
  0
LINE
  8
0
 10
26.4645
 20
303.536
 11
28.0866
 21
304.619
  0
LINE
  8
0
 10
28.0866
 20
304.619
 11
30
 21
305
  0
LINE
  8
0
 10
30
 20
305
 11
31.9134
 21
304.619
  0
LINE
  8
0
 10
31.9134
 20
304.619
 11
33.5355
 21
303.536
  0
LINE
  8
0
 10
33.5355
 20
303.536
 11
34.6194
 21
301.913
  0
LINE
  8
0
 10
34.6194
 20
301.913
 11
35
 21
300
  0
LINE
  8
0
 10
35
 20
300
 11
34.6194
 21
298.087
  0
LINE
  8
0
 10
34.6194
 20
298.087
 11
33.5355
 21
296.464
  0
LINE
  8
0
 10
33.5355
 20
296.464
 11
31.9134
 21
295.381
  0
LINE
  8
0
 10
31.9134
 20
295.381
 11
30
 21
295
  0
LINE
  8
0
 10
30
 20
295
 11
28.0866
 21
295.381
  0
LINE
  8
0
 10
70
 20
298
 11
70
 21
302
  0
LINE
  8
0
 10
70
 20
302
 11
80
 21
302
  0
LINE
  8
0
 10
80
 20
302
 11
80
 21
298
  0
LINE
  8
0
 10
80
 20
298
 11
70
 21
298
  0
LINE
  8
0
 10
200.587
 20
287.881
 11
198.964
 21
288.964
  0
LINE
  8
0
 10
198.964
 20
288.964
 11
197.881
 21
290.587
  0
LINE
  8
0
 10
197.881
 20
290.587
 11
197.5
 21
292.5
  0
LINE
  8
0
 10
197.5
 20
292.5
 11
197.881
 21
294.413
  0
LINE
  8
0
 10
197.881
 20
294.413
 11
198.964
 21
296.036
  0
LINE
  8
0
 10
198.964
 20
296.036
 11
200.587
 21
297.119
  0
LINE
  8
0
 10
200.587
 20
297.119
 11
202.5
 21
297.5
  0
LINE
  8
0
 10
202.5
 20
297.5
 11
204.413
 21
297.119
  0
LINE
  8
0
 10
204.413
 20
297.119
 11
206.036
 21
296.036
  0
LINE
  8
0
 10
206.036
 20
296.036
 11
207.119
 21
294.413
  0
LINE
  8
0
 10
207.119
 20
294.413
 11
207.5
 21
292.5
  0
LINE
  8
0
 10
207.5
 20
292.5
 11
207.119
 21
290.587
  0
LINE
  8
0
 10
207.119
 20
290.587
 11
206.036
 21
288.964
  0
LINE
  8
0
 10
206.036
 20
288.964
 11
204.413
 21
287.881
  0
LINE
  8
0
 10
204.413
 20
287.881
 11
202.5
 21
287.5
  0
LINE
  8
0
 10
202.5
 20
287.5
 11
200.587
 21
287.881
  0
LINE
  8
0
 10
125.587
 20
287.881
 11
123.964
 21
288.964
  0
LINE
  8
0
 10
123.964
 20
288.964
 11
122.881
 21
290.587
  0
LINE
  8
0
 10
122.881
 20
290.587
 11
122.5
 21
292.5
  0
LINE
  8
0
 10
122.5
 20
292.5
 11
122.881
 21
294.413
  0
LINE
  8
0
 10
122.881
 20
294.413
 11
123.964
 21
296.036
  0
LINE
  8
0
 10
123.964
 20
296.036
 11
125.587
 21
297.119
  0
LINE
  8
0
 10
125.587
 20
297.119
 11
127.5
 21
297.5
  0
LINE
  8
0
 10
127.5
 20
297.5
 11
129.413
 21
297.119
  0
LINE
  8
0
 10
129.413
 20
297.119
 11
131.036
 21
296.036
  0
LINE
  8
0
 10
131.036
 20
296.036
 11
132.119
 21
294.413
  0
LINE
  8
0
 10
132.119
 20
294.413
 11
132.5
 21
292.5
  0
LINE
  8
0
 10
132.5
 20
292.5
 11
132.119
 21
290.587
  0
LINE
  8
0
 10
132.119
 20
290.587
 11
131.036
 21
288.964
  0
LINE
  8
0
 10
131.036
 20
288.964
 11
129.413
 21
287.881
  0
LINE
  8
0
 10
129.413
 20
287.881
 11
127.5
 21
287.5
  0
LINE
  8
0
 10
127.5
 20
287.5
 11
125.587
 21
287.881
  0
LINE
  8
0
 10
73.0866
 20
280.381
 11
71.4645
 21
281.464
  0
LINE
  8
0
 10
71.4645
 20
281.464
 11
70.3806
 21
283.087
  0
LINE
  8
0
 10
70.3806
 20
283.087
 11
70
 21
285
  0
LINE
  8
0
 10
70
 20
285
 11
70.3806
 21
286.913
  0
LINE
  8
0
 10
70.3806
 20
286.913
 11
71.4645
 21
288.536
  0
LINE
  8
0
 10
71.4645
 20
288.536
 11
73.0866
 21
289.619
  0
LINE
  8
0
 10
73.0866
 20
289.619
 11
75
 21
290
  0
LINE
  8
0
 10
75
 20
290
 11
76.9134
 21
289.619
  0
LINE
  8
0
 10
76.9134
 20
289.619
 11
78.5355
 21
288.536
  0
LINE
  8
0
 10
78.5355
 20
288.536
 11
79.6194
 21
286.913
  0
LINE
  8
0
 10
79.6194
 20
286.913
 11
80
 21
285
  0
LINE
  8
0
 10
80
 20
285
 11
79.6194
 21
283.087
  0
LINE
  8
0
 10
79.6194
 20
283.087
 11
78.5355
 21
281.464
  0
LINE
  8
0
 10
78.5355
 20
281.464
 11
76.9134
 21
280.381
  0
LINE
  8
0
 10
76.9134
 20
280.381
 11
75
 21
280
  0
LINE
  8
0
 10
75
 20
280
 11
73.0866
 21
280.381
  0
LINE
  8
0
 10
88
 20
280
 11
88
 21
290
  0
LINE
  8
0
 10
88
 20
290
 11
92
 21
290
  0
LINE
  8
0
 10
92
 20
290
 11
92
 21
280
  0
LINE
  8
0
 10
92
 20
280
 11
88
 21
280
  0
LINE
  8
0
 10
58
 20
280
 11
58
 21
290
  0
LINE
  8
0
 10
58
 20
290
 11
62
 21
290
  0
LINE
  8
0
 10
62
 20
290
 11
62
 21
280
  0
LINE
  8
0
 10
62
 20
280
 11
58
 21
280
  0
LINE
  8
0
 10
40
 20
268
 11
40
 21
272
  0
LINE
  8
0
 10
40
 20
272
 11
50
 21
272
  0
LINE
  8
0
 10
50
 20
272
 11
50
 21
268
  0
LINE
  8
0
 10
50
 20
268
 11
40
 21
268
  0
LINE
  8
0
 10
10
 20
268
 11
10
 21
272
  0
LINE
  8
0
 10
10
 20
272
 11
20
 21
272
  0
LINE
  8
0
 10
20
 20
272
 11
20
 21
268
  0
LINE
  8
0
 10
20
 20
268
 11
10
 21
268
  0
LINE
  8
0
 10
70
 20
268
 11
70
 21
272
  0
LINE
  8
0
 10
70
 20
272
 11
80
 21
272
  0
LINE
  8
0
 10
80
 20
272
 11
80
 21
268
  0
LINE
  8
0
 10
80
 20
268
 11
70
 21
268
  0
LINE
  8
0
 10
88
 20
250
 11
88
 21
260
  0
LINE
  8
0
 10
88
 20
260
 11
92
 21
260
  0
LINE
  8
0
 10
92
 20
260
 11
92
 21
250
  0
LINE
  8
0
 10
92
 20
250
 11
88
 21
250
  0
LINE
  8
0
 10
58.0866
 20
235.381
 11
56.4645
 21
236.464
  0
LINE
  8
0
 10
56.4645
 20
236.464
 11
55.3806
 21
238.087
  0
LINE
  8
0
 10
55.3806
 20
238.087
 11
55
 21
240
  0
LINE
  8
0
 10
55
 20
240
 11
55.3806
 21
241.913
  0
LINE
  8
0
 10
55.3806
 20
241.913
 11
56.4645
 21
243.536
  0
LINE
  8
0
 10
56.4645
 20
243.536
 11
58.0866
 21
244.619
  0
LINE
  8
0
 10
58.0866
 20
244.619
 11
60
 21
245
  0
LINE
  8
0
 10
60
 20
245
 11
61.9134
 21
244.619
  0
LINE
  8
0
 10
61.9134
 20
244.619
 11
63.5355
 21
243.536
  0
LINE
  8
0
 10
63.5355
 20
243.536
 11
64.6194
 21
241.913
  0
LINE
  8
0
 10
64.6194
 20
241.913
 11
65
 21
240
  0
LINE
  8
0
 10
65
 20
240
 11
64.6194
 21
238.087
  0
LINE
  8
0
 10
64.6194
 20
238.087
 11
63.5355
 21
236.464
  0
LINE
  8
0
 10
63.5355
 20
236.464
 11
61.9134
 21
235.381
  0
LINE
  8
0
 10
61.9134
 20
235.381
 11
60
 21
235
  0
LINE
  8
0
 10
60
 20
235
 11
58.0866
 21
235.381
  0
LINE
  8
0
 10
88
 20
220
 11
88
 21
230
  0
LINE
  8
0
 10
88
 20
230
 11
92
 21
230
  0
LINE
  8
0
 10
92
 20
230
 11
92
 21
220
  0
LINE
  8
0
 10
92
 20
220
 11
88
 21
220
  0
LINE
  8
0
 10
200.587
 20
212.881
 11
198.964
 21
213.964
  0
LINE
  8
0
 10
198.964
 20
213.964
 11
197.881
 21
215.587
  0
LINE
  8
0
 10
197.881
 20
215.587
 11
197.5
 21
217.5
  0
LINE
  8
0
 10
197.5
 20
217.5
 11
197.881
 21
219.413
  0
LINE
  8
0
 10
197.881
 20
219.413
 11
198.964
 21
221.036
  0
LINE
  8
0
 10
198.964
 20
221.036
 11
200.587
 21
222.119
  0
LINE
  8
0
 10
200.587
 20
222.119
 11
202.5
 21
222.5
  0
LINE
  8
0
 10
202.5
 20
222.5
 11
204.413
 21
222.119
  0
LINE
  8
0
 10
204.413
 20
222.119
 11
206.036
 21
221.036
  0
LINE
  8
0
 10
206.036
 20
221.036
 11
207.119
 21
219.413
  0
LINE
  8
0
 10
207.119
 20
219.413
 11
207.5
 21
217.5
  0
LINE
  8
0
 10
207.5
 20
217.5
 11
207.119
 21
215.587
  0
LINE
  8
0
 10
207.119
 20
215.587
 11
206.036
 21
213.964
  0
LINE
  8
0
 10
206.036
 20
213.964
 11
204.413
 21
212.881
  0
LINE
  8
0
 10
204.413
 20
212.881
 11
202.5
 21
212.5
  0
LINE
  8
0
 10
202.5
 20
212.5
 11
200.587
 21
212.881
  0
LINE
  8
0
 10
125.587
 20
212.881
 11
123.964
 21
213.964
  0
LINE
  8
0
 10
123.964
 20
213.964
 11
122.881
 21
215.587
  0
LINE
  8
0
 10
122.881
 20
215.587
 11
122.5
 21
217.5
  0
LINE
  8
0
 10
122.5
 20
217.5
 11
122.881
 21
219.413
  0
LINE
  8
0
 10
122.881
 20
219.413
 11
123.964
 21
221.036
  0
LINE
  8
0
 10
123.964
 20
221.036
 11
125.587
 21
222.119
  0
LINE
  8
0
 10
125.587
 20
222.119
 11
127.5
 21
222.5
  0
LINE
  8
0
 10
127.5
 20
222.5
 11
129.413
 21
222.119
  0
LINE
  8
0
 10
129.413
 20
222.119
 11
131.036
 21
221.036
  0
LINE
  8
0
 10
131.036
 20
221.036
 11
132.119
 21
219.413
  0
LINE
  8
0
 10
132.119
 20
219.413
 11
132.5
 21
217.5
  0
LINE
  8
0
 10
132.5
 20
217.5
 11
132.119
 21
215.587
  0
LINE
  8
0
 10
132.119
 20
215.587
 11
131.036
 21
213.964
  0
LINE
  8
0
 10
131.036
 20
213.964
 11
129.413
 21
212.881
  0
LINE
  8
0
 10
129.413
 20
212.881
 11
127.5
 21
212.5
  0
LINE
  8
0
 10
127.5
 20
212.5
 11
125.587
 21
212.881
  0
LINE
  8
0
 10
28.0866
 20
205.381
 11
26.4645
 21
206.464
  0
LINE
  8
0
 10
26.4645
 20
206.464
 11
25.3806
 21
208.087
  0
LINE
  8
0
 10
25.3806
 20
208.087
 11
25
 21
210
  0
LINE
  8
0
 10
25
 20
210
 11
25.3806
 21
211.913
  0
LINE
  8
0
 10
25.3806
 20
211.913
 11
26.4645
 21
213.536
  0
LINE
  8
0
 10
26.4645
 20
213.536
 11
28.0866
 21
214.619
  0
LINE
  8
0
 10
28.0866
 20
214.619
 11
30
 21
215
  0
LINE
  8
0
 10
30
 20
215
 11
31.9134
 21
214.619
  0
LINE
  8
0
 10
31.9134
 20
214.619
 11
33.5355
 21
213.536
  0
LINE
  8
0
 10
33.5355
 20
213.536
 11
34.6194
 21
211.913
  0
LINE
  8
0
 10
34.6194
 20
211.913
 11
35
 21
210
  0
LINE
  8
0
 10
35
 20
210
 11
34.6194
 21
208.087
  0
LINE
  8
0
 10
34.6194
 20
208.087
 11
33.5355
 21
206.464
  0
LINE
  8
0
 10
33.5355
 20
206.464
 11
31.9134
 21
205.381
  0
LINE
  8
0
 10
31.9134
 20
205.381
 11
30
 21
205
  0
LINE
  8
0
 10
30
 20
205
 11
28.0866
 21
205.381
  0
LINE
  8
0
 10
88
 20
190
 11
88
 21
200
  0
LINE
  8
0
 10
88
 20
200
 11
92
 21
200
  0
LINE
  8
0
 10
92
 20
200
 11
92
 21
190
  0
LINE
  8
0
 10
92
 20
190
 11
88
 21
190
  0
LINE
  8
0
 10
310
 20
330
 11
250
 21
330
  0
LINE
  8
0
 10
250
 20
330
 11
250
 21
320
  0
LINE
  8
0
 10
250
 20
320
 11
246
 21
320
  0
LINE
  8
0
 10
246
 20
320
 11
246
 21
310
  0
LINE
  8
0
 10
246
 20
310
 11
250
 21
310
  0
LINE
  8
0
 10
250
 20
310
 11
250
 21
290
  0
LINE
  8
0
 10
250
 20
290
 11
246
 21
290
  0
LINE
  8
0
 10
246
 20
290
 11
246
 21
280
  0
LINE
  8
0
 10
246
 20
280
 11
250
 21
280
  0
LINE
  8
0
 10
250
 20
280
 11
250
 21
260
  0
LINE
  8
0
 10
250
 20
260
 11
246
 21
260
  0
LINE
  8
0
 10
246
 20
260
 11
246
 21
250
  0
LINE
  8
0
 10
246
 20
250
 11
250
 21
250
  0
LINE
  8
0
 10
250
 20
250
 11
250
 21
230
  0
LINE
  8
0
 10
250
 20
230
 11
246
 21
230
  0
LINE
  8
0
 10
246
 20
230
 11
246
 21
220
  0
LINE
  8
0
 10
246
 20
220
 11
250
 21
220
  0
LINE
  8
0
 10
250
 20
220
 11
250
 21
200
  0
LINE
  8
0
 10
250
 20
200
 11
246
 21
200
  0
LINE
  8
0
 10
246
 20
200
 11
246
 21
190
  0
LINE
  8
0
 10
246
 20
190
 11
250
 21
190
  0
LINE
  8
0
 10
250
 20
190
 11
250
 21
180
  0
LINE
  8
0
 10
250
 20
180
 11
310
 21
180
  0
LINE
  8
0
 10
310
 20
180
 11
310
 21
330
  0
LINE
  8
0
 10
260
 20
298
 11
260
 21
302
  0
LINE
  8
0
 10
260
 20
302
 11
270
 21
302
  0
LINE
  8
0
 10
270
 20
302
 11
270
 21
298
  0
LINE
  8
0
 10
270
 20
298
 11
260
 21
298
  0
LINE
  8
0
 10
290
 20
298
 11
290
 21
302
  0
LINE
  8
0
 10
290
 20
302
 11
300
 21
302
  0
LINE
  8
0
 10
300
 20
302
 11
300
 21
298
  0
LINE
  8
0
 10
300
 20
298
 11
290
 21
298
  0
LINE
  8
0
 10
290
 20
268
 11
290
 21
272
  0
LINE
  8
0
 10
290
 20
272
 11
300
 21
272
  0
LINE
  8
0
 10
300
 20
272
 11
300
 21
268
  0
LINE
  8
0
 10
300
 20
268
 11
290
 21
268
  0
LINE
  8
0
 10
260
 20
268
 11
260
 21
272
  0
LINE
  8
0
 10
260
 20
272
 11
270
 21
272
  0
LINE
  8
0
 10
270
 20
272
 11
270
 21
268
  0
LINE
  8
0
 10
270
 20
268
 11
260
 21
268
  0
LINE
  8
0
 10
260
 20
170
 11
0
 21
170
  0
LINE
  8
0
 10
0
 20
170
 11
0
 21
0
  0
LINE
  8
0
 10
0
 20
0
 11
260
 21
0
  0
LINE
  8
0
 10
260
 20
0
 11
260
 21
170
  0
LINE
  8
0
 10
3.78647
 20
164.118
 11
3.78647
 21
165.882
  0
LINE
  8
0
 10
3.78647
 20
165.882
 11
5.46352
 21
166.427
  0
LINE
  8
0
 10
5.46352
 20
166.427
 11
6.5
 21
165
  0
LINE
  8
0
 10
6.5
 20
165
 11
5.46352
 21
163.573
  0
LINE
  8
0
 10
5.46352
 20
163.573
 11
3.78647
 21
164.118
  0
LINE
  8
0
 10
253.786
 20
164.118
 11
253.786
 21
165.882
  0
LINE
  8
0
 10
253.786
 20
165.882
 11
255.464
 21
166.427
  0
LINE
  8
0
 10
255.464
 20
166.427
 11
256.5
 21
165
  0
LINE
  8
0
 10
256.5
 20
165
 11
255.464
 21
163.573
  0
LINE
  8
0
 10
255.464
 20
163.573
 11
253.786
 21
164.118
  0
LINE
  8
0
 10
253.786
 20
4.11832
 11
253.786
 21
5.88167
  0
LINE
  8
0
 10
253.786
 20
5.88167
 11
255.464
 21
6.42657
  0
LINE
  8
0
 10
255.464
 20
6.42657
 11
256.5
 21
5
  0
LINE
  8
0
 10
256.5
 20
5
 11
255.464
 21
3.57341
  0
LINE
  8
0
 10
255.464
 20
3.57341
 11
253.786
 21
4.11832
  0
LINE
  8
0
 10
3.78647
 20
4.11832
 11
3.78647
 21
5.88167
  0
LINE
  8
0
 10
3.78647
 20
5.88167
 11
5.46352
 21
6.42657
  0
LINE
  8
0
 10
5.46352
 20
6.42657
 11
6.5
 21
5
  0
LINE
  8
0
 10
6.5
 20
5
 11
5.46352
 21
3.57341
  0
LINE
  8
0
 10
5.46352
 20
3.57341
 11
3.78647
 21
4.11832
  0
ENDSEC
  0
SECTION
  2
OBJECTS
  0
DICTIONARY
  0
ENDSEC
  0
EOF
