  0
SECTION
  2
BLOCKS
  0
ENDSEC
  0
SECTION
  2
ENTITIES
  0
LINE
  8
0
 10
151
 20
265.333
 11
155
 21
265.333
  0
LINE
  8
0
 10
155
 20
265.333
 11
155
 21
278.667
  0
LINE
  8
0
 10
155
 20
278.667
 11
151
 21
278.667
  0
LINE
  8
0
 10
151
 20
278.667
 11
151
 21
292
  0
LINE
  8
0
 10
151
 20
292
 11
155
 21
292
  0
LINE
  8
0
 10
155
 20
292
 11
155
 21
305.333
  0
LINE
  8
0
 10
155
 20
305.333
 11
151
 21
305.333
  0
LINE
  8
0
 10
151
 20
305.333
 11
151
 21
318.667
  0
LINE
  8
0
 10
151
 20
318.667
 11
155
 21
318.667
  0
LINE
  8
0
 10
155
 20
318.667
 11
155
 21
332
  0
LINE
  8
0
 10
155
 20
332
 11
151
 21
332
  0
LINE
  8
0
 10
151
 20
332
 11
151
 21
345.333
  0
LINE
  8
0
 10
151
 20
345.333
 11
155
 21
345.333
  0
LINE
  8
0
 10
155
 20
345.333
 11
155
 21
358.667
  0
LINE
  8
0
 10
155
 20
358.667
 11
151
 21
358.667
  0
LINE
  8
0
 10
151
 20
358.667
 11
151
 21
372
  0
LINE
  8
0
 10
151
 20
372
 11
0
 21
372
  0
LINE
  8
0
 10
0
 20
372
 11
0
 21
358.667
  0
LINE
  8
0
 10
0
 20
358.667
 11
-4
 21
358.667
  0
LINE
  8
0
 10
-4
 20
358.667
 11
-4
 21
345.333
  0
LINE
  8
0
 10
-4
 20
345.333
 11
0
 21
345.333
  0
LINE
  8
0
 10
0
 20
345.333
 11
0
 21
332
  0
LINE
  8
0
 10
0
 20
332
 11
-4
 21
332
  0
LINE
  8
0
 10
-4
 20
332
 11
-4
 21
318.667
  0
LINE
  8
0
 10
-4
 20
318.667
 11
0
 21
318.667
  0
LINE
  8
0
 10
0
 20
318.667
 11
0
 21
305.333
  0
LINE
  8
0
 10
0
 20
305.333
 11
-4
 21
305.333
  0
LINE
  8
0
 10
-4
 20
305.333
 11
-4
 21
292
  0
LINE
  8
0
 10
-4
 20
292
 11
0
 21
292
  0
LINE
  8
0
 10
0
 20
292
 11
0
 21
278.667
  0
LINE
  8
0
 10
0
 20
278.667
 11
-4
 21
278.667
  0
LINE
  8
0
 10
-4
 20
278.667
 11
-4
 21
265.333
  0
LINE
  8
0
 10
-4
 20
265.333
 11
0
 21
265.333
  0
LINE
  8
0
 10
0
 20
265.333
 11
0
 21
252
  0
LINE
  8
0
 10
0
 20
252
 11
151
 21
252
  0
LINE
  8
0
 10
151
 20
252
 11
151
 21
265.333
  0
LINE
  8
0
 10
314
 20
265.333
 11
318
 21
265.333
  0
LINE
  8
0
 10
318
 20
265.333
 11
318
 21
278.667
  0
LINE
  8
0
 10
318
 20
278.667
 11
314
 21
278.667
  0
LINE
  8
0
 10
314
 20
278.667
 11
314
 21
292
  0
LINE
  8
0
 10
314
 20
292
 11
318
 21
292
  0
LINE
  8
0
 10
318
 20
292
 11
318
 21
305.333
  0
LINE
  8
0
 10
318
 20
305.333
 11
314
 21
305.333
  0
LINE
  8
0
 10
314
 20
305.333
 11
314
 21
318.667
  0
LINE
  8
0
 10
314
 20
318.667
 11
318
 21
318.667
  0
LINE
  8
0
 10
318
 20
318.667
 11
318
 21
332
  0
LINE
  8
0
 10
318
 20
332
 11
314
 21
332
  0
LINE
  8
0
 10
314
 20
332
 11
314
 21
345.333
  0
LINE
  8
0
 10
314
 20
345.333
 11
318
 21
345.333
  0
LINE
  8
0
 10
318
 20
345.333
 11
318
 21
358.667
  0
LINE
  8
0
 10
318
 20
358.667
 11
314
 21
358.667
  0
LINE
  8
0
 10
314
 20
358.667
 11
314
 21
372
  0
LINE
  8
0
 10
314
 20
372
 11
163
 21
372
  0
LINE
  8
0
 10
163
 20
372
 11
163
 21
358.667
  0
LINE
  8
0
 10
163
 20
358.667
 11
159
 21
358.667
  0
LINE
  8
0
 10
159
 20
358.667
 11
159
 21
345.333
  0
LINE
  8
0
 10
159
 20
345.333
 11
163
 21
345.333
  0
LINE
  8
0
 10
163
 20
345.333
 11
163
 21
332
  0
LINE
  8
0
 10
163
 20
332
 11
159
 21
332
  0
LINE
  8
0
 10
159
 20
332
 11
159
 21
318.667
  0
LINE
  8
0
 10
159
 20
318.667
 11
163
 21
318.667
  0
LINE
  8
0
 10
163
 20
318.667
 11
163
 21
305.333
  0
LINE
  8
0
 10
163
 20
305.333
 11
159
 21
305.333
  0
LINE
  8
0
 10
159
 20
305.333
 11
159
 21
292
  0
LINE
  8
0
 10
159
 20
292
 11
163
 21
292
  0
LINE
  8
0
 10
163
 20
292
 11
163
 21
278.667
  0
LINE
  8
0
 10
163
 20
278.667
 11
159
 21
278.667
  0
LINE
  8
0
 10
159
 20
278.667
 11
159
 21
265.333
  0
LINE
  8
0
 10
159
 20
265.333
 11
163
 21
265.333
  0
LINE
  8
0
 10
163
 20
265.333
 11
163
 21
252
  0
LINE
  8
0
 10
163
 20
252
 11
314
 21
252
  0
LINE
  8
0
 10
314
 20
252
 11
314
 21
265.333
  0
LINE
  8
0
 10
249
 20
139.333
 11
245
 21
139.333
  0
LINE
  8
0
 10
245
 20
139.333
 11
245
 21
152.667
  0
LINE
  8
0
 10
245
 20
152.667
 11
249
 21
152.667
  0
LINE
  8
0
 10
249
 20
152.667
 11
249
 21
166
  0
LINE
  8
0
 10
249
 20
166
 11
245
 21
166
  0
LINE
  8
0
 10
245
 20
166
 11
245
 21
179.333
  0
LINE
  8
0
 10
245
 20
179.333
 11
249
 21
179.333
  0
LINE
  8
0
 10
249
 20
179.333
 11
249
 21
192.667
  0
LINE
  8
0
 10
249
 20
192.667
 11
245
 21
192.667
  0
LINE
  8
0
 10
245
 20
192.667
 11
245
 21
206
  0
LINE
  8
0
 10
245
 20
206
 11
249
 21
206
  0
LINE
  8
0
 10
249
 20
206
 11
249
 21
219.333
  0
LINE
  8
0
 10
249
 20
219.333
 11
245
 21
219.333
  0
LINE
  8
0
 10
245
 20
219.333
 11
245
 21
232.667
  0
LINE
  8
0
 10
245
 20
232.667
 11
249
 21
232.667
  0
LINE
  8
0
 10
249
 20
232.667
 11
249
 21
246
  0
LINE
  8
0
 10
249
 20
246
 11
0
 21
246
  0
LINE
  8
0
 10
0
 20
246
 11
0
 21
232.667
  0
LINE
  8
0
 10
0
 20
232.667
 11
4
 21
232.667
  0
LINE
  8
0
 10
4
 20
232.667
 11
4
 21
219.333
  0
LINE
  8
0
 10
4
 20
219.333
 11
0
 21
219.333
  0
LINE
  8
0
 10
0
 20
219.333
 11
0
 21
206
  0
LINE
  8
0
 10
0
 20
206
 11
4
 21
206
  0
LINE
  8
0
 10
4
 20
206
 11
4
 21
192.667
  0
LINE
  8
0
 10
4
 20
192.667
 11
0
 21
192.667
  0
LINE
  8
0
 10
0
 20
192.667
 11
0
 21
179.333
  0
LINE
  8
0
 10
0
 20
179.333
 11
4
 21
179.333
  0
LINE
  8
0
 10
4
 20
179.333
 11
4
 21
166
  0
LINE
  8
0
 10
4
 20
166
 11
0
 21
166
  0
LINE
  8
0
 10
0
 20
166
 11
0
 21
152.667
  0
LINE
  8
0
 10
0
 20
152.667
 11
4
 21
152.667
  0
LINE
  8
0
 10
4
 20
152.667
 11
4
 21
139.333
  0
LINE
  8
0
 10
4
 20
139.333
 11
0
 21
139.333
  0
LINE
  8
0
 10
0
 20
139.333
 11
0
 21
126
  0
LINE
  8
0
 10
0
 20
126
 11
249
 21
126
  0
LINE
  8
0
 10
249
 20
126
 11
249
 21
139.333
  0
LINE
  8
0
 10
249
 20
13.3333
 11
245
 21
13.3333
  0
LINE
  8
0
 10
245
 20
13.3333
 11
245
 21
26.6667
  0
LINE
  8
0
 10
245
 20
26.6667
 11
249
 21
26.6667
  0
LINE
  8
0
 10
249
 20
26.6667
 11
249
 21
40
  0
LINE
  8
0
 10
249
 20
40
 11
245
 21
40
  0
LINE
  8
0
 10
245
 20
40
 11
245
 21
53.3333
  0
LINE
  8
0
 10
245
 20
53.3333
 11
249
 21
53.3333
  0
LINE
  8
0
 10
249
 20
53.3333
 11
249
 21
66.6667
  0
LINE
  8
0
 10
249
 20
66.6667
 11
245
 21
66.6667
  0
LINE
  8
0
 10
245
 20
66.6667
 11
245
 21
80
  0
LINE
  8
0
 10
245
 20
80
 11
249
 21
80
  0
LINE
  8
0
 10
249
 20
80
 11
249
 21
93.3333
  0
LINE
  8
0
 10
249
 20
93.3333
 11
245
 21
93.3333
  0
LINE
  8
0
 10
245
 20
93.3333
 11
245
 21
106.667
  0
LINE
  8
0
 10
245
 20
106.667
 11
249
 21
106.667
  0
LINE
  8
0
 10
249
 20
106.667
 11
249
 21
120
  0
LINE
  8
0
 10
249
 20
120
 11
0
 21
120
  0
LINE
  8
0
 10
0
 20
120
 11
0
 21
106.667
  0
LINE
  8
0
 10
0
 20
106.667
 11
4
 21
106.667
  0
LINE
  8
0
 10
4
 20
106.667
 11
4
 21
93.3333
  0
LINE
  8
0
 10
4
 20
93.3333
 11
0
 21
93.3333
  0
LINE
  8
0
 10
0
 20
93.3333
 11
0
 21
80
  0
LINE
  8
0
 10
0
 20
80
 11
4
 21
80
  0
LINE
  8
0
 10
4
 20
80
 11
4
 21
66.6667
  0
LINE
  8
0
 10
4
 20
66.6667
 11
0
 21
66.6667
  0
LINE
  8
0
 10
0
 20
66.6667
 11
0
 21
53.3333
  0
LINE
  8
0
 10
0
 20
53.3333
 11
4
 21
53.3333
  0
LINE
  8
0
 10
4
 20
53.3333
 11
4
 21
40
  0
LINE
  8
0
 10
4
 20
40
 11
0
 21
40
  0
LINE
  8
0
 10
0
 20
40
 11
0
 21
26.6667
  0
LINE
  8
0
 10
0
 20
26.6667
 11
4
 21
26.6667
  0
LINE
  8
0
 10
4
 20
26.6667
 11
4
 21
13.3333
  0
LINE
  8
0
 10
4
 20
13.3333
 11
0
 21
13.3333
  0
LINE
  8
0
 10
0
 20
13.3333
 11
0
 21
0
  0
LINE
  8
0
 10
0
 20
0
 11
249
 21
0
  0
LINE
  8
0
 10
249
 20
0
 11
249
 21
13.3333
  0
ENDSEC
  0
SECTION
  2
OBJECTS
  0
DICTIONARY
  0
ENDSEC
  0
EOF
