  0
SECTION
  2
BLOCKS
  0
ENDSEC
  0
SECTION
  2
ENTITIES
  0
LINE
  8
0
 10
248
 20
181.556
 11
244
 21
181.556
  0
LINE
  8
0
 10
244
 20
181.556
 11
244
 21
199.111
  0
LINE
  8
0
 10
244
 20
199.111
 11
248
 21
199.111
  0
LINE
  8
0
 10
248
 20
199.111
 11
248
 21
216.667
  0
LINE
  8
0
 10
248
 20
216.667
 11
244
 21
216.667
  0
LINE
  8
0
 10
244
 20
216.667
 11
244
 21
234.222
  0
LINE
  8
0
 10
244
 20
234.222
 11
248
 21
234.222
  0
LINE
  8
0
 10
248
 20
234.222
 11
248
 21
251.778
  0
LINE
  8
0
 10
248
 20
251.778
 11
244
 21
251.778
  0
LINE
  8
0
 10
244
 20
251.778
 11
244
 21
269.333
  0
LINE
  8
0
 10
244
 20
269.333
 11
248
 21
269.333
  0
LINE
  8
0
 10
248
 20
269.333
 11
248
 21
286.889
  0
LINE
  8
0
 10
248
 20
286.889
 11
244
 21
286.889
  0
LINE
  8
0
 10
244
 20
286.889
 11
244
 21
304.444
  0
LINE
  8
0
 10
244
 20
304.444
 11
248
 21
304.444
  0
LINE
  8
0
 10
248
 20
304.444
 11
248
 21
322
  0
LINE
  8
0
 10
248
 20
322
 11
0
 21
322
  0
LINE
  8
0
 10
0
 20
322
 11
0
 21
304.444
  0
LINE
  8
0
 10
0
 20
304.444
 11
4
 21
304.444
  0
LINE
  8
0
 10
4
 20
304.444
 11
4
 21
286.889
  0
LINE
  8
0
 10
4
 20
286.889
 11
0
 21
286.889
  0
LINE
  8
0
 10
0
 20
286.889
 11
0
 21
269.333
  0
LINE
  8
0
 10
0
 20
269.333
 11
4
 21
269.333
  0
LINE
  8
0
 10
4
 20
269.333
 11
4
 21
251.778
  0
LINE
  8
0
 10
4
 20
251.778
 11
0
 21
251.778
  0
LINE
  8
0
 10
0
 20
251.778
 11
0
 21
234.222
  0
LINE
  8
0
 10
0
 20
234.222
 11
4
 21
234.222
  0
LINE
  8
0
 10
4
 20
234.222
 11
4
 21
216.667
  0
LINE
  8
0
 10
4
 20
216.667
 11
0
 21
216.667
  0
LINE
  8
0
 10
0
 20
216.667
 11
0
 21
199.111
  0
LINE
  8
0
 10
0
 20
199.111
 11
4
 21
199.111
  0
LINE
  8
0
 10
4
 20
199.111
 11
4
 21
181.556
  0
LINE
  8
0
 10
4
 20
181.556
 11
0
 21
181.556
  0
LINE
  8
0
 10
0
 20
181.556
 11
0
 21
164
  0
LINE
  8
0
 10
0
 20
164
 11
248
 21
164
  0
LINE
  8
0
 10
248
 20
164
 11
248
 21
181.556
  0
LINE
  8
0
 10
287.111
 20
166
 11
304.667
 21
166
  0
LINE
  8
0
 10
304.667
 20
166
 11
304.667
 21
162
  0
LINE
  8
0
 10
304.667
 20
162
 11
322.222
 21
162
  0
LINE
  8
0
 10
322.222
 20
162
 11
322.222
 21
166
  0
LINE
  8
0
 10
322.222
 20
166
 11
339.778
 21
166
  0
LINE
  8
0
 10
339.778
 20
166
 11
339.778
 21
162
  0
LINE
  8
0
 10
339.778
 20
162
 11
357.333
 21
162
  0
LINE
  8
0
 10
357.333
 20
162
 11
357.333
 21
166
  0
LINE
  8
0
 10
357.333
 20
166
 11
374.889
 21
166
  0
LINE
  8
0
 10
374.889
 20
166
 11
374.889
 21
162
  0
LINE
  8
0
 10
374.889
 20
162
 11
392.444
 21
162
  0
LINE
  8
0
 10
392.444
 20
162
 11
392.444
 21
166
  0
LINE
  8
0
 10
392.444
 20
166
 11
410
 21
166
  0
LINE
  8
0
 10
410
 20
166
 11
410
 21
316
  0
LINE
  8
0
 10
410
 20
316
 11
392.444
 21
316
  0
LINE
  8
0
 10
392.444
 20
316
 11
392.444
 21
320
  0
LINE
  8
0
 10
392.444
 20
320
 11
374.889
 21
320
  0
LINE
  8
0
 10
374.889
 20
320
 11
374.889
 21
316
  0
LINE
  8
0
 10
374.889
 20
316
 11
357.333
 21
316
  0
LINE
  8
0
 10
357.333
 20
316
 11
357.333
 21
320
  0
LINE
  8
0
 10
357.333
 20
320
 11
339.778
 21
320
  0
LINE
  8
0
 10
339.778
 20
320
 11
339.778
 21
316
  0
LINE
  8
0
 10
339.778
 20
316
 11
322.222
 21
316
  0
LINE
  8
0
 10
322.222
 20
316
 11
322.222
 21
320
  0
LINE
  8
0
 10
322.222
 20
320
 11
304.667
 21
320
  0
LINE
  8
0
 10
304.667
 20
320
 11
304.667
 21
316
  0
LINE
  8
0
 10
304.667
 20
316
 11
287.111
 21
316
  0
LINE
  8
0
 10
287.111
 20
316
 11
287.111
 21
320
  0
LINE
  8
0
 10
287.111
 20
320
 11
269.556
 21
320
  0
LINE
  8
0
 10
269.556
 20
320
 11
269.556
 21
316
  0
LINE
  8
0
 10
269.556
 20
316
 11
252
 21
316
  0
LINE
  8
0
 10
252
 20
316
 11
252
 21
166
  0
LINE
  8
0
 10
252
 20
166
 11
269.556
 21
166
  0
LINE
  8
0
 10
269.556
 20
166
 11
269.556
 21
162
  0
LINE
  8
0
 10
269.556
 20
162
 11
287.111
 21
162
  0
LINE
  8
0
 10
287.111
 20
162
 11
287.111
 21
166
  0
LINE
  8
0
 10
248
 20
17.5555
 11
244
 21
17.5555
  0
LINE
  8
0
 10
244
 20
17.5555
 11
244
 21
35.1111
  0
LINE
  8
0
 10
244
 20
35.1111
 11
248
 21
35.1111
  0
LINE
  8
0
 10
248
 20
35.1111
 11
248
 21
52.6667
  0
LINE
  8
0
 10
248
 20
52.6667
 11
244
 21
52.6667
  0
LINE
  8
0
 10
244
 20
52.6667
 11
244
 21
70.2222
  0
LINE
  8
0
 10
244
 20
70.2222
 11
248
 21
70.2222
  0
LINE
  8
0
 10
248
 20
70.2222
 11
248
 21
87.7778
  0
LINE
  8
0
 10
248
 20
87.7778
 11
244
 21
87.7778
  0
LINE
  8
0
 10
244
 20
87.7778
 11
244
 21
105.333
  0
LINE
  8
0
 10
244
 20
105.333
 11
248
 21
105.333
  0
LINE
  8
0
 10
248
 20
105.333
 11
248
 21
122.889
  0
LINE
  8
0
 10
248
 20
122.889
 11
244
 21
122.889
  0
LINE
  8
0
 10
244
 20
122.889
 11
244
 21
140.444
  0
LINE
  8
0
 10
244
 20
140.444
 11
248
 21
140.444
  0
LINE
  8
0
 10
248
 20
140.444
 11
248
 21
158
  0
LINE
  8
0
 10
248
 20
158
 11
0
 21
158
  0
LINE
  8
0
 10
0
 20
158
 11
0
 21
140.444
  0
LINE
  8
0
 10
0
 20
140.444
 11
4
 21
140.444
  0
LINE
  8
0
 10
4
 20
140.444
 11
4
 21
122.889
  0
LINE
  8
0
 10
4
 20
122.889
 11
0
 21
122.889
  0
LINE
  8
0
 10
0
 20
122.889
 11
0
 21
105.333
  0
LINE
  8
0
 10
0
 20
105.333
 11
4
 21
105.333
  0
LINE
  8
0
 10
4
 20
105.333
 11
4
 21
87.7778
  0
LINE
  8
0
 10
4
 20
87.7778
 11
0
 21
87.7778
  0
LINE
  8
0
 10
0
 20
87.7778
 11
0
 21
70.2222
  0
LINE
  8
0
 10
0
 20
70.2222
 11
4
 21
70.2222
  0
LINE
  8
0
 10
4
 20
70.2222
 11
4
 21
52.6667
  0
LINE
  8
0
 10
4
 20
52.6667
 11
0
 21
52.6667
  0
LINE
  8
0
 10
0
 20
52.6667
 11
0
 21
35.1111
  0
LINE
  8
0
 10
0
 20
35.1111
 11
4
 21
35.1111
  0
LINE
  8
0
 10
4
 20
35.1111
 11
4
 21
17.5555
  0
LINE
  8
0
 10
4
 20
17.5555
 11
0
 21
17.5555
  0
LINE
  8
0
 10
0
 20
17.5555
 11
0
 21
0
  0
LINE
  8
0
 10
0
 20
0
 11
248
 21
0
  0
LINE
  8
0
 10
248
 20
0
 11
248
 21
17.5555
  0
LINE
  8
0
 10
289.111
 20
4
 11
306.667
 21
4
  0
LINE
  8
0
 10
306.667
 20
4
 11
306.667
 21
0
  0
LINE
  8
0
 10
306.667
 20
0
 11
324.222
 21
0
  0
LINE
  8
0
 10
324.222
 20
0
 11
324.222
 21
4
  0
LINE
  8
0
 10
324.222
 20
4
 11
341.778
 21
4
  0
LINE
  8
0
 10
341.778
 20
4
 11
341.778
 21
0
  0
LINE
  8
0
 10
341.778
 20
0
 11
359.333
 21
0
  0
LINE
  8
0
 10
359.333
 20
0
 11
359.333
 21
4
  0
LINE
  8
0
 10
359.333
 20
4
 11
376.889
 21
4
  0
LINE
  8
0
 10
376.889
 20
4
 11
376.889
 21
0
  0
LINE
  8
0
 10
376.889
 20
0
 11
394.444
 21
0
  0
LINE
  8
0
 10
394.444
 20
0
 11
394.444
 21
4
  0
LINE
  8
0
 10
394.444
 20
4
 11
412
 21
4
  0
LINE
  8
0
 10
412
 20
4
 11
412
 21
154
  0
LINE
  8
0
 10
412
 20
154
 11
394.444
 21
154
  0
LINE
  8
0
 10
394.444
 20
154
 11
394.444
 21
158
  0
LINE
  8
0
 10
394.444
 20
158
 11
376.889
 21
158
  0
LINE
  8
0
 10
376.889
 20
158
 11
376.889
 21
154
  0
LINE
  8
0
 10
376.889
 20
154
 11
359.333
 21
154
  0
LINE
  8
0
 10
359.333
 20
154
 11
359.333
 21
158
  0
LINE
  8
0
 10
359.333
 20
158
 11
341.778
 21
158
  0
LINE
  8
0
 10
341.778
 20
158
 11
341.778
 21
154
  0
LINE
  8
0
 10
341.778
 20
154
 11
324.222
 21
154
  0
LINE
  8
0
 10
324.222
 20
154
 11
324.222
 21
158
  0
LINE
  8
0
 10
324.222
 20
158
 11
306.667
 21
158
  0
LINE
  8
0
 10
306.667
 20
158
 11
306.667
 21
154
  0
LINE
  8
0
 10
306.667
 20
154
 11
289.111
 21
154
  0
LINE
  8
0
 10
289.111
 20
154
 11
289.111
 21
158
  0
LINE
  8
0
 10
289.111
 20
158
 11
271.556
 21
158
  0
LINE
  8
0
 10
271.556
 20
158
 11
271.556
 21
154
  0
LINE
  8
0
 10
271.556
 20
154
 11
254
 21
154
  0
LINE
  8
0
 10
254
 20
154
 11
254
 21
4
  0
LINE
  8
0
 10
254
 20
4
 11
271.556
 21
4
  0
LINE
  8
0
 10
271.556
 20
4
 11
271.556
 21
0
  0
LINE
  8
0
 10
271.556
 20
0
 11
289.111
 21
0
  0
LINE
  8
0
 10
289.111
 20
0
 11
289.111
 21
4
  0
ENDSEC
  0
SECTION
  2
OBJECTS
  0
DICTIONARY
  0
ENDSEC
  0
EOF
