  0
SECTION
  2
BLOCKS
  0
ENDSEC
  0
SECTION
  2
ENTITIES
  0
LINE
  8
0
 10
240
 20
232
 11
236
 21
232
  0
LINE
  8
0
 10
236
 20
232
 11
236
 21
242
  0
LINE
  8
0
 10
236
 20
242
 11
240
 21
242
  0
LINE
  8
0
 10
240
 20
242
 11
240
 21
262
  0
LINE
  8
0
 10
240
 20
262
 11
236
 21
262
  0
LINE
  8
0
 10
236
 20
262
 11
236
 21
272
  0
LINE
  8
0
 10
236
 20
272
 11
240
 21
272
  0
LINE
  8
0
 10
240
 20
272
 11
240
 21
282
  0
LINE
  8
0
 10
240
 20
282
 11
230
 21
282
  0
LINE
  8
0
 10
230
 20
282
 11
230
 21
286
  0
LINE
  8
0
 10
230
 20
286
 11
220
 21
286
  0
LINE
  8
0
 10
220
 20
286
 11
220
 21
282
  0
LINE
  8
0
 10
220
 20
282
 11
200
 21
282
  0
LINE
  8
0
 10
200
 20
282
 11
200
 21
286
  0
LINE
  8
0
 10
200
 20
286
 11
190
 21
286
  0
LINE
  8
0
 10
190
 20
286
 11
190
 21
282
  0
LINE
  8
0
 10
190
 20
282
 11
170
 21
282
  0
LINE
  8
0
 10
170
 20
282
 11
170
 21
286
  0
LINE
  8
0
 10
170
 20
286
 11
160
 21
286
  0
LINE
  8
0
 10
160
 20
286
 11
160
 21
282
  0
LINE
  8
0
 10
160
 20
282
 11
140
 21
282
  0
LINE
  8
0
 10
140
 20
282
 11
140
 21
286
  0
LINE
  8
0
 10
140
 20
286
 11
130
 21
286
  0
LINE
  8
0
 10
130
 20
286
 11
130
 21
282
  0
LINE
  8
0
 10
130
 20
282
 11
110
 21
282
  0
LINE
  8
0
 10
110
 20
282
 11
110
 21
286
  0
LINE
  8
0
 10
110
 20
286
 11
100
 21
286
  0
LINE
  8
0
 10
100
 20
286
 11
100
 21
282
  0
LINE
  8
0
 10
100
 20
282
 11
80
 21
282
  0
LINE
  8
0
 10
80
 20
282
 11
80
 21
286
  0
LINE
  8
0
 10
80
 20
286
 11
70
 21
286
  0
LINE
  8
0
 10
70
 20
286
 11
70
 21
282
  0
LINE
  8
0
 10
70
 20
282
 11
50
 21
282
  0
LINE
  8
0
 10
50
 20
282
 11
50
 21
286
  0
LINE
  8
0
 10
50
 20
286
 11
40
 21
286
  0
LINE
  8
0
 10
40
 20
286
 11
40
 21
282
  0
LINE
  8
0
 10
40
 20
282
 11
20
 21
282
  0
LINE
  8
0
 10
20
 20
282
 11
20
 21
286
  0
LINE
  8
0
 10
20
 20
286
 11
10
 21
286
  0
LINE
  8
0
 10
10
 20
286
 11
10
 21
282
  0
LINE
  8
0
 10
10
 20
282
 11
0
 21
282
  0
LINE
  8
0
 10
0
 20
282
 11
0
 21
272
  0
LINE
  8
0
 10
0
 20
272
 11
4
 21
272
  0
LINE
  8
0
 10
4
 20
272
 11
4
 21
262
  0
LINE
  8
0
 10
4
 20
262
 11
0
 21
262
  0
LINE
  8
0
 10
0
 20
262
 11
0
 21
242
  0
LINE
  8
0
 10
0
 20
242
 11
4
 21
242
  0
LINE
  8
0
 10
4
 20
242
 11
4
 21
232
  0
LINE
  8
0
 10
4
 20
232
 11
0
 21
232
  0
LINE
  8
0
 10
0
 20
232
 11
0
 21
222
  0
LINE
  8
0
 10
0
 20
222
 11
240
 21
222
  0
LINE
  8
0
 10
240
 20
222
 11
240
 21
232
  0
LINE
  8
0
 10
88
 20
262
 11
88
 21
272
  0
LINE
  8
0
 10
88
 20
272
 11
92
 21
272
  0
LINE
  8
0
 10
92
 20
272
 11
92
 21
262
  0
LINE
  8
0
 10
92
 20
262
 11
88
 21
262
  0
LINE
  8
0
 10
58
 20
262
 11
58
 21
272
  0
LINE
  8
0
 10
58
 20
272
 11
62
 21
272
  0
LINE
  8
0
 10
62
 20
272
 11
62
 21
262
  0
LINE
  8
0
 10
62
 20
262
 11
58
 21
262
  0
LINE
  8
0
 10
88
 20
232
 11
88
 21
242
  0
LINE
  8
0
 10
88
 20
242
 11
92
 21
242
  0
LINE
  8
0
 10
92
 20
242
 11
92
 21
232
  0
LINE
  8
0
 10
92
 20
232
 11
88
 21
232
  0
LINE
  8
0
 10
58
 20
232
 11
58
 21
242
  0
LINE
  8
0
 10
58
 20
242
 11
62
 21
242
  0
LINE
  8
0
 10
62
 20
242
 11
62
 21
232
  0
LINE
  8
0
 10
62
 20
232
 11
58
 21
232
  0
LINE
  8
0
 10
20
 20
156
 11
40
 21
156
  0
LINE
  8
0
 10
40
 20
156
 11
40
 21
152
  0
LINE
  8
0
 10
40
 20
152
 11
50
 21
152
  0
LINE
  8
0
 10
50
 20
152
 11
50
 21
156
  0
LINE
  8
0
 10
50
 20
156
 11
70
 21
156
  0
LINE
  8
0
 10
70
 20
156
 11
70
 21
152
  0
LINE
  8
0
 10
70
 20
152
 11
80
 21
152
  0
LINE
  8
0
 10
80
 20
152
 11
80
 21
156
  0
LINE
  8
0
 10
80
 20
156
 11
100
 21
156
  0
LINE
  8
0
 10
100
 20
156
 11
100
 21
152
  0
LINE
  8
0
 10
100
 20
152
 11
110
 21
152
  0
LINE
  8
0
 10
110
 20
152
 11
110
 21
156
  0
LINE
  8
0
 10
110
 20
156
 11
130
 21
156
  0
LINE
  8
0
 10
130
 20
156
 11
130
 21
152
  0
LINE
  8
0
 10
130
 20
152
 11
140
 21
152
  0
LINE
  8
0
 10
140
 20
152
 11
140
 21
156
  0
LINE
  8
0
 10
140
 20
156
 11
160
 21
156
  0
LINE
  8
0
 10
160
 20
156
 11
160
 21
152
  0
LINE
  8
0
 10
160
 20
152
 11
170
 21
152
  0
LINE
  8
0
 10
170
 20
152
 11
170
 21
156
  0
LINE
  8
0
 10
170
 20
156
 11
190
 21
156
  0
LINE
  8
0
 10
190
 20
156
 11
190
 21
152
  0
LINE
  8
0
 10
190
 20
152
 11
200
 21
152
  0
LINE
  8
0
 10
200
 20
152
 11
200
 21
156
  0
LINE
  8
0
 10
200
 20
156
 11
220
 21
156
  0
LINE
  8
0
 10
220
 20
156
 11
220
 21
152
  0
LINE
  8
0
 10
220
 20
152
 11
230
 21
152
  0
LINE
  8
0
 10
230
 20
152
 11
230
 21
156
  0
LINE
  8
0
 10
230
 20
156
 11
240
 21
156
  0
LINE
  8
0
 10
240
 20
156
 11
240
 21
166
  0
LINE
  8
0
 10
240
 20
166
 11
236
 21
166
  0
LINE
  8
0
 10
236
 20
166
 11
236
 21
176
  0
LINE
  8
0
 10
236
 20
176
 11
240
 21
176
  0
LINE
  8
0
 10
240
 20
176
 11
240
 21
196
  0
LINE
  8
0
 10
240
 20
196
 11
236
 21
196
  0
LINE
  8
0
 10
236
 20
196
 11
236
 21
206
  0
LINE
  8
0
 10
236
 20
206
 11
240
 21
206
  0
LINE
  8
0
 10
240
 20
206
 11
240
 21
216
  0
LINE
  8
0
 10
240
 20
216
 11
0
 21
216
  0
LINE
  8
0
 10
0
 20
216
 11
0
 21
206
  0
LINE
  8
0
 10
0
 20
206
 11
4
 21
206
  0
LINE
  8
0
 10
4
 20
206
 11
4
 21
196
  0
LINE
  8
0
 10
4
 20
196
 11
0
 21
196
  0
LINE
  8
0
 10
0
 20
196
 11
0
 21
176
  0
LINE
  8
0
 10
0
 20
176
 11
4
 21
176
  0
LINE
  8
0
 10
4
 20
176
 11
4
 21
166
  0
LINE
  8
0
 10
4
 20
166
 11
0
 21
166
  0
LINE
  8
0
 10
0
 20
166
 11
0
 21
156
  0
LINE
  8
0
 10
0
 20
156
 11
10
 21
156
  0
LINE
  8
0
 10
10
 20
156
 11
10
 21
152
  0
LINE
  8
0
 10
10
 20
152
 11
20
 21
152
  0
LINE
  8
0
 10
20
 20
152
 11
20
 21
156
  0
LINE
  8
0
 10
88
 20
196
 11
88
 21
206
  0
LINE
  8
0
 10
88
 20
206
 11
92
 21
206
  0
LINE
  8
0
 10
92
 20
206
 11
92
 21
196
  0
LINE
  8
0
 10
92
 20
196
 11
88
 21
196
  0
LINE
  8
0
 10
88
 20
166
 11
88
 21
176
  0
LINE
  8
0
 10
88
 20
176
 11
92
 21
176
  0
LINE
  8
0
 10
92
 20
176
 11
92
 21
166
  0
LINE
  8
0
 10
92
 20
166
 11
88
 21
166
  0
LINE
  8
0
 10
10
 20
4
 11
20
 21
4
  0
LINE
  8
0
 10
20
 20
4
 11
20
 21
0
  0
LINE
  8
0
 10
20
 20
0
 11
40
 21
0
  0
LINE
  8
0
 10
40
 20
0
 11
40
 21
4
  0
LINE
  8
0
 10
40
 20
4
 11
50
 21
4
  0
LINE
  8
0
 10
50
 20
4
 11
50
 21
0
  0
LINE
  8
0
 10
50
 20
0
 11
70
 21
0
  0
LINE
  8
0
 10
70
 20
0
 11
70
 21
4
  0
LINE
  8
0
 10
70
 20
4
 11
80
 21
4
  0
LINE
  8
0
 10
80
 20
4
 11
80
 21
0
  0
LINE
  8
0
 10
80
 20
0
 11
100
 21
0
  0
LINE
  8
0
 10
100
 20
0
 11
100
 21
4
  0
LINE
  8
0
 10
100
 20
4
 11
110
 21
4
  0
LINE
  8
0
 10
110
 20
4
 11
110
 21
0
  0
LINE
  8
0
 10
110
 20
0
 11
130
 21
0
  0
LINE
  8
0
 10
130
 20
0
 11
130
 21
4
  0
LINE
  8
0
 10
130
 20
4
 11
140
 21
4
  0
LINE
  8
0
 10
140
 20
4
 11
140
 21
0
  0
LINE
  8
0
 10
140
 20
0
 11
160
 21
0
  0
LINE
  8
0
 10
160
 20
0
 11
160
 21
4
  0
LINE
  8
0
 10
160
 20
4
 11
170
 21
4
  0
LINE
  8
0
 10
170
 20
4
 11
170
 21
0
  0
LINE
  8
0
 10
170
 20
0
 11
190
 21
0
  0
LINE
  8
0
 10
190
 20
0
 11
190
 21
4
  0
LINE
  8
0
 10
190
 20
4
 11
200
 21
4
  0
LINE
  8
0
 10
200
 20
4
 11
200
 21
0
  0
LINE
  8
0
 10
200
 20
0
 11
220
 21
0
  0
LINE
  8
0
 10
220
 20
0
 11
220
 21
4
  0
LINE
  8
0
 10
220
 20
4
 11
230
 21
4
  0
LINE
  8
0
 10
230
 20
4
 11
230
 21
0
  0
LINE
  8
0
 10
230
 20
0
 11
240
 21
0
  0
LINE
  8
0
 10
240
 20
0
 11
240
 21
10
  0
LINE
  8
0
 10
240
 20
10
 11
236
 21
10
  0
LINE
  8
0
 10
236
 20
10
 11
236
 21
20
  0
LINE
  8
0
 10
236
 20
20
 11
240
 21
20
  0
LINE
  8
0
 10
240
 20
20
 11
240
 21
40
  0
LINE
  8
0
 10
240
 20
40
 11
236
 21
40
  0
LINE
  8
0
 10
236
 20
40
 11
236
 21
50
  0
LINE
  8
0
 10
236
 20
50
 11
240
 21
50
  0
LINE
  8
0
 10
240
 20
50
 11
240
 21
70
  0
LINE
  8
0
 10
240
 20
70
 11
236
 21
70
  0
LINE
  8
0
 10
236
 20
70
 11
236
 21
80
  0
LINE
  8
0
 10
236
 20
80
 11
240
 21
80
  0
LINE
  8
0
 10
240
 20
80
 11
240
 21
100
  0
LINE
  8
0
 10
240
 20
100
 11
236
 21
100
  0
LINE
  8
0
 10
236
 20
100
 11
236
 21
110
  0
LINE
  8
0
 10
236
 20
110
 11
240
 21
110
  0
LINE
  8
0
 10
240
 20
110
 11
240
 21
130
  0
LINE
  8
0
 10
240
 20
130
 11
236
 21
130
  0
LINE
  8
0
 10
236
 20
130
 11
236
 21
140
  0
LINE
  8
0
 10
236
 20
140
 11
240
 21
140
  0
LINE
  8
0
 10
240
 20
140
 11
240
 21
150
  0
LINE
  8
0
 10
240
 20
150
 11
230
 21
150
  0
LINE
  8
0
 10
230
 20
150
 11
230
 21
146
  0
LINE
  8
0
 10
230
 20
146
 11
220
 21
146
  0
LINE
  8
0
 10
220
 20
146
 11
220
 21
150
  0
LINE
  8
0
 10
220
 20
150
 11
200
 21
150
  0
LINE
  8
0
 10
200
 20
150
 11
200
 21
146
  0
LINE
  8
0
 10
200
 20
146
 11
190
 21
146
  0
LINE
  8
0
 10
190
 20
146
 11
190
 21
150
  0
LINE
  8
0
 10
190
 20
150
 11
170
 21
150
  0
LINE
  8
0
 10
170
 20
150
 11
170
 21
146
  0
LINE
  8
0
 10
170
 20
146
 11
160
 21
146
  0
LINE
  8
0
 10
160
 20
146
 11
160
 21
150
  0
LINE
  8
0
 10
160
 20
150
 11
140
 21
150
  0
LINE
  8
0
 10
140
 20
150
 11
140
 21
146
  0
LINE
  8
0
 10
140
 20
146
 11
130
 21
146
  0
LINE
  8
0
 10
130
 20
146
 11
130
 21
150
  0
LINE
  8
0
 10
130
 20
150
 11
110
 21
150
  0
LINE
  8
0
 10
110
 20
150
 11
110
 21
146
  0
LINE
  8
0
 10
110
 20
146
 11
100
 21
146
  0
LINE
  8
0
 10
100
 20
146
 11
100
 21
150
  0
LINE
  8
0
 10
100
 20
150
 11
80
 21
150
  0
LINE
  8
0
 10
80
 20
150
 11
80
 21
146
  0
LINE
  8
0
 10
80
 20
146
 11
70
 21
146
  0
LINE
  8
0
 10
70
 20
146
 11
70
 21
150
  0
LINE
  8
0
 10
70
 20
150
 11
50
 21
150
  0
LINE
  8
0
 10
50
 20
150
 11
50
 21
146
  0
LINE
  8
0
 10
50
 20
146
 11
40
 21
146
  0
LINE
  8
0
 10
40
 20
146
 11
40
 21
150
  0
LINE
  8
0
 10
40
 20
150
 11
20
 21
150
  0
LINE
  8
0
 10
20
 20
150
 11
20
 21
146
  0
LINE
  8
0
 10
20
 20
146
 11
10
 21
146
  0
LINE
  8
0
 10
10
 20
146
 11
10
 21
150
  0
LINE
  8
0
 10
10
 20
150
 11
0
 21
150
  0
LINE
  8
0
 10
0
 20
150
 11
0
 21
140
  0
LINE
  8
0
 10
0
 20
140
 11
4
 21
140
  0
LINE
  8
0
 10
4
 20
140
 11
4
 21
130
  0
LINE
  8
0
 10
4
 20
130
 11
0
 21
130
  0
LINE
  8
0
 10
0
 20
130
 11
0
 21
110
  0
LINE
  8
0
 10
0
 20
110
 11
4
 21
110
  0
LINE
  8
0
 10
4
 20
110
 11
4
 21
100
  0
LINE
  8
0
 10
4
 20
100
 11
0
 21
100
  0
LINE
  8
0
 10
0
 20
100
 11
0
 21
80
  0
LINE
  8
0
 10
0
 20
80
 11
4
 21
80
  0
LINE
  8
0
 10
4
 20
80
 11
4
 21
70
  0
LINE
  8
0
 10
4
 20
70
 11
0
 21
70
  0
LINE
  8
0
 10
0
 20
70
 11
0
 21
50
  0
LINE
  8
0
 10
0
 20
50
 11
4
 21
50
  0
LINE
  8
0
 10
4
 20
50
 11
4
 21
40
  0
LINE
  8
0
 10
4
 20
40
 11
0
 21
40
  0
LINE
  8
0
 10
0
 20
40
 11
0
 21
20
  0
LINE
  8
0
 10
0
 20
20
 11
4
 21
20
  0
LINE
  8
0
 10
4
 20
20
 11
4
 21
10
  0
LINE
  8
0
 10
4
 20
10
 11
0
 21
10
  0
LINE
  8
0
 10
0
 20
10
 11
0
 21
0
  0
LINE
  8
0
 10
0
 20
0
 11
10
 21
0
  0
LINE
  8
0
 10
10
 20
0
 11
10
 21
4
  0
LINE
  8
0
 10
9.19098
 20
139.412
 11
9.19098
 21
140.588
  0
LINE
  8
0
 10
9.19098
 20
140.588
 11
10.309
 21
140.951
  0
LINE
  8
0
 10
10.309
 20
140.951
 11
11
 21
140
  0
LINE
  8
0
 10
11
 20
140
 11
10.309
 21
139.049
  0
LINE
  8
0
 10
10.309
 20
139.049
 11
9.19098
 21
139.412
  0
LINE
  8
0
 10
229.191
 20
139.412
 11
229.191
 21
140.588
  0
LINE
  8
0
 10
229.191
 20
140.588
 11
230.309
 21
140.951
  0
LINE
  8
0
 10
230.309
 20
140.951
 11
231
 21
140
  0
LINE
  8
0
 10
231
 20
140
 11
230.309
 21
139.049
  0
LINE
  8
0
 10
230.309
 20
139.049
 11
229.191
 21
139.412
  0
LINE
  8
0
 10
58
 20
130
 11
58
 21
140
  0
LINE
  8
0
 10
58
 20
140
 11
62
 21
140
  0
LINE
  8
0
 10
62
 20
140
 11
62
 21
130
  0
LINE
  8
0
 10
62
 20
130
 11
58
 21
130
  0
LINE
  8
0
 10
88
 20
130
 11
88
 21
140
  0
LINE
  8
0
 10
88
 20
140
 11
92
 21
140
  0
LINE
  8
0
 10
92
 20
140
 11
92
 21
130
  0
LINE
  8
0
 10
92
 20
130
 11
88
 21
130
  0
LINE
  8
0
 10
73.5816
 20
131.26
 11
72.006
 21
132.348
  0
LINE
  8
0
 10
72.006
 20
132.348
 11
71.1162
 21
134.043
  0
LINE
  8
0
 10
71.1162
 20
134.043
 11
71.1162
 21
135.957
  0
LINE
  8
0
 10
71.1162
 20
135.957
 11
72.006
 21
137.652
  0
LINE
  8
0
 10
72.006
 20
137.652
 11
73.5816
 21
138.74
  0
LINE
  8
0
 10
73.5816
 20
138.74
 11
75.4821
 21
138.971
  0
LINE
  8
0
 10
75.4821
 20
138.971
 11
77.2722
 21
138.292
  0
LINE
  8
0
 10
77.2722
 20
138.292
 11
78.5418
 21
136.859
  0
LINE
  8
0
 10
78.5418
 20
136.859
 11
79
 21
135
  0
LINE
  8
0
 10
79
 20
135
 11
78.5418
 21
133.141
  0
LINE
  8
0
 10
78.5418
 20
133.141
 11
77.2722
 21
131.708
  0
LINE
  8
0
 10
77.2722
 20
131.708
 11
75.4821
 21
131.029
  0
LINE
  8
0
 10
75.4821
 20
131.029
 11
73.5816
 21
131.26
  0
LINE
  8
0
 10
28.5816
 20
116.26
 11
27.006
 21
117.348
  0
LINE
  8
0
 10
27.006
 20
117.348
 11
26.1162
 21
119.043
  0
LINE
  8
0
 10
26.1162
 20
119.043
 11
26.1162
 21
120.957
  0
LINE
  8
0
 10
26.1162
 20
120.957
 11
27.006
 21
122.652
  0
LINE
  8
0
 10
27.006
 20
122.652
 11
28.5816
 21
123.74
  0
LINE
  8
0
 10
28.5816
 20
123.74
 11
30.4821
 21
123.971
  0
LINE
  8
0
 10
30.4821
 20
123.971
 11
32.2722
 21
123.292
  0
LINE
  8
0
 10
32.2722
 20
123.292
 11
33.5418
 21
121.859
  0
LINE
  8
0
 10
33.5418
 20
121.859
 11
34
 21
120
  0
LINE
  8
0
 10
34
 20
120
 11
33.5418
 21
118.141
  0
LINE
  8
0
 10
33.5418
 20
118.141
 11
32.2722
 21
116.708
  0
LINE
  8
0
 10
32.2722
 20
116.708
 11
30.4821
 21
116.029
  0
LINE
  8
0
 10
30.4821
 20
116.029
 11
28.5816
 21
116.26
  0
LINE
  8
0
 10
70
 20
118
 11
70
 21
122
  0
LINE
  8
0
 10
70
 20
122
 11
80
 21
122
  0
LINE
  8
0
 10
80
 20
122
 11
80
 21
118
  0
LINE
  8
0
 10
80
 20
118
 11
70
 21
118
  0
LINE
  8
0
 10
201.082
 20
108.76
 11
199.506
 21
109.848
  0
LINE
  8
0
 10
199.506
 20
109.848
 11
198.616
 21
111.543
  0
LINE
  8
0
 10
198.616
 20
111.543
 11
198.616
 21
113.457
  0
LINE
  8
0
 10
198.616
 20
113.457
 11
199.506
 21
115.152
  0
LINE
  8
0
 10
199.506
 20
115.152
 11
201.082
 21
116.24
  0
LINE
  8
0
 10
201.082
 20
116.24
 11
202.982
 21
116.471
  0
LINE
  8
0
 10
202.982
 20
116.471
 11
204.772
 21
115.792
  0
LINE
  8
0
 10
204.772
 20
115.792
 11
206.042
 21
114.359
  0
LINE
  8
0
 10
206.042
 20
114.359
 11
206.5
 21
112.5
  0
LINE
  8
0
 10
206.5
 20
112.5
 11
206.042
 21
110.641
  0
LINE
  8
0
 10
206.042
 20
110.641
 11
204.772
 21
109.208
  0
LINE
  8
0
 10
204.772
 20
109.208
 11
202.982
 21
108.529
  0
LINE
  8
0
 10
202.982
 20
108.529
 11
201.082
 21
108.76
  0
LINE
  8
0
 10
126.082
 20
108.76
 11
124.506
 21
109.848
  0
LINE
  8
0
 10
124.506
 20
109.848
 11
123.616
 21
111.543
  0
LINE
  8
0
 10
123.616
 20
111.543
 11
123.616
 21
113.457
  0
LINE
  8
0
 10
123.616
 20
113.457
 11
124.506
 21
115.152
  0
LINE
  8
0
 10
124.506
 20
115.152
 11
126.082
 21
116.24
  0
LINE
  8
0
 10
126.082
 20
116.24
 11
127.982
 21
116.471
  0
LINE
  8
0
 10
127.982
 20
116.471
 11
129.772
 21
115.792
  0
LINE
  8
0
 10
129.772
 20
115.792
 11
131.042
 21
114.359
  0
LINE
  8
0
 10
131.042
 20
114.359
 11
131.5
 21
112.5
  0
LINE
  8
0
 10
131.5
 20
112.5
 11
131.042
 21
110.641
  0
LINE
  8
0
 10
131.042
 20
110.641
 11
129.772
 21
109.208
  0
LINE
  8
0
 10
129.772
 20
109.208
 11
127.982
 21
108.529
  0
LINE
  8
0
 10
127.982
 20
108.529
 11
126.082
 21
108.76
  0
LINE
  8
0
 10
88
 20
100
 11
88
 21
110
  0
LINE
  8
0
 10
88
 20
110
 11
92
 21
110
  0
LINE
  8
0
 10
92
 20
110
 11
92
 21
100
  0
LINE
  8
0
 10
92
 20
100
 11
88
 21
100
  0
LINE
  8
0
 10
58
 20
100
 11
58
 21
110
  0
LINE
  8
0
 10
58
 20
110
 11
62
 21
110
  0
LINE
  8
0
 10
62
 20
110
 11
62
 21
100
  0
LINE
  8
0
 10
62
 20
100
 11
58
 21
100
  0
LINE
  8
0
 10
73.5816
 20
101.26
 11
72.006
 21
102.348
  0
LINE
  8
0
 10
72.006
 20
102.348
 11
71.1162
 21
104.043
  0
LINE
  8
0
 10
71.1162
 20
104.043
 11
71.1162
 21
105.957
  0
LINE
  8
0
 10
71.1162
 20
105.957
 11
72.006
 21
107.652
  0
LINE
  8
0
 10
72.006
 20
107.652
 11
73.5816
 21
108.74
  0
LINE
  8
0
 10
73.5816
 20
108.74
 11
75.4821
 21
108.971
  0
LINE
  8
0
 10
75.4821
 20
108.971
 11
77.2722
 21
108.292
  0
LINE
  8
0
 10
77.2722
 20
108.292
 11
78.5418
 21
106.859
  0
LINE
  8
0
 10
78.5418
 20
106.859
 11
79
 21
105
  0
LINE
  8
0
 10
79
 20
105
 11
78.5418
 21
103.141
  0
LINE
  8
0
 10
78.5418
 20
103.141
 11
77.2722
 21
101.708
  0
LINE
  8
0
 10
77.2722
 20
101.708
 11
75.4821
 21
101.029
  0
LINE
  8
0
 10
75.4821
 20
101.029
 11
73.5816
 21
101.26
  0
LINE
  8
0
 10
70
 20
88
 11
70
 21
92
  0
LINE
  8
0
 10
70
 20
92
 11
80
 21
92
  0
LINE
  8
0
 10
80
 20
92
 11
80
 21
88
  0
LINE
  8
0
 10
80
 20
88
 11
70
 21
88
  0
LINE
  8
0
 10
40
 20
88
 11
40
 21
92
  0
LINE
  8
0
 10
40
 20
92
 11
50
 21
92
  0
LINE
  8
0
 10
50
 20
92
 11
50
 21
88
  0
LINE
  8
0
 10
50
 20
88
 11
40
 21
88
  0
LINE
  8
0
 10
10
 20
88
 11
10
 21
92
  0
LINE
  8
0
 10
10
 20
92
 11
20
 21
92
  0
LINE
  8
0
 10
20
 20
92
 11
20
 21
88
  0
LINE
  8
0
 10
20
 20
88
 11
10
 21
88
  0
LINE
  8
0
 10
88
 20
70
 11
88
 21
80
  0
LINE
  8
0
 10
88
 20
80
 11
92
 21
80
  0
LINE
  8
0
 10
92
 20
80
 11
92
 21
70
  0
LINE
  8
0
 10
92
 20
70
 11
88
 21
70
  0
LINE
  8
0
 10
28.5816
 20
56.2599
 11
27.006
 21
57.3475
  0
LINE
  8
0
 10
27.006
 20
57.3475
 11
26.1162
 21
59.0427
  0
LINE
  8
0
 10
26.1162
 20
59.0427
 11
26.1162
 21
60.9573
  0
LINE
  8
0
 10
26.1162
 20
60.9573
 11
27.006
 21
62.6525
  0
LINE
  8
0
 10
27.006
 20
62.6525
 11
28.5816
 21
63.7401
  0
LINE
  8
0
 10
28.5816
 20
63.7401
 11
30.4821
 21
63.9708
  0
LINE
  8
0
 10
30.4821
 20
63.9708
 11
32.2722
 21
63.2919
  0
LINE
  8
0
 10
32.2722
 20
63.2919
 11
33.5418
 21
61.8589
  0
LINE
  8
0
 10
33.5418
 20
61.8589
 11
34
 21
60
  0
LINE
  8
0
 10
34
 20
60
 11
33.5418
 21
58.1411
  0
LINE
  8
0
 10
33.5418
 20
58.1411
 11
32.2722
 21
56.7081
  0
LINE
  8
0
 10
32.2722
 20
56.7081
 11
30.4821
 21
56.0292
  0
LINE
  8
0
 10
30.4821
 20
56.0292
 11
28.5816
 21
56.2599
  0
LINE
  8
0
 10
88
 20
40
 11
88
 21
50
  0
LINE
  8
0
 10
88
 20
50
 11
92
 21
50
  0
LINE
  8
0
 10
92
 20
50
 11
92
 21
40
  0
LINE
  8
0
 10
92
 20
40
 11
88
 21
40
  0
LINE
  8
0
 10
201.082
 20
33.7599
 11
199.506
 21
34.8475
  0
LINE
  8
0
 10
199.506
 20
34.8475
 11
198.616
 21
36.5427
  0
LINE
  8
0
 10
198.616
 20
36.5427
 11
198.616
 21
38.4573
  0
LINE
  8
0
 10
198.616
 20
38.4573
 11
199.506
 21
40.1525
  0
LINE
  8
0
 10
199.506
 20
40.1525
 11
201.082
 21
41.2401
  0
LINE
  8
0
 10
201.082
 20
41.2401
 11
202.982
 21
41.4708
  0
LINE
  8
0
 10
202.982
 20
41.4708
 11
204.772
 21
40.7919
  0
LINE
  8
0
 10
204.772
 20
40.7919
 11
206.042
 21
39.3589
  0
LINE
  8
0
 10
206.042
 20
39.3589
 11
206.5
 21
37.5
  0
LINE
  8
0
 10
206.5
 20
37.5
 11
206.042
 21
35.6411
  0
LINE
  8
0
 10
206.042
 20
35.6411
 11
204.772
 21
34.2081
  0
LINE
  8
0
 10
204.772
 20
34.2081
 11
202.982
 21
33.5292
  0
LINE
  8
0
 10
202.982
 20
33.5292
 11
201.082
 21
33.7599
  0
LINE
  8
0
 10
126.082
 20
33.7599
 11
124.506
 21
34.8475
  0
LINE
  8
0
 10
124.506
 20
34.8475
 11
123.616
 21
36.5427
  0
LINE
  8
0
 10
123.616
 20
36.5427
 11
123.616
 21
38.4573
  0
LINE
  8
0
 10
123.616
 20
38.4573
 11
124.506
 21
40.1525
  0
LINE
  8
0
 10
124.506
 20
40.1525
 11
126.082
 21
41.2401
  0
LINE
  8
0
 10
126.082
 20
41.2401
 11
127.982
 21
41.4708
  0
LINE
  8
0
 10
127.982
 20
41.4708
 11
129.772
 21
40.7919
  0
LINE
  8
0
 10
129.772
 20
40.7919
 11
131.042
 21
39.3589
  0
LINE
  8
0
 10
131.042
 20
39.3589
 11
131.5
 21
37.5
  0
LINE
  8
0
 10
131.5
 20
37.5
 11
131.042
 21
35.6411
  0
LINE
  8
0
 10
131.042
 20
35.6411
 11
129.772
 21
34.2081
  0
LINE
  8
0
 10
129.772
 20
34.2081
 11
127.982
 21
33.5292
  0
LINE
  8
0
 10
127.982
 20
33.5292
 11
126.082
 21
33.7599
  0
LINE
  8
0
 10
58.5816
 20
26.2599
 11
57.006
 21
27.3475
  0
LINE
  8
0
 10
57.006
 20
27.3475
 11
56.1162
 21
29.0427
  0
LINE
  8
0
 10
56.1162
 20
29.0427
 11
56.1162
 21
30.9573
  0
LINE
  8
0
 10
56.1162
 20
30.9573
 11
57.006
 21
32.6525
  0
LINE
  8
0
 10
57.006
 20
32.6525
 11
58.5816
 21
33.7401
  0
LINE
  8
0
 10
58.5816
 20
33.7401
 11
60.4821
 21
33.9708
  0
LINE
  8
0
 10
60.4821
 20
33.9708
 11
62.2722
 21
33.2919
  0
LINE
  8
0
 10
62.2722
 20
33.2919
 11
63.5418
 21
31.8589
  0
LINE
  8
0
 10
63.5418
 20
31.8589
 11
64
 21
30
  0
LINE
  8
0
 10
64
 20
30
 11
63.5418
 21
28.1411
  0
LINE
  8
0
 10
63.5418
 20
28.1411
 11
62.2722
 21
26.7081
  0
LINE
  8
0
 10
62.2722
 20
26.7081
 11
60.4821
 21
26.0292
  0
LINE
  8
0
 10
60.4821
 20
26.0292
 11
58.5816
 21
26.2599
  0
LINE
  8
0
 10
88
 20
10
 11
88
 21
20
  0
LINE
  8
0
 10
88
 20
20
 11
92
 21
20
  0
LINE
  8
0
 10
92
 20
20
 11
92
 21
10
  0
LINE
  8
0
 10
92
 20
10
 11
88
 21
10
  0
LINE
  8
0
 10
9.19098
 20
9.4122
 11
9.19098
 21
10.5878
  0
LINE
  8
0
 10
9.19098
 20
10.5878
 11
10.309
 21
10.951
  0
LINE
  8
0
 10
10.309
 20
10.951
 11
11
 21
10
  0
LINE
  8
0
 10
11
 20
10
 11
10.309
 21
9.04893
  0
LINE
  8
0
 10
10.309
 20
9.04893
 11
9.19098
 21
9.4122
  0
LINE
  8
0
 10
229.191
 20
9.4122
 11
229.191
 21
10.5878
  0
LINE
  8
0
 10
229.191
 20
10.5878
 11
230.309
 21
10.951
  0
LINE
  8
0
 10
230.309
 20
10.951
 11
231
 21
10
  0
LINE
  8
0
 10
231
 20
10
 11
230.309
 21
9.04893
  0
LINE
  8
0
 10
230.309
 20
9.04893
 11
229.191
 21
9.4122
  0
LINE
  8
0
 10
644
 20
4
 11
664
 21
4
  0
LINE
  8
0
 10
664
 20
4
 11
664
 21
0
  0
LINE
  8
0
 10
664
 20
0
 11
674
 21
0
  0
LINE
  8
0
 10
674
 20
0
 11
674
 21
4
  0
LINE
  8
0
 10
674
 20
4
 11
684
 21
4
  0
LINE
  8
0
 10
684
 20
4
 11
684
 21
146
  0
LINE
  8
0
 10
684
 20
146
 11
674
 21
146
  0
LINE
  8
0
 10
674
 20
146
 11
674
 21
150
  0
LINE
  8
0
 10
674
 20
150
 11
664
 21
150
  0
LINE
  8
0
 10
664
 20
150
 11
664
 21
146
  0
LINE
  8
0
 10
664
 20
146
 11
644
 21
146
  0
LINE
  8
0
 10
644
 20
146
 11
644
 21
150
  0
LINE
  8
0
 10
644
 20
150
 11
634
 21
150
  0
LINE
  8
0
 10
634
 20
150
 11
634
 21
146
  0
LINE
  8
0
 10
634
 20
146
 11
624
 21
146
  0
LINE
  8
0
 10
624
 20
146
 11
624
 21
140
  0
LINE
  8
0
 10
624
 20
140
 11
620
 21
140
  0
LINE
  8
0
 10
620
 20
140
 11
620
 21
130
  0
LINE
  8
0
 10
620
 20
130
 11
624
 21
130
  0
LINE
  8
0
 10
624
 20
130
 11
624
 21
110
  0
LINE
  8
0
 10
624
 20
110
 11
620
 21
110
  0
LINE
  8
0
 10
620
 20
110
 11
620
 21
100
  0
LINE
  8
0
 10
620
 20
100
 11
624
 21
100
  0
LINE
  8
0
 10
624
 20
100
 11
624
 21
80
  0
LINE
  8
0
 10
624
 20
80
 11
620
 21
80
  0
LINE
  8
0
 10
620
 20
80
 11
620
 21
70
  0
LINE
  8
0
 10
620
 20
70
 11
624
 21
70
  0
LINE
  8
0
 10
624
 20
70
 11
624
 21
50
  0
LINE
  8
0
 10
624
 20
50
 11
620
 21
50
  0
LINE
  8
0
 10
620
 20
50
 11
620
 21
40
  0
LINE
  8
0
 10
620
 20
40
 11
624
 21
40
  0
LINE
  8
0
 10
624
 20
40
 11
624
 21
20
  0
LINE
  8
0
 10
624
 20
20
 11
620
 21
20
  0
LINE
  8
0
 10
620
 20
20
 11
620
 21
10
  0
LINE
  8
0
 10
620
 20
10
 11
624
 21
10
  0
LINE
  8
0
 10
624
 20
10
 11
624
 21
4
  0
LINE
  8
0
 10
624
 20
4
 11
634
 21
4
  0
LINE
  8
0
 10
634
 20
4
 11
634
 21
0
  0
LINE
  8
0
 10
634
 20
0
 11
644
 21
0
  0
LINE
  8
0
 10
644
 20
0
 11
644
 21
4
  0
LINE
  8
0
 10
664
 20
118
 11
664
 21
122
  0
LINE
  8
0
 10
664
 20
122
 11
674
 21
122
  0
LINE
  8
0
 10
674
 20
122
 11
674
 21
118
  0
LINE
  8
0
 10
674
 20
118
 11
664
 21
118
  0
LINE
  8
0
 10
634
 20
118
 11
634
 21
122
  0
LINE
  8
0
 10
634
 20
122
 11
644
 21
122
  0
LINE
  8
0
 10
644
 20
122
 11
644
 21
118
  0
LINE
  8
0
 10
644
 20
118
 11
634
 21
118
  0
LINE
  8
0
 10
634
 20
88
 11
634
 21
92
  0
LINE
  8
0
 10
634
 20
92
 11
644
 21
92
  0
LINE
  8
0
 10
644
 20
92
 11
644
 21
88
  0
LINE
  8
0
 10
644
 20
88
 11
634
 21
88
  0
LINE
  8
0
 10
664
 20
88
 11
664
 21
92
  0
LINE
  8
0
 10
664
 20
92
 11
674
 21
92
  0
LINE
  8
0
 10
674
 20
92
 11
674
 21
88
  0
LINE
  8
0
 10
674
 20
88
 11
664
 21
88
  0
LINE
  8
0
 10
486
 20
150
 11
246
 21
150
  0
LINE
  8
0
 10
246
 20
150
 11
246
 21
0
  0
LINE
  8
0
 10
246
 20
0
 11
486
 21
0
  0
LINE
  8
0
 10
486
 20
0
 11
486
 21
150
  0
LINE
  8
0
 10
475.191
 20
139.412
 11
475.191
 21
140.588
  0
LINE
  8
0
 10
475.191
 20
140.588
 11
476.309
 21
140.951
  0
LINE
  8
0
 10
476.309
 20
140.951
 11
477
 21
140
  0
LINE
  8
0
 10
477
 20
140
 11
476.309
 21
139.049
  0
LINE
  8
0
 10
476.309
 20
139.049
 11
475.191
 21
139.412
  0
LINE
  8
0
 10
255.191
 20
139.412
 11
255.191
 21
140.588
  0
LINE
  8
0
 10
255.191
 20
140.588
 11
256.309
 21
140.951
  0
LINE
  8
0
 10
256.309
 20
140.951
 11
257
 21
140
  0
LINE
  8
0
 10
257
 20
140
 11
256.309
 21
139.049
  0
LINE
  8
0
 10
256.309
 20
139.049
 11
255.191
 21
139.412
  0
LINE
  8
0
 10
405.073
 20
105.647
 11
403.573
 21
106.737
  0
LINE
  8
0
 10
403.573
 20
106.737
 11
403
 21
108.5
  0
LINE
  8
0
 10
403
 20
108.5
 11
403.573
 21
110.263
  0
LINE
  8
0
 10
403.573
 20
110.263
 11
405.073
 21
111.353
  0
LINE
  8
0
 10
405.073
 20
111.353
 11
406.927
 21
111.353
  0
LINE
  8
0
 10
406.927
 20
111.353
 11
408.427
 21
110.263
  0
LINE
  8
0
 10
408.427
 20
110.263
 11
409
 21
108.5
  0
LINE
  8
0
 10
409
 20
108.5
 11
408.427
 21
106.737
  0
LINE
  8
0
 10
408.427
 20
106.737
 11
406.927
 21
105.647
  0
LINE
  8
0
 10
406.927
 20
105.647
 11
405.073
 21
105.647
  0
LINE
  8
0
 10
325.073
 20
105.647
 11
323.573
 21
106.737
  0
LINE
  8
0
 10
323.573
 20
106.737
 11
323
 21
108.5
  0
LINE
  8
0
 10
323
 20
108.5
 11
323.573
 21
110.263
  0
LINE
  8
0
 10
323.573
 20
110.263
 11
325.073
 21
111.353
  0
LINE
  8
0
 10
325.073
 20
111.353
 11
326.927
 21
111.353
  0
LINE
  8
0
 10
326.927
 20
111.353
 11
328.427
 21
110.263
  0
LINE
  8
0
 10
328.427
 20
110.263
 11
329
 21
108.5
  0
LINE
  8
0
 10
329
 20
108.5
 11
328.427
 21
106.737
  0
LINE
  8
0
 10
328.427
 20
106.737
 11
326.927
 21
105.647
  0
LINE
  8
0
 10
326.927
 20
105.647
 11
325.073
 21
105.647
  0
LINE
  8
0
 10
345
 20
97.5
 11
345
 21
110.5
  0
LINE
  8
0
 10
345
 20
110.5
 11
400
 21
110.5
  0
LINE
  8
0
 10
400
 20
110.5
 11
400
 21
97.5
  0
LINE
  8
0
 10
400
 20
97.5
 11
345
 21
97.5
  0
LINE
  8
0
 10
405.073
 20
54.6468
 11
403.573
 21
55.7366
  0
LINE
  8
0
 10
403.573
 20
55.7366
 11
403
 21
57.5
  0
LINE
  8
0
 10
403
 20
57.5
 11
403.573
 21
59.2634
  0
LINE
  8
0
 10
403.573
 20
59.2634
 11
405.073
 21
60.3532
  0
LINE
  8
0
 10
405.073
 20
60.3532
 11
406.927
 21
60.3532
  0
LINE
  8
0
 10
406.927
 20
60.3532
 11
408.427
 21
59.2634
  0
LINE
  8
0
 10
408.427
 20
59.2634
 11
409
 21
57.5
  0
LINE
  8
0
 10
409
 20
57.5
 11
408.427
 21
55.7366
  0
LINE
  8
0
 10
408.427
 20
55.7366
 11
406.927
 21
54.6468
  0
LINE
  8
0
 10
406.927
 20
54.6468
 11
405.073
 21
54.6468
  0
LINE
  8
0
 10
325.073
 20
54.6468
 11
323.573
 21
55.7366
  0
LINE
  8
0
 10
323.573
 20
55.7366
 11
323
 21
57.5
  0
LINE
  8
0
 10
323
 20
57.5
 11
323.573
 21
59.2634
  0
LINE
  8
0
 10
323.573
 20
59.2634
 11
325.073
 21
60.3532
  0
LINE
  8
0
 10
325.073
 20
60.3532
 11
326.927
 21
60.3532
  0
LINE
  8
0
 10
326.927
 20
60.3532
 11
328.427
 21
59.2634
  0
LINE
  8
0
 10
328.427
 20
59.2634
 11
329
 21
57.5
  0
LINE
  8
0
 10
329
 20
57.5
 11
328.427
 21
55.7366
  0
LINE
  8
0
 10
328.427
 20
55.7366
 11
326.927
 21
54.6468
  0
LINE
  8
0
 10
326.927
 20
54.6468
 11
325.073
 21
54.6468
  0
LINE
  8
0
 10
280.069
 20
14.0559
 11
278.326
 21
14.9436
  0
LINE
  8
0
 10
278.326
 20
14.9436
 11
276.944
 21
16.3263
  0
LINE
  8
0
 10
276.944
 20
16.3263
 11
276.056
 21
18.0686
  0
LINE
  8
0
 10
276.056
 20
18.0686
 11
275.75
 21
20
  0
LINE
  8
0
 10
275.75
 20
20
 11
276.056
 21
21.9314
  0
LINE
  8
0
 10
276.056
 20
21.9314
 11
276.944
 21
23.6736
  0
LINE
  8
0
 10
276.944
 20
23.6736
 11
278.326
 21
25.0564
  0
LINE
  8
0
 10
278.326
 20
25.0564
 11
280.069
 21
25.9441
  0
LINE
  8
0
 10
280.069
 20
25.9441
 11
282
 21
26.25
  0
LINE
  8
0
 10
282
 20
26.25
 11
283.931
 21
25.9441
  0
LINE
  8
0
 10
283.931
 20
25.9441
 11
285.674
 21
25.0564
  0
LINE
  8
0
 10
285.674
 20
25.0564
 11
287.056
 21
23.6736
  0
LINE
  8
0
 10
287.056
 20
23.6736
 11
287.944
 21
21.9314
  0
LINE
  8
0
 10
287.944
 20
21.9314
 11
288.25
 21
20
  0
LINE
  8
0
 10
288.25
 20
20
 11
287.944
 21
18.0686
  0
LINE
  8
0
 10
287.944
 20
18.0686
 11
287.056
 21
16.3263
  0
LINE
  8
0
 10
287.056
 20
16.3263
 11
285.674
 21
14.9436
  0
LINE
  8
0
 10
285.674
 20
14.9436
 11
283.931
 21
14.0559
  0
LINE
  8
0
 10
283.931
 20
14.0559
 11
282
 21
13.75
  0
LINE
  8
0
 10
282
 20
13.75
 11
280.069
 21
14.0559
  0
LINE
  8
0
 10
475.191
 20
9.4122
 11
475.191
 21
10.5878
  0
LINE
  8
0
 10
475.191
 20
10.5878
 11
476.309
 21
10.951
  0
LINE
  8
0
 10
476.309
 20
10.951
 11
477
 21
10
  0
LINE
  8
0
 10
477
 20
10
 11
476.309
 21
9.04893
  0
LINE
  8
0
 10
476.309
 20
9.04893
 11
475.191
 21
9.4122
  0
LINE
  8
0
 10
255.191
 20
9.4122
 11
255.191
 21
10.5878
  0
LINE
  8
0
 10
255.191
 20
10.5878
 11
256.309
 21
10.951
  0
LINE
  8
0
 10
256.309
 20
10.951
 11
257
 21
10
  0
LINE
  8
0
 10
257
 20
10
 11
256.309
 21
9.04893
  0
LINE
  8
0
 10
256.309
 20
9.04893
 11
255.191
 21
9.4122
  0
LINE
  8
0
 10
512
 20
4
 11
532
 21
4
  0
LINE
  8
0
 10
532
 20
4
 11
532
 21
0
  0
LINE
  8
0
 10
532
 20
0
 11
542
 21
0
  0
LINE
  8
0
 10
542
 20
0
 11
542
 21
4
  0
LINE
  8
0
 10
542
 20
4
 11
552
 21
4
  0
LINE
  8
0
 10
552
 20
4
 11
552
 21
146
  0
LINE
  8
0
 10
552
 20
146
 11
542
 21
146
  0
LINE
  8
0
 10
542
 20
146
 11
542
 21
150
  0
LINE
  8
0
 10
542
 20
150
 11
532
 21
150
  0
LINE
  8
0
 10
532
 20
150
 11
532
 21
146
  0
LINE
  8
0
 10
532
 20
146
 11
512
 21
146
  0
LINE
  8
0
 10
512
 20
146
 11
512
 21
150
  0
LINE
  8
0
 10
512
 20
150
 11
502
 21
150
  0
LINE
  8
0
 10
502
 20
150
 11
502
 21
146
  0
LINE
  8
0
 10
502
 20
146
 11
492
 21
146
  0
LINE
  8
0
 10
492
 20
146
 11
492
 21
140
  0
LINE
  8
0
 10
492
 20
140
 11
488
 21
140
  0
LINE
  8
0
 10
488
 20
140
 11
488
 21
130
  0
LINE
  8
0
 10
488
 20
130
 11
492
 21
130
  0
LINE
  8
0
 10
492
 20
130
 11
492
 21
110
  0
LINE
  8
0
 10
492
 20
110
 11
488
 21
110
  0
LINE
  8
0
 10
488
 20
110
 11
488
 21
100
  0
LINE
  8
0
 10
488
 20
100
 11
492
 21
100
  0
LINE
  8
0
 10
492
 20
100
 11
492
 21
80
  0
LINE
  8
0
 10
492
 20
80
 11
488
 21
80
  0
LINE
  8
0
 10
488
 20
80
 11
488
 21
70
  0
LINE
  8
0
 10
488
 20
70
 11
492
 21
70
  0
LINE
  8
0
 10
492
 20
70
 11
492
 21
50
  0
LINE
  8
0
 10
492
 20
50
 11
488
 21
50
  0
LINE
  8
0
 10
488
 20
50
 11
488
 21
40
  0
LINE
  8
0
 10
488
 20
40
 11
492
 21
40
  0
LINE
  8
0
 10
492
 20
40
 11
492
 21
20
  0
LINE
  8
0
 10
492
 20
20
 11
488
 21
20
  0
LINE
  8
0
 10
488
 20
20
 11
488
 21
10
  0
LINE
  8
0
 10
488
 20
10
 11
492
 21
10
  0
LINE
  8
0
 10
492
 20
10
 11
492
 21
4
  0
LINE
  8
0
 10
492
 20
4
 11
502
 21
4
  0
LINE
  8
0
 10
502
 20
4
 11
502
 21
0
  0
LINE
  8
0
 10
502
 20
0
 11
512
 21
0
  0
LINE
  8
0
 10
512
 20
0
 11
512
 21
4
  0
LINE
  8
0
 10
575
 20
4
 11
595
 21
4
  0
LINE
  8
0
 10
595
 20
4
 11
595
 21
0
  0
LINE
  8
0
 10
595
 20
0
 11
605
 21
0
  0
LINE
  8
0
 10
605
 20
0
 11
605
 21
4
  0
LINE
  8
0
 10
605
 20
4
 11
615
 21
4
  0
LINE
  8
0
 10
615
 20
4
 11
615
 21
10
  0
LINE
  8
0
 10
615
 20
10
 11
619
 21
10
  0
LINE
  8
0
 10
619
 20
10
 11
619
 21
20
  0
LINE
  8
0
 10
619
 20
20
 11
615
 21
20
  0
LINE
  8
0
 10
615
 20
20
 11
615
 21
40
  0
LINE
  8
0
 10
615
 20
40
 11
619
 21
40
  0
LINE
  8
0
 10
619
 20
40
 11
619
 21
50
  0
LINE
  8
0
 10
619
 20
50
 11
615
 21
50
  0
LINE
  8
0
 10
615
 20
50
 11
615
 21
70
  0
LINE
  8
0
 10
615
 20
70
 11
619
 21
70
  0
LINE
  8
0
 10
619
 20
70
 11
619
 21
80
  0
LINE
  8
0
 10
619
 20
80
 11
615
 21
80
  0
LINE
  8
0
 10
615
 20
80
 11
615
 21
100
  0
LINE
  8
0
 10
615
 20
100
 11
619
 21
100
  0
LINE
  8
0
 10
619
 20
100
 11
619
 21
110
  0
LINE
  8
0
 10
619
 20
110
 11
615
 21
110
  0
LINE
  8
0
 10
615
 20
110
 11
615
 21
130
  0
LINE
  8
0
 10
615
 20
130
 11
619
 21
130
  0
LINE
  8
0
 10
619
 20
130
 11
619
 21
140
  0
LINE
  8
0
 10
619
 20
140
 11
615
 21
140
  0
LINE
  8
0
 10
615
 20
140
 11
615
 21
146
  0
LINE
  8
0
 10
615
 20
146
 11
605
 21
146
  0
LINE
  8
0
 10
605
 20
146
 11
605
 21
150
  0
LINE
  8
0
 10
605
 20
150
 11
595
 21
150
  0
LINE
  8
0
 10
595
 20
150
 11
595
 21
146
  0
LINE
  8
0
 10
595
 20
146
 11
575
 21
146
  0
LINE
  8
0
 10
575
 20
146
 11
575
 21
150
  0
LINE
  8
0
 10
575
 20
150
 11
565
 21
150
  0
LINE
  8
0
 10
565
 20
150
 11
565
 21
146
  0
LINE
  8
0
 10
565
 20
146
 11
555
 21
146
  0
LINE
  8
0
 10
555
 20
146
 11
555
 21
4
  0
LINE
  8
0
 10
555
 20
4
 11
565
 21
4
  0
LINE
  8
0
 10
565
 20
4
 11
565
 21
0
  0
LINE
  8
0
 10
565
 20
0
 11
575
 21
0
  0
LINE
  8
0
 10
575
 20
0
 11
575
 21
4
  0
LINE
  8
0
 10
565
 20
88
 11
565
 21
92
  0
LINE
  8
0
 10
565
 20
92
 11
575
 21
92
  0
LINE
  8
0
 10
575
 20
92
 11
575
 21
88
  0
LINE
  8
0
 10
575
 20
88
 11
565
 21
88
  0
LINE
  8
0
 10
595
 20
88
 11
595
 21
92
  0
LINE
  8
0
 10
595
 20
92
 11
605
 21
92
  0
LINE
  8
0
 10
605
 20
92
 11
605
 21
88
  0
LINE
  8
0
 10
605
 20
88
 11
595
 21
88
  0
LINE
  8
0
 10
772.2
 20
72
 11
780.2
 21
72
  0
LINE
  8
0
 10
780.2
 20
72
 11
780.2
 21
82
  0
LINE
  8
0
 10
780.2
 20
82
 11
784.2
 21
82
  0
LINE
  8
0
 10
784.2
 20
82
 11
784.2
 21
92
  0
LINE
  8
0
 10
784.2
 20
92
 11
780.2
 21
92
  0
LINE
  8
0
 10
780.2
 20
92
 11
780.2
 21
112
  0
LINE
  8
0
 10
780.2
 20
112
 11
784.2
 21
112
  0
LINE
  8
0
 10
784.2
 20
112
 11
784.2
 21
122
  0
LINE
  8
0
 10
784.2
 20
122
 11
780.2
 21
122
  0
LINE
  8
0
 10
780.2
 20
122
 11
780.2
 21
132
  0
LINE
  8
0
 10
780.2
 20
132
 11
754.2
 21
132
  0
LINE
  8
0
 10
754.2
 20
132
 11
754.2
 21
122
  0
LINE
  8
0
 10
754.2
 20
122
 11
750.2
 21
122
  0
LINE
  8
0
 10
750.2
 20
122
 11
750.2
 21
112
  0
LINE
  8
0
 10
750.2
 20
112
 11
754.2
 21
112
  0
LINE
  8
0
 10
754.2
 20
112
 11
754.2
 21
92
  0
LINE
  8
0
 10
754.2
 20
92
 11
750.2
 21
92
  0
LINE
  8
0
 10
750.2
 20
92
 11
750.2
 21
82
  0
LINE
  8
0
 10
750.2
 20
82
 11
754.2
 21
82
  0
LINE
  8
0
 10
754.2
 20
82
 11
754.2
 21
72
  0
LINE
  8
0
 10
754.2
 20
72
 11
762.2
 21
72
  0
LINE
  8
0
 10
762.2
 20
72
 11
762.2
 21
68
  0
LINE
  8
0
 10
762.2
 20
68
 11
772.2
 21
68
  0
LINE
  8
0
 10
772.2
 20
68
 11
772.2
 21
72
  0
LINE
  8
0
 10
707
 20
72
 11
727
 21
72
  0
LINE
  8
0
 10
727
 20
72
 11
727
 21
68
  0
LINE
  8
0
 10
727
 20
68
 11
737
 21
68
  0
LINE
  8
0
 10
737
 20
68
 11
737
 21
72
  0
LINE
  8
0
 10
737
 20
72
 11
745
 21
72
  0
LINE
  8
0
 10
745
 20
72
 11
745
 21
82
  0
LINE
  8
0
 10
745
 20
82
 11
749
 21
82
  0
LINE
  8
0
 10
749
 20
82
 11
749
 21
92
  0
LINE
  8
0
 10
749
 20
92
 11
745
 21
92
  0
LINE
  8
0
 10
745
 20
92
 11
745
 21
112
  0
LINE
  8
0
 10
745
 20
112
 11
749
 21
112
  0
LINE
  8
0
 10
749
 20
112
 11
749
 21
122
  0
LINE
  8
0
 10
749
 20
122
 11
745
 21
122
  0
LINE
  8
0
 10
745
 20
122
 11
745
 21
132
  0
LINE
  8
0
 10
745
 20
132
 11
691
 21
132
  0
LINE
  8
0
 10
691
 20
132
 11
691
 21
122
  0
LINE
  8
0
 10
691
 20
122
 11
687
 21
122
  0
LINE
  8
0
 10
687
 20
122
 11
687
 21
112
  0
LINE
  8
0
 10
687
 20
112
 11
691
 21
112
  0
LINE
  8
0
 10
691
 20
112
 11
691
 21
92
  0
LINE
  8
0
 10
691
 20
92
 11
687
 21
92
  0
LINE
  8
0
 10
687
 20
92
 11
687
 21
82
  0
LINE
  8
0
 10
687
 20
82
 11
691
 21
82
  0
LINE
  8
0
 10
691
 20
82
 11
691
 21
72
  0
LINE
  8
0
 10
691
 20
72
 11
697
 21
72
  0
LINE
  8
0
 10
697
 20
72
 11
697
 21
68
  0
LINE
  8
0
 10
697
 20
68
 11
707
 21
68
  0
LINE
  8
0
 10
707
 20
68
 11
707
 21
72
  0
LINE
  8
0
 10
715
 20
112
 11
715
 21
122
  0
LINE
  8
0
 10
715
 20
122
 11
719
 21
122
  0
LINE
  8
0
 10
719
 20
122
 11
719
 21
112
  0
LINE
  8
0
 10
719
 20
112
 11
715
 21
112
  0
LINE
  8
0
 10
715
 20
82
 11
715
 21
92
  0
LINE
  8
0
 10
715
 20
92
 11
719
 21
92
  0
LINE
  8
0
 10
719
 20
92
 11
719
 21
82
  0
LINE
  8
0
 10
719
 20
82
 11
715
 21
82
  0
LINE
  8
0
 10
707
 20
6
 11
727
 21
6
  0
LINE
  8
0
 10
727
 20
6
 11
727
 21
2
  0
LINE
  8
0
 10
727
 20
2
 11
737
 21
2
  0
LINE
  8
0
 10
737
 20
2
 11
737
 21
6
  0
LINE
  8
0
 10
737
 20
6
 11
757
 21
6
  0
LINE
  8
0
 10
757
 20
6
 11
757
 21
2
  0
LINE
  8
0
 10
757
 20
2
 11
767
 21
2
  0
LINE
  8
0
 10
767
 20
2
 11
767
 21
6
  0
LINE
  8
0
 10
767
 20
6
 11
775
 21
6
  0
LINE
  8
0
 10
775
 20
6
 11
775
 21
16
  0
LINE
  8
0
 10
775
 20
16
 11
779
 21
16
  0
LINE
  8
0
 10
779
 20
16
 11
779
 21
26
  0
LINE
  8
0
 10
779
 20
26
 11
775
 21
26
  0
LINE
  8
0
 10
775
 20
26
 11
775
 21
46
  0
LINE
  8
0
 10
775
 20
46
 11
779
 21
46
  0
LINE
  8
0
 10
779
 20
46
 11
779
 21
56
  0
LINE
  8
0
 10
779
 20
56
 11
775
 21
56
  0
LINE
  8
0
 10
775
 20
56
 11
775
 21
66
  0
LINE
  8
0
 10
775
 20
66
 11
691
 21
66
  0
LINE
  8
0
 10
691
 20
66
 11
691
 21
56
  0
LINE
  8
0
 10
691
 20
56
 11
687
 21
56
  0
LINE
  8
0
 10
687
 20
56
 11
687
 21
46
  0
LINE
  8
0
 10
687
 20
46
 11
691
 21
46
  0
LINE
  8
0
 10
691
 20
46
 11
691
 21
26
  0
LINE
  8
0
 10
691
 20
26
 11
687
 21
26
  0
LINE
  8
0
 10
687
 20
26
 11
687
 21
16
  0
LINE
  8
0
 10
687
 20
16
 11
691
 21
16
  0
LINE
  8
0
 10
691
 20
16
 11
691
 21
6
  0
LINE
  8
0
 10
691
 20
6
 11
697
 21
6
  0
LINE
  8
0
 10
697
 20
6
 11
697
 21
2
  0
LINE
  8
0
 10
697
 20
2
 11
707
 21
2
  0
LINE
  8
0
 10
707
 20
2
 11
707
 21
6
  0
LINE
  8
0
 10
745
 20
46
 11
745
 21
56
  0
LINE
  8
0
 10
745
 20
56
 11
749
 21
56
  0
LINE
  8
0
 10
749
 20
56
 11
749
 21
46
  0
LINE
  8
0
 10
749
 20
46
 11
745
 21
46
  0
LINE
  8
0
 10
745
 20
16
 11
745
 21
26
  0
LINE
  8
0
 10
745
 20
26
 11
749
 21
26
  0
LINE
  8
0
 10
749
 20
26
 11
749
 21
16
  0
LINE
  8
0
 10
749
 20
16
 11
745
 21
16
  0
ENDSEC
  0
SECTION
  2
OBJECTS
  0
DICTIONARY
  0
ENDSEC
  0
EOF
